<?xml version="1.0" encoding="utf-8" standalone="no"?>
<!DOCTYPE svg PUBLIC "-//W3C//DTD SVG 1.1//EN"
  "http://www.w3.org/Graphics/SVG/1.1/DTD/svg11.dtd">
<svg xmlns:xlink="http://www.w3.org/1999/xlink" width="720pt" height="720pt" viewBox="0 0 720 720" xmlns="http://www.w3.org/2000/svg" version="1.1">
 <metadata>
  <rdf:RDF xmlns:dc="http://purl.org/dc/elements/1.1/" xmlns:cc="http://creativecommons.org/ns#" xmlns:rdf="http://www.w3.org/1999/02/22-rdf-syntax-ns#">
   <cc:Work>
    <dc:type rdf:resource="http://purl.org/dc/dcmitype/StillImage"/>
    <dc:date>2024-08-30T18:52:43.338615</dc:date>
    <dc:format>image/svg+xml</dc:format>
    <dc:creator>
     <cc:Agent>
      <dc:title>Matplotlib v3.9.2, https://matplotlib.org/</dc:title>
     </cc:Agent>
    </dc:creator>
   </cc:Work>
  </rdf:RDF>
 </metadata>
 <defs>
  <style type="text/css">*{stroke-linejoin: round; stroke-linecap: butt}</style>
 </defs>
 <g id="figure_1">
  <g id="patch_1">
   <path d="M 0 720 
L 720 720 
L 720 0 
L 0 0 
z
" style="fill: #ffffff"/>
  </g>
  <g id="axes_1">
   <g id="patch_2">
    <path d="M 90 338.4 
L 343.636364 338.4 
L 343.636364 86.4 
L 90 86.4 
z
" style="fill: #ffffff"/>
   </g>
   <g id="patch_3">
    <path d="M 132.362099 338.4 
L 165.876417 338.4 
L 165.876417 86.4 
L 132.362099 86.4 
z
" clip-path="url(#pbfc1c30f64)" style="fill: #adadad; opacity: 0.4; stroke: #adadad; stroke-linejoin: miter"/>
   </g>
   <g id="patch_4">
    <path d="M 232.905055 338.4 
L 266.419373 338.4 
L 266.419373 86.4 
L 232.905055 86.4 
z
" clip-path="url(#pbfc1c30f64)" style="fill: #adadad; opacity: 0.4; stroke: #adadad; stroke-linejoin: miter"/>
   </g>
   <g id="matplotlib.axis_1">
    <g id="xtick_1">
     <g id="line2d_1">
      <defs>
       <path id="m7368729d82" d="M 0 0 
L 0 6 
" style="stroke: #000000; stroke-width: 1.25"/>
      </defs>
      <g>
       <use xlink:href="#m7368729d82" x="98.84778" y="338.4" style="stroke: #000000; stroke-width: 1.25"/>
      </g>
     </g>
     <g id="text_1">
      <!-- −1.0 -->
      <g transform="translate(78.81446 360.437422) scale(0.165 -0.165)">
       <defs>
        <path id="DejaVuSans-2212" d="M 678 2272 
L 4684 2272 
L 4684 1741 
L 678 1741 
L 678 2272 
z
" transform="scale(0.015625)"/>
        <path id="DejaVuSans-31" d="M 794 531 
L 1825 531 
L 1825 4091 
L 703 3866 
L 703 4441 
L 1819 4666 
L 2450 4666 
L 2450 531 
L 3481 531 
L 3481 0 
L 794 0 
L 794 531 
z
" transform="scale(0.015625)"/>
        <path id="DejaVuSans-2e" d="M 684 794 
L 1344 794 
L 1344 0 
L 684 0 
L 684 794 
z
" transform="scale(0.015625)"/>
        <path id="DejaVuSans-30" d="M 2034 4250 
Q 1547 4250 1301 3770 
Q 1056 3291 1056 2328 
Q 1056 1369 1301 889 
Q 1547 409 2034 409 
Q 2525 409 2770 889 
Q 3016 1369 3016 2328 
Q 3016 3291 2770 3770 
Q 2525 4250 2034 4250 
z
M 2034 4750 
Q 2819 4750 3233 4129 
Q 3647 3509 3647 2328 
Q 3647 1150 3233 529 
Q 2819 -91 2034 -91 
Q 1250 -91 836 529 
Q 422 1150 422 2328 
Q 422 3509 836 4129 
Q 1250 4750 2034 4750 
z
" transform="scale(0.015625)"/>
       </defs>
       <use xlink:href="#DejaVuSans-2212"/>
       <use xlink:href="#DejaVuSans-31" x="83.789062"/>
       <use xlink:href="#DejaVuSans-2e" x="147.412109"/>
       <use xlink:href="#DejaVuSans-30" x="179.199219"/>
      </g>
     </g>
    </g>
    <g id="xtick_2">
     <g id="line2d_2">
      <g>
       <use xlink:href="#m7368729d82" x="165.876417" y="338.4" style="stroke: #000000; stroke-width: 1.25"/>
      </g>
     </g>
     <g id="text_2">
      <!-- −0.5 -->
      <g transform="translate(145.843097 360.437422) scale(0.165 -0.165)">
       <defs>
        <path id="DejaVuSans-35" d="M 691 4666 
L 3169 4666 
L 3169 4134 
L 1269 4134 
L 1269 2991 
Q 1406 3038 1543 3061 
Q 1681 3084 1819 3084 
Q 2600 3084 3056 2656 
Q 3513 2228 3513 1497 
Q 3513 744 3044 326 
Q 2575 -91 1722 -91 
Q 1428 -91 1123 -41 
Q 819 9 494 109 
L 494 744 
Q 775 591 1075 516 
Q 1375 441 1709 441 
Q 2250 441 2565 725 
Q 2881 1009 2881 1497 
Q 2881 1984 2565 2268 
Q 2250 2553 1709 2553 
Q 1456 2553 1204 2497 
Q 953 2441 691 2322 
L 691 4666 
z
" transform="scale(0.015625)"/>
       </defs>
       <use xlink:href="#DejaVuSans-2212"/>
       <use xlink:href="#DejaVuSans-30" x="83.789062"/>
       <use xlink:href="#DejaVuSans-2e" x="147.412109"/>
       <use xlink:href="#DejaVuSans-35" x="179.199219"/>
      </g>
     </g>
    </g>
    <g id="xtick_3">
     <g id="line2d_3">
      <g>
       <use xlink:href="#m7368729d82" x="232.905055" y="338.4" style="stroke: #000000; stroke-width: 1.25"/>
      </g>
     </g>
     <g id="text_3">
      <!-- 0.0 -->
      <g transform="translate(219.784977 360.437422) scale(0.165 -0.165)">
       <use xlink:href="#DejaVuSans-30"/>
       <use xlink:href="#DejaVuSans-2e" x="63.623047"/>
       <use xlink:href="#DejaVuSans-30" x="95.410156"/>
      </g>
     </g>
    </g>
    <g id="xtick_4">
     <g id="line2d_4">
      <g>
       <use xlink:href="#m7368729d82" x="299.933692" y="338.4" style="stroke: #000000; stroke-width: 1.25"/>
      </g>
     </g>
     <g id="text_4">
      <!-- 0.5 -->
      <g transform="translate(286.813614 360.437422) scale(0.165 -0.165)">
       <use xlink:href="#DejaVuSans-30"/>
       <use xlink:href="#DejaVuSans-2e" x="63.623047"/>
       <use xlink:href="#DejaVuSans-35" x="95.410156"/>
      </g>
     </g>
    </g>
   </g>
   <g id="matplotlib.axis_2">
    <g id="ytick_1">
     <g id="line2d_5">
      <defs>
       <path id="m19b0438afc" d="M 0 0 
L -6 0 
" style="stroke: #000000; stroke-width: 1.25"/>
      </defs>
      <g>
       <use xlink:href="#m19b0438afc" x="90" y="336.996479" style="stroke: #000000; stroke-width: 1.25"/>
      </g>
     </g>
     <g id="text_5">
      <!-- 0 -->
      <g transform="translate(70.001875 343.26519) scale(0.165 -0.165)">
       <use xlink:href="#DejaVuSans-30"/>
      </g>
     </g>
    </g>
    <g id="ytick_2">
     <g id="line2d_6">
      <g>
       <use xlink:href="#m19b0438afc" x="90" y="278.700539" style="stroke: #000000; stroke-width: 1.25"/>
      </g>
     </g>
     <g id="text_6">
      <!-- 5 -->
      <g transform="translate(70.001875 284.96925) scale(0.165 -0.165)">
       <use xlink:href="#DejaVuSans-35"/>
      </g>
     </g>
    </g>
    <g id="ytick_3">
     <g id="line2d_7">
      <g>
       <use xlink:href="#m19b0438afc" x="90" y="220.404599" style="stroke: #000000; stroke-width: 1.25"/>
      </g>
     </g>
     <g id="text_7">
      <!-- 10 -->
      <g transform="translate(59.50375 226.67331) scale(0.165 -0.165)">
       <use xlink:href="#DejaVuSans-31"/>
       <use xlink:href="#DejaVuSans-30" x="63.623047"/>
      </g>
     </g>
    </g>
    <g id="ytick_4">
     <g id="line2d_8">
      <g>
       <use xlink:href="#m19b0438afc" x="90" y="162.10866" style="stroke: #000000; stroke-width: 1.25"/>
      </g>
     </g>
     <g id="text_8">
      <!-- 15 -->
      <g transform="translate(59.50375 168.377371) scale(0.165 -0.165)">
       <use xlink:href="#DejaVuSans-31"/>
       <use xlink:href="#DejaVuSans-35" x="63.623047"/>
      </g>
     </g>
    </g>
    <g id="ytick_5">
     <g id="line2d_9">
      <g>
       <use xlink:href="#m19b0438afc" x="90" y="103.81272" style="stroke: #000000; stroke-width: 1.25"/>
      </g>
     </g>
     <g id="text_9">
      <!-- 20 -->
      <g transform="translate(59.50375 110.081431) scale(0.165 -0.165)">
       <defs>
        <path id="DejaVuSans-32" d="M 1228 531 
L 3431 531 
L 3431 0 
L 469 0 
L 469 531 
Q 828 903 1448 1529 
Q 2069 2156 2228 2338 
Q 2531 2678 2651 2914 
Q 2772 3150 2772 3378 
Q 2772 3750 2511 3984 
Q 2250 4219 1831 4219 
Q 1534 4219 1204 4116 
Q 875 4013 500 3803 
L 500 4441 
Q 881 4594 1212 4672 
Q 1544 4750 1819 4750 
Q 2544 4750 2975 4387 
Q 3406 4025 3406 3419 
Q 3406 3131 3298 2873 
Q 3191 2616 2906 2266 
Q 2828 2175 2409 1742 
Q 1991 1309 1228 531 
z
" transform="scale(0.015625)"/>
       </defs>
       <use xlink:href="#DejaVuSans-32"/>
       <use xlink:href="#DejaVuSans-30" x="63.623047"/>
      </g>
     </g>
    </g>
    <g id="text_10">
     <!-- firing rate (Hz) -->
     <g transform="translate(51.760312 278.202656) rotate(-90) scale(0.18 -0.18)">
      <defs>
       <path id="DejaVuSans-66" d="M 2375 4863 
L 2375 4384 
L 1825 4384 
Q 1516 4384 1395 4259 
Q 1275 4134 1275 3809 
L 1275 3500 
L 2222 3500 
L 2222 3053 
L 1275 3053 
L 1275 0 
L 697 0 
L 697 3053 
L 147 3053 
L 147 3500 
L 697 3500 
L 697 3744 
Q 697 4328 969 4595 
Q 1241 4863 1831 4863 
L 2375 4863 
z
" transform="scale(0.015625)"/>
       <path id="DejaVuSans-69" d="M 603 3500 
L 1178 3500 
L 1178 0 
L 603 0 
L 603 3500 
z
M 603 4863 
L 1178 4863 
L 1178 4134 
L 603 4134 
L 603 4863 
z
" transform="scale(0.015625)"/>
       <path id="DejaVuSans-72" d="M 2631 2963 
Q 2534 3019 2420 3045 
Q 2306 3072 2169 3072 
Q 1681 3072 1420 2755 
Q 1159 2438 1159 1844 
L 1159 0 
L 581 0 
L 581 3500 
L 1159 3500 
L 1159 2956 
Q 1341 3275 1631 3429 
Q 1922 3584 2338 3584 
Q 2397 3584 2469 3576 
Q 2541 3569 2628 3553 
L 2631 2963 
z
" transform="scale(0.015625)"/>
       <path id="DejaVuSans-6e" d="M 3513 2113 
L 3513 0 
L 2938 0 
L 2938 2094 
Q 2938 2591 2744 2837 
Q 2550 3084 2163 3084 
Q 1697 3084 1428 2787 
Q 1159 2491 1159 1978 
L 1159 0 
L 581 0 
L 581 3500 
L 1159 3500 
L 1159 2956 
Q 1366 3272 1645 3428 
Q 1925 3584 2291 3584 
Q 2894 3584 3203 3211 
Q 3513 2838 3513 2113 
z
" transform="scale(0.015625)"/>
       <path id="DejaVuSans-67" d="M 2906 1791 
Q 2906 2416 2648 2759 
Q 2391 3103 1925 3103 
Q 1463 3103 1205 2759 
Q 947 2416 947 1791 
Q 947 1169 1205 825 
Q 1463 481 1925 481 
Q 2391 481 2648 825 
Q 2906 1169 2906 1791 
z
M 3481 434 
Q 3481 -459 3084 -895 
Q 2688 -1331 1869 -1331 
Q 1566 -1331 1297 -1286 
Q 1028 -1241 775 -1147 
L 775 -588 
Q 1028 -725 1275 -790 
Q 1522 -856 1778 -856 
Q 2344 -856 2625 -561 
Q 2906 -266 2906 331 
L 2906 616 
Q 2728 306 2450 153 
Q 2172 0 1784 0 
Q 1141 0 747 490 
Q 353 981 353 1791 
Q 353 2603 747 3093 
Q 1141 3584 1784 3584 
Q 2172 3584 2450 3431 
Q 2728 3278 2906 2969 
L 2906 3500 
L 3481 3500 
L 3481 434 
z
" transform="scale(0.015625)"/>
       <path id="DejaVuSans-20" transform="scale(0.015625)"/>
       <path id="DejaVuSans-61" d="M 2194 1759 
Q 1497 1759 1228 1600 
Q 959 1441 959 1056 
Q 959 750 1161 570 
Q 1363 391 1709 391 
Q 2188 391 2477 730 
Q 2766 1069 2766 1631 
L 2766 1759 
L 2194 1759 
z
M 3341 1997 
L 3341 0 
L 2766 0 
L 2766 531 
Q 2569 213 2275 61 
Q 1981 -91 1556 -91 
Q 1019 -91 701 211 
Q 384 513 384 1019 
Q 384 1609 779 1909 
Q 1175 2209 1959 2209 
L 2766 2209 
L 2766 2266 
Q 2766 2663 2505 2880 
Q 2244 3097 1772 3097 
Q 1472 3097 1187 3025 
Q 903 2953 641 2809 
L 641 3341 
Q 956 3463 1253 3523 
Q 1550 3584 1831 3584 
Q 2591 3584 2966 3190 
Q 3341 2797 3341 1997 
z
" transform="scale(0.015625)"/>
       <path id="DejaVuSans-74" d="M 1172 4494 
L 1172 3500 
L 2356 3500 
L 2356 3053 
L 1172 3053 
L 1172 1153 
Q 1172 725 1289 603 
Q 1406 481 1766 481 
L 2356 481 
L 2356 0 
L 1766 0 
Q 1100 0 847 248 
Q 594 497 594 1153 
L 594 3053 
L 172 3053 
L 172 3500 
L 594 3500 
L 594 4494 
L 1172 4494 
z
" transform="scale(0.015625)"/>
       <path id="DejaVuSans-65" d="M 3597 1894 
L 3597 1613 
L 953 1613 
Q 991 1019 1311 708 
Q 1631 397 2203 397 
Q 2534 397 2845 478 
Q 3156 559 3463 722 
L 3463 178 
Q 3153 47 2828 -22 
Q 2503 -91 2169 -91 
Q 1331 -91 842 396 
Q 353 884 353 1716 
Q 353 2575 817 3079 
Q 1281 3584 2069 3584 
Q 2775 3584 3186 3129 
Q 3597 2675 3597 1894 
z
M 3022 2063 
Q 3016 2534 2758 2815 
Q 2500 3097 2075 3097 
Q 1594 3097 1305 2825 
Q 1016 2553 972 2059 
L 3022 2063 
z
" transform="scale(0.015625)"/>
       <path id="DejaVuSans-28" d="M 1984 4856 
Q 1566 4138 1362 3434 
Q 1159 2731 1159 2009 
Q 1159 1288 1364 580 
Q 1569 -128 1984 -844 
L 1484 -844 
Q 1016 -109 783 600 
Q 550 1309 550 2009 
Q 550 2706 781 3412 
Q 1013 4119 1484 4856 
L 1984 4856 
z
" transform="scale(0.015625)"/>
       <path id="DejaVuSans-48" d="M 628 4666 
L 1259 4666 
L 1259 2753 
L 3553 2753 
L 3553 4666 
L 4184 4666 
L 4184 0 
L 3553 0 
L 3553 2222 
L 1259 2222 
L 1259 0 
L 628 0 
L 628 4666 
z
" transform="scale(0.015625)"/>
       <path id="DejaVuSans-7a" d="M 353 3500 
L 3084 3500 
L 3084 2975 
L 922 459 
L 3084 459 
L 3084 0 
L 275 0 
L 275 525 
L 2438 3041 
L 353 3041 
L 353 3500 
z
" transform="scale(0.015625)"/>
       <path id="DejaVuSans-29" d="M 513 4856 
L 1013 4856 
Q 1481 4119 1714 3412 
Q 1947 2706 1947 2009 
Q 1947 1309 1714 600 
Q 1481 -109 1013 -844 
L 513 -844 
Q 928 -128 1133 580 
Q 1338 1288 1338 2009 
Q 1338 2731 1133 3434 
Q 928 4138 513 4856 
z
" transform="scale(0.015625)"/>
      </defs>
      <use xlink:href="#DejaVuSans-66"/>
      <use xlink:href="#DejaVuSans-69" x="35.205078"/>
      <use xlink:href="#DejaVuSans-72" x="62.988281"/>
      <use xlink:href="#DejaVuSans-69" x="104.101562"/>
      <use xlink:href="#DejaVuSans-6e" x="131.884766"/>
      <use xlink:href="#DejaVuSans-67" x="195.263672"/>
      <use xlink:href="#DejaVuSans-20" x="258.740234"/>
      <use xlink:href="#DejaVuSans-72" x="290.527344"/>
      <use xlink:href="#DejaVuSans-61" x="331.640625"/>
      <use xlink:href="#DejaVuSans-74" x="392.919922"/>
      <use xlink:href="#DejaVuSans-65" x="432.128906"/>
      <use xlink:href="#DejaVuSans-20" x="493.652344"/>
      <use xlink:href="#DejaVuSans-28" x="525.439453"/>
      <use xlink:href="#DejaVuSans-48" x="564.453125"/>
      <use xlink:href="#DejaVuSans-7a" x="639.648438"/>
      <use xlink:href="#DejaVuSans-29" x="692.138672"/>
     </g>
    </g>
   </g>
   <g id="line2d_10">
    <path d="M 101.528926 257.007079 
L 106.891217 283.391017 
L 112.253508 299.723931 
L 117.615799 299.723931 
L 122.97809 306.005821 
L 128.340381 298.04876 
L 133.702672 300.561516 
L 139.064963 233.135897 
L 144.427254 295.954797 
L 149.789544 326.945455 
L 155.151835 326.945455 
L 160.514126 323.595113 
L 165.876417 233.135897 
L 171.238708 213.871434 
L 176.600999 249.468811 
L 181.96329 299.305138 
L 187.325581 307.262199 
L 192.687872 308.099784 
L 198.050163 295.954797 
L 203.412454 275.433956 
L 208.774745 276.271542 
L 214.137036 290.929285 
L 219.499327 293.023248 
L 224.861618 299.723931 
L 230.223909 296.37359 
L 235.5862 294.698419 
L 240.948491 169.479411 
L 246.310782 227.272799 
L 251.673073 235.22986 
L 257.035364 241.930543 
L 262.397655 233.135897 
L 267.759946 190.419044 
L 273.122237 230.204348 
L 278.484528 248.631225 
L 283.846819 292.604456 
L 289.20911 273.758785 
L 294.571401 264.545347 
L 299.933692 269.152066 
L 305.295983 285.903773 
L 310.658274 277.946712 
L 316.020565 269.989651 
L 321.382856 268.314481 
L 326.745147 289.672907 
L 332.107438 312.706504 
" clip-path="url(#pbfc1c30f64)" style="fill: none; stroke: #32cd32; stroke-width: 2; stroke-linecap: square"/>
   </g>
   <g id="line2d_11">
    <path d="M 101.528926 233.135897 
L 106.891217 254.913115 
L 112.253508 271.664822 
L 117.615799 308.518577 
L 122.97809 318.569601 
L 128.340381 306.843406 
L 133.702672 272.9212 
L 139.064963 195.025764 
L 144.427254 281.715846 
L 149.789544 310.193748 
L 155.151835 306.005821 
L 160.514126 295.536004 
L 165.876417 243.605713 
L 171.238708 187.487496 
L 176.600999 263.288969 
L 181.96329 275.433956 
L 187.325581 290.0917 
L 192.687872 278.784298 
L 198.050163 260.35742 
L 203.412454 267.058103 
L 208.774745 285.903773 
L 214.137036 273.758785 
L 219.499327 269.152066 
L 224.861618 285.903773 
L 230.223909 287.578944 
L 235.5862 280.459468 
L 240.948491 157.334423 
L 246.310782 236.486238 
L 251.673073 262.870176 
L 257.035364 265.382932 
L 262.397655 226.435214 
L 267.759946 204.657995 
L 273.122237 217.221775 
L 278.484528 271.664822 
L 283.846819 306.424614 
L 289.20911 317.313223 
L 294.571401 316.475638 
L 299.933692 308.518577 
L 305.295983 282.972224 
L 310.658274 264.964139 
L 316.020565 246.956055 
L 321.382856 270.827237 
L 326.745147 282.553432 
L 332.107438 293.023248 
" clip-path="url(#pbfc1c30f64)" style="fill: none; stroke-dasharray: 7.4,3.2; stroke-dashoffset: 0; stroke: #000000; stroke-width: 2"/>
   </g>
   <g id="patch_5">
    <path d="M 90 338.4 
L 90 86.4 
" style="fill: none; stroke: #000000; stroke-width: 1.25; stroke-linejoin: miter; stroke-linecap: square"/>
   </g>
   <g id="patch_6">
    <path d="M 90 338.4 
L 343.636364 338.4 
" style="fill: none; stroke: #000000; stroke-width: 1.25; stroke-linejoin: miter; stroke-linecap: square"/>
   </g>
   <g id="text_11">
    <!-- F$\rightarrow$F -->
    <g transform="translate(195.398182 80.4) scale(0.18 -0.18)">
     <defs>
      <path id="DejaVuSans-46" d="M 628 4666 
L 3309 4666 
L 3309 4134 
L 1259 4134 
L 1259 2759 
L 3109 2759 
L 3109 2228 
L 1259 2228 
L 1259 0 
L 628 0 
L 628 4666 
z
" transform="scale(0.015625)"/>
      <path id="DejaVuSans-2192" d="M 5050 2147 
L 5050 1866 
L 3822 638 
L 3447 1013 
L 4175 1741 
L 366 1741 
L 366 2272 
L 4175 2272 
L 3447 3000 
L 3822 3375 
L 5050 2147 
z
" transform="scale(0.015625)"/>
     </defs>
     <use xlink:href="#DejaVuSans-46" transform="translate(0 0.09375)"/>
     <use xlink:href="#DejaVuSans-2192" transform="translate(77.001953 0.09375)"/>
     <use xlink:href="#DejaVuSans-46" transform="translate(180.273438 0.09375)"/>
    </g>
   </g>
  </g>
  <g id="axes_2">
   <g id="patch_7">
    <path d="M 394.363636 338.4 
L 648 338.4 
L 648 86.4 
L 394.363636 86.4 
z
" style="fill: #ffffff"/>
   </g>
   <g id="patch_8">
    <path d="M 436.725735 338.4 
L 470.240054 338.4 
L 470.240054 86.4 
L 436.725735 86.4 
z
" clip-path="url(#p9f34f717a2)" style="fill: #adadad; opacity: 0.4; stroke: #adadad; stroke-linejoin: miter"/>
   </g>
   <g id="patch_9">
    <path d="M 537.268691 338.4 
L 570.78301 338.4 
L 570.78301 86.4 
L 537.268691 86.4 
z
" clip-path="url(#p9f34f717a2)" style="fill: #2b2b2b; opacity: 0.4; stroke: #2b2b2b; stroke-linejoin: miter"/>
   </g>
   <g id="matplotlib.axis_3">
    <g id="xtick_5">
     <g id="line2d_12">
      <g>
       <use xlink:href="#m7368729d82" x="403.211416" y="338.4" style="stroke: #000000; stroke-width: 1.25"/>
      </g>
     </g>
     <g id="text_12">
      <!-- −1.0 -->
      <g transform="translate(383.178096 360.437422) scale(0.165 -0.165)">
       <use xlink:href="#DejaVuSans-2212"/>
       <use xlink:href="#DejaVuSans-31" x="83.789062"/>
       <use xlink:href="#DejaVuSans-2e" x="147.412109"/>
       <use xlink:href="#DejaVuSans-30" x="179.199219"/>
      </g>
     </g>
    </g>
    <g id="xtick_6">
     <g id="line2d_13">
      <g>
       <use xlink:href="#m7368729d82" x="470.240054" y="338.4" style="stroke: #000000; stroke-width: 1.25"/>
      </g>
     </g>
     <g id="text_13">
      <!-- −0.5 -->
      <g transform="translate(450.206734 360.437422) scale(0.165 -0.165)">
       <use xlink:href="#DejaVuSans-2212"/>
       <use xlink:href="#DejaVuSans-30" x="83.789062"/>
       <use xlink:href="#DejaVuSans-2e" x="147.412109"/>
       <use xlink:href="#DejaVuSans-35" x="179.199219"/>
      </g>
     </g>
    </g>
    <g id="xtick_7">
     <g id="line2d_14">
      <g>
       <use xlink:href="#m7368729d82" x="537.268691" y="338.4" style="stroke: #000000; stroke-width: 1.25"/>
      </g>
     </g>
     <g id="text_14">
      <!-- 0.0 -->
      <g transform="translate(524.148613 360.437422) scale(0.165 -0.165)">
       <use xlink:href="#DejaVuSans-30"/>
       <use xlink:href="#DejaVuSans-2e" x="63.623047"/>
       <use xlink:href="#DejaVuSans-30" x="95.410156"/>
      </g>
     </g>
    </g>
    <g id="xtick_8">
     <g id="line2d_15">
      <g>
       <use xlink:href="#m7368729d82" x="604.297328" y="338.4" style="stroke: #000000; stroke-width: 1.25"/>
      </g>
     </g>
     <g id="text_15">
      <!-- 0.5 -->
      <g transform="translate(591.17725 360.437422) scale(0.165 -0.165)">
       <use xlink:href="#DejaVuSans-30"/>
       <use xlink:href="#DejaVuSans-2e" x="63.623047"/>
       <use xlink:href="#DejaVuSans-35" x="95.410156"/>
      </g>
     </g>
    </g>
   </g>
   <g id="matplotlib.axis_4">
    <g id="ytick_6">
     <g id="line2d_16">
      <g>
       <use xlink:href="#m19b0438afc" x="394.363636" y="336.996479" style="stroke: #000000; stroke-width: 1.25"/>
      </g>
     </g>
    </g>
    <g id="ytick_7">
     <g id="line2d_17">
      <g>
       <use xlink:href="#m19b0438afc" x="394.363636" y="278.700539" style="stroke: #000000; stroke-width: 1.25"/>
      </g>
     </g>
    </g>
    <g id="ytick_8">
     <g id="line2d_18">
      <g>
       <use xlink:href="#m19b0438afc" x="394.363636" y="220.404599" style="stroke: #000000; stroke-width: 1.25"/>
      </g>
     </g>
    </g>
    <g id="ytick_9">
     <g id="line2d_19">
      <g>
       <use xlink:href="#m19b0438afc" x="394.363636" y="162.10866" style="stroke: #000000; stroke-width: 1.25"/>
      </g>
     </g>
    </g>
    <g id="ytick_10">
     <g id="line2d_20">
      <g>
       <use xlink:href="#m19b0438afc" x="394.363636" y="103.81272" style="stroke: #000000; stroke-width: 1.25"/>
      </g>
     </g>
    </g>
   </g>
   <g id="line2d_21">
    <path d="M 405.892562 276.056486 
L 411.254853 259.214229 
L 416.617144 282.802443 
L 421.979435 303.221416 
L 427.341726 306.164283 
L 432.704017 303.809989 
L 438.066308 293.442041 
L 443.428599 215.931441 
L 448.79089 284.432339 
L 454.153181 314.811786 
L 459.515472 314.223212 
L 464.877763 299.4636 
L 470.240054 243.232195 
L 475.602345 204.295796 
L 480.964636 273.339993 
L 486.326927 314.766511 
L 491.689218 317.483004 
L 497.051509 315.03816 
L 502.4138 291.94797 
L 507.776091 264.828315 
L 513.138382 272.434495 
L 518.500673 298.331728 
L 523.862964 301.59152 
L 529.225255 295.524686 
L 534.587546 288.959828 
L 539.949837 281.580022 
L 545.312128 132.444556 
L 550.674419 97.854545 
L 556.03671 163.005102 
L 561.399001 165.133022 
L 566.761292 161.737406 
L 572.123583 164.182249 
L 577.485874 214.890119 
L 582.848165 269.808552 
L 588.210456 274.109666 
L 593.572746 263.017319 
L 598.935037 272.57032 
L 604.297328 277.188358 
L 609.659619 278.999353 
L 615.02191 289.231477 
L 620.384201 292.219619 
L 625.746492 296.067984 
L 631.108783 294.030614 
L 636.471074 302.315918 
" clip-path="url(#p9f34f717a2)" style="fill: none; stroke: #32cd32; stroke-width: 2; stroke-linecap: square"/>
   </g>
   <g id="line2d_22">
    <path d="M 405.892562 283.763277 
L 411.254853 264.405749 
L 416.617144 269.059001 
L 421.979435 285.066188 
L 427.341726 281.715846 
L 432.704017 273.898383 
L 438.066308 258.635717 
L 443.428599 206.333166 
L 448.79089 249.515343 
L 454.153181 297.723033 
L 459.515472 300.514984 
L 464.877763 295.303342 
L 470.240054 243.000791 
L 475.602345 201.679914 
L 480.964636 266.26705 
L 486.326927 306.098886 
L 491.689218 303.493065 
L 497.051509 288.788789 
L 502.4138 276.690334 
L 507.776091 265.89479 
L 513.138382 245.420481 
L 518.500673 280.040676 
L 523.862964 292.511391 
L 529.225255 294.931082 
L 534.587546 288.602659 
L 539.949837 268.500611 
L 545.312128 115.873949 
L 550.674419 119.22429 
L 556.03671 184.183687 
L 561.399001 178.227524 
L 566.761292 173.574272 
L 572.123583 193.676321 
L 577.485874 215.081279 
L 582.848165 271.664822 
L 588.210456 296.233992 
L 593.572746 286.555228 
L 598.935037 290.27783 
L 604.297328 295.303342 
L 609.659619 289.347179 
L 615.02191 278.737765 
L 620.384201 302.004024 
L 625.746492 296.233992 
L 631.108783 289.90557 
L 636.471074 299.956594 
" clip-path="url(#p9f34f717a2)" style="fill: none; stroke-dasharray: 7.4,3.2; stroke-dashoffset: 0; stroke: #000000; stroke-width: 2"/>
   </g>
   <g id="patch_10">
    <path d="M 394.363636 338.4 
L 394.363636 86.4 
" style="fill: none; stroke: #000000; stroke-width: 1.25; stroke-linejoin: miter; stroke-linecap: square"/>
   </g>
   <g id="patch_11">
    <path d="M 394.363636 338.4 
L 648 338.4 
" style="fill: none; stroke: #000000; stroke-width: 1.25; stroke-linejoin: miter; stroke-linecap: square"/>
   </g>
   <g id="text_16">
    <!-- F$\rightarrow$N -->
    <g transform="translate(498.141818 80.4) scale(0.18 -0.18)">
     <defs>
      <path id="DejaVuSans-4e" d="M 628 4666 
L 1478 4666 
L 3547 763 
L 3547 4666 
L 4159 4666 
L 4159 0 
L 3309 0 
L 1241 3903 
L 1241 0 
L 628 0 
L 628 4666 
z
" transform="scale(0.015625)"/>
     </defs>
     <use xlink:href="#DejaVuSans-46" transform="translate(0 0.09375)"/>
     <use xlink:href="#DejaVuSans-2192" transform="translate(77.001953 0.09375)"/>
     <use xlink:href="#DejaVuSans-4e" transform="translate(180.273438 0.09375)"/>
    </g>
   </g>
   <g id="legend_1">
    <g id="patch_12">
     <path d="M 573.675 131.2275 
L 639.6 131.2275 
Q 642 131.2275 642 128.8275 
L 642 94.8 
Q 642 92.4 639.6 92.4 
L 573.675 92.4 
Q 571.275 92.4 571.275 94.8 
L 571.275 128.8275 
Q 571.275 131.2275 573.675 131.2275 
z
" style="fill: #ffffff; opacity: 0.8; stroke: #cccccc; stroke-linejoin: miter"/>
    </g>
    <g id="line2d_23">
     <path d="M 576.075 102.118125 
L 588.075 102.118125 
L 600.075 102.118125 
" style="fill: none; stroke: #32cd32; stroke-width: 2; stroke-linecap: square"/>
    </g>
    <g id="text_17">
     <!-- hit -->
     <g transform="translate(609.675 106.318125) scale(0.12 -0.12)">
      <defs>
       <path id="DejaVuSans-68" d="M 3513 2113 
L 3513 0 
L 2938 0 
L 2938 2094 
Q 2938 2591 2744 2837 
Q 2550 3084 2163 3084 
Q 1697 3084 1428 2787 
Q 1159 2491 1159 1978 
L 1159 0 
L 581 0 
L 581 4863 
L 1159 4863 
L 1159 2956 
Q 1366 3272 1645 3428 
Q 1925 3584 2291 3584 
Q 2894 3584 3203 3211 
Q 3513 2838 3513 2113 
z
" transform="scale(0.015625)"/>
      </defs>
      <use xlink:href="#DejaVuSans-68"/>
      <use xlink:href="#DejaVuSans-69" x="63.378906"/>
      <use xlink:href="#DejaVuSans-74" x="91.162109"/>
     </g>
    </g>
    <g id="line2d_24">
     <path d="M 576.075 119.731875 
L 588.075 119.731875 
L 600.075 119.731875 
" style="fill: none; stroke-dasharray: 7.4,3.2; stroke-dashoffset: 0; stroke: #000000; stroke-width: 2"/>
    </g>
    <g id="text_18">
     <!-- miss -->
     <g transform="translate(609.675 123.931875) scale(0.12 -0.12)">
      <defs>
       <path id="DejaVuSans-6d" d="M 3328 2828 
Q 3544 3216 3844 3400 
Q 4144 3584 4550 3584 
Q 5097 3584 5394 3201 
Q 5691 2819 5691 2113 
L 5691 0 
L 5113 0 
L 5113 2094 
Q 5113 2597 4934 2840 
Q 4756 3084 4391 3084 
Q 3944 3084 3684 2787 
Q 3425 2491 3425 1978 
L 3425 0 
L 2847 0 
L 2847 2094 
Q 2847 2600 2669 2842 
Q 2491 3084 2119 3084 
Q 1678 3084 1418 2786 
Q 1159 2488 1159 1978 
L 1159 0 
L 581 0 
L 581 3500 
L 1159 3500 
L 1159 2956 
Q 1356 3278 1631 3431 
Q 1906 3584 2284 3584 
Q 2666 3584 2933 3390 
Q 3200 3197 3328 2828 
z
" transform="scale(0.015625)"/>
       <path id="DejaVuSans-73" d="M 2834 3397 
L 2834 2853 
Q 2591 2978 2328 3040 
Q 2066 3103 1784 3103 
Q 1356 3103 1142 2972 
Q 928 2841 928 2578 
Q 928 2378 1081 2264 
Q 1234 2150 1697 2047 
L 1894 2003 
Q 2506 1872 2764 1633 
Q 3022 1394 3022 966 
Q 3022 478 2636 193 
Q 2250 -91 1575 -91 
Q 1294 -91 989 -36 
Q 684 19 347 128 
L 347 722 
Q 666 556 975 473 
Q 1284 391 1588 391 
Q 1994 391 2212 530 
Q 2431 669 2431 922 
Q 2431 1156 2273 1281 
Q 2116 1406 1581 1522 
L 1381 1569 
Q 847 1681 609 1914 
Q 372 2147 372 2553 
Q 372 3047 722 3315 
Q 1072 3584 1716 3584 
Q 2034 3584 2315 3537 
Q 2597 3491 2834 3397 
z
" transform="scale(0.015625)"/>
      </defs>
      <use xlink:href="#DejaVuSans-6d"/>
      <use xlink:href="#DejaVuSans-69" x="97.412109"/>
      <use xlink:href="#DejaVuSans-73" x="125.195312"/>
      <use xlink:href="#DejaVuSans-73" x="177.294922"/>
     </g>
    </g>
   </g>
  </g>
  <g id="axes_3">
   <g id="patch_13">
    <path d="M 90 640.8 
L 343.636364 640.8 
L 343.636364 388.8 
L 90 388.8 
z
" style="fill: #ffffff"/>
   </g>
   <g id="patch_14">
    <path d="M 232.905055 640.8 
L 266.419373 640.8 
L 266.419373 388.8 
L 232.905055 388.8 
z
" clip-path="url(#p5817cc3097)" style="fill: #adadad; opacity: 0.4; stroke: #adadad; stroke-linejoin: miter"/>
   </g>
   <g id="patch_15">
    <path d="M 132.362099 640.8 
L 165.876417 640.8 
L 165.876417 388.8 
L 132.362099 388.8 
z
" clip-path="url(#p5817cc3097)" style="fill: #2b2b2b; opacity: 0.4; stroke: #2b2b2b; stroke-linejoin: miter"/>
   </g>
   <g id="matplotlib.axis_5">
    <g id="xtick_9">
     <g id="line2d_25">
      <g>
       <use xlink:href="#m7368729d82" x="98.84778" y="640.8" style="stroke: #000000; stroke-width: 1.25"/>
      </g>
     </g>
     <g id="text_19">
      <!-- −1.0 -->
      <g transform="translate(78.81446 662.837422) scale(0.165 -0.165)">
       <use xlink:href="#DejaVuSans-2212"/>
       <use xlink:href="#DejaVuSans-31" x="83.789062"/>
       <use xlink:href="#DejaVuSans-2e" x="147.412109"/>
       <use xlink:href="#DejaVuSans-30" x="179.199219"/>
      </g>
     </g>
    </g>
    <g id="xtick_10">
     <g id="line2d_26">
      <g>
       <use xlink:href="#m7368729d82" x="165.876417" y="640.8" style="stroke: #000000; stroke-width: 1.25"/>
      </g>
     </g>
     <g id="text_20">
      <!-- −0.5 -->
      <g transform="translate(145.843097 662.837422) scale(0.165 -0.165)">
       <use xlink:href="#DejaVuSans-2212"/>
       <use xlink:href="#DejaVuSans-30" x="83.789062"/>
       <use xlink:href="#DejaVuSans-2e" x="147.412109"/>
       <use xlink:href="#DejaVuSans-35" x="179.199219"/>
      </g>
     </g>
    </g>
    <g id="xtick_11">
     <g id="line2d_27">
      <g>
       <use xlink:href="#m7368729d82" x="232.905055" y="640.8" style="stroke: #000000; stroke-width: 1.25"/>
      </g>
     </g>
     <g id="text_21">
      <!-- 0.0 -->
      <g transform="translate(219.784977 662.837422) scale(0.165 -0.165)">
       <use xlink:href="#DejaVuSans-30"/>
       <use xlink:href="#DejaVuSans-2e" x="63.623047"/>
       <use xlink:href="#DejaVuSans-30" x="95.410156"/>
      </g>
     </g>
    </g>
    <g id="xtick_12">
     <g id="line2d_28">
      <g>
       <use xlink:href="#m7368729d82" x="299.933692" y="640.8" style="stroke: #000000; stroke-width: 1.25"/>
      </g>
     </g>
     <g id="text_22">
      <!-- 0.5 -->
      <g transform="translate(286.813614 662.837422) scale(0.165 -0.165)">
       <use xlink:href="#DejaVuSans-30"/>
       <use xlink:href="#DejaVuSans-2e" x="63.623047"/>
       <use xlink:href="#DejaVuSans-35" x="95.410156"/>
      </g>
     </g>
    </g>
    <g id="text_23">
     <!-- time (s) -->
     <g transform="translate(181.913651 683.946094) scale(0.18 -0.18)">
      <use xlink:href="#DejaVuSans-74"/>
      <use xlink:href="#DejaVuSans-69" x="39.208984"/>
      <use xlink:href="#DejaVuSans-6d" x="66.992188"/>
      <use xlink:href="#DejaVuSans-65" x="164.404297"/>
      <use xlink:href="#DejaVuSans-20" x="225.927734"/>
      <use xlink:href="#DejaVuSans-28" x="257.714844"/>
      <use xlink:href="#DejaVuSans-73" x="296.728516"/>
      <use xlink:href="#DejaVuSans-29" x="348.828125"/>
     </g>
    </g>
   </g>
   <g id="matplotlib.axis_6">
    <g id="ytick_11">
     <g id="line2d_29">
      <g>
       <use xlink:href="#m19b0438afc" x="90" y="639.396479" style="stroke: #000000; stroke-width: 1.25"/>
      </g>
     </g>
     <g id="text_24">
      <!-- 0 -->
      <g transform="translate(70.001875 645.66519) scale(0.165 -0.165)">
       <use xlink:href="#DejaVuSans-30"/>
      </g>
     </g>
    </g>
    <g id="ytick_12">
     <g id="line2d_30">
      <g>
       <use xlink:href="#m19b0438afc" x="90" y="581.100539" style="stroke: #000000; stroke-width: 1.25"/>
      </g>
     </g>
     <g id="text_25">
      <!-- 5 -->
      <g transform="translate(70.001875 587.36925) scale(0.165 -0.165)">
       <use xlink:href="#DejaVuSans-35"/>
      </g>
     </g>
    </g>
    <g id="ytick_13">
     <g id="line2d_31">
      <g>
       <use xlink:href="#m19b0438afc" x="90" y="522.804599" style="stroke: #000000; stroke-width: 1.25"/>
      </g>
     </g>
     <g id="text_26">
      <!-- 10 -->
      <g transform="translate(59.50375 529.07331) scale(0.165 -0.165)">
       <use xlink:href="#DejaVuSans-31"/>
       <use xlink:href="#DejaVuSans-30" x="63.623047"/>
      </g>
     </g>
    </g>
    <g id="ytick_14">
     <g id="line2d_32">
      <g>
       <use xlink:href="#m19b0438afc" x="90" y="464.50866" style="stroke: #000000; stroke-width: 1.25"/>
      </g>
     </g>
     <g id="text_27">
      <!-- 15 -->
      <g transform="translate(59.50375 470.777371) scale(0.165 -0.165)">
       <use xlink:href="#DejaVuSans-31"/>
       <use xlink:href="#DejaVuSans-35" x="63.623047"/>
      </g>
     </g>
    </g>
    <g id="ytick_15">
     <g id="line2d_33">
      <g>
       <use xlink:href="#m19b0438afc" x="90" y="406.21272" style="stroke: #000000; stroke-width: 1.25"/>
      </g>
     </g>
     <g id="text_28">
      <!-- 20 -->
      <g transform="translate(59.50375 412.481431) scale(0.165 -0.165)">
       <use xlink:href="#DejaVuSans-32"/>
       <use xlink:href="#DejaVuSans-30" x="63.623047"/>
      </g>
     </g>
    </g>
    <g id="text_29">
     <!-- firing rate (Hz) -->
     <g transform="translate(51.760312 580.602656) rotate(-90) scale(0.18 -0.18)">
      <use xlink:href="#DejaVuSans-66"/>
      <use xlink:href="#DejaVuSans-69" x="35.205078"/>
      <use xlink:href="#DejaVuSans-72" x="62.988281"/>
      <use xlink:href="#DejaVuSans-69" x="104.101562"/>
      <use xlink:href="#DejaVuSans-6e" x="131.884766"/>
      <use xlink:href="#DejaVuSans-67" x="195.263672"/>
      <use xlink:href="#DejaVuSans-20" x="258.740234"/>
      <use xlink:href="#DejaVuSans-72" x="290.527344"/>
      <use xlink:href="#DejaVuSans-61" x="331.640625"/>
      <use xlink:href="#DejaVuSans-74" x="392.919922"/>
      <use xlink:href="#DejaVuSans-65" x="432.128906"/>
      <use xlink:href="#DejaVuSans-20" x="493.652344"/>
      <use xlink:href="#DejaVuSans-28" x="525.439453"/>
      <use xlink:href="#DejaVuSans-48" x="564.453125"/>
      <use xlink:href="#DejaVuSans-7a" x="639.648438"/>
      <use xlink:href="#DejaVuSans-29" x="692.138672"/>
     </g>
    </g>
   </g>
   <g id="line2d_34">
    <path d="M 101.528926 569.03931 
L 106.891217 567.364139 
L 112.253508 593.84779 
L 117.615799 618.49673 
L 122.97809 625.356953 
L 128.340381 617.7788 
L 133.702672 603.579734 
L 139.064963 525.325332 
L 144.427254 549.814732 
L 149.789544 575.022063 
L 155.151835 586.429177 
L 160.514126 567.523679 
L 165.876417 528.914984 
L 171.238708 525.245562 
L 176.600999 583.956306 
L 181.96329 625.197413 
L 187.325581 627.032124 
L 192.687872 621.847072 
L 198.050163 602.542724 
L 203.412454 563.614948 
L 208.774745 569.03931 
L 214.137036 601.027093 
L 219.499327 611.636507 
L 224.861618 612.354438 
L 230.223909 604.696515 
L 235.5862 587.466188 
L 240.948491 469.72562 
L 246.310782 530.590155 
L 251.673073 536.174057 
L 257.035364 544.23083 
L 262.397655 520.6189 
L 267.759946 508.812936 
L 273.122237 533.780956 
L 278.484528 584.434926 
L 283.846819 598.554222 
L 289.20911 588.503198 
L 294.571401 566.805749 
L 299.933692 567.284369 
L 305.295983 577.654474 
L 310.658274 571.113331 
L 316.020565 576.617463 
L 321.382856 589.460438 
L 326.745147 597.676752 
L 332.107438 608.206396 
" clip-path="url(#p5817cc3097)" style="fill: none; stroke: #32cd32; stroke-width: 2; stroke-linecap: square"/>
   </g>
   <g id="line2d_35">
    <path d="M 101.528926 578.889314 
L 106.891217 581.636594 
L 112.253508 594.635918 
L 117.615799 592.156665 
L 122.97809 594.635918 
L 128.340381 598.924355 
L 133.702672 600.93456 
L 139.064963 505.650852 
L 144.427254 514.76378 
L 149.789544 563.34373 
L 155.151835 572.255638 
L 160.514126 560.060395 
L 165.876417 561.199511 
L 171.238708 518.047115 
L 176.600999 583.914826 
L 181.96329 617.284226 
L 187.325581 613.799871 
L 192.687872 612.861775 
L 198.050163 591.352584 
L 203.412454 568.570262 
L 208.774745 562.941689 
L 214.137036 603.748847 
L 219.499327 613.799871 
L 224.861618 611.387625 
L 230.223909 598.321294 
L 235.5862 579.961423 
L 240.948491 480.188257 
L 246.310782 557.581143 
L 251.673073 596.512109 
L 257.035364 605.625038 
L 262.397655 578.353259 
L 267.759946 575.404959 
L 273.122237 508.063097 
L 278.484528 596.311089 
L 283.846819 625.325045 
L 289.20911 625.057018 
L 294.571401 615.810075 
L 299.933692 578.286252 
L 305.295983 549.40631 
L 310.658274 574.600877 
L 316.020565 610.583543 
L 321.382856 621.706676 
L 326.745147 617.82028 
L 332.107438 620.299533 
" clip-path="url(#p5817cc3097)" style="fill: none; stroke-dasharray: 7.4,3.2; stroke-dashoffset: 0; stroke: #000000; stroke-width: 2"/>
   </g>
   <g id="patch_16">
    <path d="M 90 640.8 
L 90 388.8 
" style="fill: none; stroke: #000000; stroke-width: 1.25; stroke-linejoin: miter; stroke-linecap: square"/>
   </g>
   <g id="patch_17">
    <path d="M 90 640.8 
L 343.636364 640.8 
" style="fill: none; stroke: #000000; stroke-width: 1.25; stroke-linejoin: miter; stroke-linecap: square"/>
   </g>
   <g id="text_30">
    <!-- N$\rightarrow$F -->
    <g transform="translate(193.778182 382.8) scale(0.18 -0.18)">
     <use xlink:href="#DejaVuSans-4e" transform="translate(0 0.09375)"/>
     <use xlink:href="#DejaVuSans-2192" transform="translate(94.287109 0.09375)"/>
     <use xlink:href="#DejaVuSans-46" transform="translate(197.558594 0.09375)"/>
    </g>
   </g>
  </g>
  <g id="axes_4">
   <g id="patch_18">
    <path d="M 394.363636 640.8 
L 648 640.8 
L 648 388.8 
L 394.363636 388.8 
z
" style="fill: #ffffff"/>
   </g>
   <g id="patch_19">
    <path d="M 436.725735 640.8 
L 470.240054 640.8 
L 470.240054 388.8 
L 436.725735 388.8 
z
" clip-path="url(#p4c21b3440c)" style="fill: #2b2b2b; opacity: 0.4; stroke: #2b2b2b; stroke-linejoin: miter"/>
   </g>
   <g id="patch_20">
    <path d="M 537.268691 640.8 
L 570.78301 640.8 
L 570.78301 388.8 
L 537.268691 388.8 
z
" clip-path="url(#p4c21b3440c)" style="fill: #2b2b2b; opacity: 0.4; stroke: #2b2b2b; stroke-linejoin: miter"/>
   </g>
   <g id="matplotlib.axis_7">
    <g id="xtick_13">
     <g id="line2d_36">
      <g>
       <use xlink:href="#m7368729d82" x="403.211416" y="640.8" style="stroke: #000000; stroke-width: 1.25"/>
      </g>
     </g>
     <g id="text_31">
      <!-- −1.0 -->
      <g transform="translate(383.178096 662.837422) scale(0.165 -0.165)">
       <use xlink:href="#DejaVuSans-2212"/>
       <use xlink:href="#DejaVuSans-31" x="83.789062"/>
       <use xlink:href="#DejaVuSans-2e" x="147.412109"/>
       <use xlink:href="#DejaVuSans-30" x="179.199219"/>
      </g>
     </g>
    </g>
    <g id="xtick_14">
     <g id="line2d_37">
      <g>
       <use xlink:href="#m7368729d82" x="470.240054" y="640.8" style="stroke: #000000; stroke-width: 1.25"/>
      </g>
     </g>
     <g id="text_32">
      <!-- −0.5 -->
      <g transform="translate(450.206734 662.837422) scale(0.165 -0.165)">
       <use xlink:href="#DejaVuSans-2212"/>
       <use xlink:href="#DejaVuSans-30" x="83.789062"/>
       <use xlink:href="#DejaVuSans-2e" x="147.412109"/>
       <use xlink:href="#DejaVuSans-35" x="179.199219"/>
      </g>
     </g>
    </g>
    <g id="xtick_15">
     <g id="line2d_38">
      <g>
       <use xlink:href="#m7368729d82" x="537.268691" y="640.8" style="stroke: #000000; stroke-width: 1.25"/>
      </g>
     </g>
     <g id="text_33">
      <!-- 0.0 -->
      <g transform="translate(524.148613 662.837422) scale(0.165 -0.165)">
       <use xlink:href="#DejaVuSans-30"/>
       <use xlink:href="#DejaVuSans-2e" x="63.623047"/>
       <use xlink:href="#DejaVuSans-30" x="95.410156"/>
      </g>
     </g>
    </g>
    <g id="xtick_16">
     <g id="line2d_39">
      <g>
       <use xlink:href="#m7368729d82" x="604.297328" y="640.8" style="stroke: #000000; stroke-width: 1.25"/>
      </g>
     </g>
     <g id="text_34">
      <!-- 0.5 -->
      <g transform="translate(591.17725 662.837422) scale(0.165 -0.165)">
       <use xlink:href="#DejaVuSans-30"/>
       <use xlink:href="#DejaVuSans-2e" x="63.623047"/>
       <use xlink:href="#DejaVuSans-35" x="95.410156"/>
      </g>
     </g>
    </g>
    <g id="text_35">
     <!-- time (s) -->
     <g transform="translate(486.277287 683.946094) scale(0.18 -0.18)">
      <use xlink:href="#DejaVuSans-74"/>
      <use xlink:href="#DejaVuSans-69" x="39.208984"/>
      <use xlink:href="#DejaVuSans-6d" x="66.992188"/>
      <use xlink:href="#DejaVuSans-65" x="164.404297"/>
      <use xlink:href="#DejaVuSans-20" x="225.927734"/>
      <use xlink:href="#DejaVuSans-28" x="257.714844"/>
      <use xlink:href="#DejaVuSans-73" x="296.728516"/>
      <use xlink:href="#DejaVuSans-29" x="348.828125"/>
     </g>
    </g>
   </g>
   <g id="matplotlib.axis_8">
    <g id="ytick_16">
     <g id="line2d_40">
      <g>
       <use xlink:href="#m19b0438afc" x="394.363636" y="639.396479" style="stroke: #000000; stroke-width: 1.25"/>
      </g>
     </g>
    </g>
    <g id="ytick_17">
     <g id="line2d_41">
      <g>
       <use xlink:href="#m19b0438afc" x="394.363636" y="581.100539" style="stroke: #000000; stroke-width: 1.25"/>
      </g>
     </g>
    </g>
    <g id="ytick_18">
     <g id="line2d_42">
      <g>
       <use xlink:href="#m19b0438afc" x="394.363636" y="522.804599" style="stroke: #000000; stroke-width: 1.25"/>
      </g>
     </g>
    </g>
    <g id="ytick_19">
     <g id="line2d_43">
      <g>
       <use xlink:href="#m19b0438afc" x="394.363636" y="464.50866" style="stroke: #000000; stroke-width: 1.25"/>
      </g>
     </g>
    </g>
    <g id="ytick_20">
     <g id="line2d_44">
      <g>
       <use xlink:href="#m19b0438afc" x="394.363636" y="406.21272" style="stroke: #000000; stroke-width: 1.25"/>
      </g>
     </g>
    </g>
   </g>
   <g id="line2d_45">
    <path d="M 405.892562 576.457923 
L 411.254853 569.922917 
L 416.617144 590.466768 
L 421.979435 607.200066 
L 427.341726 611.636507 
L 432.704017 605.175135 
L 438.066308 597.995832 
L 443.428599 518.268753 
L 448.79089 530.491976 
L 454.153181 563.479952 
L 459.515472 572.426468 
L 464.877763 561.933641 
L 470.240054 543.727665 
L 475.602345 521.471826 
L 480.964636 579.881898 
L 486.326927 618.466049 
L 491.689218 619.110346 
L 497.051509 616.809287 
L 502.4138 604.51243 
L 507.776091 574.396175 
L 513.138382 567.750717 
L 518.500673 600.444158 
L 523.862964 608.930462 
L 529.225255 608.654335 
L 534.587546 606.058741 
L 539.949837 590.742895 
L 545.312128 442.591537 
L 550.674419 412.751408 
L 556.03671 463.5956 
L 561.399001 464.994643 
L 566.761292 472.026678 
L 572.123583 469.35745 
L 577.485874 517.69809 
L 582.848165 577.893784 
L 588.210456 583.747677 
L 593.572746 567.732309 
L 598.935037 574.248907 
L 604.297328 581.483435 
L 609.659619 580.452561 
L 615.02191 587.116427 
L 620.384201 593.982786 
L 625.746492 594.663899 
L 631.108783 597.461986 
L 636.471074 610.40314 
" clip-path="url(#p4c21b3440c)" style="fill: none; stroke: #32cd32; stroke-width: 2; stroke-linecap: square"/>
   </g>
   <g id="line2d_46">
    <path d="M 405.892562 579.509127 
L 411.254853 564.600108 
L 416.617144 597.684729 
L 421.979435 609.829716 
L 427.341726 612.677506 
L 432.704017 603.129033 
L 438.066308 604.385411 
L 443.428599 518.700431 
L 448.79089 540.058857 
L 454.153181 584.953432 
L 459.515472 603.129033 
L 464.877763 592.072907 
L 470.240054 564.013798 
L 475.602345 504.880273 
L 480.964636 587.633705 
L 486.326927 623.147323 
L 491.689218 621.974704 
L 497.051509 622.225979 
L 502.4138 585.539741 
L 507.776091 557.648149 
L 513.138382 590.984046 
L 518.500673 612.677506 
L 523.862964 615.609055 
L 529.225255 608.992131 
L 534.587546 606.479375 
L 539.949837 605.558031 
L 545.312128 453.955084 
L 550.674419 426.063493 
L 556.03671 504.796515 
L 561.399001 519.956809 
L 566.761292 491.730183 
L 572.123583 508.314373 
L 577.485874 531.431728 
L 582.848165 587.466188 
L 588.210456 609.410923 
L 593.572746 607.987028 
L 598.935037 607.987028 
L 604.297328 603.29655 
L 609.659619 590.816529 
L 615.02191 582.105641 
L 620.384201 596.093317 
L 625.746492 605.474272 
L 631.108783 604.887963 
L 636.471074 613.263816 
" clip-path="url(#p4c21b3440c)" style="fill: none; stroke-dasharray: 7.4,3.2; stroke-dashoffset: 0; stroke: #000000; stroke-width: 2"/>
   </g>
   <g id="patch_21">
    <path d="M 394.363636 640.8 
L 394.363636 388.8 
" style="fill: none; stroke: #000000; stroke-width: 1.25; stroke-linejoin: miter; stroke-linecap: square"/>
   </g>
   <g id="patch_22">
    <path d="M 394.363636 640.8 
L 648 640.8 
" style="fill: none; stroke: #000000; stroke-width: 1.25; stroke-linejoin: miter; stroke-linecap: square"/>
   </g>
   <g id="text_36">
    <!-- N$\rightarrow$N -->
    <g transform="translate(496.611818 382.8) scale(0.18 -0.18)">
     <use xlink:href="#DejaVuSans-4e" transform="translate(0 0.09375)"/>
     <use xlink:href="#DejaVuSans-2192" transform="translate(94.287109 0.09375)"/>
     <use xlink:href="#DejaVuSans-4e" transform="translate(197.558594 0.09375)"/>
    </g>
   </g>
  </g>
 </g>
 <defs>
  <clipPath id="pbfc1c30f64">
   <rect x="90" y="86.4" width="253.636364" height="252"/>
  </clipPath>
  <clipPath id="p9f34f717a2">
   <rect x="394.363636" y="86.4" width="253.636364" height="252"/>
  </clipPath>
  <clipPath id="p5817cc3097">
   <rect x="90" y="388.8" width="253.636364" height="252"/>
  </clipPath>
  <clipPath id="p4c21b3440c">
   <rect x="394.363636" y="388.8" width="253.636364" height="252"/>
  </clipPath>
 </defs>
</svg>
