<?xml version="1.0" encoding="utf-8" standalone="no"?>
<!DOCTYPE svg PUBLIC "-//W3C//DTD SVG 1.1//EN"
  "http://www.w3.org/Graphics/SVG/1.1/DTD/svg11.dtd">
<svg xmlns:xlink="http://www.w3.org/1999/xlink" width="720pt" height="720pt" viewBox="0 0 720 720" xmlns="http://www.w3.org/2000/svg" version="1.1">
 <metadata>
  <rdf:RDF xmlns:dc="http://purl.org/dc/elements/1.1/" xmlns:cc="http://creativecommons.org/ns#" xmlns:rdf="http://www.w3.org/1999/02/22-rdf-syntax-ns#">
   <cc:Work>
    <dc:type rdf:resource="http://purl.org/dc/dcmitype/StillImage"/>
    <dc:date>2024-08-30T19:09:31.504068</dc:date>
    <dc:format>image/svg+xml</dc:format>
    <dc:creator>
     <cc:Agent>
      <dc:title>Matplotlib v3.9.2, https://matplotlib.org/</dc:title>
     </cc:Agent>
    </dc:creator>
   </cc:Work>
  </rdf:RDF>
 </metadata>
 <defs>
  <style type="text/css">*{stroke-linejoin: round; stroke-linecap: butt}</style>
 </defs>
 <g id="figure_1">
  <g id="patch_1">
   <path d="M 0 720 
L 720 720 
L 720 0 
L 0 0 
z
" style="fill: #ffffff"/>
  </g>
  <g id="axes_1">
   <g id="patch_2">
    <path d="M 90 338.4 
L 343.636364 338.4 
L 343.636364 86.4 
L 90 86.4 
z
" style="fill: #ffffff"/>
   </g>
   <g id="patch_3">
    <path d="M 132.362099 338.4 
L 165.876417 338.4 
L 165.876417 86.4 
L 132.362099 86.4 
z
" clip-path="url(#pabfab1dcee)" style="fill: #adadad; opacity: 0.4; stroke: #adadad; stroke-linejoin: miter"/>
   </g>
   <g id="patch_4">
    <path d="M 232.905055 338.4 
L 266.419373 338.4 
L 266.419373 86.4 
L 232.905055 86.4 
z
" clip-path="url(#pabfab1dcee)" style="fill: #adadad; opacity: 0.4; stroke: #adadad; stroke-linejoin: miter"/>
   </g>
   <g id="matplotlib.axis_1">
    <g id="xtick_1">
     <g id="line2d_1">
      <defs>
       <path id="m8cb68467f5" d="M 0 0 
L 0 6 
" style="stroke: #000000; stroke-width: 1.25"/>
      </defs>
      <g>
       <use xlink:href="#m8cb68467f5" x="98.84778" y="338.4" style="stroke: #000000; stroke-width: 1.25"/>
      </g>
     </g>
     <g id="text_1">
      <!-- −1.0 -->
      <g transform="translate(78.81446 360.437422) scale(0.165 -0.165)">
       <defs>
        <path id="DejaVuSans-2212" d="M 678 2272 
L 4684 2272 
L 4684 1741 
L 678 1741 
L 678 2272 
z
" transform="scale(0.015625)"/>
        <path id="DejaVuSans-31" d="M 794 531 
L 1825 531 
L 1825 4091 
L 703 3866 
L 703 4441 
L 1819 4666 
L 2450 4666 
L 2450 531 
L 3481 531 
L 3481 0 
L 794 0 
L 794 531 
z
" transform="scale(0.015625)"/>
        <path id="DejaVuSans-2e" d="M 684 794 
L 1344 794 
L 1344 0 
L 684 0 
L 684 794 
z
" transform="scale(0.015625)"/>
        <path id="DejaVuSans-30" d="M 2034 4250 
Q 1547 4250 1301 3770 
Q 1056 3291 1056 2328 
Q 1056 1369 1301 889 
Q 1547 409 2034 409 
Q 2525 409 2770 889 
Q 3016 1369 3016 2328 
Q 3016 3291 2770 3770 
Q 2525 4250 2034 4250 
z
M 2034 4750 
Q 2819 4750 3233 4129 
Q 3647 3509 3647 2328 
Q 3647 1150 3233 529 
Q 2819 -91 2034 -91 
Q 1250 -91 836 529 
Q 422 1150 422 2328 
Q 422 3509 836 4129 
Q 1250 4750 2034 4750 
z
" transform="scale(0.015625)"/>
       </defs>
       <use xlink:href="#DejaVuSans-2212"/>
       <use xlink:href="#DejaVuSans-31" x="83.789062"/>
       <use xlink:href="#DejaVuSans-2e" x="147.412109"/>
       <use xlink:href="#DejaVuSans-30" x="179.199219"/>
      </g>
     </g>
    </g>
    <g id="xtick_2">
     <g id="line2d_2">
      <g>
       <use xlink:href="#m8cb68467f5" x="165.876417" y="338.4" style="stroke: #000000; stroke-width: 1.25"/>
      </g>
     </g>
     <g id="text_2">
      <!-- −0.5 -->
      <g transform="translate(145.843097 360.437422) scale(0.165 -0.165)">
       <defs>
        <path id="DejaVuSans-35" d="M 691 4666 
L 3169 4666 
L 3169 4134 
L 1269 4134 
L 1269 2991 
Q 1406 3038 1543 3061 
Q 1681 3084 1819 3084 
Q 2600 3084 3056 2656 
Q 3513 2228 3513 1497 
Q 3513 744 3044 326 
Q 2575 -91 1722 -91 
Q 1428 -91 1123 -41 
Q 819 9 494 109 
L 494 744 
Q 775 591 1075 516 
Q 1375 441 1709 441 
Q 2250 441 2565 725 
Q 2881 1009 2881 1497 
Q 2881 1984 2565 2268 
Q 2250 2553 1709 2553 
Q 1456 2553 1204 2497 
Q 953 2441 691 2322 
L 691 4666 
z
" transform="scale(0.015625)"/>
       </defs>
       <use xlink:href="#DejaVuSans-2212"/>
       <use xlink:href="#DejaVuSans-30" x="83.789062"/>
       <use xlink:href="#DejaVuSans-2e" x="147.412109"/>
       <use xlink:href="#DejaVuSans-35" x="179.199219"/>
      </g>
     </g>
    </g>
    <g id="xtick_3">
     <g id="line2d_3">
      <g>
       <use xlink:href="#m8cb68467f5" x="232.905055" y="338.4" style="stroke: #000000; stroke-width: 1.25"/>
      </g>
     </g>
     <g id="text_3">
      <!-- 0.0 -->
      <g transform="translate(219.784977 360.437422) scale(0.165 -0.165)">
       <use xlink:href="#DejaVuSans-30"/>
       <use xlink:href="#DejaVuSans-2e" x="63.623047"/>
       <use xlink:href="#DejaVuSans-30" x="95.410156"/>
      </g>
     </g>
    </g>
    <g id="xtick_4">
     <g id="line2d_4">
      <g>
       <use xlink:href="#m8cb68467f5" x="299.933692" y="338.4" style="stroke: #000000; stroke-width: 1.25"/>
      </g>
     </g>
     <g id="text_4">
      <!-- 0.5 -->
      <g transform="translate(286.813614 360.437422) scale(0.165 -0.165)">
       <use xlink:href="#DejaVuSans-30"/>
       <use xlink:href="#DejaVuSans-2e" x="63.623047"/>
       <use xlink:href="#DejaVuSans-35" x="95.410156"/>
      </g>
     </g>
    </g>
   </g>
   <g id="matplotlib.axis_2">
    <g id="ytick_1">
     <g id="line2d_5">
      <defs>
       <path id="m8ceb5606b1" d="M 0 0 
L -6 0 
" style="stroke: #000000; stroke-width: 1.25"/>
      </defs>
      <g>
       <use xlink:href="#m8ceb5606b1" x="90" y="306.691415" style="stroke: #000000; stroke-width: 1.25"/>
      </g>
     </g>
     <g id="text_5">
      <!-- 2.5 -->
      <g transform="translate(54.259844 312.960125) scale(0.165 -0.165)">
       <defs>
        <path id="DejaVuSans-32" d="M 1228 531 
L 3431 531 
L 3431 0 
L 469 0 
L 469 531 
Q 828 903 1448 1529 
Q 2069 2156 2228 2338 
Q 2531 2678 2651 2914 
Q 2772 3150 2772 3378 
Q 2772 3750 2511 3984 
Q 2250 4219 1831 4219 
Q 1534 4219 1204 4116 
Q 875 4013 500 3803 
L 500 4441 
Q 881 4594 1212 4672 
Q 1544 4750 1819 4750 
Q 2544 4750 2975 4387 
Q 3406 4025 3406 3419 
Q 3406 3131 3298 2873 
Q 3191 2616 2906 2266 
Q 2828 2175 2409 1742 
Q 1991 1309 1228 531 
z
" transform="scale(0.015625)"/>
       </defs>
       <use xlink:href="#DejaVuSans-32"/>
       <use xlink:href="#DejaVuSans-2e" x="63.623047"/>
       <use xlink:href="#DejaVuSans-35" x="95.410156"/>
      </g>
     </g>
    </g>
    <g id="ytick_2">
     <g id="line2d_6">
      <g>
       <use xlink:href="#m8ceb5606b1" x="90" y="269.199894" style="stroke: #000000; stroke-width: 1.25"/>
      </g>
     </g>
     <g id="text_6">
      <!-- 5.0 -->
      <g transform="translate(54.259844 275.468605) scale(0.165 -0.165)">
       <use xlink:href="#DejaVuSans-35"/>
       <use xlink:href="#DejaVuSans-2e" x="63.623047"/>
       <use xlink:href="#DejaVuSans-30" x="95.410156"/>
      </g>
     </g>
    </g>
    <g id="ytick_3">
     <g id="line2d_7">
      <g>
       <use xlink:href="#m8ceb5606b1" x="90" y="231.708373" style="stroke: #000000; stroke-width: 1.25"/>
      </g>
     </g>
     <g id="text_7">
      <!-- 7.5 -->
      <g transform="translate(54.259844 237.977084) scale(0.165 -0.165)">
       <defs>
        <path id="DejaVuSans-37" d="M 525 4666 
L 3525 4666 
L 3525 4397 
L 1831 0 
L 1172 0 
L 2766 4134 
L 525 4134 
L 525 4666 
z
" transform="scale(0.015625)"/>
       </defs>
       <use xlink:href="#DejaVuSans-37"/>
       <use xlink:href="#DejaVuSans-2e" x="63.623047"/>
       <use xlink:href="#DejaVuSans-35" x="95.410156"/>
      </g>
     </g>
    </g>
    <g id="ytick_4">
     <g id="line2d_8">
      <g>
       <use xlink:href="#m8ceb5606b1" x="90" y="194.216852" style="stroke: #000000; stroke-width: 1.25"/>
      </g>
     </g>
     <g id="text_8">
      <!-- 10.0 -->
      <g transform="translate(43.761719 200.485563) scale(0.165 -0.165)">
       <use xlink:href="#DejaVuSans-31"/>
       <use xlink:href="#DejaVuSans-30" x="63.623047"/>
       <use xlink:href="#DejaVuSans-2e" x="127.246094"/>
       <use xlink:href="#DejaVuSans-30" x="159.033203"/>
      </g>
     </g>
    </g>
    <g id="ytick_5">
     <g id="line2d_9">
      <g>
       <use xlink:href="#m8ceb5606b1" x="90" y="156.725331" style="stroke: #000000; stroke-width: 1.25"/>
      </g>
     </g>
     <g id="text_9">
      <!-- 12.5 -->
      <g transform="translate(43.761719 162.994042) scale(0.165 -0.165)">
       <use xlink:href="#DejaVuSans-31"/>
       <use xlink:href="#DejaVuSans-32" x="63.623047"/>
       <use xlink:href="#DejaVuSans-2e" x="127.246094"/>
       <use xlink:href="#DejaVuSans-35" x="159.033203"/>
      </g>
     </g>
    </g>
    <g id="ytick_6">
     <g id="line2d_10">
      <g>
       <use xlink:href="#m8ceb5606b1" x="90" y="119.23381" style="stroke: #000000; stroke-width: 1.25"/>
      </g>
     </g>
     <g id="text_10">
      <!-- 15.0 -->
      <g transform="translate(43.761719 125.502521) scale(0.165 -0.165)">
       <use xlink:href="#DejaVuSans-31"/>
       <use xlink:href="#DejaVuSans-35" x="63.623047"/>
       <use xlink:href="#DejaVuSans-2e" x="127.246094"/>
       <use xlink:href="#DejaVuSans-30" x="159.033203"/>
      </g>
     </g>
    </g>
    <g id="text_11">
     <!-- firing rate (Hz) -->
     <g transform="translate(36.018281 278.202656) rotate(-90) scale(0.18 -0.18)">
      <defs>
       <path id="DejaVuSans-66" d="M 2375 4863 
L 2375 4384 
L 1825 4384 
Q 1516 4384 1395 4259 
Q 1275 4134 1275 3809 
L 1275 3500 
L 2222 3500 
L 2222 3053 
L 1275 3053 
L 1275 0 
L 697 0 
L 697 3053 
L 147 3053 
L 147 3500 
L 697 3500 
L 697 3744 
Q 697 4328 969 4595 
Q 1241 4863 1831 4863 
L 2375 4863 
z
" transform="scale(0.015625)"/>
       <path id="DejaVuSans-69" d="M 603 3500 
L 1178 3500 
L 1178 0 
L 603 0 
L 603 3500 
z
M 603 4863 
L 1178 4863 
L 1178 4134 
L 603 4134 
L 603 4863 
z
" transform="scale(0.015625)"/>
       <path id="DejaVuSans-72" d="M 2631 2963 
Q 2534 3019 2420 3045 
Q 2306 3072 2169 3072 
Q 1681 3072 1420 2755 
Q 1159 2438 1159 1844 
L 1159 0 
L 581 0 
L 581 3500 
L 1159 3500 
L 1159 2956 
Q 1341 3275 1631 3429 
Q 1922 3584 2338 3584 
Q 2397 3584 2469 3576 
Q 2541 3569 2628 3553 
L 2631 2963 
z
" transform="scale(0.015625)"/>
       <path id="DejaVuSans-6e" d="M 3513 2113 
L 3513 0 
L 2938 0 
L 2938 2094 
Q 2938 2591 2744 2837 
Q 2550 3084 2163 3084 
Q 1697 3084 1428 2787 
Q 1159 2491 1159 1978 
L 1159 0 
L 581 0 
L 581 3500 
L 1159 3500 
L 1159 2956 
Q 1366 3272 1645 3428 
Q 1925 3584 2291 3584 
Q 2894 3584 3203 3211 
Q 3513 2838 3513 2113 
z
" transform="scale(0.015625)"/>
       <path id="DejaVuSans-67" d="M 2906 1791 
Q 2906 2416 2648 2759 
Q 2391 3103 1925 3103 
Q 1463 3103 1205 2759 
Q 947 2416 947 1791 
Q 947 1169 1205 825 
Q 1463 481 1925 481 
Q 2391 481 2648 825 
Q 2906 1169 2906 1791 
z
M 3481 434 
Q 3481 -459 3084 -895 
Q 2688 -1331 1869 -1331 
Q 1566 -1331 1297 -1286 
Q 1028 -1241 775 -1147 
L 775 -588 
Q 1028 -725 1275 -790 
Q 1522 -856 1778 -856 
Q 2344 -856 2625 -561 
Q 2906 -266 2906 331 
L 2906 616 
Q 2728 306 2450 153 
Q 2172 0 1784 0 
Q 1141 0 747 490 
Q 353 981 353 1791 
Q 353 2603 747 3093 
Q 1141 3584 1784 3584 
Q 2172 3584 2450 3431 
Q 2728 3278 2906 2969 
L 2906 3500 
L 3481 3500 
L 3481 434 
z
" transform="scale(0.015625)"/>
       <path id="DejaVuSans-20" transform="scale(0.015625)"/>
       <path id="DejaVuSans-61" d="M 2194 1759 
Q 1497 1759 1228 1600 
Q 959 1441 959 1056 
Q 959 750 1161 570 
Q 1363 391 1709 391 
Q 2188 391 2477 730 
Q 2766 1069 2766 1631 
L 2766 1759 
L 2194 1759 
z
M 3341 1997 
L 3341 0 
L 2766 0 
L 2766 531 
Q 2569 213 2275 61 
Q 1981 -91 1556 -91 
Q 1019 -91 701 211 
Q 384 513 384 1019 
Q 384 1609 779 1909 
Q 1175 2209 1959 2209 
L 2766 2209 
L 2766 2266 
Q 2766 2663 2505 2880 
Q 2244 3097 1772 3097 
Q 1472 3097 1187 3025 
Q 903 2953 641 2809 
L 641 3341 
Q 956 3463 1253 3523 
Q 1550 3584 1831 3584 
Q 2591 3584 2966 3190 
Q 3341 2797 3341 1997 
z
" transform="scale(0.015625)"/>
       <path id="DejaVuSans-74" d="M 1172 4494 
L 1172 3500 
L 2356 3500 
L 2356 3053 
L 1172 3053 
L 1172 1153 
Q 1172 725 1289 603 
Q 1406 481 1766 481 
L 2356 481 
L 2356 0 
L 1766 0 
Q 1100 0 847 248 
Q 594 497 594 1153 
L 594 3053 
L 172 3053 
L 172 3500 
L 594 3500 
L 594 4494 
L 1172 4494 
z
" transform="scale(0.015625)"/>
       <path id="DejaVuSans-65" d="M 3597 1894 
L 3597 1613 
L 953 1613 
Q 991 1019 1311 708 
Q 1631 397 2203 397 
Q 2534 397 2845 478 
Q 3156 559 3463 722 
L 3463 178 
Q 3153 47 2828 -22 
Q 2503 -91 2169 -91 
Q 1331 -91 842 396 
Q 353 884 353 1716 
Q 353 2575 817 3079 
Q 1281 3584 2069 3584 
Q 2775 3584 3186 3129 
Q 3597 2675 3597 1894 
z
M 3022 2063 
Q 3016 2534 2758 2815 
Q 2500 3097 2075 3097 
Q 1594 3097 1305 2825 
Q 1016 2553 972 2059 
L 3022 2063 
z
" transform="scale(0.015625)"/>
       <path id="DejaVuSans-28" d="M 1984 4856 
Q 1566 4138 1362 3434 
Q 1159 2731 1159 2009 
Q 1159 1288 1364 580 
Q 1569 -128 1984 -844 
L 1484 -844 
Q 1016 -109 783 600 
Q 550 1309 550 2009 
Q 550 2706 781 3412 
Q 1013 4119 1484 4856 
L 1984 4856 
z
" transform="scale(0.015625)"/>
       <path id="DejaVuSans-48" d="M 628 4666 
L 1259 4666 
L 1259 2753 
L 3553 2753 
L 3553 4666 
L 4184 4666 
L 4184 0 
L 3553 0 
L 3553 2222 
L 1259 2222 
L 1259 0 
L 628 0 
L 628 4666 
z
" transform="scale(0.015625)"/>
       <path id="DejaVuSans-7a" d="M 353 3500 
L 3084 3500 
L 3084 2975 
L 922 459 
L 3084 459 
L 3084 0 
L 275 0 
L 275 525 
L 2438 3041 
L 353 3041 
L 353 3500 
z
" transform="scale(0.015625)"/>
       <path id="DejaVuSans-29" d="M 513 4856 
L 1013 4856 
Q 1481 4119 1714 3412 
Q 1947 2706 1947 2009 
Q 1947 1309 1714 600 
Q 1481 -109 1013 -844 
L 513 -844 
Q 928 -128 1133 580 
Q 1338 1288 1338 2009 
Q 1338 2731 1133 3434 
Q 928 4138 513 4856 
z
" transform="scale(0.015625)"/>
      </defs>
      <use xlink:href="#DejaVuSans-66"/>
      <use xlink:href="#DejaVuSans-69" x="35.205078"/>
      <use xlink:href="#DejaVuSans-72" x="62.988281"/>
      <use xlink:href="#DejaVuSans-69" x="104.101562"/>
      <use xlink:href="#DejaVuSans-6e" x="131.884766"/>
      <use xlink:href="#DejaVuSans-67" x="195.263672"/>
      <use xlink:href="#DejaVuSans-20" x="258.740234"/>
      <use xlink:href="#DejaVuSans-72" x="290.527344"/>
      <use xlink:href="#DejaVuSans-61" x="331.640625"/>
      <use xlink:href="#DejaVuSans-74" x="392.919922"/>
      <use xlink:href="#DejaVuSans-65" x="432.128906"/>
      <use xlink:href="#DejaVuSans-20" x="493.652344"/>
      <use xlink:href="#DejaVuSans-28" x="525.439453"/>
      <use xlink:href="#DejaVuSans-48" x="564.453125"/>
      <use xlink:href="#DejaVuSans-7a" x="639.648438"/>
      <use xlink:href="#DejaVuSans-29" x="692.138672"/>
     </g>
    </g>
   </g>
   <g id="line2d_11">
    <path d="M 101.528926 287.802008 
L 106.891217 283.492638 
L 112.253508 280.26061 
L 117.615799 281.876624 
L 122.97809 285.108652 
L 128.340381 287.263337 
L 133.702672 286.724666 
L 139.064963 185.81358 
L 144.427254 233.396209 
L 149.789544 264.639143 
L 155.151835 282.953967 
L 160.514126 254.404389 
L 165.876417 260.150216 
L 171.238708 256.379517 
L 176.600999 288.699794 
L 181.96329 301.807462 
L 187.325581 285.467766 
L 192.687872 276.669469 
L 198.050163 284.390424 
L 203.412454 287.08378 
L 208.774745 284.390424 
L 214.137036 284.390424 
L 219.499327 290.136251 
L 224.861618 284.929095 
L 230.223909 288.161123 
L 235.5862 271.103199 
L 240.948491 115.068085 
L 246.310782 188.147822 
L 251.673073 233.396209 
L 257.035364 227.111711 
L 262.397655 244.349192 
L 267.759946 251.531476 
L 273.122237 249.197233 
L 278.484528 310.246645 
L 283.846819 326.945455 
L 289.20911 325.868112 
L 294.571401 298.575434 
L 299.933692 279.362825 
L 305.295983 285.82688 
L 310.658274 301.448347 
L 316.020565 301.627905 
L 321.382856 294.445621 
L 326.745147 295.522963 
L 332.107438 309.169302 
" clip-path="url(#pabfab1dcee)" style="fill: none; stroke: #32cd32; stroke-width: 2; stroke-linecap: square"/>
   </g>
   <g id="line2d_12">
    <path d="M 101.528926 285.467766 
L 106.891217 273.616998 
L 112.253508 281.427732 
L 117.615799 282.235739 
L 122.97809 270.115635 
L 128.340381 272.27032 
L 133.702672 272.27032 
L 139.064963 182.850888 
L 144.427254 243.990078 
L 149.789544 277.926368 
L 155.151835 266.614271 
L 160.514126 260.958223 
L 165.876417 260.958223 
L 171.238708 246.95277 
L 176.600999 284.929095 
L 181.96329 295.971856 
L 187.325581 291.931822 
L 192.687872 280.619725 
L 198.050163 278.734375 
L 203.412454 279.542382 
L 208.774745 282.235739 
L 214.137036 272.27032 
L 219.499327 278.734375 
L 224.861618 277.387697 
L 230.223909 279.003711 
L 235.5862 258.534202 
L 240.948491 130.061103 
L 246.310782 169.11477 
L 251.673073 218.672528 
L 257.035364 224.328576 
L 262.397655 224.059241 
L 267.759946 237.526022 
L 273.122237 233.216652 
L 278.484528 284.659759 
L 283.846819 301.089233 
L 289.20911 295.433185 
L 294.571401 283.851752 
L 299.933692 282.77441 
L 305.295983 288.699794 
L 310.658274 282.505074 
L 316.020565 272.000984 
L 321.382856 274.425005 
L 326.745147 274.155669 
L 332.107438 295.433185 
" clip-path="url(#pabfab1dcee)" style="fill: none; stroke-dasharray: 7.4,3.2; stroke-dashoffset: 0; stroke: #000000; stroke-width: 2"/>
   </g>
   <g id="patch_5">
    <path d="M 90 338.4 
L 90 86.4 
" style="fill: none; stroke: #000000; stroke-width: 1.25; stroke-linejoin: miter; stroke-linecap: square"/>
   </g>
   <g id="patch_6">
    <path d="M 90 338.4 
L 343.636364 338.4 
" style="fill: none; stroke: #000000; stroke-width: 1.25; stroke-linejoin: miter; stroke-linecap: square"/>
   </g>
   <g id="text_12">
    <!-- F$\rightarrow$F -->
    <g transform="translate(195.398182 80.4) scale(0.18 -0.18)">
     <defs>
      <path id="DejaVuSans-46" d="M 628 4666 
L 3309 4666 
L 3309 4134 
L 1259 4134 
L 1259 2759 
L 3109 2759 
L 3109 2228 
L 1259 2228 
L 1259 0 
L 628 0 
L 628 4666 
z
" transform="scale(0.015625)"/>
      <path id="DejaVuSans-2192" d="M 5050 2147 
L 5050 1866 
L 3822 638 
L 3447 1013 
L 4175 1741 
L 366 1741 
L 366 2272 
L 4175 2272 
L 3447 3000 
L 3822 3375 
L 5050 2147 
z
" transform="scale(0.015625)"/>
     </defs>
     <use xlink:href="#DejaVuSans-46" transform="translate(0 0.09375)"/>
     <use xlink:href="#DejaVuSans-2192" transform="translate(77.001953 0.09375)"/>
     <use xlink:href="#DejaVuSans-46" transform="translate(180.273438 0.09375)"/>
    </g>
   </g>
  </g>
  <g id="axes_2">
   <g id="patch_7">
    <path d="M 394.363636 338.4 
L 648 338.4 
L 648 86.4 
L 394.363636 86.4 
z
" style="fill: #ffffff"/>
   </g>
   <g id="patch_8">
    <path d="M 436.725735 338.4 
L 470.240054 338.4 
L 470.240054 86.4 
L 436.725735 86.4 
z
" clip-path="url(#pbefc7703c5)" style="fill: #adadad; opacity: 0.4; stroke: #adadad; stroke-linejoin: miter"/>
   </g>
   <g id="patch_9">
    <path d="M 537.268691 338.4 
L 570.78301 338.4 
L 570.78301 86.4 
L 537.268691 86.4 
z
" clip-path="url(#pbefc7703c5)" style="fill: #2b2b2b; opacity: 0.4; stroke: #2b2b2b; stroke-linejoin: miter"/>
   </g>
   <g id="matplotlib.axis_3">
    <g id="xtick_5">
     <g id="line2d_13">
      <g>
       <use xlink:href="#m8cb68467f5" x="403.211416" y="338.4" style="stroke: #000000; stroke-width: 1.25"/>
      </g>
     </g>
     <g id="text_13">
      <!-- −1.0 -->
      <g transform="translate(383.178096 360.437422) scale(0.165 -0.165)">
       <use xlink:href="#DejaVuSans-2212"/>
       <use xlink:href="#DejaVuSans-31" x="83.789062"/>
       <use xlink:href="#DejaVuSans-2e" x="147.412109"/>
       <use xlink:href="#DejaVuSans-30" x="179.199219"/>
      </g>
     </g>
    </g>
    <g id="xtick_6">
     <g id="line2d_14">
      <g>
       <use xlink:href="#m8cb68467f5" x="470.240054" y="338.4" style="stroke: #000000; stroke-width: 1.25"/>
      </g>
     </g>
     <g id="text_14">
      <!-- −0.5 -->
      <g transform="translate(450.206734 360.437422) scale(0.165 -0.165)">
       <use xlink:href="#DejaVuSans-2212"/>
       <use xlink:href="#DejaVuSans-30" x="83.789062"/>
       <use xlink:href="#DejaVuSans-2e" x="147.412109"/>
       <use xlink:href="#DejaVuSans-35" x="179.199219"/>
      </g>
     </g>
    </g>
    <g id="xtick_7">
     <g id="line2d_15">
      <g>
       <use xlink:href="#m8cb68467f5" x="537.268691" y="338.4" style="stroke: #000000; stroke-width: 1.25"/>
      </g>
     </g>
     <g id="text_15">
      <!-- 0.0 -->
      <g transform="translate(524.148613 360.437422) scale(0.165 -0.165)">
       <use xlink:href="#DejaVuSans-30"/>
       <use xlink:href="#DejaVuSans-2e" x="63.623047"/>
       <use xlink:href="#DejaVuSans-30" x="95.410156"/>
      </g>
     </g>
    </g>
    <g id="xtick_8">
     <g id="line2d_16">
      <g>
       <use xlink:href="#m8cb68467f5" x="604.297328" y="338.4" style="stroke: #000000; stroke-width: 1.25"/>
      </g>
     </g>
     <g id="text_16">
      <!-- 0.5 -->
      <g transform="translate(591.17725 360.437422) scale(0.165 -0.165)">
       <use xlink:href="#DejaVuSans-30"/>
       <use xlink:href="#DejaVuSans-2e" x="63.623047"/>
       <use xlink:href="#DejaVuSans-35" x="95.410156"/>
      </g>
     </g>
    </g>
   </g>
   <g id="matplotlib.axis_4">
    <g id="ytick_7">
     <g id="line2d_17">
      <g>
       <use xlink:href="#m8ceb5606b1" x="394.363636" y="306.691415" style="stroke: #000000; stroke-width: 1.25"/>
      </g>
     </g>
    </g>
    <g id="ytick_8">
     <g id="line2d_18">
      <g>
       <use xlink:href="#m8ceb5606b1" x="394.363636" y="269.199894" style="stroke: #000000; stroke-width: 1.25"/>
      </g>
     </g>
    </g>
    <g id="ytick_9">
     <g id="line2d_19">
      <g>
       <use xlink:href="#m8ceb5606b1" x="394.363636" y="231.708373" style="stroke: #000000; stroke-width: 1.25"/>
      </g>
     </g>
    </g>
    <g id="ytick_10">
     <g id="line2d_20">
      <g>
       <use xlink:href="#m8ceb5606b1" x="394.363636" y="194.216852" style="stroke: #000000; stroke-width: 1.25"/>
      </g>
     </g>
    </g>
    <g id="ytick_11">
     <g id="line2d_21">
      <g>
       <use xlink:href="#m8ceb5606b1" x="394.363636" y="156.725331" style="stroke: #000000; stroke-width: 1.25"/>
      </g>
     </g>
    </g>
    <g id="ytick_12">
     <g id="line2d_22">
      <g>
       <use xlink:href="#m8ceb5606b1" x="394.363636" y="119.23381" style="stroke: #000000; stroke-width: 1.25"/>
      </g>
     </g>
    </g>
   </g>
   <g id="line2d_23">
    <path d="M 405.892562 283.301111 
L 411.254853 280.930957 
L 416.617144 281.864654 
L 421.979435 280.954898 
L 427.341726 279.279032 
L 432.704017 277.890457 
L 438.066308 276.525823 
L 443.428599 186.914863 
L 448.79089 236.544444 
L 454.153181 268.86472 
L 459.515472 266.518508 
L 464.877763 258.761641 
L 470.240054 257.325185 
L 475.602345 251.938472 
L 480.964636 285.862792 
L 486.326927 301.568052 
L 491.689218 294.290005 
L 497.051509 281.433717 
L 502.4138 280.76337 
L 507.776091 282.27165 
L 513.138382 282.391355 
L 518.500673 282.199827 
L 523.862964 280.76337 
L 529.225255 281.529481 
L 534.587546 279.853614 
L 539.949837 267.404323 
L 545.312128 97.854545 
L 550.674419 105.683235 
L 556.03671 166.876292 
L 561.399001 195.150549 
L 566.761292 206.235206 
L 572.123583 217.583215 
L 577.485874 233.863058 
L 582.848165 292.614138 
L 588.210456 308.319399 
L 593.572746 303.962147 
L 598.935037 290.722804 
L 604.297328 280.643666 
L 609.659619 291.225564 
L 615.02191 296.157398 
L 620.384201 296.540454 
L 625.746492 292.422611 
L 631.108783 293.308426 
L 636.471074 304.201556 
" clip-path="url(#pbefc7703c5)" style="fill: none; stroke: #32cd32; stroke-width: 2; stroke-linecap: square"/>
   </g>
   <g id="line2d_24">
    <path d="M 405.892562 280.547902 
L 411.254853 280.978839 
L 416.617144 279.470559 
L 421.979435 278.034103 
L 427.341726 275.807595 
L 432.704017 276.166709 
L 438.066308 273.078327 
L 443.428599 182.006969 
L 448.79089 240.25529 
L 454.153181 269.271716 
L 459.515472 261.155736 
L 464.877763 252.824287 
L 470.240054 256.846366 
L 475.602345 245.354712 
L 480.964636 279.973319 
L 486.326927 304.105792 
L 491.689218 291.39315 
L 497.051509 278.895977 
L 502.4138 279.757851 
L 507.776091 278.46504 
L 513.138382 278.967799 
L 518.500673 281.553422 
L 523.862964 274.227492 
L 529.225255 277.531343 
L 534.587546 275.663949 
L 539.949837 259.862925 
L 545.312128 101.565392 
L 550.674419 123.471357 
L 556.03671 165.487717 
L 561.399001 191.272115 
L 566.761292 204.128403 
L 572.123583 219.570313 
L 577.485874 231.277436 
L 582.848165 282.558941 
L 588.210456 290.028516 
L 593.572746 280.547902 
L 598.935037 283.061701 
L 604.297328 281.984359 
L 609.659619 284.426335 
L 615.02191 287.442894 
L 620.384201 289.094819 
L 625.746492 285.000918 
L 631.108783 286.221906 
L 636.471074 299.652776 
" clip-path="url(#pbefc7703c5)" style="fill: none; stroke-dasharray: 7.4,3.2; stroke-dashoffset: 0; stroke: #000000; stroke-width: 2"/>
   </g>
   <g id="patch_10">
    <path d="M 394.363636 338.4 
L 394.363636 86.4 
" style="fill: none; stroke: #000000; stroke-width: 1.25; stroke-linejoin: miter; stroke-linecap: square"/>
   </g>
   <g id="patch_11">
    <path d="M 394.363636 338.4 
L 648 338.4 
" style="fill: none; stroke: #000000; stroke-width: 1.25; stroke-linejoin: miter; stroke-linecap: square"/>
   </g>
   <g id="text_17">
    <!-- F$\rightarrow$N -->
    <g transform="translate(498.141818 80.4) scale(0.18 -0.18)">
     <defs>
      <path id="DejaVuSans-4e" d="M 628 4666 
L 1478 4666 
L 3547 763 
L 3547 4666 
L 4159 4666 
L 4159 0 
L 3309 0 
L 1241 3903 
L 1241 0 
L 628 0 
L 628 4666 
z
" transform="scale(0.015625)"/>
     </defs>
     <use xlink:href="#DejaVuSans-46" transform="translate(0 0.09375)"/>
     <use xlink:href="#DejaVuSans-2192" transform="translate(77.001953 0.09375)"/>
     <use xlink:href="#DejaVuSans-4e" transform="translate(180.273438 0.09375)"/>
    </g>
   </g>
   <g id="legend_1">
    <g id="patch_12">
     <path d="M 573.675 131.2275 
L 639.6 131.2275 
Q 642 131.2275 642 128.8275 
L 642 94.8 
Q 642 92.4 639.6 92.4 
L 573.675 92.4 
Q 571.275 92.4 571.275 94.8 
L 571.275 128.8275 
Q 571.275 131.2275 573.675 131.2275 
z
" style="fill: #ffffff; opacity: 0.8; stroke: #cccccc; stroke-linejoin: miter"/>
    </g>
    <g id="line2d_25">
     <path d="M 576.075 102.118125 
L 588.075 102.118125 
L 600.075 102.118125 
" style="fill: none; stroke: #32cd32; stroke-width: 2; stroke-linecap: square"/>
    </g>
    <g id="text_18">
     <!-- hit -->
     <g transform="translate(609.675 106.318125) scale(0.12 -0.12)">
      <defs>
       <path id="DejaVuSans-68" d="M 3513 2113 
L 3513 0 
L 2938 0 
L 2938 2094 
Q 2938 2591 2744 2837 
Q 2550 3084 2163 3084 
Q 1697 3084 1428 2787 
Q 1159 2491 1159 1978 
L 1159 0 
L 581 0 
L 581 4863 
L 1159 4863 
L 1159 2956 
Q 1366 3272 1645 3428 
Q 1925 3584 2291 3584 
Q 2894 3584 3203 3211 
Q 3513 2838 3513 2113 
z
" transform="scale(0.015625)"/>
      </defs>
      <use xlink:href="#DejaVuSans-68"/>
      <use xlink:href="#DejaVuSans-69" x="63.378906"/>
      <use xlink:href="#DejaVuSans-74" x="91.162109"/>
     </g>
    </g>
    <g id="line2d_26">
     <path d="M 576.075 119.731875 
L 588.075 119.731875 
L 600.075 119.731875 
" style="fill: none; stroke-dasharray: 7.4,3.2; stroke-dashoffset: 0; stroke: #000000; stroke-width: 2"/>
    </g>
    <g id="text_19">
     <!-- miss -->
     <g transform="translate(609.675 123.931875) scale(0.12 -0.12)">
      <defs>
       <path id="DejaVuSans-6d" d="M 3328 2828 
Q 3544 3216 3844 3400 
Q 4144 3584 4550 3584 
Q 5097 3584 5394 3201 
Q 5691 2819 5691 2113 
L 5691 0 
L 5113 0 
L 5113 2094 
Q 5113 2597 4934 2840 
Q 4756 3084 4391 3084 
Q 3944 3084 3684 2787 
Q 3425 2491 3425 1978 
L 3425 0 
L 2847 0 
L 2847 2094 
Q 2847 2600 2669 2842 
Q 2491 3084 2119 3084 
Q 1678 3084 1418 2786 
Q 1159 2488 1159 1978 
L 1159 0 
L 581 0 
L 581 3500 
L 1159 3500 
L 1159 2956 
Q 1356 3278 1631 3431 
Q 1906 3584 2284 3584 
Q 2666 3584 2933 3390 
Q 3200 3197 3328 2828 
z
" transform="scale(0.015625)"/>
       <path id="DejaVuSans-73" d="M 2834 3397 
L 2834 2853 
Q 2591 2978 2328 3040 
Q 2066 3103 1784 3103 
Q 1356 3103 1142 2972 
Q 928 2841 928 2578 
Q 928 2378 1081 2264 
Q 1234 2150 1697 2047 
L 1894 2003 
Q 2506 1872 2764 1633 
Q 3022 1394 3022 966 
Q 3022 478 2636 193 
Q 2250 -91 1575 -91 
Q 1294 -91 989 -36 
Q 684 19 347 128 
L 347 722 
Q 666 556 975 473 
Q 1284 391 1588 391 
Q 1994 391 2212 530 
Q 2431 669 2431 922 
Q 2431 1156 2273 1281 
Q 2116 1406 1581 1522 
L 1381 1569 
Q 847 1681 609 1914 
Q 372 2147 372 2553 
Q 372 3047 722 3315 
Q 1072 3584 1716 3584 
Q 2034 3584 2315 3537 
Q 2597 3491 2834 3397 
z
" transform="scale(0.015625)"/>
      </defs>
      <use xlink:href="#DejaVuSans-6d"/>
      <use xlink:href="#DejaVuSans-69" x="97.412109"/>
      <use xlink:href="#DejaVuSans-73" x="125.195312"/>
      <use xlink:href="#DejaVuSans-73" x="177.294922"/>
     </g>
    </g>
   </g>
  </g>
  <g id="axes_3">
   <g id="patch_13">
    <path d="M 90 640.8 
L 343.636364 640.8 
L 343.636364 388.8 
L 90 388.8 
z
" style="fill: #ffffff"/>
   </g>
   <g id="patch_14">
    <path d="M 232.905055 640.8 
L 266.419373 640.8 
L 266.419373 388.8 
L 232.905055 388.8 
z
" clip-path="url(#p7dba8edef7)" style="fill: #adadad; opacity: 0.4; stroke: #adadad; stroke-linejoin: miter"/>
   </g>
   <g id="patch_15">
    <path d="M 132.362099 640.8 
L 165.876417 640.8 
L 165.876417 388.8 
L 132.362099 388.8 
z
" clip-path="url(#p7dba8edef7)" style="fill: #2b2b2b; opacity: 0.4; stroke: #2b2b2b; stroke-linejoin: miter"/>
   </g>
   <g id="matplotlib.axis_5">
    <g id="xtick_9">
     <g id="line2d_27">
      <g>
       <use xlink:href="#m8cb68467f5" x="98.84778" y="640.8" style="stroke: #000000; stroke-width: 1.25"/>
      </g>
     </g>
     <g id="text_20">
      <!-- −1.0 -->
      <g transform="translate(78.81446 662.837422) scale(0.165 -0.165)">
       <use xlink:href="#DejaVuSans-2212"/>
       <use xlink:href="#DejaVuSans-31" x="83.789062"/>
       <use xlink:href="#DejaVuSans-2e" x="147.412109"/>
       <use xlink:href="#DejaVuSans-30" x="179.199219"/>
      </g>
     </g>
    </g>
    <g id="xtick_10">
     <g id="line2d_28">
      <g>
       <use xlink:href="#m8cb68467f5" x="165.876417" y="640.8" style="stroke: #000000; stroke-width: 1.25"/>
      </g>
     </g>
     <g id="text_21">
      <!-- −0.5 -->
      <g transform="translate(145.843097 662.837422) scale(0.165 -0.165)">
       <use xlink:href="#DejaVuSans-2212"/>
       <use xlink:href="#DejaVuSans-30" x="83.789062"/>
       <use xlink:href="#DejaVuSans-2e" x="147.412109"/>
       <use xlink:href="#DejaVuSans-35" x="179.199219"/>
      </g>
     </g>
    </g>
    <g id="xtick_11">
     <g id="line2d_29">
      <g>
       <use xlink:href="#m8cb68467f5" x="232.905055" y="640.8" style="stroke: #000000; stroke-width: 1.25"/>
      </g>
     </g>
     <g id="text_22">
      <!-- 0.0 -->
      <g transform="translate(219.784977 662.837422) scale(0.165 -0.165)">
       <use xlink:href="#DejaVuSans-30"/>
       <use xlink:href="#DejaVuSans-2e" x="63.623047"/>
       <use xlink:href="#DejaVuSans-30" x="95.410156"/>
      </g>
     </g>
    </g>
    <g id="xtick_12">
     <g id="line2d_30">
      <g>
       <use xlink:href="#m8cb68467f5" x="299.933692" y="640.8" style="stroke: #000000; stroke-width: 1.25"/>
      </g>
     </g>
     <g id="text_23">
      <!-- 0.5 -->
      <g transform="translate(286.813614 662.837422) scale(0.165 -0.165)">
       <use xlink:href="#DejaVuSans-30"/>
       <use xlink:href="#DejaVuSans-2e" x="63.623047"/>
       <use xlink:href="#DejaVuSans-35" x="95.410156"/>
      </g>
     </g>
    </g>
    <g id="text_24">
     <!-- time (s) -->
     <g transform="translate(181.913651 683.946094) scale(0.18 -0.18)">
      <use xlink:href="#DejaVuSans-74"/>
      <use xlink:href="#DejaVuSans-69" x="39.208984"/>
      <use xlink:href="#DejaVuSans-6d" x="66.992188"/>
      <use xlink:href="#DejaVuSans-65" x="164.404297"/>
      <use xlink:href="#DejaVuSans-20" x="225.927734"/>
      <use xlink:href="#DejaVuSans-28" x="257.714844"/>
      <use xlink:href="#DejaVuSans-73" x="296.728516"/>
      <use xlink:href="#DejaVuSans-29" x="348.828125"/>
     </g>
    </g>
   </g>
   <g id="matplotlib.axis_6">
    <g id="ytick_13">
     <g id="line2d_31">
      <g>
       <use xlink:href="#m8ceb5606b1" x="90" y="609.091415" style="stroke: #000000; stroke-width: 1.25"/>
      </g>
     </g>
     <g id="text_25">
      <!-- 2.5 -->
      <g transform="translate(54.259844 615.360125) scale(0.165 -0.165)">
       <use xlink:href="#DejaVuSans-32"/>
       <use xlink:href="#DejaVuSans-2e" x="63.623047"/>
       <use xlink:href="#DejaVuSans-35" x="95.410156"/>
      </g>
     </g>
    </g>
    <g id="ytick_14">
     <g id="line2d_32">
      <g>
       <use xlink:href="#m8ceb5606b1" x="90" y="571.599894" style="stroke: #000000; stroke-width: 1.25"/>
      </g>
     </g>
     <g id="text_26">
      <!-- 5.0 -->
      <g transform="translate(54.259844 577.868605) scale(0.165 -0.165)">
       <use xlink:href="#DejaVuSans-35"/>
       <use xlink:href="#DejaVuSans-2e" x="63.623047"/>
       <use xlink:href="#DejaVuSans-30" x="95.410156"/>
      </g>
     </g>
    </g>
    <g id="ytick_15">
     <g id="line2d_33">
      <g>
       <use xlink:href="#m8ceb5606b1" x="90" y="534.108373" style="stroke: #000000; stroke-width: 1.25"/>
      </g>
     </g>
     <g id="text_27">
      <!-- 7.5 -->
      <g transform="translate(54.259844 540.377084) scale(0.165 -0.165)">
       <use xlink:href="#DejaVuSans-37"/>
       <use xlink:href="#DejaVuSans-2e" x="63.623047"/>
       <use xlink:href="#DejaVuSans-35" x="95.410156"/>
      </g>
     </g>
    </g>
    <g id="ytick_16">
     <g id="line2d_34">
      <g>
       <use xlink:href="#m8ceb5606b1" x="90" y="496.616852" style="stroke: #000000; stroke-width: 1.25"/>
      </g>
     </g>
     <g id="text_28">
      <!-- 10.0 -->
      <g transform="translate(43.761719 502.885563) scale(0.165 -0.165)">
       <use xlink:href="#DejaVuSans-31"/>
       <use xlink:href="#DejaVuSans-30" x="63.623047"/>
       <use xlink:href="#DejaVuSans-2e" x="127.246094"/>
       <use xlink:href="#DejaVuSans-30" x="159.033203"/>
      </g>
     </g>
    </g>
    <g id="ytick_17">
     <g id="line2d_35">
      <g>
       <use xlink:href="#m8ceb5606b1" x="90" y="459.125331" style="stroke: #000000; stroke-width: 1.25"/>
      </g>
     </g>
     <g id="text_29">
      <!-- 12.5 -->
      <g transform="translate(43.761719 465.394042) scale(0.165 -0.165)">
       <use xlink:href="#DejaVuSans-31"/>
       <use xlink:href="#DejaVuSans-32" x="63.623047"/>
       <use xlink:href="#DejaVuSans-2e" x="127.246094"/>
       <use xlink:href="#DejaVuSans-35" x="159.033203"/>
      </g>
     </g>
    </g>
    <g id="ytick_18">
     <g id="line2d_36">
      <g>
       <use xlink:href="#m8ceb5606b1" x="90" y="421.63381" style="stroke: #000000; stroke-width: 1.25"/>
      </g>
     </g>
     <g id="text_30">
      <!-- 15.0 -->
      <g transform="translate(43.761719 427.902521) scale(0.165 -0.165)">
       <use xlink:href="#DejaVuSans-31"/>
       <use xlink:href="#DejaVuSans-35" x="63.623047"/>
       <use xlink:href="#DejaVuSans-2e" x="127.246094"/>
       <use xlink:href="#DejaVuSans-30" x="159.033203"/>
      </g>
     </g>
    </g>
    <g id="text_31">
     <!-- firing rate (Hz) -->
     <g transform="translate(36.018281 580.602656) rotate(-90) scale(0.18 -0.18)">
      <use xlink:href="#DejaVuSans-66"/>
      <use xlink:href="#DejaVuSans-69" x="35.205078"/>
      <use xlink:href="#DejaVuSans-72" x="62.988281"/>
      <use xlink:href="#DejaVuSans-69" x="104.101562"/>
      <use xlink:href="#DejaVuSans-6e" x="131.884766"/>
      <use xlink:href="#DejaVuSans-67" x="195.263672"/>
      <use xlink:href="#DejaVuSans-20" x="258.740234"/>
      <use xlink:href="#DejaVuSans-72" x="290.527344"/>
      <use xlink:href="#DejaVuSans-61" x="331.640625"/>
      <use xlink:href="#DejaVuSans-74" x="392.919922"/>
      <use xlink:href="#DejaVuSans-65" x="432.128906"/>
      <use xlink:href="#DejaVuSans-20" x="493.652344"/>
      <use xlink:href="#DejaVuSans-28" x="525.439453"/>
      <use xlink:href="#DejaVuSans-48" x="564.453125"/>
      <use xlink:href="#DejaVuSans-7a" x="639.648438"/>
      <use xlink:href="#DejaVuSans-29" x="692.138672"/>
     </g>
    </g>
   </g>
   <g id="line2d_37">
    <path d="M 101.528926 589.663337 
L 106.891217 594.331822 
L 112.253508 587.239316 
L 117.615799 593.344257 
L 122.97809 592.087358 
L 128.340381 586.161974 
L 133.702672 588.765552 
L 139.064963 492.792286 
L 144.427254 491.26605 
L 149.789544 529.421933 
L 155.151835 550.519891 
L 160.514126 550.968784 
L 165.876417 548.09587 
L 171.238708 547.198085 
L 176.600999 584.097067 
L 181.96329 603.848347 
L 187.325581 598.282078 
L 192.687872 585.264188 
L 198.050163 589.214444 
L 203.412454 589.663337 
L 208.774745 590.291787 
L 214.137036 589.304223 
L 219.499327 590.561123 
L 224.861618 591.099794 
L 230.223909 589.214444 
L 235.5862 576.286334 
L 240.948491 425.907269 
L 246.310782 484.891774 
L 251.673073 530.678832 
L 257.035364 539.746465 
L 262.397655 541.452258 
L 267.759946 548.006092 
L 273.122237 557.34306 
L 278.484528 610.132846 
L 283.846819 621.444942 
L 289.20911 619.649372 
L 294.571401 602.950562 
L 299.933692 583.737953 
L 305.295983 595.319386 
L 310.658274 591.369129 
L 316.020565 594.780714 
L 321.382856 597.114956 
L 326.745147 588.85533 
L 332.107438 609.773731 
" clip-path="url(#p7dba8edef7)" style="fill: none; stroke: #32cd32; stroke-width: 2; stroke-linecap: square"/>
   </g>
   <g id="line2d_38">
    <path d="M 101.528926 588.698218 
L 106.891217 588.339104 
L 112.253508 589.663337 
L 117.615799 587.171982 
L 122.97809 587.822877 
L 128.340381 588.339104 
L 133.702672 586.72309 
L 139.064963 485.969116 
L 144.427254 488.729806 
L 149.789544 525.202341 
L 155.151835 540.576917 
L 160.514126 539.522019 
L 165.876417 542.507156 
L 171.238708 538.152896 
L 176.600999 580.146811 
L 181.96329 595.925391 
L 187.325581 587.800432 
L 192.687872 583.491062 
L 198.050163 583.872621 
L 203.412454 587.396429 
L 208.774745 586.880202 
L 214.137036 587.665764 
L 219.499327 589.977562 
L 224.861618 587.575986 
L 230.223909 586.139529 
L 235.5862 577.565678 
L 240.948491 435.311571 
L 246.310782 500.243905 
L 251.673073 539.522019 
L 257.035364 541.60937 
L 262.397655 537.659114 
L 267.759946 542.350043 
L 273.122237 549.262991 
L 278.484528 597.900519 
L 283.846819 610.289958 
L 289.20911 600.369429 
L 294.571401 588.294214 
L 299.933692 582.189273 
L 305.295983 589.663337 
L 310.658274 588.316659 
L 316.020565 586.992425 
L 321.382856 584.456181 
L 326.745147 585.264188 
L 332.107438 600.144982 
" clip-path="url(#p7dba8edef7)" style="fill: none; stroke-dasharray: 7.4,3.2; stroke-dashoffset: 0; stroke: #000000; stroke-width: 2"/>
   </g>
   <g id="patch_16">
    <path d="M 90 640.8 
L 90 388.8 
" style="fill: none; stroke: #000000; stroke-width: 1.25; stroke-linejoin: miter; stroke-linecap: square"/>
   </g>
   <g id="patch_17">
    <path d="M 90 640.8 
L 343.636364 640.8 
" style="fill: none; stroke: #000000; stroke-width: 1.25; stroke-linejoin: miter; stroke-linecap: square"/>
   </g>
   <g id="text_32">
    <!-- N$\rightarrow$F -->
    <g transform="translate(193.778182 382.8) scale(0.18 -0.18)">
     <use xlink:href="#DejaVuSans-4e" transform="translate(0 0.09375)"/>
     <use xlink:href="#DejaVuSans-2192" transform="translate(94.287109 0.09375)"/>
     <use xlink:href="#DejaVuSans-46" transform="translate(197.558594 0.09375)"/>
    </g>
   </g>
  </g>
  <g id="axes_4">
   <g id="patch_18">
    <path d="M 394.363636 640.8 
L 648 640.8 
L 648 388.8 
L 394.363636 388.8 
z
" style="fill: #ffffff"/>
   </g>
   <g id="patch_19">
    <path d="M 436.725735 640.8 
L 470.240054 640.8 
L 470.240054 388.8 
L 436.725735 388.8 
z
" clip-path="url(#p76f76d790b)" style="fill: #2b2b2b; opacity: 0.4; stroke: #2b2b2b; stroke-linejoin: miter"/>
   </g>
   <g id="patch_20">
    <path d="M 537.268691 640.8 
L 570.78301 640.8 
L 570.78301 388.8 
L 537.268691 388.8 
z
" clip-path="url(#p76f76d790b)" style="fill: #2b2b2b; opacity: 0.4; stroke: #2b2b2b; stroke-linejoin: miter"/>
   </g>
   <g id="matplotlib.axis_7">
    <g id="xtick_13">
     <g id="line2d_39">
      <g>
       <use xlink:href="#m8cb68467f5" x="403.211416" y="640.8" style="stroke: #000000; stroke-width: 1.25"/>
      </g>
     </g>
     <g id="text_33">
      <!-- −1.0 -->
      <g transform="translate(383.178096 662.837422) scale(0.165 -0.165)">
       <use xlink:href="#DejaVuSans-2212"/>
       <use xlink:href="#DejaVuSans-31" x="83.789062"/>
       <use xlink:href="#DejaVuSans-2e" x="147.412109"/>
       <use xlink:href="#DejaVuSans-30" x="179.199219"/>
      </g>
     </g>
    </g>
    <g id="xtick_14">
     <g id="line2d_40">
      <g>
       <use xlink:href="#m8cb68467f5" x="470.240054" y="640.8" style="stroke: #000000; stroke-width: 1.25"/>
      </g>
     </g>
     <g id="text_34">
      <!-- −0.5 -->
      <g transform="translate(450.206734 662.837422) scale(0.165 -0.165)">
       <use xlink:href="#DejaVuSans-2212"/>
       <use xlink:href="#DejaVuSans-30" x="83.789062"/>
       <use xlink:href="#DejaVuSans-2e" x="147.412109"/>
       <use xlink:href="#DejaVuSans-35" x="179.199219"/>
      </g>
     </g>
    </g>
    <g id="xtick_15">
     <g id="line2d_41">
      <g>
       <use xlink:href="#m8cb68467f5" x="537.268691" y="640.8" style="stroke: #000000; stroke-width: 1.25"/>
      </g>
     </g>
     <g id="text_35">
      <!-- 0.0 -->
      <g transform="translate(524.148613 662.837422) scale(0.165 -0.165)">
       <use xlink:href="#DejaVuSans-30"/>
       <use xlink:href="#DejaVuSans-2e" x="63.623047"/>
       <use xlink:href="#DejaVuSans-30" x="95.410156"/>
      </g>
     </g>
    </g>
    <g id="xtick_16">
     <g id="line2d_42">
      <g>
       <use xlink:href="#m8cb68467f5" x="604.297328" y="640.8" style="stroke: #000000; stroke-width: 1.25"/>
      </g>
     </g>
     <g id="text_36">
      <!-- 0.5 -->
      <g transform="translate(591.17725 662.837422) scale(0.165 -0.165)">
       <use xlink:href="#DejaVuSans-30"/>
       <use xlink:href="#DejaVuSans-2e" x="63.623047"/>
       <use xlink:href="#DejaVuSans-35" x="95.410156"/>
      </g>
     </g>
    </g>
    <g id="text_37">
     <!-- time (s) -->
     <g transform="translate(486.277287 683.946094) scale(0.18 -0.18)">
      <use xlink:href="#DejaVuSans-74"/>
      <use xlink:href="#DejaVuSans-69" x="39.208984"/>
      <use xlink:href="#DejaVuSans-6d" x="66.992188"/>
      <use xlink:href="#DejaVuSans-65" x="164.404297"/>
      <use xlink:href="#DejaVuSans-20" x="225.927734"/>
      <use xlink:href="#DejaVuSans-28" x="257.714844"/>
      <use xlink:href="#DejaVuSans-73" x="296.728516"/>
      <use xlink:href="#DejaVuSans-29" x="348.828125"/>
     </g>
    </g>
   </g>
   <g id="matplotlib.axis_8">
    <g id="ytick_19">
     <g id="line2d_43">
      <g>
       <use xlink:href="#m8ceb5606b1" x="394.363636" y="609.091415" style="stroke: #000000; stroke-width: 1.25"/>
      </g>
     </g>
    </g>
    <g id="ytick_20">
     <g id="line2d_44">
      <g>
       <use xlink:href="#m8ceb5606b1" x="394.363636" y="571.599894" style="stroke: #000000; stroke-width: 1.25"/>
      </g>
     </g>
    </g>
    <g id="ytick_21">
     <g id="line2d_45">
      <g>
       <use xlink:href="#m8ceb5606b1" x="394.363636" y="534.108373" style="stroke: #000000; stroke-width: 1.25"/>
      </g>
     </g>
    </g>
    <g id="ytick_22">
     <g id="line2d_46">
      <g>
       <use xlink:href="#m8ceb5606b1" x="394.363636" y="496.616852" style="stroke: #000000; stroke-width: 1.25"/>
      </g>
     </g>
    </g>
    <g id="ytick_23">
     <g id="line2d_47">
      <g>
       <use xlink:href="#m8ceb5606b1" x="394.363636" y="459.125331" style="stroke: #000000; stroke-width: 1.25"/>
      </g>
     </g>
    </g>
    <g id="ytick_24">
     <g id="line2d_48">
      <g>
       <use xlink:href="#m8ceb5606b1" x="394.363636" y="421.63381" style="stroke: #000000; stroke-width: 1.25"/>
      </g>
     </g>
    </g>
   </g>
   <g id="line2d_49">
    <path d="M 405.892562 584.983106 
L 411.254853 589.55426 
L 416.617144 589.000486 
L 421.979435 588.698427 
L 427.341726 586.12086 
L 432.704017 585.677841 
L 438.066308 583.956107 
L 443.428599 485.273542 
L 448.79089 489.059344 
L 454.153181 528.316901 
L 459.515472 545.373147 
L 464.877763 544.205187 
L 470.240054 548.615243 
L 475.602345 544.044089 
L 480.964636 580.875108 
L 486.326927 600.277343 
L 491.689218 592.343269 
L 497.051509 584.932763 
L 502.4138 583.805077 
L 507.776091 587.51033 
L 513.138382 587.641222 
L 518.500673 586.543742 
L 523.862964 587.389507 
L 529.225255 585.9799 
L 534.587546 585.355645 
L 539.949837 573.142406 
L 545.312128 409.436681 
L 550.674419 409.285652 
L 556.03671 466.253915 
L 561.399001 495.040106 
L 566.761292 511.23045 
L 572.123583 523.101355 
L 577.485874 542.533796 
L 582.848165 601.022421 
L 588.210456 614.806364 
L 593.572746 612.883258 
L 598.935037 603.680537 
L 604.297328 589.564329 
L 609.659619 594.145552 
L 615.02191 601.374823 
L 620.384201 603.016008 
L 625.746492 602.432028 
L 631.108783 598.716706 
L 636.471074 609.87274 
" clip-path="url(#p76f76d790b)" style="fill: none; stroke: #32cd32; stroke-width: 2; stroke-linecap: square"/>
   </g>
   <g id="line2d_50">
    <path d="M 405.892562 587.813899 
L 411.254853 586.871224 
L 416.617144 588.002434 
L 421.979435 588.325637 
L 427.341726 587.275228 
L 432.704017 586.467221 
L 438.066308 581.996249 
L 443.428599 486.678367 
L 448.79089 494.354432 
L 454.153181 530.041405 
L 459.515472 548.625564 
L 464.877763 549.864508 
L 470.240054 548.841032 
L 475.602345 544.181526 
L 480.964636 582.481053 
L 486.326927 600.203338 
L 491.689218 592.985143 
L 497.051509 588.298703 
L 502.4138 585.147476 
L 507.776091 588.217903 
L 513.138382 590.453388 
L 518.500673 589.10671 
L 523.862964 588.594972 
L 529.225255 586.601889 
L 534.587546 584.689606 
L 539.949837 573.215907 
L 545.312128 414.68495 
L 550.674419 418.91352 
L 556.03671 471.407036 
L 561.399001 500.549152 
L 566.761292 514.258336 
L 572.123583 521.988269 
L 577.485874 532.734761 
L 582.848165 587.113626 
L 588.210456 598.425723 
L 593.572746 594.92436 
L 598.935037 590.372588 
L 604.297328 589.456846 
L 609.659619 588.945109 
L 615.02191 588.972042 
L 620.384201 594.681958 
L 625.746492 594.277954 
L 631.108783 593.685416 
L 636.471074 606.371125 
" clip-path="url(#p76f76d790b)" style="fill: none; stroke-dasharray: 7.4,3.2; stroke-dashoffset: 0; stroke: #000000; stroke-width: 2"/>
   </g>
   <g id="patch_21">
    <path d="M 394.363636 640.8 
L 394.363636 388.8 
" style="fill: none; stroke: #000000; stroke-width: 1.25; stroke-linejoin: miter; stroke-linecap: square"/>
   </g>
   <g id="patch_22">
    <path d="M 394.363636 640.8 
L 648 640.8 
" style="fill: none; stroke: #000000; stroke-width: 1.25; stroke-linejoin: miter; stroke-linecap: square"/>
   </g>
   <g id="text_38">
    <!-- N$\rightarrow$N -->
    <g transform="translate(496.611818 382.8) scale(0.18 -0.18)">
     <use xlink:href="#DejaVuSans-4e" transform="translate(0 0.09375)"/>
     <use xlink:href="#DejaVuSans-2192" transform="translate(94.287109 0.09375)"/>
     <use xlink:href="#DejaVuSans-4e" transform="translate(197.558594 0.09375)"/>
    </g>
   </g>
  </g>
 </g>
 <defs>
  <clipPath id="pabfab1dcee">
   <rect x="90" y="86.4" width="253.636364" height="252"/>
  </clipPath>
  <clipPath id="pbefc7703c5">
   <rect x="394.363636" y="86.4" width="253.636364" height="252"/>
  </clipPath>
  <clipPath id="p7dba8edef7">
   <rect x="90" y="388.8" width="253.636364" height="252"/>
  </clipPath>
  <clipPath id="p76f76d790b">
   <rect x="394.363636" y="388.8" width="253.636364" height="252"/>
  </clipPath>
 </defs>
</svg>
