<?xml version="1.0" encoding="utf-8" standalone="no"?>
<!DOCTYPE svg PUBLIC "-//W3C//DTD SVG 1.1//EN"
  "http://www.w3.org/Graphics/SVG/1.1/DTD/svg11.dtd">
<svg xmlns:xlink="http://www.w3.org/1999/xlink" width="720pt" height="720pt" viewBox="0 0 720 720" xmlns="http://www.w3.org/2000/svg" version="1.1">
 <metadata>
  <rdf:RDF xmlns:dc="http://purl.org/dc/elements/1.1/" xmlns:cc="http://creativecommons.org/ns#" xmlns:rdf="http://www.w3.org/1999/02/22-rdf-syntax-ns#">
   <cc:Work>
    <dc:type rdf:resource="http://purl.org/dc/dcmitype/StillImage"/>
    <dc:date>2024-08-30T19:09:33.280479</dc:date>
    <dc:format>image/svg+xml</dc:format>
    <dc:creator>
     <cc:Agent>
      <dc:title>Matplotlib v3.9.2, https://matplotlib.org/</dc:title>
     </cc:Agent>
    </dc:creator>
   </cc:Work>
  </rdf:RDF>
 </metadata>
 <defs>
  <style type="text/css">*{stroke-linejoin: round; stroke-linecap: butt}</style>
 </defs>
 <g id="figure_1">
  <g id="patch_1">
   <path d="M 0 720 
L 720 720 
L 720 0 
L 0 0 
z
" style="fill: #ffffff"/>
  </g>
  <g id="axes_1">
   <g id="patch_2">
    <path d="M 90 338.4 
L 343.636364 338.4 
L 343.636364 86.4 
L 90 86.4 
z
" style="fill: #ffffff"/>
   </g>
   <g id="patch_3">
    <path d="M 132.362099 338.4 
L 165.876417 338.4 
L 165.876417 86.4 
L 132.362099 86.4 
z
" clip-path="url(#p0cce357b1a)" style="fill: #adadad; opacity: 0.4; stroke: #adadad; stroke-linejoin: miter"/>
   </g>
   <g id="patch_4">
    <path d="M 232.905055 338.4 
L 266.419373 338.4 
L 266.419373 86.4 
L 232.905055 86.4 
z
" clip-path="url(#p0cce357b1a)" style="fill: #adadad; opacity: 0.4; stroke: #adadad; stroke-linejoin: miter"/>
   </g>
   <g id="matplotlib.axis_1">
    <g id="xtick_1">
     <g id="line2d_1">
      <defs>
       <path id="m46a0456a7f" d="M 0 0 
L 0 6 
" style="stroke: #000000; stroke-width: 1.25"/>
      </defs>
      <g>
       <use xlink:href="#m46a0456a7f" x="98.84778" y="338.4" style="stroke: #000000; stroke-width: 1.25"/>
      </g>
     </g>
     <g id="text_1">
      <!-- −1.0 -->
      <g transform="translate(78.81446 360.437422) scale(0.165 -0.165)">
       <defs>
        <path id="DejaVuSans-2212" d="M 678 2272 
L 4684 2272 
L 4684 1741 
L 678 1741 
L 678 2272 
z
" transform="scale(0.015625)"/>
        <path id="DejaVuSans-31" d="M 794 531 
L 1825 531 
L 1825 4091 
L 703 3866 
L 703 4441 
L 1819 4666 
L 2450 4666 
L 2450 531 
L 3481 531 
L 3481 0 
L 794 0 
L 794 531 
z
" transform="scale(0.015625)"/>
        <path id="DejaVuSans-2e" d="M 684 794 
L 1344 794 
L 1344 0 
L 684 0 
L 684 794 
z
" transform="scale(0.015625)"/>
        <path id="DejaVuSans-30" d="M 2034 4250 
Q 1547 4250 1301 3770 
Q 1056 3291 1056 2328 
Q 1056 1369 1301 889 
Q 1547 409 2034 409 
Q 2525 409 2770 889 
Q 3016 1369 3016 2328 
Q 3016 3291 2770 3770 
Q 2525 4250 2034 4250 
z
M 2034 4750 
Q 2819 4750 3233 4129 
Q 3647 3509 3647 2328 
Q 3647 1150 3233 529 
Q 2819 -91 2034 -91 
Q 1250 -91 836 529 
Q 422 1150 422 2328 
Q 422 3509 836 4129 
Q 1250 4750 2034 4750 
z
" transform="scale(0.015625)"/>
       </defs>
       <use xlink:href="#DejaVuSans-2212"/>
       <use xlink:href="#DejaVuSans-31" x="83.789062"/>
       <use xlink:href="#DejaVuSans-2e" x="147.412109"/>
       <use xlink:href="#DejaVuSans-30" x="179.199219"/>
      </g>
     </g>
    </g>
    <g id="xtick_2">
     <g id="line2d_2">
      <g>
       <use xlink:href="#m46a0456a7f" x="165.876417" y="338.4" style="stroke: #000000; stroke-width: 1.25"/>
      </g>
     </g>
     <g id="text_2">
      <!-- −0.5 -->
      <g transform="translate(145.843097 360.437422) scale(0.165 -0.165)">
       <defs>
        <path id="DejaVuSans-35" d="M 691 4666 
L 3169 4666 
L 3169 4134 
L 1269 4134 
L 1269 2991 
Q 1406 3038 1543 3061 
Q 1681 3084 1819 3084 
Q 2600 3084 3056 2656 
Q 3513 2228 3513 1497 
Q 3513 744 3044 326 
Q 2575 -91 1722 -91 
Q 1428 -91 1123 -41 
Q 819 9 494 109 
L 494 744 
Q 775 591 1075 516 
Q 1375 441 1709 441 
Q 2250 441 2565 725 
Q 2881 1009 2881 1497 
Q 2881 1984 2565 2268 
Q 2250 2553 1709 2553 
Q 1456 2553 1204 2497 
Q 953 2441 691 2322 
L 691 4666 
z
" transform="scale(0.015625)"/>
       </defs>
       <use xlink:href="#DejaVuSans-2212"/>
       <use xlink:href="#DejaVuSans-30" x="83.789062"/>
       <use xlink:href="#DejaVuSans-2e" x="147.412109"/>
       <use xlink:href="#DejaVuSans-35" x="179.199219"/>
      </g>
     </g>
    </g>
    <g id="xtick_3">
     <g id="line2d_3">
      <g>
       <use xlink:href="#m46a0456a7f" x="232.905055" y="338.4" style="stroke: #000000; stroke-width: 1.25"/>
      </g>
     </g>
     <g id="text_3">
      <!-- 0.0 -->
      <g transform="translate(219.784977 360.437422) scale(0.165 -0.165)">
       <use xlink:href="#DejaVuSans-30"/>
       <use xlink:href="#DejaVuSans-2e" x="63.623047"/>
       <use xlink:href="#DejaVuSans-30" x="95.410156"/>
      </g>
     </g>
    </g>
    <g id="xtick_4">
     <g id="line2d_4">
      <g>
       <use xlink:href="#m46a0456a7f" x="299.933692" y="338.4" style="stroke: #000000; stroke-width: 1.25"/>
      </g>
     </g>
     <g id="text_4">
      <!-- 0.5 -->
      <g transform="translate(286.813614 360.437422) scale(0.165 -0.165)">
       <use xlink:href="#DejaVuSans-30"/>
       <use xlink:href="#DejaVuSans-2e" x="63.623047"/>
       <use xlink:href="#DejaVuSans-35" x="95.410156"/>
      </g>
     </g>
    </g>
   </g>
   <g id="matplotlib.axis_2">
    <g id="ytick_1">
     <g id="line2d_5">
      <defs>
       <path id="m011621eab6" d="M 0 0 
L -6 0 
" style="stroke: #000000; stroke-width: 1.25"/>
      </defs>
      <g>
       <use xlink:href="#m011621eab6" x="90" y="283.4173" style="stroke: #000000; stroke-width: 1.25"/>
      </g>
     </g>
     <g id="text_5">
      <!-- 5 -->
      <g transform="translate(70.001875 289.686011) scale(0.165 -0.165)">
       <use xlink:href="#DejaVuSans-35"/>
      </g>
     </g>
    </g>
    <g id="ytick_2">
     <g id="line2d_6">
      <g>
       <use xlink:href="#m011621eab6" x="90" y="217.279862" style="stroke: #000000; stroke-width: 1.25"/>
      </g>
     </g>
     <g id="text_6">
      <!-- 10 -->
      <g transform="translate(59.50375 223.548573) scale(0.165 -0.165)">
       <use xlink:href="#DejaVuSans-31"/>
       <use xlink:href="#DejaVuSans-30" x="63.623047"/>
      </g>
     </g>
    </g>
    <g id="ytick_3">
     <g id="line2d_7">
      <g>
       <use xlink:href="#m011621eab6" x="90" y="151.142424" style="stroke: #000000; stroke-width: 1.25"/>
      </g>
     </g>
     <g id="text_7">
      <!-- 15 -->
      <g transform="translate(59.50375 157.411135) scale(0.165 -0.165)">
       <use xlink:href="#DejaVuSans-31"/>
       <use xlink:href="#DejaVuSans-35" x="63.623047"/>
      </g>
     </g>
    </g>
    <g id="text_8">
     <!-- firing rate (Hz) -->
     <g transform="translate(51.760312 278.202656) rotate(-90) scale(0.18 -0.18)">
      <defs>
       <path id="DejaVuSans-66" d="M 2375 4863 
L 2375 4384 
L 1825 4384 
Q 1516 4384 1395 4259 
Q 1275 4134 1275 3809 
L 1275 3500 
L 2222 3500 
L 2222 3053 
L 1275 3053 
L 1275 0 
L 697 0 
L 697 3053 
L 147 3053 
L 147 3500 
L 697 3500 
L 697 3744 
Q 697 4328 969 4595 
Q 1241 4863 1831 4863 
L 2375 4863 
z
" transform="scale(0.015625)"/>
       <path id="DejaVuSans-69" d="M 603 3500 
L 1178 3500 
L 1178 0 
L 603 0 
L 603 3500 
z
M 603 4863 
L 1178 4863 
L 1178 4134 
L 603 4134 
L 603 4863 
z
" transform="scale(0.015625)"/>
       <path id="DejaVuSans-72" d="M 2631 2963 
Q 2534 3019 2420 3045 
Q 2306 3072 2169 3072 
Q 1681 3072 1420 2755 
Q 1159 2438 1159 1844 
L 1159 0 
L 581 0 
L 581 3500 
L 1159 3500 
L 1159 2956 
Q 1341 3275 1631 3429 
Q 1922 3584 2338 3584 
Q 2397 3584 2469 3576 
Q 2541 3569 2628 3553 
L 2631 2963 
z
" transform="scale(0.015625)"/>
       <path id="DejaVuSans-6e" d="M 3513 2113 
L 3513 0 
L 2938 0 
L 2938 2094 
Q 2938 2591 2744 2837 
Q 2550 3084 2163 3084 
Q 1697 3084 1428 2787 
Q 1159 2491 1159 1978 
L 1159 0 
L 581 0 
L 581 3500 
L 1159 3500 
L 1159 2956 
Q 1366 3272 1645 3428 
Q 1925 3584 2291 3584 
Q 2894 3584 3203 3211 
Q 3513 2838 3513 2113 
z
" transform="scale(0.015625)"/>
       <path id="DejaVuSans-67" d="M 2906 1791 
Q 2906 2416 2648 2759 
Q 2391 3103 1925 3103 
Q 1463 3103 1205 2759 
Q 947 2416 947 1791 
Q 947 1169 1205 825 
Q 1463 481 1925 481 
Q 2391 481 2648 825 
Q 2906 1169 2906 1791 
z
M 3481 434 
Q 3481 -459 3084 -895 
Q 2688 -1331 1869 -1331 
Q 1566 -1331 1297 -1286 
Q 1028 -1241 775 -1147 
L 775 -588 
Q 1028 -725 1275 -790 
Q 1522 -856 1778 -856 
Q 2344 -856 2625 -561 
Q 2906 -266 2906 331 
L 2906 616 
Q 2728 306 2450 153 
Q 2172 0 1784 0 
Q 1141 0 747 490 
Q 353 981 353 1791 
Q 353 2603 747 3093 
Q 1141 3584 1784 3584 
Q 2172 3584 2450 3431 
Q 2728 3278 2906 2969 
L 2906 3500 
L 3481 3500 
L 3481 434 
z
" transform="scale(0.015625)"/>
       <path id="DejaVuSans-20" transform="scale(0.015625)"/>
       <path id="DejaVuSans-61" d="M 2194 1759 
Q 1497 1759 1228 1600 
Q 959 1441 959 1056 
Q 959 750 1161 570 
Q 1363 391 1709 391 
Q 2188 391 2477 730 
Q 2766 1069 2766 1631 
L 2766 1759 
L 2194 1759 
z
M 3341 1997 
L 3341 0 
L 2766 0 
L 2766 531 
Q 2569 213 2275 61 
Q 1981 -91 1556 -91 
Q 1019 -91 701 211 
Q 384 513 384 1019 
Q 384 1609 779 1909 
Q 1175 2209 1959 2209 
L 2766 2209 
L 2766 2266 
Q 2766 2663 2505 2880 
Q 2244 3097 1772 3097 
Q 1472 3097 1187 3025 
Q 903 2953 641 2809 
L 641 3341 
Q 956 3463 1253 3523 
Q 1550 3584 1831 3584 
Q 2591 3584 2966 3190 
Q 3341 2797 3341 1997 
z
" transform="scale(0.015625)"/>
       <path id="DejaVuSans-74" d="M 1172 4494 
L 1172 3500 
L 2356 3500 
L 2356 3053 
L 1172 3053 
L 1172 1153 
Q 1172 725 1289 603 
Q 1406 481 1766 481 
L 2356 481 
L 2356 0 
L 1766 0 
Q 1100 0 847 248 
Q 594 497 594 1153 
L 594 3053 
L 172 3053 
L 172 3500 
L 594 3500 
L 594 4494 
L 1172 4494 
z
" transform="scale(0.015625)"/>
       <path id="DejaVuSans-65" d="M 3597 1894 
L 3597 1613 
L 953 1613 
Q 991 1019 1311 708 
Q 1631 397 2203 397 
Q 2534 397 2845 478 
Q 3156 559 3463 722 
L 3463 178 
Q 3153 47 2828 -22 
Q 2503 -91 2169 -91 
Q 1331 -91 842 396 
Q 353 884 353 1716 
Q 353 2575 817 3079 
Q 1281 3584 2069 3584 
Q 2775 3584 3186 3129 
Q 3597 2675 3597 1894 
z
M 3022 2063 
Q 3016 2534 2758 2815 
Q 2500 3097 2075 3097 
Q 1594 3097 1305 2825 
Q 1016 2553 972 2059 
L 3022 2063 
z
" transform="scale(0.015625)"/>
       <path id="DejaVuSans-28" d="M 1984 4856 
Q 1566 4138 1362 3434 
Q 1159 2731 1159 2009 
Q 1159 1288 1364 580 
Q 1569 -128 1984 -844 
L 1484 -844 
Q 1016 -109 783 600 
Q 550 1309 550 2009 
Q 550 2706 781 3412 
Q 1013 4119 1484 4856 
L 1984 4856 
z
" transform="scale(0.015625)"/>
       <path id="DejaVuSans-48" d="M 628 4666 
L 1259 4666 
L 1259 2753 
L 3553 2753 
L 3553 4666 
L 4184 4666 
L 4184 0 
L 3553 0 
L 3553 2222 
L 1259 2222 
L 1259 0 
L 628 0 
L 628 4666 
z
" transform="scale(0.015625)"/>
       <path id="DejaVuSans-7a" d="M 353 3500 
L 3084 3500 
L 3084 2975 
L 922 459 
L 3084 459 
L 3084 0 
L 275 0 
L 275 525 
L 2438 3041 
L 353 3041 
L 353 3500 
z
" transform="scale(0.015625)"/>
       <path id="DejaVuSans-29" d="M 513 4856 
L 1013 4856 
Q 1481 4119 1714 3412 
Q 1947 2706 1947 2009 
Q 1947 1309 1714 600 
Q 1481 -109 1013 -844 
L 513 -844 
Q 928 -128 1133 580 
Q 1338 1288 1338 2009 
Q 1338 2731 1133 3434 
Q 928 4138 513 4856 
z
" transform="scale(0.015625)"/>
      </defs>
      <use xlink:href="#DejaVuSans-66"/>
      <use xlink:href="#DejaVuSans-69" x="35.205078"/>
      <use xlink:href="#DejaVuSans-72" x="62.988281"/>
      <use xlink:href="#DejaVuSans-69" x="104.101562"/>
      <use xlink:href="#DejaVuSans-6e" x="131.884766"/>
      <use xlink:href="#DejaVuSans-67" x="195.263672"/>
      <use xlink:href="#DejaVuSans-20" x="258.740234"/>
      <use xlink:href="#DejaVuSans-72" x="290.527344"/>
      <use xlink:href="#DejaVuSans-61" x="331.640625"/>
      <use xlink:href="#DejaVuSans-74" x="392.919922"/>
      <use xlink:href="#DejaVuSans-65" x="432.128906"/>
      <use xlink:href="#DejaVuSans-20" x="493.652344"/>
      <use xlink:href="#DejaVuSans-28" x="525.439453"/>
      <use xlink:href="#DejaVuSans-48" x="564.453125"/>
      <use xlink:href="#DejaVuSans-7a" x="639.648438"/>
      <use xlink:href="#DejaVuSans-29" x="692.138672"/>
     </g>
    </g>
   </g>
   <g id="line2d_8">
    <path d="M 101.528926 280.582839 
L 106.891217 288.141403 
L 112.253508 273.024274 
L 117.615799 283.4173 
L 122.97809 273.024274 
L 128.340381 275.858736 
L 133.702672 280.582839 
L 139.064963 228.617709 
L 144.427254 273.024274 
L 149.789544 290.031044 
L 155.151835 298.534429 
L 160.514126 279.638018 
L 165.876417 282.47248 
L 171.238708 269.244992 
L 176.600999 282.47248 
L 181.96329 298.534429 
L 187.325581 270.189813 
L 192.687872 268.300172 
L 198.050163 279.638018 
L 203.412454 273.024274 
L 208.774745 268.300172 
L 214.137036 288.141403 
L 219.499327 276.803557 
L 224.861618 278.693198 
L 230.223909 275.858736 
L 235.5862 256.962325 
L 240.948491 173.818117 
L 246.310782 206.886836 
L 251.673073 233.341812 
L 257.035364 245.624479 
L 262.397655 268.300172 
L 267.759946 254.127864 
L 273.122237 260.741607 
L 278.484528 290.975865 
L 283.846819 309.872276 
L 289.20911 309.872276 
L 294.571401 284.362121 
L 299.933692 292.865506 
L 305.295983 290.975865 
L 310.658274 295.699967 
L 316.020565 290.975865 
L 321.382856 305.148173 
L 326.745147 303.258532 
L 332.107438 308.927455 
" clip-path="url(#p0cce357b1a)" style="fill: none; stroke: #8a2be2; stroke-width: 2; stroke-linecap: square"/>
   </g>
   <g id="line2d_9">
    <path d="M 101.528926 301.060994 
L 106.891217 293.031529 
L 112.253508 295.884102 
L 117.615799 295.989753 
L 122.97809 294.299339 
L 128.340381 296.095404 
L 133.702672 295.250197 
L 139.064963 206.609125 
L 144.427254 253.623758 
L 149.789544 283.4173 
L 155.151835 288.805494 
L 160.514126 271.901357 
L 165.876417 274.965232 
L 171.238708 268.731831 
L 176.600999 301.166645 
L 181.96329 311.414778 
L 187.325581 303.385313 
L 192.687872 293.982386 
L 198.050163 296.518007 
L 203.412454 299.159278 
L 208.774745 299.159278 
L 214.137036 293.031529 
L 219.499327 300.215787 
L 224.861618 296.412356 
L 230.223909 299.264929 
L 235.5862 283.31165 
L 240.948491 150.402868 
L 246.310782 205.024363 
L 251.673073 248.129913 
L 257.035364 245.27734 
L 262.397655 252.778551 
L 267.759946 263.871891 
L 273.122237 260.06846 
L 278.484528 312.788239 
L 283.846819 326.945455 
L 289.20911 324.092881 
L 294.571401 306.343537 
L 299.933692 293.665434 
L 305.295983 300.004485 
L 310.658274 306.237886 
L 316.020565 302.751408 
L 321.382856 297.891468 
L 326.745147 298.631024 
L 332.107438 314.373002 
" clip-path="url(#p0cce357b1a)" style="fill: none; stroke-dasharray: 7.4,3.2; stroke-dashoffset: 0; stroke: #000000; stroke-width: 2"/>
   </g>
   <g id="patch_5">
    <path d="M 90 338.4 
L 90 86.4 
" style="fill: none; stroke: #000000; stroke-width: 1.25; stroke-linejoin: miter; stroke-linecap: square"/>
   </g>
   <g id="patch_6">
    <path d="M 90 338.4 
L 343.636364 338.4 
" style="fill: none; stroke: #000000; stroke-width: 1.25; stroke-linejoin: miter; stroke-linecap: square"/>
   </g>
   <g id="text_9">
    <!-- F$\rightarrow$F -->
    <g transform="translate(195.398182 80.4) scale(0.18 -0.18)">
     <defs>
      <path id="DejaVuSans-46" d="M 628 4666 
L 3309 4666 
L 3309 4134 
L 1259 4134 
L 1259 2759 
L 3109 2759 
L 3109 2228 
L 1259 2228 
L 1259 0 
L 628 0 
L 628 4666 
z
" transform="scale(0.015625)"/>
      <path id="DejaVuSans-2192" d="M 5050 2147 
L 5050 1866 
L 3822 638 
L 3447 1013 
L 4175 1741 
L 366 1741 
L 366 2272 
L 4175 2272 
L 3447 3000 
L 3822 3375 
L 5050 2147 
z
" transform="scale(0.015625)"/>
     </defs>
     <use xlink:href="#DejaVuSans-46" transform="translate(0 0.09375)"/>
     <use xlink:href="#DejaVuSans-2192" transform="translate(77.001953 0.09375)"/>
     <use xlink:href="#DejaVuSans-46" transform="translate(180.273438 0.09375)"/>
    </g>
   </g>
  </g>
  <g id="axes_2">
   <g id="patch_7">
    <path d="M 394.363636 338.4 
L 648 338.4 
L 648 86.4 
L 394.363636 86.4 
z
" style="fill: #ffffff"/>
   </g>
   <g id="patch_8">
    <path d="M 436.725735 338.4 
L 470.240054 338.4 
L 470.240054 86.4 
L 436.725735 86.4 
z
" clip-path="url(#pfc0695ec11)" style="fill: #adadad; opacity: 0.4; stroke: #adadad; stroke-linejoin: miter"/>
   </g>
   <g id="patch_9">
    <path d="M 537.268691 338.4 
L 570.78301 338.4 
L 570.78301 86.4 
L 537.268691 86.4 
z
" clip-path="url(#pfc0695ec11)" style="fill: #2b2b2b; opacity: 0.4; stroke: #2b2b2b; stroke-linejoin: miter"/>
   </g>
   <g id="matplotlib.axis_3">
    <g id="xtick_5">
     <g id="line2d_10">
      <g>
       <use xlink:href="#m46a0456a7f" x="403.211416" y="338.4" style="stroke: #000000; stroke-width: 1.25"/>
      </g>
     </g>
     <g id="text_10">
      <!-- −1.0 -->
      <g transform="translate(383.178096 360.437422) scale(0.165 -0.165)">
       <use xlink:href="#DejaVuSans-2212"/>
       <use xlink:href="#DejaVuSans-31" x="83.789062"/>
       <use xlink:href="#DejaVuSans-2e" x="147.412109"/>
       <use xlink:href="#DejaVuSans-30" x="179.199219"/>
      </g>
     </g>
    </g>
    <g id="xtick_6">
     <g id="line2d_11">
      <g>
       <use xlink:href="#m46a0456a7f" x="470.240054" y="338.4" style="stroke: #000000; stroke-width: 1.25"/>
      </g>
     </g>
     <g id="text_11">
      <!-- −0.5 -->
      <g transform="translate(450.206734 360.437422) scale(0.165 -0.165)">
       <use xlink:href="#DejaVuSans-2212"/>
       <use xlink:href="#DejaVuSans-30" x="83.789062"/>
       <use xlink:href="#DejaVuSans-2e" x="147.412109"/>
       <use xlink:href="#DejaVuSans-35" x="179.199219"/>
      </g>
     </g>
    </g>
    <g id="xtick_7">
     <g id="line2d_12">
      <g>
       <use xlink:href="#m46a0456a7f" x="537.268691" y="338.4" style="stroke: #000000; stroke-width: 1.25"/>
      </g>
     </g>
     <g id="text_12">
      <!-- 0.0 -->
      <g transform="translate(524.148613 360.437422) scale(0.165 -0.165)">
       <use xlink:href="#DejaVuSans-30"/>
       <use xlink:href="#DejaVuSans-2e" x="63.623047"/>
       <use xlink:href="#DejaVuSans-30" x="95.410156"/>
      </g>
     </g>
    </g>
    <g id="xtick_8">
     <g id="line2d_13">
      <g>
       <use xlink:href="#m46a0456a7f" x="604.297328" y="338.4" style="stroke: #000000; stroke-width: 1.25"/>
      </g>
     </g>
     <g id="text_13">
      <!-- 0.5 -->
      <g transform="translate(591.17725 360.437422) scale(0.165 -0.165)">
       <use xlink:href="#DejaVuSans-30"/>
       <use xlink:href="#DejaVuSans-2e" x="63.623047"/>
       <use xlink:href="#DejaVuSans-35" x="95.410156"/>
      </g>
     </g>
    </g>
   </g>
   <g id="matplotlib.axis_4">
    <g id="ytick_4">
     <g id="line2d_14">
      <g>
       <use xlink:href="#m011621eab6" x="394.363636" y="283.4173" style="stroke: #000000; stroke-width: 1.25"/>
      </g>
     </g>
    </g>
    <g id="ytick_5">
     <g id="line2d_15">
      <g>
       <use xlink:href="#m011621eab6" x="394.363636" y="217.279862" style="stroke: #000000; stroke-width: 1.25"/>
      </g>
     </g>
    </g>
    <g id="ytick_6">
     <g id="line2d_16">
      <g>
       <use xlink:href="#m011621eab6" x="394.363636" y="151.142424" style="stroke: #000000; stroke-width: 1.25"/>
      </g>
     </g>
    </g>
   </g>
   <g id="line2d_17">
    <path d="M 405.892562 274.441505 
L 411.254853 276.488616 
L 416.617144 276.016206 
L 421.979435 274.284035 
L 427.341726 276.016206 
L 432.704017 273.969095 
L 438.066308 273.181744 
L 443.428599 221.531555 
L 448.79089 259.639317 
L 454.153181 290.031044 
L 459.515472 291.290805 
L 464.877763 284.677061 
L 470.240054 282.94489 
L 475.602345 258.694496 
L 480.964636 275.071386 
L 486.326927 291.448275 
L 491.689218 281.055249 
L 497.051509 269.717402 
L 502.4138 279.952958 
L 507.776091 272.236924 
L 513.138382 279.008138 
L 518.500673 281.212719 
L 523.862964 269.559932 
L 529.225255 276.173676 
L 534.587546 275.386326 
L 539.949837 264.520889 
L 545.312128 126.26215 
L 550.674419 103.114046 
L 556.03671 161.53545 
L 561.399001 195.54899 
L 566.761292 213.81552 
L 572.123583 227.200478 
L 577.485874 235.546393 
L 582.848165 280.110428 
L 588.210456 292.708036 
L 593.572746 285.621882 
L 598.935037 282.00007 
L 604.297328 283.25983 
L 609.659619 296.644788 
L 615.02191 304.833233 
L 620.384201 301.841301 
L 625.746492 298.691899 
L 631.108783 301.368891 
L 636.471074 310.659626 
" clip-path="url(#pfc0695ec11)" style="fill: none; stroke: #8a2be2; stroke-width: 2; stroke-linecap: square"/>
   </g>
   <g id="line2d_18">
    <path d="M 405.892562 297.574516 
L 411.254853 295.708017 
L 416.617144 296.077795 
L 421.979435 295.250197 
L 427.341726 293.278047 
L 432.704017 292.573708 
L 438.066308 290.900903 
L 443.428599 208.440407 
L 448.79089 254.962002 
L 454.153181 282.448834 
L 459.515472 278.592578 
L 464.877763 271.584404 
L 470.240054 271.707663 
L 475.602345 267.640105 
L 480.964636 299.247321 
L 486.326927 314.883648 
L 491.689218 307.57613 
L 497.051509 296.324314 
L 502.4138 294.898027 
L 507.776091 296.553224 
L 513.138382 296.007361 
L 518.500673 296.25388 
L 523.862964 294.704334 
L 529.225255 295.338239 
L 534.587546 293.735868 
L 539.949837 281.92058 
L 545.312128 133.868509 
L 550.674419 147.585512 
L 556.03671 196.360992 
L 561.399001 219.674615 
L 566.761292 228.936674 
L 572.123583 239.572194 
L 577.485874 253.48289 
L 582.848165 304.283345 
L 588.210456 316.257109 
L 593.572746 311.520429 
L 598.935037 302.804233 
L 604.297328 294.98607 
L 609.659619 301.870984 
L 615.02191 305.322245 
L 620.384201 306.343537 
L 625.746492 302.663365 
L 631.108783 303.314879 
L 636.471074 313.580621 
" clip-path="url(#pfc0695ec11)" style="fill: none; stroke-dasharray: 7.4,3.2; stroke-dashoffset: 0; stroke: #000000; stroke-width: 2"/>
   </g>
   <g id="patch_10">
    <path d="M 394.363636 338.4 
L 394.363636 86.4 
" style="fill: none; stroke: #000000; stroke-width: 1.25; stroke-linejoin: miter; stroke-linecap: square"/>
   </g>
   <g id="patch_11">
    <path d="M 394.363636 338.4 
L 648 338.4 
" style="fill: none; stroke: #000000; stroke-width: 1.25; stroke-linejoin: miter; stroke-linecap: square"/>
   </g>
   <g id="text_14">
    <!-- F$\rightarrow$N -->
    <g transform="translate(498.141818 80.4) scale(0.18 -0.18)">
     <defs>
      <path id="DejaVuSans-4e" d="M 628 4666 
L 1478 4666 
L 3547 763 
L 3547 4666 
L 4159 4666 
L 4159 0 
L 3309 0 
L 1241 3903 
L 1241 0 
L 628 0 
L 628 4666 
z
" transform="scale(0.015625)"/>
     </defs>
     <use xlink:href="#DejaVuSans-46" transform="translate(0 0.09375)"/>
     <use xlink:href="#DejaVuSans-2192" transform="translate(77.001953 0.09375)"/>
     <use xlink:href="#DejaVuSans-4e" transform="translate(180.273438 0.09375)"/>
    </g>
   </g>
   <g id="legend_1">
    <g id="patch_12">
     <path d="M 569.23125 131.2275 
L 639.6 131.2275 
Q 642 131.2275 642 128.8275 
L 642 94.8 
Q 642 92.4 639.6 92.4 
L 569.23125 92.4 
Q 566.83125 92.4 566.83125 94.8 
L 566.83125 128.8275 
Q 566.83125 131.2275 569.23125 131.2275 
z
" style="fill: #ffffff; opacity: 0.8; stroke: #cccccc; stroke-linejoin: miter"/>
    </g>
    <g id="line2d_19">
     <path d="M 571.63125 102.118125 
L 583.63125 102.118125 
L 595.63125 102.118125 
" style="fill: none; stroke: #8a2be2; stroke-width: 2; stroke-linecap: square"/>
    </g>
    <g id="text_15">
     <!-- vip -->
     <g transform="translate(605.23125 106.318125) scale(0.12 -0.12)">
      <defs>
       <path id="DejaVuSans-76" d="M 191 3500 
L 800 3500 
L 1894 563 
L 2988 3500 
L 3597 3500 
L 2284 0 
L 1503 0 
L 191 3500 
z
" transform="scale(0.015625)"/>
       <path id="DejaVuSans-70" d="M 1159 525 
L 1159 -1331 
L 581 -1331 
L 581 3500 
L 1159 3500 
L 1159 2969 
Q 1341 3281 1617 3432 
Q 1894 3584 2278 3584 
Q 2916 3584 3314 3078 
Q 3713 2572 3713 1747 
Q 3713 922 3314 415 
Q 2916 -91 2278 -91 
Q 1894 -91 1617 61 
Q 1341 213 1159 525 
z
M 3116 1747 
Q 3116 2381 2855 2742 
Q 2594 3103 2138 3103 
Q 1681 3103 1420 2742 
Q 1159 2381 1159 1747 
Q 1159 1113 1420 752 
Q 1681 391 2138 391 
Q 2594 391 2855 752 
Q 3116 1113 3116 1747 
z
" transform="scale(0.015625)"/>
      </defs>
      <use xlink:href="#DejaVuSans-76"/>
      <use xlink:href="#DejaVuSans-69" x="59.179688"/>
      <use xlink:href="#DejaVuSans-70" x="86.962891"/>
     </g>
    </g>
    <g id="line2d_20">
     <path d="M 571.63125 119.731875 
L 583.63125 119.731875 
L 595.63125 119.731875 
" style="fill: none; stroke-dasharray: 7.4,3.2; stroke-dashoffset: 0; stroke: #000000; stroke-width: 2"/>
    </g>
    <g id="text_16">
     <!-- other -->
     <g transform="translate(605.23125 123.931875) scale(0.12 -0.12)">
      <defs>
       <path id="DejaVuSans-6f" d="M 1959 3097 
Q 1497 3097 1228 2736 
Q 959 2375 959 1747 
Q 959 1119 1226 758 
Q 1494 397 1959 397 
Q 2419 397 2687 759 
Q 2956 1122 2956 1747 
Q 2956 2369 2687 2733 
Q 2419 3097 1959 3097 
z
M 1959 3584 
Q 2709 3584 3137 3096 
Q 3566 2609 3566 1747 
Q 3566 888 3137 398 
Q 2709 -91 1959 -91 
Q 1206 -91 779 398 
Q 353 888 353 1747 
Q 353 2609 779 3096 
Q 1206 3584 1959 3584 
z
" transform="scale(0.015625)"/>
       <path id="DejaVuSans-68" d="M 3513 2113 
L 3513 0 
L 2938 0 
L 2938 2094 
Q 2938 2591 2744 2837 
Q 2550 3084 2163 3084 
Q 1697 3084 1428 2787 
Q 1159 2491 1159 1978 
L 1159 0 
L 581 0 
L 581 4863 
L 1159 4863 
L 1159 2956 
Q 1366 3272 1645 3428 
Q 1925 3584 2291 3584 
Q 2894 3584 3203 3211 
Q 3513 2838 3513 2113 
z
" transform="scale(0.015625)"/>
      </defs>
      <use xlink:href="#DejaVuSans-6f"/>
      <use xlink:href="#DejaVuSans-74" x="61.181641"/>
      <use xlink:href="#DejaVuSans-68" x="100.390625"/>
      <use xlink:href="#DejaVuSans-65" x="163.769531"/>
      <use xlink:href="#DejaVuSans-72" x="225.292969"/>
     </g>
    </g>
   </g>
  </g>
  <g id="axes_3">
   <g id="patch_13">
    <path d="M 90 640.8 
L 343.636364 640.8 
L 343.636364 388.8 
L 90 388.8 
z
" style="fill: #ffffff"/>
   </g>
   <g id="patch_14">
    <path d="M 232.905055 640.8 
L 266.419373 640.8 
L 266.419373 388.8 
L 232.905055 388.8 
z
" clip-path="url(#p0b8026dcc0)" style="fill: #adadad; opacity: 0.4; stroke: #adadad; stroke-linejoin: miter"/>
   </g>
   <g id="patch_15">
    <path d="M 132.362099 640.8 
L 165.876417 640.8 
L 165.876417 388.8 
L 132.362099 388.8 
z
" clip-path="url(#p0b8026dcc0)" style="fill: #2b2b2b; opacity: 0.4; stroke: #2b2b2b; stroke-linejoin: miter"/>
   </g>
   <g id="matplotlib.axis_5">
    <g id="xtick_9">
     <g id="line2d_21">
      <g>
       <use xlink:href="#m46a0456a7f" x="98.84778" y="640.8" style="stroke: #000000; stroke-width: 1.25"/>
      </g>
     </g>
     <g id="text_17">
      <!-- −1.0 -->
      <g transform="translate(78.81446 662.837422) scale(0.165 -0.165)">
       <use xlink:href="#DejaVuSans-2212"/>
       <use xlink:href="#DejaVuSans-31" x="83.789062"/>
       <use xlink:href="#DejaVuSans-2e" x="147.412109"/>
       <use xlink:href="#DejaVuSans-30" x="179.199219"/>
      </g>
     </g>
    </g>
    <g id="xtick_10">
     <g id="line2d_22">
      <g>
       <use xlink:href="#m46a0456a7f" x="165.876417" y="640.8" style="stroke: #000000; stroke-width: 1.25"/>
      </g>
     </g>
     <g id="text_18">
      <!-- −0.5 -->
      <g transform="translate(145.843097 662.837422) scale(0.165 -0.165)">
       <use xlink:href="#DejaVuSans-2212"/>
       <use xlink:href="#DejaVuSans-30" x="83.789062"/>
       <use xlink:href="#DejaVuSans-2e" x="147.412109"/>
       <use xlink:href="#DejaVuSans-35" x="179.199219"/>
      </g>
     </g>
    </g>
    <g id="xtick_11">
     <g id="line2d_23">
      <g>
       <use xlink:href="#m46a0456a7f" x="232.905055" y="640.8" style="stroke: #000000; stroke-width: 1.25"/>
      </g>
     </g>
     <g id="text_19">
      <!-- 0.0 -->
      <g transform="translate(219.784977 662.837422) scale(0.165 -0.165)">
       <use xlink:href="#DejaVuSans-30"/>
       <use xlink:href="#DejaVuSans-2e" x="63.623047"/>
       <use xlink:href="#DejaVuSans-30" x="95.410156"/>
      </g>
     </g>
    </g>
    <g id="xtick_12">
     <g id="line2d_24">
      <g>
       <use xlink:href="#m46a0456a7f" x="299.933692" y="640.8" style="stroke: #000000; stroke-width: 1.25"/>
      </g>
     </g>
     <g id="text_20">
      <!-- 0.5 -->
      <g transform="translate(286.813614 662.837422) scale(0.165 -0.165)">
       <use xlink:href="#DejaVuSans-30"/>
       <use xlink:href="#DejaVuSans-2e" x="63.623047"/>
       <use xlink:href="#DejaVuSans-35" x="95.410156"/>
      </g>
     </g>
    </g>
    <g id="text_21">
     <!-- time (s) -->
     <g transform="translate(181.913651 683.946094) scale(0.18 -0.18)">
      <defs>
       <path id="DejaVuSans-6d" d="M 3328 2828 
Q 3544 3216 3844 3400 
Q 4144 3584 4550 3584 
Q 5097 3584 5394 3201 
Q 5691 2819 5691 2113 
L 5691 0 
L 5113 0 
L 5113 2094 
Q 5113 2597 4934 2840 
Q 4756 3084 4391 3084 
Q 3944 3084 3684 2787 
Q 3425 2491 3425 1978 
L 3425 0 
L 2847 0 
L 2847 2094 
Q 2847 2600 2669 2842 
Q 2491 3084 2119 3084 
Q 1678 3084 1418 2786 
Q 1159 2488 1159 1978 
L 1159 0 
L 581 0 
L 581 3500 
L 1159 3500 
L 1159 2956 
Q 1356 3278 1631 3431 
Q 1906 3584 2284 3584 
Q 2666 3584 2933 3390 
Q 3200 3197 3328 2828 
z
" transform="scale(0.015625)"/>
       <path id="DejaVuSans-73" d="M 2834 3397 
L 2834 2853 
Q 2591 2978 2328 3040 
Q 2066 3103 1784 3103 
Q 1356 3103 1142 2972 
Q 928 2841 928 2578 
Q 928 2378 1081 2264 
Q 1234 2150 1697 2047 
L 1894 2003 
Q 2506 1872 2764 1633 
Q 3022 1394 3022 966 
Q 3022 478 2636 193 
Q 2250 -91 1575 -91 
Q 1294 -91 989 -36 
Q 684 19 347 128 
L 347 722 
Q 666 556 975 473 
Q 1284 391 1588 391 
Q 1994 391 2212 530 
Q 2431 669 2431 922 
Q 2431 1156 2273 1281 
Q 2116 1406 1581 1522 
L 1381 1569 
Q 847 1681 609 1914 
Q 372 2147 372 2553 
Q 372 3047 722 3315 
Q 1072 3584 1716 3584 
Q 2034 3584 2315 3537 
Q 2597 3491 2834 3397 
z
" transform="scale(0.015625)"/>
      </defs>
      <use xlink:href="#DejaVuSans-74"/>
      <use xlink:href="#DejaVuSans-69" x="39.208984"/>
      <use xlink:href="#DejaVuSans-6d" x="66.992188"/>
      <use xlink:href="#DejaVuSans-65" x="164.404297"/>
      <use xlink:href="#DejaVuSans-20" x="225.927734"/>
      <use xlink:href="#DejaVuSans-28" x="257.714844"/>
      <use xlink:href="#DejaVuSans-73" x="296.728516"/>
      <use xlink:href="#DejaVuSans-29" x="348.828125"/>
     </g>
    </g>
   </g>
   <g id="matplotlib.axis_6">
    <g id="ytick_7">
     <g id="line2d_25">
      <g>
       <use xlink:href="#m011621eab6" x="90" y="585.8173" style="stroke: #000000; stroke-width: 1.25"/>
      </g>
     </g>
     <g id="text_22">
      <!-- 5 -->
      <g transform="translate(70.001875 592.086011) scale(0.165 -0.165)">
       <use xlink:href="#DejaVuSans-35"/>
      </g>
     </g>
    </g>
    <g id="ytick_8">
     <g id="line2d_26">
      <g>
       <use xlink:href="#m011621eab6" x="90" y="519.679862" style="stroke: #000000; stroke-width: 1.25"/>
      </g>
     </g>
     <g id="text_23">
      <!-- 10 -->
      <g transform="translate(59.50375 525.948573) scale(0.165 -0.165)">
       <use xlink:href="#DejaVuSans-31"/>
       <use xlink:href="#DejaVuSans-30" x="63.623047"/>
      </g>
     </g>
    </g>
    <g id="ytick_9">
     <g id="line2d_27">
      <g>
       <use xlink:href="#m011621eab6" x="90" y="453.542424" style="stroke: #000000; stroke-width: 1.25"/>
      </g>
     </g>
     <g id="text_24">
      <!-- 15 -->
      <g transform="translate(59.50375 459.811135) scale(0.165 -0.165)">
       <use xlink:href="#DejaVuSans-31"/>
       <use xlink:href="#DejaVuSans-35" x="63.623047"/>
      </g>
     </g>
    </g>
    <g id="text_25">
     <!-- firing rate (Hz) -->
     <g transform="translate(51.760312 580.602656) rotate(-90) scale(0.18 -0.18)">
      <use xlink:href="#DejaVuSans-66"/>
      <use xlink:href="#DejaVuSans-69" x="35.205078"/>
      <use xlink:href="#DejaVuSans-72" x="62.988281"/>
      <use xlink:href="#DejaVuSans-69" x="104.101562"/>
      <use xlink:href="#DejaVuSans-6e" x="131.884766"/>
      <use xlink:href="#DejaVuSans-67" x="195.263672"/>
      <use xlink:href="#DejaVuSans-20" x="258.740234"/>
      <use xlink:href="#DejaVuSans-72" x="290.527344"/>
      <use xlink:href="#DejaVuSans-61" x="331.640625"/>
      <use xlink:href="#DejaVuSans-74" x="392.919922"/>
      <use xlink:href="#DejaVuSans-65" x="432.128906"/>
      <use xlink:href="#DejaVuSans-20" x="493.652344"/>
      <use xlink:href="#DejaVuSans-28" x="525.439453"/>
      <use xlink:href="#DejaVuSans-48" x="564.453125"/>
      <use xlink:href="#DejaVuSans-7a" x="639.648438"/>
      <use xlink:href="#DejaVuSans-29" x="692.138672"/>
     </g>
    </g>
   </g>
   <g id="line2d_28">
    <path d="M 101.528926 580.148377 
L 106.891217 580.778257 
L 112.253508 587.392001 
L 117.615799 586.289711 
L 122.97809 584.55754 
L 128.340381 585.34489 
L 133.702672 587.864412 
L 139.064963 502.988033 
L 144.427254 489.918015 
L 149.789544 530.072888 
L 155.151835 556.370393 
L 160.514126 557.315214 
L 165.876417 559.204855 
L 171.238708 547.867009 
L 176.600999 568.02318 
L 181.96329 580.148377 
L 187.325581 580.148377 
L 192.687872 568.810531 
L 198.050163 567.23583 
L 203.412454 582.825369 
L 208.774745 583.140309 
L 214.137036 582.352958 
L 219.499327 583.140309 
L 224.861618 586.447181 
L 230.223909 584.085129 
L 235.5862 573.534633 
L 240.948491 477.005468 
L 246.310782 514.325879 
L 251.673073 563.614018 
L 257.035364 571.172582 
L 262.397655 557.315214 
L 267.759946 570.227761 
L 273.122237 567.23583 
L 278.484528 596.997677 
L 283.846819 603.453951 
L 289.20911 597.155147 
L 294.571401 583.927659 
L 299.933692 583.770189 
L 305.295983 586.604651 
L 310.658274 591.013813 
L 316.020565 589.911523 
L 321.382856 591.486224 
L 326.745147 592.431044 
L 332.107438 610.540105 
" clip-path="url(#p0b8026dcc0)" style="fill: none; stroke: #8a2be2; stroke-width: 2; stroke-linecap: square"/>
   </g>
   <g id="line2d_29">
    <path d="M 101.528926 603.408169 
L 106.891217 603.97164 
L 112.253508 602.879914 
L 117.615799 602.246009 
L 122.97809 602.703829 
L 128.340381 601.858623 
L 133.702672 600.819722 
L 139.064963 512.442778 
L 144.427254 515.77078 
L 149.789544 547.377996 
L 155.151835 560.637179 
L 160.514126 559.791972 
L 165.876417 561.359126 
L 171.238708 559.034807 
L 176.600999 596.963466 
L 181.96329 611.860237 
L 187.325581 604.394243 
L 192.687872 599.727997 
L 198.050163 600.978199 
L 203.412454 602.087533 
L 208.774745 601.77058 
L 214.137036 602.281226 
L 219.499327 604.253375 
L 224.861618 602.105141 
L 230.223909 600.872548 
L 235.5862 592.790257 
L 240.948491 462.48753 
L 246.310782 520.824413 
L 251.673073 555.108117 
L 257.035364 557.678955 
L 262.397655 556.46397 
L 267.759946 559.985665 
L 273.122237 567.574919 
L 278.484528 612.75827 
L 283.846819 623.974869 
L 289.20911 616.544092 
L 294.571401 605.274667 
L 299.933692 596.734556 
L 305.295983 604.552719 
L 310.658274 602.228401 
L 316.020565 601.981882 
L 321.382856 600.27386 
L 326.745147 599.182134 
L 332.107438 612.934354 
" clip-path="url(#p0b8026dcc0)" style="fill: none; stroke-dasharray: 7.4,3.2; stroke-dashoffset: 0; stroke: #000000; stroke-width: 2"/>
   </g>
   <g id="patch_16">
    <path d="M 90 640.8 
L 90 388.8 
" style="fill: none; stroke: #000000; stroke-width: 1.25; stroke-linejoin: miter; stroke-linecap: square"/>
   </g>
   <g id="patch_17">
    <path d="M 90 640.8 
L 343.636364 640.8 
" style="fill: none; stroke: #000000; stroke-width: 1.25; stroke-linejoin: miter; stroke-linecap: square"/>
   </g>
   <g id="text_26">
    <!-- N$\rightarrow$F -->
    <g transform="translate(193.778182 382.8) scale(0.18 -0.18)">
     <use xlink:href="#DejaVuSans-4e" transform="translate(0 0.09375)"/>
     <use xlink:href="#DejaVuSans-2192" transform="translate(94.287109 0.09375)"/>
     <use xlink:href="#DejaVuSans-46" transform="translate(197.558594 0.09375)"/>
    </g>
   </g>
  </g>
  <g id="axes_4">
   <g id="patch_18">
    <path d="M 394.363636 640.8 
L 648 640.8 
L 648 388.8 
L 394.363636 388.8 
z
" style="fill: #ffffff"/>
   </g>
   <g id="patch_19">
    <path d="M 436.725735 640.8 
L 470.240054 640.8 
L 470.240054 388.8 
L 436.725735 388.8 
z
" clip-path="url(#pc6bfb8b707)" style="fill: #2b2b2b; opacity: 0.4; stroke: #2b2b2b; stroke-linejoin: miter"/>
   </g>
   <g id="patch_20">
    <path d="M 537.268691 640.8 
L 570.78301 640.8 
L 570.78301 388.8 
L 537.268691 388.8 
z
" clip-path="url(#pc6bfb8b707)" style="fill: #2b2b2b; opacity: 0.4; stroke: #2b2b2b; stroke-linejoin: miter"/>
   </g>
   <g id="matplotlib.axis_7">
    <g id="xtick_13">
     <g id="line2d_30">
      <g>
       <use xlink:href="#m46a0456a7f" x="403.211416" y="640.8" style="stroke: #000000; stroke-width: 1.25"/>
      </g>
     </g>
     <g id="text_27">
      <!-- −1.0 -->
      <g transform="translate(383.178096 662.837422) scale(0.165 -0.165)">
       <use xlink:href="#DejaVuSans-2212"/>
       <use xlink:href="#DejaVuSans-31" x="83.789062"/>
       <use xlink:href="#DejaVuSans-2e" x="147.412109"/>
       <use xlink:href="#DejaVuSans-30" x="179.199219"/>
      </g>
     </g>
    </g>
    <g id="xtick_14">
     <g id="line2d_31">
      <g>
       <use xlink:href="#m46a0456a7f" x="470.240054" y="640.8" style="stroke: #000000; stroke-width: 1.25"/>
      </g>
     </g>
     <g id="text_28">
      <!-- −0.5 -->
      <g transform="translate(450.206734 662.837422) scale(0.165 -0.165)">
       <use xlink:href="#DejaVuSans-2212"/>
       <use xlink:href="#DejaVuSans-30" x="83.789062"/>
       <use xlink:href="#DejaVuSans-2e" x="147.412109"/>
       <use xlink:href="#DejaVuSans-35" x="179.199219"/>
      </g>
     </g>
    </g>
    <g id="xtick_15">
     <g id="line2d_32">
      <g>
       <use xlink:href="#m46a0456a7f" x="537.268691" y="640.8" style="stroke: #000000; stroke-width: 1.25"/>
      </g>
     </g>
     <g id="text_29">
      <!-- 0.0 -->
      <g transform="translate(524.148613 662.837422) scale(0.165 -0.165)">
       <use xlink:href="#DejaVuSans-30"/>
       <use xlink:href="#DejaVuSans-2e" x="63.623047"/>
       <use xlink:href="#DejaVuSans-30" x="95.410156"/>
      </g>
     </g>
    </g>
    <g id="xtick_16">
     <g id="line2d_33">
      <g>
       <use xlink:href="#m46a0456a7f" x="604.297328" y="640.8" style="stroke: #000000; stroke-width: 1.25"/>
      </g>
     </g>
     <g id="text_30">
      <!-- 0.5 -->
      <g transform="translate(591.17725 662.837422) scale(0.165 -0.165)">
       <use xlink:href="#DejaVuSans-30"/>
       <use xlink:href="#DejaVuSans-2e" x="63.623047"/>
       <use xlink:href="#DejaVuSans-35" x="95.410156"/>
      </g>
     </g>
    </g>
    <g id="text_31">
     <!-- time (s) -->
     <g transform="translate(486.277287 683.946094) scale(0.18 -0.18)">
      <use xlink:href="#DejaVuSans-74"/>
      <use xlink:href="#DejaVuSans-69" x="39.208984"/>
      <use xlink:href="#DejaVuSans-6d" x="66.992188"/>
      <use xlink:href="#DejaVuSans-65" x="164.404297"/>
      <use xlink:href="#DejaVuSans-20" x="225.927734"/>
      <use xlink:href="#DejaVuSans-28" x="257.714844"/>
      <use xlink:href="#DejaVuSans-73" x="296.728516"/>
      <use xlink:href="#DejaVuSans-29" x="348.828125"/>
     </g>
    </g>
   </g>
   <g id="matplotlib.axis_8">
    <g id="ytick_10">
     <g id="line2d_34">
      <g>
       <use xlink:href="#m011621eab6" x="394.363636" y="585.8173" style="stroke: #000000; stroke-width: 1.25"/>
      </g>
     </g>
    </g>
    <g id="ytick_11">
     <g id="line2d_35">
      <g>
       <use xlink:href="#m011621eab6" x="394.363636" y="519.679862" style="stroke: #000000; stroke-width: 1.25"/>
      </g>
     </g>
    </g>
    <g id="ytick_12">
     <g id="line2d_36">
      <g>
       <use xlink:href="#m011621eab6" x="394.363636" y="453.542424" style="stroke: #000000; stroke-width: 1.25"/>
      </g>
     </g>
    </g>
   </g>
   <g id="line2d_37">
    <path d="M 405.892562 578.636664 
L 411.254853 584.242599 
L 416.617144 585.061444 
L 421.979435 584.431564 
L 427.341726 581.786066 
L 432.704017 580.715269 
L 438.066308 581.093198 
L 443.428599 510.168669 
L 448.79089 495.870385 
L 454.153181 530.891733 
L 459.515472 554.827187 
L 464.877763 558.291529 
L 470.240054 561.629894 
L 475.602345 549.662168 
L 480.964636 568.999495 
L 486.326927 585.124432 
L 491.689218 576.558059 
L 497.051509 568.558578 
L 502.4138 576.747023 
L 507.776091 581.97503 
L 513.138382 583.864671 
L 518.500673 582.919851 
L 523.862964 582.982839 
L 529.225255 585.439372 
L 534.587546 585.376384 
L 539.949837 569.314435 
L 545.312128 439.181152 
L 550.674419 400.254545 
L 556.03671 459.589276 
L 561.399001 501.287356 
L 566.761292 525.85269 
L 572.123583 532.340458 
L 577.485874 546.764718 
L 582.848165 588.651762 
L 588.210456 599.359728 
L 593.572746 596.714231 
L 598.935037 592.745984 
L 604.297328 594.257697 
L 609.659619 600.871441 
L 615.02191 605.343592 
L 620.384201 608.996898 
L 625.746492 610.130682 
L 631.108783 608.996898 
L 636.471074 621.153589 
" clip-path="url(#pc6bfb8b707)" style="fill: none; stroke: #8a2be2; stroke-width: 2; stroke-linecap: square"/>
   </g>
   <g id="line2d_38">
    <path d="M 405.892562 600.784505 
L 411.254853 603.136998 
L 416.617144 602.883436 
L 421.979435 602.827089 
L 427.341726 601.164849 
L 432.704017 600.721115 
L 438.066308 598.086887 
L 443.428599 510.509368 
L 448.79089 516.55964 
L 454.153181 549.508622 
L 459.515472 564.264525 
L 464.877763 563.489752 
L 470.240054 566.138067 
L 475.602345 562.84176 
L 480.964636 597.481155 
L 486.326927 613.969733 
L 491.689218 607.398249 
L 497.051509 601.911448 
L 502.4138 599.29835 
L 507.776091 602.298834 
L 513.138382 602.95387 
L 518.500673 601.735363 
L 523.862964 602.066403 
L 529.225255 600.249208 
L 534.587546 599.551912 
L 539.949837 589.662992 
L 545.312128 444.590275 
L 550.674419 449.344563 
L 556.03671 497.352314 
L 561.399001 521.06741 
L 566.761292 533.675079 
L 572.123583 543.852779 
L 577.485874 559.228501 
L 582.848165 610.638209 
L 588.210456 622.344324 
L 593.572746 620.56939 
L 598.935037 613.392175 
L 604.297328 603.101781 
L 609.659619 605.397926 
L 615.02191 610.088825 
L 620.384201 612.258189 
L 625.746492 611.744021 
L 631.108783 608.961882 
L 636.471074 618.709935 
" clip-path="url(#pc6bfb8b707)" style="fill: none; stroke-dasharray: 7.4,3.2; stroke-dashoffset: 0; stroke: #000000; stroke-width: 2"/>
   </g>
   <g id="patch_21">
    <path d="M 394.363636 640.8 
L 394.363636 388.8 
" style="fill: none; stroke: #000000; stroke-width: 1.25; stroke-linejoin: miter; stroke-linecap: square"/>
   </g>
   <g id="patch_22">
    <path d="M 394.363636 640.8 
L 648 640.8 
" style="fill: none; stroke: #000000; stroke-width: 1.25; stroke-linejoin: miter; stroke-linecap: square"/>
   </g>
   <g id="text_32">
    <!-- N$\rightarrow$N -->
    <g transform="translate(496.611818 382.8) scale(0.18 -0.18)">
     <use xlink:href="#DejaVuSans-4e" transform="translate(0 0.09375)"/>
     <use xlink:href="#DejaVuSans-2192" transform="translate(94.287109 0.09375)"/>
     <use xlink:href="#DejaVuSans-4e" transform="translate(197.558594 0.09375)"/>
    </g>
   </g>
  </g>
 </g>
 <defs>
  <clipPath id="p0cce357b1a">
   <rect x="90" y="86.4" width="253.636364" height="252"/>
  </clipPath>
  <clipPath id="pfc0695ec11">
   <rect x="394.363636" y="86.4" width="253.636364" height="252"/>
  </clipPath>
  <clipPath id="p0b8026dcc0">
   <rect x="90" y="388.8" width="253.636364" height="252"/>
  </clipPath>
  <clipPath id="pc6bfb8b707">
   <rect x="394.363636" y="388.8" width="253.636364" height="252"/>
  </clipPath>
 </defs>
</svg>
