<?xml version="1.0" encoding="utf-8" standalone="no"?>
<!DOCTYPE svg PUBLIC "-//W3C//DTD SVG 1.1//EN"
  "http://www.w3.org/Graphics/SVG/1.1/DTD/svg11.dtd">
<svg xmlns:xlink="http://www.w3.org/1999/xlink" width="720pt" height="720pt" viewBox="0 0 720 720" xmlns="http://www.w3.org/2000/svg" version="1.1">
 <metadata>
  <rdf:RDF xmlns:dc="http://purl.org/dc/elements/1.1/" xmlns:cc="http://creativecommons.org/ns#" xmlns:rdf="http://www.w3.org/1999/02/22-rdf-syntax-ns#">
   <cc:Work>
    <dc:type rdf:resource="http://purl.org/dc/dcmitype/StillImage"/>
    <dc:date>2024-08-30T18:52:45.051341</dc:date>
    <dc:format>image/svg+xml</dc:format>
    <dc:creator>
     <cc:Agent>
      <dc:title>Matplotlib v3.9.2, https://matplotlib.org/</dc:title>
     </cc:Agent>
    </dc:creator>
   </cc:Work>
  </rdf:RDF>
 </metadata>
 <defs>
  <style type="text/css">*{stroke-linejoin: round; stroke-linecap: butt}</style>
 </defs>
 <g id="figure_1">
  <g id="patch_1">
   <path d="M 0 720 
L 720 720 
L 720 0 
L 0 0 
z
" style="fill: #ffffff"/>
  </g>
  <g id="axes_1">
   <g id="patch_2">
    <path d="M 90 338.4 
L 343.636364 338.4 
L 343.636364 86.4 
L 90 86.4 
z
" style="fill: #ffffff"/>
   </g>
   <g id="patch_3">
    <path d="M 132.362099 338.4 
L 165.876417 338.4 
L 165.876417 86.4 
L 132.362099 86.4 
z
" clip-path="url(#p723b8986a5)" style="fill: #adadad; opacity: 0.4; stroke: #adadad; stroke-linejoin: miter"/>
   </g>
   <g id="patch_4">
    <path d="M 232.905055 338.4 
L 266.419373 338.4 
L 266.419373 86.4 
L 232.905055 86.4 
z
" clip-path="url(#p723b8986a5)" style="fill: #adadad; opacity: 0.4; stroke: #adadad; stroke-linejoin: miter"/>
   </g>
   <g id="matplotlib.axis_1">
    <g id="xtick_1">
     <g id="line2d_1">
      <defs>
       <path id="m91b68d74dd" d="M 0 0 
L 0 6 
" style="stroke: #000000; stroke-width: 1.25"/>
      </defs>
      <g>
       <use xlink:href="#m91b68d74dd" x="98.84778" y="338.4" style="stroke: #000000; stroke-width: 1.25"/>
      </g>
     </g>
     <g id="text_1">
      <!-- −1.0 -->
      <g transform="translate(78.81446 360.437422) scale(0.165 -0.165)">
       <defs>
        <path id="DejaVuSans-2212" d="M 678 2272 
L 4684 2272 
L 4684 1741 
L 678 1741 
L 678 2272 
z
" transform="scale(0.015625)"/>
        <path id="DejaVuSans-31" d="M 794 531 
L 1825 531 
L 1825 4091 
L 703 3866 
L 703 4441 
L 1819 4666 
L 2450 4666 
L 2450 531 
L 3481 531 
L 3481 0 
L 794 0 
L 794 531 
z
" transform="scale(0.015625)"/>
        <path id="DejaVuSans-2e" d="M 684 794 
L 1344 794 
L 1344 0 
L 684 0 
L 684 794 
z
" transform="scale(0.015625)"/>
        <path id="DejaVuSans-30" d="M 2034 4250 
Q 1547 4250 1301 3770 
Q 1056 3291 1056 2328 
Q 1056 1369 1301 889 
Q 1547 409 2034 409 
Q 2525 409 2770 889 
Q 3016 1369 3016 2328 
Q 3016 3291 2770 3770 
Q 2525 4250 2034 4250 
z
M 2034 4750 
Q 2819 4750 3233 4129 
Q 3647 3509 3647 2328 
Q 3647 1150 3233 529 
Q 2819 -91 2034 -91 
Q 1250 -91 836 529 
Q 422 1150 422 2328 
Q 422 3509 836 4129 
Q 1250 4750 2034 4750 
z
" transform="scale(0.015625)"/>
       </defs>
       <use xlink:href="#DejaVuSans-2212"/>
       <use xlink:href="#DejaVuSans-31" x="83.789062"/>
       <use xlink:href="#DejaVuSans-2e" x="147.412109"/>
       <use xlink:href="#DejaVuSans-30" x="179.199219"/>
      </g>
     </g>
    </g>
    <g id="xtick_2">
     <g id="line2d_2">
      <g>
       <use xlink:href="#m91b68d74dd" x="165.876417" y="338.4" style="stroke: #000000; stroke-width: 1.25"/>
      </g>
     </g>
     <g id="text_2">
      <!-- −0.5 -->
      <g transform="translate(145.843097 360.437422) scale(0.165 -0.165)">
       <defs>
        <path id="DejaVuSans-35" d="M 691 4666 
L 3169 4666 
L 3169 4134 
L 1269 4134 
L 1269 2991 
Q 1406 3038 1543 3061 
Q 1681 3084 1819 3084 
Q 2600 3084 3056 2656 
Q 3513 2228 3513 1497 
Q 3513 744 3044 326 
Q 2575 -91 1722 -91 
Q 1428 -91 1123 -41 
Q 819 9 494 109 
L 494 744 
Q 775 591 1075 516 
Q 1375 441 1709 441 
Q 2250 441 2565 725 
Q 2881 1009 2881 1497 
Q 2881 1984 2565 2268 
Q 2250 2553 1709 2553 
Q 1456 2553 1204 2497 
Q 953 2441 691 2322 
L 691 4666 
z
" transform="scale(0.015625)"/>
       </defs>
       <use xlink:href="#DejaVuSans-2212"/>
       <use xlink:href="#DejaVuSans-30" x="83.789062"/>
       <use xlink:href="#DejaVuSans-2e" x="147.412109"/>
       <use xlink:href="#DejaVuSans-35" x="179.199219"/>
      </g>
     </g>
    </g>
    <g id="xtick_3">
     <g id="line2d_3">
      <g>
       <use xlink:href="#m91b68d74dd" x="232.905055" y="338.4" style="stroke: #000000; stroke-width: 1.25"/>
      </g>
     </g>
     <g id="text_3">
      <!-- 0.0 -->
      <g transform="translate(219.784977 360.437422) scale(0.165 -0.165)">
       <use xlink:href="#DejaVuSans-30"/>
       <use xlink:href="#DejaVuSans-2e" x="63.623047"/>
       <use xlink:href="#DejaVuSans-30" x="95.410156"/>
      </g>
     </g>
    </g>
    <g id="xtick_4">
     <g id="line2d_4">
      <g>
       <use xlink:href="#m91b68d74dd" x="299.933692" y="338.4" style="stroke: #000000; stroke-width: 1.25"/>
      </g>
     </g>
     <g id="text_4">
      <!-- 0.5 -->
      <g transform="translate(286.813614 360.437422) scale(0.165 -0.165)">
       <use xlink:href="#DejaVuSans-30"/>
       <use xlink:href="#DejaVuSans-2e" x="63.623047"/>
       <use xlink:href="#DejaVuSans-35" x="95.410156"/>
      </g>
     </g>
    </g>
   </g>
   <g id="matplotlib.axis_2">
    <g id="ytick_1">
     <g id="line2d_5">
      <defs>
       <path id="mc4cf7d1232" d="M 0 0 
L -6 0 
" style="stroke: #000000; stroke-width: 1.25"/>
      </defs>
      <g>
       <use xlink:href="#mc4cf7d1232" x="90" y="337.061932" style="stroke: #000000; stroke-width: 1.25"/>
      </g>
     </g>
     <g id="text_5">
      <!-- 0 -->
      <g transform="translate(70.001875 343.330643) scale(0.165 -0.165)">
       <use xlink:href="#DejaVuSans-30"/>
      </g>
     </g>
    </g>
    <g id="ytick_2">
     <g id="line2d_6">
      <g>
       <use xlink:href="#mc4cf7d1232" x="90" y="297.566096" style="stroke: #000000; stroke-width: 1.25"/>
      </g>
     </g>
     <g id="text_6">
      <!-- 5 -->
      <g transform="translate(70.001875 303.834807) scale(0.165 -0.165)">
       <use xlink:href="#DejaVuSans-35"/>
      </g>
     </g>
    </g>
    <g id="ytick_3">
     <g id="line2d_7">
      <g>
       <use xlink:href="#mc4cf7d1232" x="90" y="258.070261" style="stroke: #000000; stroke-width: 1.25"/>
      </g>
     </g>
     <g id="text_7">
      <!-- 10 -->
      <g transform="translate(59.50375 264.338972) scale(0.165 -0.165)">
       <use xlink:href="#DejaVuSans-31"/>
       <use xlink:href="#DejaVuSans-30" x="63.623047"/>
      </g>
     </g>
    </g>
    <g id="ytick_4">
     <g id="line2d_8">
      <g>
       <use xlink:href="#mc4cf7d1232" x="90" y="218.574425" style="stroke: #000000; stroke-width: 1.25"/>
      </g>
     </g>
     <g id="text_8">
      <!-- 15 -->
      <g transform="translate(59.50375 224.843136) scale(0.165 -0.165)">
       <use xlink:href="#DejaVuSans-31"/>
       <use xlink:href="#DejaVuSans-35" x="63.623047"/>
      </g>
     </g>
    </g>
    <g id="ytick_5">
     <g id="line2d_9">
      <g>
       <use xlink:href="#mc4cf7d1232" x="90" y="179.07859" style="stroke: #000000; stroke-width: 1.25"/>
      </g>
     </g>
     <g id="text_9">
      <!-- 20 -->
      <g transform="translate(59.50375 185.347301) scale(0.165 -0.165)">
       <defs>
        <path id="DejaVuSans-32" d="M 1228 531 
L 3431 531 
L 3431 0 
L 469 0 
L 469 531 
Q 828 903 1448 1529 
Q 2069 2156 2228 2338 
Q 2531 2678 2651 2914 
Q 2772 3150 2772 3378 
Q 2772 3750 2511 3984 
Q 2250 4219 1831 4219 
Q 1534 4219 1204 4116 
Q 875 4013 500 3803 
L 500 4441 
Q 881 4594 1212 4672 
Q 1544 4750 1819 4750 
Q 2544 4750 2975 4387 
Q 3406 4025 3406 3419 
Q 3406 3131 3298 2873 
Q 3191 2616 2906 2266 
Q 2828 2175 2409 1742 
Q 1991 1309 1228 531 
z
" transform="scale(0.015625)"/>
       </defs>
       <use xlink:href="#DejaVuSans-32"/>
       <use xlink:href="#DejaVuSans-30" x="63.623047"/>
      </g>
     </g>
    </g>
    <g id="ytick_6">
     <g id="line2d_10">
      <g>
       <use xlink:href="#mc4cf7d1232" x="90" y="139.582754" style="stroke: #000000; stroke-width: 1.25"/>
      </g>
     </g>
     <g id="text_10">
      <!-- 25 -->
      <g transform="translate(59.50375 145.851465) scale(0.165 -0.165)">
       <use xlink:href="#DejaVuSans-32"/>
       <use xlink:href="#DejaVuSans-35" x="63.623047"/>
      </g>
     </g>
    </g>
    <g id="ytick_7">
     <g id="line2d_11">
      <g>
       <use xlink:href="#mc4cf7d1232" x="90" y="100.086919" style="stroke: #000000; stroke-width: 1.25"/>
      </g>
     </g>
     <g id="text_11">
      <!-- 30 -->
      <g transform="translate(59.50375 106.35563) scale(0.165 -0.165)">
       <defs>
        <path id="DejaVuSans-33" d="M 2597 2516 
Q 3050 2419 3304 2112 
Q 3559 1806 3559 1356 
Q 3559 666 3084 287 
Q 2609 -91 1734 -91 
Q 1441 -91 1130 -33 
Q 819 25 488 141 
L 488 750 
Q 750 597 1062 519 
Q 1375 441 1716 441 
Q 2309 441 2620 675 
Q 2931 909 2931 1356 
Q 2931 1769 2642 2001 
Q 2353 2234 1838 2234 
L 1294 2234 
L 1294 2753 
L 1863 2753 
Q 2328 2753 2575 2939 
Q 2822 3125 2822 3475 
Q 2822 3834 2567 4026 
Q 2313 4219 1838 4219 
Q 1578 4219 1281 4162 
Q 984 4106 628 3988 
L 628 4550 
Q 988 4650 1302 4700 
Q 1616 4750 1894 4750 
Q 2613 4750 3031 4423 
Q 3450 4097 3450 3541 
Q 3450 3153 3228 2886 
Q 3006 2619 2597 2516 
z
" transform="scale(0.015625)"/>
       </defs>
       <use xlink:href="#DejaVuSans-33"/>
       <use xlink:href="#DejaVuSans-30" x="63.623047"/>
      </g>
     </g>
    </g>
    <g id="text_12">
     <!-- firing rate (Hz) -->
     <g transform="translate(51.760312 278.202656) rotate(-90) scale(0.18 -0.18)">
      <defs>
       <path id="DejaVuSans-66" d="M 2375 4863 
L 2375 4384 
L 1825 4384 
Q 1516 4384 1395 4259 
Q 1275 4134 1275 3809 
L 1275 3500 
L 2222 3500 
L 2222 3053 
L 1275 3053 
L 1275 0 
L 697 0 
L 697 3053 
L 147 3053 
L 147 3500 
L 697 3500 
L 697 3744 
Q 697 4328 969 4595 
Q 1241 4863 1831 4863 
L 2375 4863 
z
" transform="scale(0.015625)"/>
       <path id="DejaVuSans-69" d="M 603 3500 
L 1178 3500 
L 1178 0 
L 603 0 
L 603 3500 
z
M 603 4863 
L 1178 4863 
L 1178 4134 
L 603 4134 
L 603 4863 
z
" transform="scale(0.015625)"/>
       <path id="DejaVuSans-72" d="M 2631 2963 
Q 2534 3019 2420 3045 
Q 2306 3072 2169 3072 
Q 1681 3072 1420 2755 
Q 1159 2438 1159 1844 
L 1159 0 
L 581 0 
L 581 3500 
L 1159 3500 
L 1159 2956 
Q 1341 3275 1631 3429 
Q 1922 3584 2338 3584 
Q 2397 3584 2469 3576 
Q 2541 3569 2628 3553 
L 2631 2963 
z
" transform="scale(0.015625)"/>
       <path id="DejaVuSans-6e" d="M 3513 2113 
L 3513 0 
L 2938 0 
L 2938 2094 
Q 2938 2591 2744 2837 
Q 2550 3084 2163 3084 
Q 1697 3084 1428 2787 
Q 1159 2491 1159 1978 
L 1159 0 
L 581 0 
L 581 3500 
L 1159 3500 
L 1159 2956 
Q 1366 3272 1645 3428 
Q 1925 3584 2291 3584 
Q 2894 3584 3203 3211 
Q 3513 2838 3513 2113 
z
" transform="scale(0.015625)"/>
       <path id="DejaVuSans-67" d="M 2906 1791 
Q 2906 2416 2648 2759 
Q 2391 3103 1925 3103 
Q 1463 3103 1205 2759 
Q 947 2416 947 1791 
Q 947 1169 1205 825 
Q 1463 481 1925 481 
Q 2391 481 2648 825 
Q 2906 1169 2906 1791 
z
M 3481 434 
Q 3481 -459 3084 -895 
Q 2688 -1331 1869 -1331 
Q 1566 -1331 1297 -1286 
Q 1028 -1241 775 -1147 
L 775 -588 
Q 1028 -725 1275 -790 
Q 1522 -856 1778 -856 
Q 2344 -856 2625 -561 
Q 2906 -266 2906 331 
L 2906 616 
Q 2728 306 2450 153 
Q 2172 0 1784 0 
Q 1141 0 747 490 
Q 353 981 353 1791 
Q 353 2603 747 3093 
Q 1141 3584 1784 3584 
Q 2172 3584 2450 3431 
Q 2728 3278 2906 2969 
L 2906 3500 
L 3481 3500 
L 3481 434 
z
" transform="scale(0.015625)"/>
       <path id="DejaVuSans-20" transform="scale(0.015625)"/>
       <path id="DejaVuSans-61" d="M 2194 1759 
Q 1497 1759 1228 1600 
Q 959 1441 959 1056 
Q 959 750 1161 570 
Q 1363 391 1709 391 
Q 2188 391 2477 730 
Q 2766 1069 2766 1631 
L 2766 1759 
L 2194 1759 
z
M 3341 1997 
L 3341 0 
L 2766 0 
L 2766 531 
Q 2569 213 2275 61 
Q 1981 -91 1556 -91 
Q 1019 -91 701 211 
Q 384 513 384 1019 
Q 384 1609 779 1909 
Q 1175 2209 1959 2209 
L 2766 2209 
L 2766 2266 
Q 2766 2663 2505 2880 
Q 2244 3097 1772 3097 
Q 1472 3097 1187 3025 
Q 903 2953 641 2809 
L 641 3341 
Q 956 3463 1253 3523 
Q 1550 3584 1831 3584 
Q 2591 3584 2966 3190 
Q 3341 2797 3341 1997 
z
" transform="scale(0.015625)"/>
       <path id="DejaVuSans-74" d="M 1172 4494 
L 1172 3500 
L 2356 3500 
L 2356 3053 
L 1172 3053 
L 1172 1153 
Q 1172 725 1289 603 
Q 1406 481 1766 481 
L 2356 481 
L 2356 0 
L 1766 0 
Q 1100 0 847 248 
Q 594 497 594 1153 
L 594 3053 
L 172 3053 
L 172 3500 
L 594 3500 
L 594 4494 
L 1172 4494 
z
" transform="scale(0.015625)"/>
       <path id="DejaVuSans-65" d="M 3597 1894 
L 3597 1613 
L 953 1613 
Q 991 1019 1311 708 
Q 1631 397 2203 397 
Q 2534 397 2845 478 
Q 3156 559 3463 722 
L 3463 178 
Q 3153 47 2828 -22 
Q 2503 -91 2169 -91 
Q 1331 -91 842 396 
Q 353 884 353 1716 
Q 353 2575 817 3079 
Q 1281 3584 2069 3584 
Q 2775 3584 3186 3129 
Q 3597 2675 3597 1894 
z
M 3022 2063 
Q 3016 2534 2758 2815 
Q 2500 3097 2075 3097 
Q 1594 3097 1305 2825 
Q 1016 2553 972 2059 
L 3022 2063 
z
" transform="scale(0.015625)"/>
       <path id="DejaVuSans-28" d="M 1984 4856 
Q 1566 4138 1362 3434 
Q 1159 2731 1159 2009 
Q 1159 1288 1364 580 
Q 1569 -128 1984 -844 
L 1484 -844 
Q 1016 -109 783 600 
Q 550 1309 550 2009 
Q 550 2706 781 3412 
Q 1013 4119 1484 4856 
L 1984 4856 
z
" transform="scale(0.015625)"/>
       <path id="DejaVuSans-48" d="M 628 4666 
L 1259 4666 
L 1259 2753 
L 3553 2753 
L 3553 4666 
L 4184 4666 
L 4184 0 
L 3553 0 
L 3553 2222 
L 1259 2222 
L 1259 0 
L 628 0 
L 628 4666 
z
" transform="scale(0.015625)"/>
       <path id="DejaVuSans-7a" d="M 353 3500 
L 3084 3500 
L 3084 2975 
L 922 459 
L 3084 459 
L 3084 0 
L 275 0 
L 275 525 
L 2438 3041 
L 353 3041 
L 353 3500 
z
" transform="scale(0.015625)"/>
       <path id="DejaVuSans-29" d="M 513 4856 
L 1013 4856 
Q 1481 4119 1714 3412 
Q 1947 2706 1947 2009 
Q 1947 1309 1714 600 
Q 1481 -109 1013 -844 
L 513 -844 
Q 928 -128 1133 580 
Q 1338 1288 1338 2009 
Q 1338 2731 1133 3434 
Q 928 4138 513 4856 
z
" transform="scale(0.015625)"/>
      </defs>
      <use xlink:href="#DejaVuSans-66"/>
      <use xlink:href="#DejaVuSans-69" x="35.205078"/>
      <use xlink:href="#DejaVuSans-72" x="62.988281"/>
      <use xlink:href="#DejaVuSans-69" x="104.101562"/>
      <use xlink:href="#DejaVuSans-6e" x="131.884766"/>
      <use xlink:href="#DejaVuSans-67" x="195.263672"/>
      <use xlink:href="#DejaVuSans-20" x="258.740234"/>
      <use xlink:href="#DejaVuSans-72" x="290.527344"/>
      <use xlink:href="#DejaVuSans-61" x="331.640625"/>
      <use xlink:href="#DejaVuSans-74" x="392.919922"/>
      <use xlink:href="#DejaVuSans-65" x="432.128906"/>
      <use xlink:href="#DejaVuSans-20" x="493.652344"/>
      <use xlink:href="#DejaVuSans-28" x="525.439453"/>
      <use xlink:href="#DejaVuSans-48" x="564.453125"/>
      <use xlink:href="#DejaVuSans-7a" x="639.648438"/>
      <use xlink:href="#DejaVuSans-29" x="692.138672"/>
     </g>
    </g>
   </g>
   <g id="line2d_12">
    <path d="M 101.528926 266.956824 
L 106.891217 283.742554 
L 112.253508 303.490472 
L 117.615799 322.250993 
L 122.97809 317.314014 
L 128.340381 310.402243 
L 133.702672 300.528284 
L 139.064963 228.448384 
L 144.427254 304.477867 
L 149.789544 326.200577 
L 155.151835 320.276202 
L 160.514126 318.30141 
L 165.876417 244.246718 
L 171.238708 221.536613 
L 176.600999 272.881199 
L 181.96329 293.616513 
L 187.325581 304.477867 
L 192.687872 304.477867 
L 198.050163 302.503076 
L 203.412454 293.616513 
L 208.774745 297.566096 
L 214.137036 305.465263 
L 219.499327 302.503076 
L 224.861618 309.414847 
L 230.223909 309.414847 
L 235.5862 288.679533 
L 240.948491 155.381088 
L 246.310782 236.347551 
L 251.673073 275.843387 
L 257.035364 263.994636 
L 262.397655 218.574425 
L 267.759946 205.738279 
L 273.122237 238.322343 
L 278.484528 289.666929 
L 283.846819 311.389639 
L 289.20911 309.414847 
L 294.571401 306.452659 
L 299.933692 307.440055 
L 305.295983 298.553492 
L 310.658274 285.717346 
L 316.020565 283.742554 
L 321.382856 303.490472 
L 326.745147 310.402243 
L 332.107438 317.314014 
" clip-path="url(#p723b8986a5)" style="fill: none; stroke: #8a2be2; stroke-width: 2; stroke-linecap: square"/>
   </g>
   <g id="line2d_13">
    <path d="M 101.528926 276.095206 
L 106.891217 292.33091 
L 112.253508 302.105467 
L 117.615799 313.536728 
L 122.97809 320.826228 
L 128.340381 314.199409 
L 133.702672 303.43083 
L 139.064963 258.037127 
L 144.427254 304.424853 
L 149.789544 324.305307 
L 155.151835 323.642625 
L 160.514126 318.506841 
L 165.876417 274.604172 
L 171.238708 248.593911 
L 176.600999 284.047387 
L 181.96329 305.087535 
L 187.325581 312.211364 
L 192.687872 308.069603 
L 198.050163 296.307001 
L 203.412454 292.33091 
L 208.774745 299.454739 
L 214.137036 299.123398 
L 219.499327 298.626387 
L 224.861618 306.744239 
L 230.223909 306.081557 
L 235.5862 306.081557 
L 240.948491 230.204491 
L 246.310782 270.793751 
L 251.673073 277.75191 
L 257.035364 283.384706 
L 262.397655 272.119115 
L 267.759946 248.759581 
L 273.122237 264.001263 
L 278.484528 284.213058 
L 283.846819 311.714353 
L 289.20911 308.897955 
L 294.571401 305.418876 
L 299.933692 303.927842 
L 305.295983 301.939796 
L 310.658274 293.821944 
L 316.020565 283.881717 
L 321.382856 289.348842 
L 326.745147 301.277114 
L 332.107438 313.371057 
" clip-path="url(#p723b8986a5)" style="fill: none; stroke-dasharray: 7.4,3.2; stroke-dashoffset: 0; stroke: #000000; stroke-width: 2"/>
   </g>
   <g id="patch_5">
    <path d="M 90 338.4 
L 90 86.4 
" style="fill: none; stroke: #000000; stroke-width: 1.25; stroke-linejoin: miter; stroke-linecap: square"/>
   </g>
   <g id="patch_6">
    <path d="M 90 338.4 
L 343.636364 338.4 
" style="fill: none; stroke: #000000; stroke-width: 1.25; stroke-linejoin: miter; stroke-linecap: square"/>
   </g>
   <g id="text_13">
    <!-- F$\rightarrow$F -->
    <g transform="translate(195.398182 80.4) scale(0.18 -0.18)">
     <defs>
      <path id="DejaVuSans-46" d="M 628 4666 
L 3309 4666 
L 3309 4134 
L 1259 4134 
L 1259 2759 
L 3109 2759 
L 3109 2228 
L 1259 2228 
L 1259 0 
L 628 0 
L 628 4666 
z
" transform="scale(0.015625)"/>
      <path id="DejaVuSans-2192" d="M 5050 2147 
L 5050 1866 
L 3822 638 
L 3447 1013 
L 4175 1741 
L 366 1741 
L 366 2272 
L 4175 2272 
L 3447 3000 
L 3822 3375 
L 5050 2147 
z
" transform="scale(0.015625)"/>
     </defs>
     <use xlink:href="#DejaVuSans-46" transform="translate(0 0.09375)"/>
     <use xlink:href="#DejaVuSans-2192" transform="translate(77.001953 0.09375)"/>
     <use xlink:href="#DejaVuSans-46" transform="translate(180.273438 0.09375)"/>
    </g>
   </g>
  </g>
  <g id="axes_2">
   <g id="patch_7">
    <path d="M 394.363636 338.4 
L 648 338.4 
L 648 86.4 
L 394.363636 86.4 
z
" style="fill: #ffffff"/>
   </g>
   <g id="patch_8">
    <path d="M 436.725735 338.4 
L 470.240054 338.4 
L 470.240054 86.4 
L 436.725735 86.4 
z
" clip-path="url(#p1187afac1e)" style="fill: #adadad; opacity: 0.4; stroke: #adadad; stroke-linejoin: miter"/>
   </g>
   <g id="patch_9">
    <path d="M 537.268691 338.4 
L 570.78301 338.4 
L 570.78301 86.4 
L 537.268691 86.4 
z
" clip-path="url(#p1187afac1e)" style="fill: #2b2b2b; opacity: 0.4; stroke: #2b2b2b; stroke-linejoin: miter"/>
   </g>
   <g id="matplotlib.axis_3">
    <g id="xtick_5">
     <g id="line2d_14">
      <g>
       <use xlink:href="#m91b68d74dd" x="403.211416" y="338.4" style="stroke: #000000; stroke-width: 1.25"/>
      </g>
     </g>
     <g id="text_14">
      <!-- −1.0 -->
      <g transform="translate(383.178096 360.437422) scale(0.165 -0.165)">
       <use xlink:href="#DejaVuSans-2212"/>
       <use xlink:href="#DejaVuSans-31" x="83.789062"/>
       <use xlink:href="#DejaVuSans-2e" x="147.412109"/>
       <use xlink:href="#DejaVuSans-30" x="179.199219"/>
      </g>
     </g>
    </g>
    <g id="xtick_6">
     <g id="line2d_15">
      <g>
       <use xlink:href="#m91b68d74dd" x="470.240054" y="338.4" style="stroke: #000000; stroke-width: 1.25"/>
      </g>
     </g>
     <g id="text_15">
      <!-- −0.5 -->
      <g transform="translate(450.206734 360.437422) scale(0.165 -0.165)">
       <use xlink:href="#DejaVuSans-2212"/>
       <use xlink:href="#DejaVuSans-30" x="83.789062"/>
       <use xlink:href="#DejaVuSans-2e" x="147.412109"/>
       <use xlink:href="#DejaVuSans-35" x="179.199219"/>
      </g>
     </g>
    </g>
    <g id="xtick_7">
     <g id="line2d_16">
      <g>
       <use xlink:href="#m91b68d74dd" x="537.268691" y="338.4" style="stroke: #000000; stroke-width: 1.25"/>
      </g>
     </g>
     <g id="text_16">
      <!-- 0.0 -->
      <g transform="translate(524.148613 360.437422) scale(0.165 -0.165)">
       <use xlink:href="#DejaVuSans-30"/>
       <use xlink:href="#DejaVuSans-2e" x="63.623047"/>
       <use xlink:href="#DejaVuSans-30" x="95.410156"/>
      </g>
     </g>
    </g>
    <g id="xtick_8">
     <g id="line2d_17">
      <g>
       <use xlink:href="#m91b68d74dd" x="604.297328" y="338.4" style="stroke: #000000; stroke-width: 1.25"/>
      </g>
     </g>
     <g id="text_17">
      <!-- 0.5 -->
      <g transform="translate(591.17725 360.437422) scale(0.165 -0.165)">
       <use xlink:href="#DejaVuSans-30"/>
       <use xlink:href="#DejaVuSans-2e" x="63.623047"/>
       <use xlink:href="#DejaVuSans-35" x="95.410156"/>
      </g>
     </g>
    </g>
   </g>
   <g id="matplotlib.axis_4">
    <g id="ytick_8">
     <g id="line2d_18">
      <g>
       <use xlink:href="#mc4cf7d1232" x="394.363636" y="337.061932" style="stroke: #000000; stroke-width: 1.25"/>
      </g>
     </g>
    </g>
    <g id="ytick_9">
     <g id="line2d_19">
      <g>
       <use xlink:href="#mc4cf7d1232" x="394.363636" y="297.566096" style="stroke: #000000; stroke-width: 1.25"/>
      </g>
     </g>
    </g>
    <g id="ytick_10">
     <g id="line2d_20">
      <g>
       <use xlink:href="#mc4cf7d1232" x="394.363636" y="258.070261" style="stroke: #000000; stroke-width: 1.25"/>
      </g>
     </g>
    </g>
    <g id="ytick_11">
     <g id="line2d_21">
      <g>
       <use xlink:href="#mc4cf7d1232" x="394.363636" y="218.574425" style="stroke: #000000; stroke-width: 1.25"/>
      </g>
     </g>
    </g>
    <g id="ytick_12">
     <g id="line2d_22">
      <g>
       <use xlink:href="#mc4cf7d1232" x="394.363636" y="179.07859" style="stroke: #000000; stroke-width: 1.25"/>
      </g>
     </g>
    </g>
    <g id="ytick_13">
     <g id="line2d_23">
      <g>
       <use xlink:href="#mc4cf7d1232" x="394.363636" y="139.582754" style="stroke: #000000; stroke-width: 1.25"/>
      </g>
     </g>
    </g>
    <g id="ytick_14">
     <g id="line2d_24">
      <g>
       <use xlink:href="#mc4cf7d1232" x="394.363636" y="100.086919" style="stroke: #000000; stroke-width: 1.25"/>
      </g>
     </g>
    </g>
   </g>
   <g id="line2d_25">
    <path d="M 405.892562 293.616513 
L 411.254853 285.202182 
L 416.617144 297.394375 
L 421.979435 309.243126 
L 427.341726 311.64722 
L 432.704017 311.64722 
L 438.066308 301.172238 
L 443.428599 226.473592 
L 448.79089 294.81856 
L 454.153181 318.000898 
L 459.515472 318.859503 
L 464.877763 302.202564 
L 470.240054 257.555098 
L 475.602345 221.150241 
L 480.964636 293.444792 
L 486.326927 319.374666 
L 491.689218 319.718108 
L 497.051509 318.172619 
L 502.4138 306.152147 
L 507.776091 278.848505 
L 513.138382 287.606277 
L 518.500673 307.525916 
L 523.862964 311.818941 
L 529.225255 309.586568 
L 534.587546 305.465263 
L 539.949837 281.42432 
L 545.312128 126.360235 
L 550.674419 97.854545 
L 556.03671 175.644169 
L 561.399001 168.603607 
L 566.761292 160.017556 
L 572.123583 150.744621 
L 577.485874 219.261309 
L 582.848165 283.484972 
L 588.210456 294.646839 
L 593.572746 285.030461 
L 598.935037 294.646839 
L 604.297328 297.566096 
L 609.659619 299.283306 
L 615.02191 302.546006 
L 620.384201 310.101731 
L 625.746492 309.414847 
L 631.108783 307.525916 
L 636.471074 313.020988 
" clip-path="url(#p1187afac1e)" style="fill: none; stroke: #8a2be2; stroke-width: 2; stroke-linecap: square"/>
   </g>
   <g id="line2d_26">
    <path d="M 405.892562 297.329836 
L 411.254853 285.027004 
L 416.617144 298.712824 
L 421.979435 312.196958 
L 427.341726 313.147762 
L 432.704017 310.439411 
L 438.066308 303.236347 
L 443.428599 258.346858 
L 448.79089 297.156962 
L 454.153181 320.062703 
L 459.515472 319.976266 
L 464.877763 312.571517 
L 470.240054 276.181643 
L 475.602345 251.114983 
L 480.964636 292.921561 
L 486.326927 321.099944 
L 491.689218 322.367683 
L 497.051509 318.794964 
L 502.4138 304.244776 
L 507.776091 289.896275 
L 513.138382 290.09796 
L 518.500673 308.595426 
L 523.862964 311.880023 
L 529.225255 308.7683 
L 534.587546 304.302401 
L 539.949837 300.527996 
L 545.312128 208.011854 
L 550.674419 191.300747 
L 556.03671 229.765104 
L 561.399001 231.37859 
L 566.761292 229.937978 
L 572.123583 236.161424 
L 577.485874 260.248467 
L 582.848165 293.180871 
L 588.210456 297.848456 
L 593.572746 290.904703 
L 598.935037 295.946848 
L 604.297328 299.17382 
L 609.659619 299.116195 
L 615.02191 303.438033 
L 620.384201 307.673434 
L 625.746492 309.344545 
L 631.108783 307.385312 
L 636.471074 313.291824 
" clip-path="url(#p1187afac1e)" style="fill: none; stroke-dasharray: 7.4,3.2; stroke-dashoffset: 0; stroke: #000000; stroke-width: 2"/>
   </g>
   <g id="patch_10">
    <path d="M 394.363636 338.4 
L 394.363636 86.4 
" style="fill: none; stroke: #000000; stroke-width: 1.25; stroke-linejoin: miter; stroke-linecap: square"/>
   </g>
   <g id="patch_11">
    <path d="M 394.363636 338.4 
L 648 338.4 
" style="fill: none; stroke: #000000; stroke-width: 1.25; stroke-linejoin: miter; stroke-linecap: square"/>
   </g>
   <g id="text_18">
    <!-- F$\rightarrow$N -->
    <g transform="translate(498.141818 80.4) scale(0.18 -0.18)">
     <defs>
      <path id="DejaVuSans-4e" d="M 628 4666 
L 1478 4666 
L 3547 763 
L 3547 4666 
L 4159 4666 
L 4159 0 
L 3309 0 
L 1241 3903 
L 1241 0 
L 628 0 
L 628 4666 
z
" transform="scale(0.015625)"/>
     </defs>
     <use xlink:href="#DejaVuSans-46" transform="translate(0 0.09375)"/>
     <use xlink:href="#DejaVuSans-2192" transform="translate(77.001953 0.09375)"/>
     <use xlink:href="#DejaVuSans-4e" transform="translate(180.273438 0.09375)"/>
    </g>
   </g>
   <g id="legend_1">
    <g id="patch_12">
     <path d="M 569.23125 131.2275 
L 639.6 131.2275 
Q 642 131.2275 642 128.8275 
L 642 94.8 
Q 642 92.4 639.6 92.4 
L 569.23125 92.4 
Q 566.83125 92.4 566.83125 94.8 
L 566.83125 128.8275 
Q 566.83125 131.2275 569.23125 131.2275 
z
" style="fill: #ffffff; opacity: 0.8; stroke: #cccccc; stroke-linejoin: miter"/>
    </g>
    <g id="line2d_27">
     <path d="M 571.63125 102.118125 
L 583.63125 102.118125 
L 595.63125 102.118125 
" style="fill: none; stroke: #8a2be2; stroke-width: 2; stroke-linecap: square"/>
    </g>
    <g id="text_19">
     <!-- vip -->
     <g transform="translate(605.23125 106.318125) scale(0.12 -0.12)">
      <defs>
       <path id="DejaVuSans-76" d="M 191 3500 
L 800 3500 
L 1894 563 
L 2988 3500 
L 3597 3500 
L 2284 0 
L 1503 0 
L 191 3500 
z
" transform="scale(0.015625)"/>
       <path id="DejaVuSans-70" d="M 1159 525 
L 1159 -1331 
L 581 -1331 
L 581 3500 
L 1159 3500 
L 1159 2969 
Q 1341 3281 1617 3432 
Q 1894 3584 2278 3584 
Q 2916 3584 3314 3078 
Q 3713 2572 3713 1747 
Q 3713 922 3314 415 
Q 2916 -91 2278 -91 
Q 1894 -91 1617 61 
Q 1341 213 1159 525 
z
M 3116 1747 
Q 3116 2381 2855 2742 
Q 2594 3103 2138 3103 
Q 1681 3103 1420 2742 
Q 1159 2381 1159 1747 
Q 1159 1113 1420 752 
Q 1681 391 2138 391 
Q 2594 391 2855 752 
Q 3116 1113 3116 1747 
z
" transform="scale(0.015625)"/>
      </defs>
      <use xlink:href="#DejaVuSans-76"/>
      <use xlink:href="#DejaVuSans-69" x="59.179688"/>
      <use xlink:href="#DejaVuSans-70" x="86.962891"/>
     </g>
    </g>
    <g id="line2d_28">
     <path d="M 571.63125 119.731875 
L 583.63125 119.731875 
L 595.63125 119.731875 
" style="fill: none; stroke-dasharray: 7.4,3.2; stroke-dashoffset: 0; stroke: #000000; stroke-width: 2"/>
    </g>
    <g id="text_20">
     <!-- other -->
     <g transform="translate(605.23125 123.931875) scale(0.12 -0.12)">
      <defs>
       <path id="DejaVuSans-6f" d="M 1959 3097 
Q 1497 3097 1228 2736 
Q 959 2375 959 1747 
Q 959 1119 1226 758 
Q 1494 397 1959 397 
Q 2419 397 2687 759 
Q 2956 1122 2956 1747 
Q 2956 2369 2687 2733 
Q 2419 3097 1959 3097 
z
M 1959 3584 
Q 2709 3584 3137 3096 
Q 3566 2609 3566 1747 
Q 3566 888 3137 398 
Q 2709 -91 1959 -91 
Q 1206 -91 779 398 
Q 353 888 353 1747 
Q 353 2609 779 3096 
Q 1206 3584 1959 3584 
z
" transform="scale(0.015625)"/>
       <path id="DejaVuSans-68" d="M 3513 2113 
L 3513 0 
L 2938 0 
L 2938 2094 
Q 2938 2591 2744 2837 
Q 2550 3084 2163 3084 
Q 1697 3084 1428 2787 
Q 1159 2491 1159 1978 
L 1159 0 
L 581 0 
L 581 4863 
L 1159 4863 
L 1159 2956 
Q 1366 3272 1645 3428 
Q 1925 3584 2291 3584 
Q 2894 3584 3203 3211 
Q 3513 2838 3513 2113 
z
" transform="scale(0.015625)"/>
      </defs>
      <use xlink:href="#DejaVuSans-6f"/>
      <use xlink:href="#DejaVuSans-74" x="61.181641"/>
      <use xlink:href="#DejaVuSans-68" x="100.390625"/>
      <use xlink:href="#DejaVuSans-65" x="163.769531"/>
      <use xlink:href="#DejaVuSans-72" x="225.292969"/>
     </g>
    </g>
   </g>
  </g>
  <g id="axes_3">
   <g id="patch_13">
    <path d="M 90 640.8 
L 343.636364 640.8 
L 343.636364 388.8 
L 90 388.8 
z
" style="fill: #ffffff"/>
   </g>
   <g id="patch_14">
    <path d="M 232.905055 640.8 
L 266.419373 640.8 
L 266.419373 388.8 
L 232.905055 388.8 
z
" clip-path="url(#p0c97f51ca5)" style="fill: #adadad; opacity: 0.4; stroke: #adadad; stroke-linejoin: miter"/>
   </g>
   <g id="patch_15">
    <path d="M 132.362099 640.8 
L 165.876417 640.8 
L 165.876417 388.8 
L 132.362099 388.8 
z
" clip-path="url(#p0c97f51ca5)" style="fill: #2b2b2b; opacity: 0.4; stroke: #2b2b2b; stroke-linejoin: miter"/>
   </g>
   <g id="matplotlib.axis_5">
    <g id="xtick_9">
     <g id="line2d_29">
      <g>
       <use xlink:href="#m91b68d74dd" x="98.84778" y="640.8" style="stroke: #000000; stroke-width: 1.25"/>
      </g>
     </g>
     <g id="text_21">
      <!-- −1.0 -->
      <g transform="translate(78.81446 662.837422) scale(0.165 -0.165)">
       <use xlink:href="#DejaVuSans-2212"/>
       <use xlink:href="#DejaVuSans-31" x="83.789062"/>
       <use xlink:href="#DejaVuSans-2e" x="147.412109"/>
       <use xlink:href="#DejaVuSans-30" x="179.199219"/>
      </g>
     </g>
    </g>
    <g id="xtick_10">
     <g id="line2d_30">
      <g>
       <use xlink:href="#m91b68d74dd" x="165.876417" y="640.8" style="stroke: #000000; stroke-width: 1.25"/>
      </g>
     </g>
     <g id="text_22">
      <!-- −0.5 -->
      <g transform="translate(145.843097 662.837422) scale(0.165 -0.165)">
       <use xlink:href="#DejaVuSans-2212"/>
       <use xlink:href="#DejaVuSans-30" x="83.789062"/>
       <use xlink:href="#DejaVuSans-2e" x="147.412109"/>
       <use xlink:href="#DejaVuSans-35" x="179.199219"/>
      </g>
     </g>
    </g>
    <g id="xtick_11">
     <g id="line2d_31">
      <g>
       <use xlink:href="#m91b68d74dd" x="232.905055" y="640.8" style="stroke: #000000; stroke-width: 1.25"/>
      </g>
     </g>
     <g id="text_23">
      <!-- 0.0 -->
      <g transform="translate(219.784977 662.837422) scale(0.165 -0.165)">
       <use xlink:href="#DejaVuSans-30"/>
       <use xlink:href="#DejaVuSans-2e" x="63.623047"/>
       <use xlink:href="#DejaVuSans-30" x="95.410156"/>
      </g>
     </g>
    </g>
    <g id="xtick_12">
     <g id="line2d_32">
      <g>
       <use xlink:href="#m91b68d74dd" x="299.933692" y="640.8" style="stroke: #000000; stroke-width: 1.25"/>
      </g>
     </g>
     <g id="text_24">
      <!-- 0.5 -->
      <g transform="translate(286.813614 662.837422) scale(0.165 -0.165)">
       <use xlink:href="#DejaVuSans-30"/>
       <use xlink:href="#DejaVuSans-2e" x="63.623047"/>
       <use xlink:href="#DejaVuSans-35" x="95.410156"/>
      </g>
     </g>
    </g>
    <g id="text_25">
     <!-- time (s) -->
     <g transform="translate(181.913651 683.946094) scale(0.18 -0.18)">
      <defs>
       <path id="DejaVuSans-6d" d="M 3328 2828 
Q 3544 3216 3844 3400 
Q 4144 3584 4550 3584 
Q 5097 3584 5394 3201 
Q 5691 2819 5691 2113 
L 5691 0 
L 5113 0 
L 5113 2094 
Q 5113 2597 4934 2840 
Q 4756 3084 4391 3084 
Q 3944 3084 3684 2787 
Q 3425 2491 3425 1978 
L 3425 0 
L 2847 0 
L 2847 2094 
Q 2847 2600 2669 2842 
Q 2491 3084 2119 3084 
Q 1678 3084 1418 2786 
Q 1159 2488 1159 1978 
L 1159 0 
L 581 0 
L 581 3500 
L 1159 3500 
L 1159 2956 
Q 1356 3278 1631 3431 
Q 1906 3584 2284 3584 
Q 2666 3584 2933 3390 
Q 3200 3197 3328 2828 
z
" transform="scale(0.015625)"/>
       <path id="DejaVuSans-73" d="M 2834 3397 
L 2834 2853 
Q 2591 2978 2328 3040 
Q 2066 3103 1784 3103 
Q 1356 3103 1142 2972 
Q 928 2841 928 2578 
Q 928 2378 1081 2264 
Q 1234 2150 1697 2047 
L 1894 2003 
Q 2506 1872 2764 1633 
Q 3022 1394 3022 966 
Q 3022 478 2636 193 
Q 2250 -91 1575 -91 
Q 1294 -91 989 -36 
Q 684 19 347 128 
L 347 722 
Q 666 556 975 473 
Q 1284 391 1588 391 
Q 1994 391 2212 530 
Q 2431 669 2431 922 
Q 2431 1156 2273 1281 
Q 2116 1406 1581 1522 
L 1381 1569 
Q 847 1681 609 1914 
Q 372 2147 372 2553 
Q 372 3047 722 3315 
Q 1072 3584 1716 3584 
Q 2034 3584 2315 3537 
Q 2597 3491 2834 3397 
z
" transform="scale(0.015625)"/>
      </defs>
      <use xlink:href="#DejaVuSans-74"/>
      <use xlink:href="#DejaVuSans-69" x="39.208984"/>
      <use xlink:href="#DejaVuSans-6d" x="66.992188"/>
      <use xlink:href="#DejaVuSans-65" x="164.404297"/>
      <use xlink:href="#DejaVuSans-20" x="225.927734"/>
      <use xlink:href="#DejaVuSans-28" x="257.714844"/>
      <use xlink:href="#DejaVuSans-73" x="296.728516"/>
      <use xlink:href="#DejaVuSans-29" x="348.828125"/>
     </g>
    </g>
   </g>
   <g id="matplotlib.axis_6">
    <g id="ytick_15">
     <g id="line2d_33">
      <g>
       <use xlink:href="#mc4cf7d1232" x="90" y="639.461932" style="stroke: #000000; stroke-width: 1.25"/>
      </g>
     </g>
     <g id="text_26">
      <!-- 0 -->
      <g transform="translate(70.001875 645.730643) scale(0.165 -0.165)">
       <use xlink:href="#DejaVuSans-30"/>
      </g>
     </g>
    </g>
    <g id="ytick_16">
     <g id="line2d_34">
      <g>
       <use xlink:href="#mc4cf7d1232" x="90" y="599.966096" style="stroke: #000000; stroke-width: 1.25"/>
      </g>
     </g>
     <g id="text_27">
      <!-- 5 -->
      <g transform="translate(70.001875 606.234807) scale(0.165 -0.165)">
       <use xlink:href="#DejaVuSans-35"/>
      </g>
     </g>
    </g>
    <g id="ytick_17">
     <g id="line2d_35">
      <g>
       <use xlink:href="#mc4cf7d1232" x="90" y="560.470261" style="stroke: #000000; stroke-width: 1.25"/>
      </g>
     </g>
     <g id="text_28">
      <!-- 10 -->
      <g transform="translate(59.50375 566.738972) scale(0.165 -0.165)">
       <use xlink:href="#DejaVuSans-31"/>
       <use xlink:href="#DejaVuSans-30" x="63.623047"/>
      </g>
     </g>
    </g>
    <g id="ytick_18">
     <g id="line2d_36">
      <g>
       <use xlink:href="#mc4cf7d1232" x="90" y="520.974425" style="stroke: #000000; stroke-width: 1.25"/>
      </g>
     </g>
     <g id="text_29">
      <!-- 15 -->
      <g transform="translate(59.50375 527.243136) scale(0.165 -0.165)">
       <use xlink:href="#DejaVuSans-31"/>
       <use xlink:href="#DejaVuSans-35" x="63.623047"/>
      </g>
     </g>
    </g>
    <g id="ytick_19">
     <g id="line2d_37">
      <g>
       <use xlink:href="#mc4cf7d1232" x="90" y="481.47859" style="stroke: #000000; stroke-width: 1.25"/>
      </g>
     </g>
     <g id="text_30">
      <!-- 20 -->
      <g transform="translate(59.50375 487.747301) scale(0.165 -0.165)">
       <use xlink:href="#DejaVuSans-32"/>
       <use xlink:href="#DejaVuSans-30" x="63.623047"/>
      </g>
     </g>
    </g>
    <g id="ytick_20">
     <g id="line2d_38">
      <g>
       <use xlink:href="#mc4cf7d1232" x="90" y="441.982754" style="stroke: #000000; stroke-width: 1.25"/>
      </g>
     </g>
     <g id="text_31">
      <!-- 25 -->
      <g transform="translate(59.50375 448.251465) scale(0.165 -0.165)">
       <use xlink:href="#DejaVuSans-32"/>
       <use xlink:href="#DejaVuSans-35" x="63.623047"/>
      </g>
     </g>
    </g>
    <g id="ytick_21">
     <g id="line2d_39">
      <g>
       <use xlink:href="#mc4cf7d1232" x="90" y="402.486919" style="stroke: #000000; stroke-width: 1.25"/>
      </g>
     </g>
     <g id="text_32">
      <!-- 30 -->
      <g transform="translate(59.50375 408.75563) scale(0.165 -0.165)">
       <use xlink:href="#DejaVuSans-33"/>
       <use xlink:href="#DejaVuSans-30" x="63.623047"/>
      </g>
     </g>
    </g>
    <g id="text_33">
     <!-- firing rate (Hz) -->
     <g transform="translate(51.760312 580.602656) rotate(-90) scale(0.18 -0.18)">
      <use xlink:href="#DejaVuSans-66"/>
      <use xlink:href="#DejaVuSans-69" x="35.205078"/>
      <use xlink:href="#DejaVuSans-72" x="62.988281"/>
      <use xlink:href="#DejaVuSans-69" x="104.101562"/>
      <use xlink:href="#DejaVuSans-6e" x="131.884766"/>
      <use xlink:href="#DejaVuSans-67" x="195.263672"/>
      <use xlink:href="#DejaVuSans-20" x="258.740234"/>
      <use xlink:href="#DejaVuSans-72" x="290.527344"/>
      <use xlink:href="#DejaVuSans-61" x="331.640625"/>
      <use xlink:href="#DejaVuSans-74" x="392.919922"/>
      <use xlink:href="#DejaVuSans-65" x="432.128906"/>
      <use xlink:href="#DejaVuSans-20" x="493.652344"/>
      <use xlink:href="#DejaVuSans-28" x="525.439453"/>
      <use xlink:href="#DejaVuSans-48" x="564.453125"/>
      <use xlink:href="#DejaVuSans-7a" x="639.648438"/>
      <use xlink:href="#DejaVuSans-29" x="692.138672"/>
     </g>
    </g>
   </g>
   <g id="line2d_40">
    <path d="M 101.528926 596.703397 
L 106.891217 592.582092 
L 112.253508 609.239032 
L 117.615799 618.511967 
L 122.97809 621.431224 
L 128.340381 618.683688 
L 133.702672 615.077546 
L 139.064963 522.176472 
L 144.427254 546.560858 
L 149.789544 585.369809 
L 155.151835 588.632509 
L 160.514126 572.14729 
L 165.876417 554.288304 
L 171.238708 533.51006 
L 176.600999 601.855027 
L 181.96329 628.300065 
L 187.325581 625.037366 
L 192.687872 625.72425 
L 198.050163 611.471405 
L 203.412454 581.935389 
L 208.774745 588.289067 
L 214.137036 616.451315 
L 219.499327 622.633271 
L 224.861618 619.02713 
L 230.223909 612.158289 
L 235.5862 586.915298 
L 240.948491 478.044169 
L 246.310782 560.470261 
L 251.673073 578.84441 
L 257.035364 584.511204 
L 262.397655 552.742815 
L 267.759946 544.671927 
L 273.122237 537.287923 
L 278.484528 607.865263 
L 283.846819 621.602945 
L 289.20911 618.683688 
L 294.571401 605.63289 
L 299.933692 591.380045 
L 305.295983 583.82432 
L 310.658274 592.925534 
L 316.020565 612.33001 
L 321.382856 618.855409 
L 326.745147 620.74434 
L 332.107438 622.976713 
" clip-path="url(#p0c97f51ca5)" style="fill: none; stroke: #8a2be2; stroke-width: 2; stroke-linecap: square"/>
   </g>
   <g id="line2d_41">
    <path d="M 101.528926 595.206312 
L 106.891217 596.474051 
L 112.253508 608.834507 
L 117.615799 615.115578 
L 122.97809 618.169677 
L 128.340381 617.737493 
L 133.702672 614.078337 
L 139.064963 560.429924 
L 144.427254 569.102412 
L 149.789544 592.584397 
L 155.151835 599.989146 
L 160.514126 590.682789 
L 165.876417 580.223941 
L 171.238708 563.829769 
L 176.600999 601.890755 
L 181.96329 626.698104 
L 187.325581 626.409981 
L 192.687872 624.018564 
L 198.050163 610.188683 
L 203.412454 591.287846 
L 208.774745 589.760796 
L 214.137036 614.135962 
L 219.499327 621.252588 
L 224.861618 621.079715 
L 230.223909 613.847839 
L 235.5862 603.965237 
L 240.948491 536.803877 
L 246.310782 578.235896 
L 251.673073 593.909761 
L 257.035364 599.78746 
L 262.397655 584.862714 
L 267.759946 580.684937 
L 273.122237 561.985785 
L 278.484528 606.385466 
L 283.846819 621.65596 
L 289.20911 618.400175 
L 294.571401 608.776883 
L 299.933692 595.206312 
L 305.295983 587.801563 
L 310.658274 594.745316 
L 316.020565 608.949756 
L 321.382856 617.276497 
L 326.745147 618.256114 
L 332.107438 622.750825 
" clip-path="url(#p0c97f51ca5)" style="fill: none; stroke-dasharray: 7.4,3.2; stroke-dashoffset: 0; stroke: #000000; stroke-width: 2"/>
   </g>
   <g id="patch_16">
    <path d="M 90 640.8 
L 90 388.8 
" style="fill: none; stroke: #000000; stroke-width: 1.25; stroke-linejoin: miter; stroke-linecap: square"/>
   </g>
   <g id="patch_17">
    <path d="M 90 640.8 
L 343.636364 640.8 
" style="fill: none; stroke: #000000; stroke-width: 1.25; stroke-linejoin: miter; stroke-linecap: square"/>
   </g>
   <g id="text_34">
    <!-- N$\rightarrow$F -->
    <g transform="translate(193.778182 382.8) scale(0.18 -0.18)">
     <use xlink:href="#DejaVuSans-4e" transform="translate(0 0.09375)"/>
     <use xlink:href="#DejaVuSans-2192" transform="translate(94.287109 0.09375)"/>
     <use xlink:href="#DejaVuSans-46" transform="translate(197.558594 0.09375)"/>
    </g>
   </g>
  </g>
  <g id="axes_4">
   <g id="patch_18">
    <path d="M 394.363636 640.8 
L 648 640.8 
L 648 388.8 
L 394.363636 388.8 
z
" style="fill: #ffffff"/>
   </g>
   <g id="patch_19">
    <path d="M 436.725735 640.8 
L 470.240054 640.8 
L 470.240054 388.8 
L 436.725735 388.8 
z
" clip-path="url(#p2e43a3d982)" style="fill: #2b2b2b; opacity: 0.4; stroke: #2b2b2b; stroke-linejoin: miter"/>
   </g>
   <g id="patch_20">
    <path d="M 537.268691 640.8 
L 570.78301 640.8 
L 570.78301 388.8 
L 537.268691 388.8 
z
" clip-path="url(#p2e43a3d982)" style="fill: #2b2b2b; opacity: 0.4; stroke: #2b2b2b; stroke-linejoin: miter"/>
   </g>
   <g id="matplotlib.axis_7">
    <g id="xtick_13">
     <g id="line2d_42">
      <g>
       <use xlink:href="#m91b68d74dd" x="403.211416" y="640.8" style="stroke: #000000; stroke-width: 1.25"/>
      </g>
     </g>
     <g id="text_35">
      <!-- −1.0 -->
      <g transform="translate(383.178096 662.837422) scale(0.165 -0.165)">
       <use xlink:href="#DejaVuSans-2212"/>
       <use xlink:href="#DejaVuSans-31" x="83.789062"/>
       <use xlink:href="#DejaVuSans-2e" x="147.412109"/>
       <use xlink:href="#DejaVuSans-30" x="179.199219"/>
      </g>
     </g>
    </g>
    <g id="xtick_14">
     <g id="line2d_43">
      <g>
       <use xlink:href="#m91b68d74dd" x="470.240054" y="640.8" style="stroke: #000000; stroke-width: 1.25"/>
      </g>
     </g>
     <g id="text_36">
      <!-- −0.5 -->
      <g transform="translate(450.206734 662.837422) scale(0.165 -0.165)">
       <use xlink:href="#DejaVuSans-2212"/>
       <use xlink:href="#DejaVuSans-30" x="83.789062"/>
       <use xlink:href="#DejaVuSans-2e" x="147.412109"/>
       <use xlink:href="#DejaVuSans-35" x="179.199219"/>
      </g>
     </g>
    </g>
    <g id="xtick_15">
     <g id="line2d_44">
      <g>
       <use xlink:href="#m91b68d74dd" x="537.268691" y="640.8" style="stroke: #000000; stroke-width: 1.25"/>
      </g>
     </g>
     <g id="text_37">
      <!-- 0.0 -->
      <g transform="translate(524.148613 662.837422) scale(0.165 -0.165)">
       <use xlink:href="#DejaVuSans-30"/>
       <use xlink:href="#DejaVuSans-2e" x="63.623047"/>
       <use xlink:href="#DejaVuSans-30" x="95.410156"/>
      </g>
     </g>
    </g>
    <g id="xtick_16">
     <g id="line2d_45">
      <g>
       <use xlink:href="#m91b68d74dd" x="604.297328" y="640.8" style="stroke: #000000; stroke-width: 1.25"/>
      </g>
     </g>
     <g id="text_38">
      <!-- 0.5 -->
      <g transform="translate(591.17725 662.837422) scale(0.165 -0.165)">
       <use xlink:href="#DejaVuSans-30"/>
       <use xlink:href="#DejaVuSans-2e" x="63.623047"/>
       <use xlink:href="#DejaVuSans-35" x="95.410156"/>
      </g>
     </g>
    </g>
    <g id="text_39">
     <!-- time (s) -->
     <g transform="translate(486.277287 683.946094) scale(0.18 -0.18)">
      <use xlink:href="#DejaVuSans-74"/>
      <use xlink:href="#DejaVuSans-69" x="39.208984"/>
      <use xlink:href="#DejaVuSans-6d" x="66.992188"/>
      <use xlink:href="#DejaVuSans-65" x="164.404297"/>
      <use xlink:href="#DejaVuSans-20" x="225.927734"/>
      <use xlink:href="#DejaVuSans-28" x="257.714844"/>
      <use xlink:href="#DejaVuSans-73" x="296.728516"/>
      <use xlink:href="#DejaVuSans-29" x="348.828125"/>
     </g>
    </g>
   </g>
   <g id="matplotlib.axis_8">
    <g id="ytick_22">
     <g id="line2d_46">
      <g>
       <use xlink:href="#mc4cf7d1232" x="394.363636" y="639.461932" style="stroke: #000000; stroke-width: 1.25"/>
      </g>
     </g>
    </g>
    <g id="ytick_23">
     <g id="line2d_47">
      <g>
       <use xlink:href="#mc4cf7d1232" x="394.363636" y="599.966096" style="stroke: #000000; stroke-width: 1.25"/>
      </g>
     </g>
    </g>
    <g id="ytick_24">
     <g id="line2d_48">
      <g>
       <use xlink:href="#mc4cf7d1232" x="394.363636" y="560.470261" style="stroke: #000000; stroke-width: 1.25"/>
      </g>
     </g>
    </g>
    <g id="ytick_25">
     <g id="line2d_49">
      <g>
       <use xlink:href="#mc4cf7d1232" x="394.363636" y="520.974425" style="stroke: #000000; stroke-width: 1.25"/>
      </g>
     </g>
    </g>
    <g id="ytick_26">
     <g id="line2d_50">
      <g>
       <use xlink:href="#mc4cf7d1232" x="394.363636" y="481.47859" style="stroke: #000000; stroke-width: 1.25"/>
      </g>
     </g>
    </g>
    <g id="ytick_27">
     <g id="line2d_51">
      <g>
       <use xlink:href="#mc4cf7d1232" x="394.363636" y="441.982754" style="stroke: #000000; stroke-width: 1.25"/>
      </g>
     </g>
    </g>
    <g id="ytick_28">
     <g id="line2d_52">
      <g>
       <use xlink:href="#mc4cf7d1232" x="394.363636" y="402.486919" style="stroke: #000000; stroke-width: 1.25"/>
      </g>
     </g>
    </g>
   </g>
   <g id="line2d_53">
    <path d="M 405.892562 595.947222 
L 411.254853 591.304729 
L 416.617144 609.389664 
L 421.979435 620.060469 
L 427.341726 621.931324 
L 432.704017 615.417976 
L 438.066308 609.389664 
L 443.428599 527.072028 
L 448.79089 545.156963 
L 454.153181 583.959889 
L 459.515472 590.68111 
L 464.877763 575.991431 
L 470.240054 561.648207 
L 475.602345 528.804301 
L 480.964636 602.391279 
L 486.326927 629.345455 
L 491.689218 627.959636 
L 497.051509 624.356507 
L 502.4138 613.477829 
L 507.776091 589.849619 
L 513.138382 590.68111 
L 518.500673 615.625849 
L 523.862964 622.208488 
L 529.225255 618.951814 
L 534.587546 617.150249 
L 539.949837 597.333041 
L 545.312128 445.724465 
L 550.674419 405.743593 
L 556.03671 480.78568 
L 561.399001 473.579423 
L 566.761292 471.431404 
L 572.123583 468.174729 
L 577.485874 530.675157 
L 582.848165 596.016513 
L 588.210456 602.737734 
L 593.572746 588.533091 
L 598.935037 598.996023 
L 604.297328 601.629079 
L 609.659619 596.986586 
L 615.02191 603.292061 
L 620.384201 606.618026 
L 625.746492 611.052647 
L 631.108783 613.754993 
L 636.471074 619.991178 
" clip-path="url(#p2e43a3d982)" style="fill: none; stroke: #8a2be2; stroke-width: 2; stroke-linecap: square"/>
   </g>
   <g id="line2d_54">
    <path d="M 405.892562 597.224686 
L 411.254853 592.062744 
L 416.617144 607.176539 
L 421.979435 617.849204 
L 427.341726 620.674321 
L 432.704017 616.349451 
L 438.066308 612.396612 
L 443.428599 563.114012 
L 448.79089 570.077984 
L 454.153181 591.400062 
L 459.515472 599.375496 
L 464.877763 593.027701 
L 470.240054 579.599675 
L 475.602345 562.927996 
L 480.964636 600.189315 
L 486.326927 625.32472 
L 491.689218 626.092036 
L 497.051509 625.057322 
L 502.4138 613.826609 
L 507.776091 594.329813 
L 513.138382 594.434447 
L 518.500673 614.373031 
L 523.862964 619.186194 
L 529.225255 618.593268 
L 534.587546 616.721482 
L 539.949837 610.024908 
L 545.312128 517.156448 
L 550.674419 500.333631 
L 556.03671 532.514389 
L 561.399001 536.641618 
L 566.761292 537.978608 
L 572.123583 538.629664 
L 577.485874 563.276776 
L 582.848165 598.131514 
L 588.210456 603.142318 
L 593.572746 596.224851 
L 598.935037 598.968586 
L 604.297328 602.828417 
L 609.659619 601.270533 
L 615.02191 603.235326 
L 620.384201 608.583285 
L 625.746492 609.99003 
L 631.108783 611.292142 
L 636.471074 619.755868 
" clip-path="url(#p2e43a3d982)" style="fill: none; stroke-dasharray: 7.4,3.2; stroke-dashoffset: 0; stroke: #000000; stroke-width: 2"/>
   </g>
   <g id="patch_21">
    <path d="M 394.363636 640.8 
L 394.363636 388.8 
" style="fill: none; stroke: #000000; stroke-width: 1.25; stroke-linejoin: miter; stroke-linecap: square"/>
   </g>
   <g id="patch_22">
    <path d="M 394.363636 640.8 
L 648 640.8 
" style="fill: none; stroke: #000000; stroke-width: 1.25; stroke-linejoin: miter; stroke-linecap: square"/>
   </g>
   <g id="text_40">
    <!-- N$\rightarrow$N -->
    <g transform="translate(496.611818 382.8) scale(0.18 -0.18)">
     <use xlink:href="#DejaVuSans-4e" transform="translate(0 0.09375)"/>
     <use xlink:href="#DejaVuSans-2192" transform="translate(94.287109 0.09375)"/>
     <use xlink:href="#DejaVuSans-4e" transform="translate(197.558594 0.09375)"/>
    </g>
   </g>
  </g>
 </g>
 <defs>
  <clipPath id="p723b8986a5">
   <rect x="90" y="86.4" width="253.636364" height="252"/>
  </clipPath>
  <clipPath id="p1187afac1e">
   <rect x="394.363636" y="86.4" width="253.636364" height="252"/>
  </clipPath>
  <clipPath id="p0c97f51ca5">
   <rect x="90" y="388.8" width="253.636364" height="252"/>
  </clipPath>
  <clipPath id="p2e43a3d982">
   <rect x="394.363636" y="388.8" width="253.636364" height="252"/>
  </clipPath>
 </defs>
</svg>
