<?xml version="1.0" encoding="utf-8" standalone="no"?>
<!DOCTYPE svg PUBLIC "-//W3C//DTD SVG 1.1//EN"
  "http://www.w3.org/Graphics/SVG/1.1/DTD/svg11.dtd">
<svg xmlns:xlink="http://www.w3.org/1999/xlink" width="360pt" height="288pt" viewBox="0 0 360 288" xmlns="http://www.w3.org/2000/svg" version="1.1">
 <metadata>
  <rdf:RDF xmlns:dc="http://purl.org/dc/elements/1.1/" xmlns:cc="http://creativecommons.org/ns#" xmlns:rdf="http://www.w3.org/1999/02/22-rdf-syntax-ns#">
   <cc:Work>
    <dc:type rdf:resource="http://purl.org/dc/dcmitype/StillImage"/>
    <dc:date>2024-08-30T19:08:57.175309</dc:date>
    <dc:format>image/svg+xml</dc:format>
    <dc:creator>
     <cc:Agent>
      <dc:title>Matplotlib v3.9.2, https://matplotlib.org/</dc:title>
     </cc:Agent>
    </dc:creator>
   </cc:Work>
  </rdf:RDF>
 </metadata>
 <defs>
  <style type="text/css">*{stroke-linejoin: round; stroke-linecap: butt}</style>
 </defs>
 <g id="figure_1">
  <g id="patch_1">
   <path d="M 0 288 
L 360 288 
L 360 0 
L 0 0 
z
" style="fill: #ffffff"/>
  </g>
  <g id="axes_1">
   <g id="patch_2">
    <path d="M 95.4 221.22 
L 340.56 221.22 
L 340.56 19.44 
L 95.4 19.44 
z
" style="fill: #ffffff"/>
   </g>
   <g id="matplotlib.axis_1">
    <g id="xtick_1">
     <g id="line2d_1">
      <defs>
       <path id="mb428ff8996" d="M 0 0 
L 0 6 
" style="stroke: #000000; stroke-width: 1.25"/>
      </defs>
      <g>
       <use xlink:href="#mb428ff8996" x="131.047641" y="221.22" style="stroke: #000000; stroke-width: 1.25"/>
      </g>
     </g>
     <g id="text_1">
      <!-- −100 -->
      <g transform="translate(108.387212 243.257422) scale(0.165 -0.165)">
       <defs>
        <path id="DejaVuSans-2212" d="M 678 2272 
L 4684 2272 
L 4684 1741 
L 678 1741 
L 678 2272 
z
" transform="scale(0.015625)"/>
        <path id="DejaVuSans-31" d="M 794 531 
L 1825 531 
L 1825 4091 
L 703 3866 
L 703 4441 
L 1819 4666 
L 2450 4666 
L 2450 531 
L 3481 531 
L 3481 0 
L 794 0 
L 794 531 
z
" transform="scale(0.015625)"/>
        <path id="DejaVuSans-30" d="M 2034 4250 
Q 1547 4250 1301 3770 
Q 1056 3291 1056 2328 
Q 1056 1369 1301 889 
Q 1547 409 2034 409 
Q 2525 409 2770 889 
Q 3016 1369 3016 2328 
Q 3016 3291 2770 3770 
Q 2525 4250 2034 4250 
z
M 2034 4750 
Q 2819 4750 3233 4129 
Q 3647 3509 3647 2328 
Q 3647 1150 3233 529 
Q 2819 -91 2034 -91 
Q 1250 -91 836 529 
Q 422 1150 422 2328 
Q 422 3509 836 4129 
Q 1250 4750 2034 4750 
z
" transform="scale(0.015625)"/>
       </defs>
       <use xlink:href="#DejaVuSans-2212"/>
       <use xlink:href="#DejaVuSans-31" x="83.789062"/>
       <use xlink:href="#DejaVuSans-30" x="147.412109"/>
       <use xlink:href="#DejaVuSans-30" x="211.035156"/>
      </g>
     </g>
    </g>
    <g id="xtick_2">
     <g id="line2d_2">
      <g>
       <use xlink:href="#mb428ff8996" x="195.953796" y="221.22" style="stroke: #000000; stroke-width: 1.25"/>
      </g>
     </g>
     <g id="text_2">
      <!-- 0 -->
      <g transform="translate(190.704734 243.257422) scale(0.165 -0.165)">
       <use xlink:href="#DejaVuSans-30"/>
      </g>
     </g>
    </g>
    <g id="xtick_3">
     <g id="line2d_3">
      <g>
       <use xlink:href="#mb428ff8996" x="260.859951" y="221.22" style="stroke: #000000; stroke-width: 1.25"/>
      </g>
     </g>
     <g id="text_3">
      <!-- 100 -->
      <g transform="translate(245.112764 243.257422) scale(0.165 -0.165)">
       <use xlink:href="#DejaVuSans-31"/>
       <use xlink:href="#DejaVuSans-30" x="63.623047"/>
       <use xlink:href="#DejaVuSans-30" x="127.246094"/>
      </g>
     </g>
    </g>
    <g id="xtick_4">
     <g id="line2d_4">
      <g>
       <use xlink:href="#mb428ff8996" x="325.766106" y="221.22" style="stroke: #000000; stroke-width: 1.25"/>
      </g>
     </g>
     <g id="text_4">
      <!-- 200 -->
      <g transform="translate(310.018919 243.257422) scale(0.165 -0.165)">
       <defs>
        <path id="DejaVuSans-32" d="M 1228 531 
L 3431 531 
L 3431 0 
L 469 0 
L 469 531 
Q 828 903 1448 1529 
Q 2069 2156 2228 2338 
Q 2531 2678 2651 2914 
Q 2772 3150 2772 3378 
Q 2772 3750 2511 3984 
Q 2250 4219 1831 4219 
Q 1534 4219 1204 4116 
Q 875 4013 500 3803 
L 500 4441 
Q 881 4594 1212 4672 
Q 1544 4750 1819 4750 
Q 2544 4750 2975 4387 
Q 3406 4025 3406 3419 
Q 3406 3131 3298 2873 
Q 3191 2616 2906 2266 
Q 2828 2175 2409 1742 
Q 1991 1309 1228 531 
z
" transform="scale(0.015625)"/>
       </defs>
       <use xlink:href="#DejaVuSans-32"/>
       <use xlink:href="#DejaVuSans-30" x="63.623047"/>
       <use xlink:href="#DejaVuSans-30" x="127.246094"/>
      </g>
     </g>
    </g>
    <g id="text_5">
     <!-- PC2 -->
     <g transform="translate(200.5425 264.366094) scale(0.18 -0.18)">
      <defs>
       <path id="DejaVuSans-50" d="M 1259 4147 
L 1259 2394 
L 2053 2394 
Q 2494 2394 2734 2622 
Q 2975 2850 2975 3272 
Q 2975 3691 2734 3919 
Q 2494 4147 2053 4147 
L 1259 4147 
z
M 628 4666 
L 2053 4666 
Q 2838 4666 3239 4311 
Q 3641 3956 3641 3272 
Q 3641 2581 3239 2228 
Q 2838 1875 2053 1875 
L 1259 1875 
L 1259 0 
L 628 0 
L 628 4666 
z
" transform="scale(0.015625)"/>
       <path id="DejaVuSans-43" d="M 4122 4306 
L 4122 3641 
Q 3803 3938 3442 4084 
Q 3081 4231 2675 4231 
Q 1875 4231 1450 3742 
Q 1025 3253 1025 2328 
Q 1025 1406 1450 917 
Q 1875 428 2675 428 
Q 3081 428 3442 575 
Q 3803 722 4122 1019 
L 4122 359 
Q 3791 134 3420 21 
Q 3050 -91 2638 -91 
Q 1578 -91 968 557 
Q 359 1206 359 2328 
Q 359 3453 968 4101 
Q 1578 4750 2638 4750 
Q 3056 4750 3426 4639 
Q 3797 4528 4122 4306 
z
" transform="scale(0.015625)"/>
      </defs>
      <use xlink:href="#DejaVuSans-50"/>
      <use xlink:href="#DejaVuSans-43" x="60.302734"/>
      <use xlink:href="#DejaVuSans-32" x="130.126953"/>
     </g>
    </g>
   </g>
   <g id="matplotlib.axis_2">
    <g id="ytick_1">
     <g id="line2d_5">
      <defs>
       <path id="m037a24599d" d="M 0 0 
L -6 0 
" style="stroke: #000000; stroke-width: 1.25"/>
      </defs>
      <g>
       <use xlink:href="#m037a24599d" x="95.4" y="190.970808" style="stroke: #000000; stroke-width: 1.25"/>
      </g>
     </g>
     <g id="text_6">
      <!-- −100 -->
      <g transform="translate(40.579141 197.239519) scale(0.165 -0.165)">
       <use xlink:href="#DejaVuSans-2212"/>
       <use xlink:href="#DejaVuSans-31" x="83.789062"/>
       <use xlink:href="#DejaVuSans-30" x="147.412109"/>
       <use xlink:href="#DejaVuSans-30" x="211.035156"/>
      </g>
     </g>
    </g>
    <g id="ytick_2">
     <g id="line2d_6">
      <g>
       <use xlink:href="#m037a24599d" x="95.4" y="125.009092" style="stroke: #000000; stroke-width: 1.25"/>
      </g>
     </g>
     <g id="text_7">
      <!-- 0 -->
      <g transform="translate(75.401875 131.277803) scale(0.165 -0.165)">
       <use xlink:href="#DejaVuSans-30"/>
      </g>
     </g>
    </g>
    <g id="ytick_3">
     <g id="line2d_7">
      <g>
       <use xlink:href="#m037a24599d" x="95.4" y="59.047375" style="stroke: #000000; stroke-width: 1.25"/>
      </g>
     </g>
     <g id="text_8">
      <!-- 100 -->
      <g transform="translate(54.405625 65.316086) scale(0.165 -0.165)">
       <use xlink:href="#DejaVuSans-31"/>
       <use xlink:href="#DejaVuSans-30" x="63.623047"/>
       <use xlink:href="#DejaVuSans-30" x="127.246094"/>
      </g>
     </g>
    </g>
    <g id="text_9">
     <!-- PC3 -->
     <g transform="translate(32.835703 137.7675) rotate(-90) scale(0.18 -0.18)">
      <defs>
       <path id="DejaVuSans-33" d="M 2597 2516 
Q 3050 2419 3304 2112 
Q 3559 1806 3559 1356 
Q 3559 666 3084 287 
Q 2609 -91 1734 -91 
Q 1441 -91 1130 -33 
Q 819 25 488 141 
L 488 750 
Q 750 597 1062 519 
Q 1375 441 1716 441 
Q 2309 441 2620 675 
Q 2931 909 2931 1356 
Q 2931 1769 2642 2001 
Q 2353 2234 1838 2234 
L 1294 2234 
L 1294 2753 
L 1863 2753 
Q 2328 2753 2575 2939 
Q 2822 3125 2822 3475 
Q 2822 3834 2567 4026 
Q 2313 4219 1838 4219 
Q 1578 4219 1281 4162 
Q 984 4106 628 3988 
L 628 4550 
Q 988 4650 1302 4700 
Q 1616 4750 1894 4750 
Q 2613 4750 3031 4423 
Q 3450 4097 3450 3541 
Q 3450 3153 3228 2886 
Q 3006 2619 2597 2516 
z
" transform="scale(0.015625)"/>
      </defs>
      <use xlink:href="#DejaVuSans-50"/>
      <use xlink:href="#DejaVuSans-43" x="60.302734"/>
      <use xlink:href="#DejaVuSans-33" x="130.126953"/>
     </g>
    </g>
   </g>
   <g id="line2d_8">
    <path d="M 198.852636 128.641505 
L 202.072798 135.125504 
L 202.552868 130.962124 
L 206.689728 129.226584 
L 208.293705 129.539138 
L 211.335738 131.736783 
L 215.629699 131.539466 
L 310.881796 108.938034 
L 212.09274 51.296853 
L 187.724463 76.171103 
L 194.147978 88.629318 
L 192.512227 76.0426 
L 187.579272 83.339307 
L 175.393891 110.893521 
L 186.712111 133.414082 
L 194.535926 134.417653 
L 195.000274 132.213869 
L 193.476998 130.45528 
L 201.001267 128.190356 
L 199.388164 129.386132 
L 203.051276 132.369138 
L 204.001645 131.34706 
L 206.426355 130.160561 
L 208.099724 134.297779 
L 207.035664 130.732593 
L 223.543289 133.468635 
L 329.416364 79.259522 
L 210.382068 28.611818 
L 174.335896 59.936724 
L 170.365495 59.526963 
L 177.022335 59.744271 
L 175.910654 74.792518 
L 153.739083 115.195569 
L 187.069072 137.580522 
L 199.188774 132.226819 
L 199.602042 134.578111 
L 203.996431 134.389685 
L 208.379189 130.953986 
L 207.000355 130.994425 
L 205.169017 131.410642 
L 200.868479 128.864608 
L 203.291331 126.477202 
L 208.493795 132.087667 
L 204.40228 131.117995 
" clip-path="url(#p8c38573091)" style="fill: none; stroke: #000000; stroke-opacity: 0.75; stroke-width: 1.5; stroke-linecap: square"/>
    <defs>
     <path id="m9a1c43543d" d="M 0 3 
C 0.795609 3 1.55874 2.683901 2.12132 2.12132 
C 2.683901 1.55874 3 0.795609 3 0 
C 3 -0.795609 2.683901 -1.55874 2.12132 -2.12132 
C 1.55874 -2.683901 0.795609 -3 0 -3 
C -0.795609 -3 -1.55874 -2.683901 -2.12132 -2.12132 
C -2.683901 -1.55874 -3 -0.795609 -3 0 
C -3 0.795609 -2.683901 1.55874 -2.12132 2.12132 
C -1.55874 2.683901 -0.795609 3 0 3 
z
" style="stroke: #000000; stroke-opacity: 0.75"/>
    </defs>
    <g clip-path="url(#p8c38573091)">
     <use xlink:href="#m9a1c43543d" x="198.852636" y="128.641505" style="fill-opacity: 0.75; stroke: #000000; stroke-opacity: 0.75"/>
     <use xlink:href="#m9a1c43543d" x="202.072798" y="135.125504" style="fill-opacity: 0.75; stroke: #000000; stroke-opacity: 0.75"/>
     <use xlink:href="#m9a1c43543d" x="202.552868" y="130.962124" style="fill-opacity: 0.75; stroke: #000000; stroke-opacity: 0.75"/>
     <use xlink:href="#m9a1c43543d" x="206.689728" y="129.226584" style="fill-opacity: 0.75; stroke: #000000; stroke-opacity: 0.75"/>
     <use xlink:href="#m9a1c43543d" x="208.293705" y="129.539138" style="fill-opacity: 0.75; stroke: #000000; stroke-opacity: 0.75"/>
     <use xlink:href="#m9a1c43543d" x="211.335738" y="131.736783" style="fill-opacity: 0.75; stroke: #000000; stroke-opacity: 0.75"/>
     <use xlink:href="#m9a1c43543d" x="215.629699" y="131.539466" style="fill-opacity: 0.75; stroke: #000000; stroke-opacity: 0.75"/>
     <use xlink:href="#m9a1c43543d" x="310.881796" y="108.938034" style="fill-opacity: 0.75; stroke: #000000; stroke-opacity: 0.75"/>
     <use xlink:href="#m9a1c43543d" x="212.09274" y="51.296853" style="fill-opacity: 0.75; stroke: #000000; stroke-opacity: 0.75"/>
     <use xlink:href="#m9a1c43543d" x="187.724463" y="76.171103" style="fill-opacity: 0.75; stroke: #000000; stroke-opacity: 0.75"/>
     <use xlink:href="#m9a1c43543d" x="194.147978" y="88.629318" style="fill-opacity: 0.75; stroke: #000000; stroke-opacity: 0.75"/>
     <use xlink:href="#m9a1c43543d" x="192.512227" y="76.0426" style="fill-opacity: 0.75; stroke: #000000; stroke-opacity: 0.75"/>
     <use xlink:href="#m9a1c43543d" x="187.579272" y="83.339307" style="fill-opacity: 0.75; stroke: #000000; stroke-opacity: 0.75"/>
     <use xlink:href="#m9a1c43543d" x="175.393891" y="110.893521" style="fill-opacity: 0.75; stroke: #000000; stroke-opacity: 0.75"/>
     <use xlink:href="#m9a1c43543d" x="186.712111" y="133.414082" style="fill-opacity: 0.75; stroke: #000000; stroke-opacity: 0.75"/>
     <use xlink:href="#m9a1c43543d" x="194.535926" y="134.417653" style="fill-opacity: 0.75; stroke: #000000; stroke-opacity: 0.75"/>
     <use xlink:href="#m9a1c43543d" x="195.000274" y="132.213869" style="fill-opacity: 0.75; stroke: #000000; stroke-opacity: 0.75"/>
     <use xlink:href="#m9a1c43543d" x="193.476998" y="130.45528" style="fill-opacity: 0.75; stroke: #000000; stroke-opacity: 0.75"/>
     <use xlink:href="#m9a1c43543d" x="201.001267" y="128.190356" style="fill-opacity: 0.75; stroke: #000000; stroke-opacity: 0.75"/>
     <use xlink:href="#m9a1c43543d" x="199.388164" y="129.386132" style="fill-opacity: 0.75; stroke: #000000; stroke-opacity: 0.75"/>
     <use xlink:href="#m9a1c43543d" x="203.051276" y="132.369138" style="fill-opacity: 0.75; stroke: #000000; stroke-opacity: 0.75"/>
     <use xlink:href="#m9a1c43543d" x="204.001645" y="131.34706" style="fill-opacity: 0.75; stroke: #000000; stroke-opacity: 0.75"/>
     <use xlink:href="#m9a1c43543d" x="206.426355" y="130.160561" style="fill-opacity: 0.75; stroke: #000000; stroke-opacity: 0.75"/>
     <use xlink:href="#m9a1c43543d" x="208.099724" y="134.297779" style="fill-opacity: 0.75; stroke: #000000; stroke-opacity: 0.75"/>
     <use xlink:href="#m9a1c43543d" x="207.035664" y="130.732593" style="fill-opacity: 0.75; stroke: #000000; stroke-opacity: 0.75"/>
     <use xlink:href="#m9a1c43543d" x="223.543289" y="133.468635" style="fill-opacity: 0.75; stroke: #000000; stroke-opacity: 0.75"/>
     <use xlink:href="#m9a1c43543d" x="329.416364" y="79.259522" style="fill-opacity: 0.75; stroke: #000000; stroke-opacity: 0.75"/>
     <use xlink:href="#m9a1c43543d" x="210.382068" y="28.611818" style="fill-opacity: 0.75; stroke: #000000; stroke-opacity: 0.75"/>
     <use xlink:href="#m9a1c43543d" x="174.335896" y="59.936724" style="fill-opacity: 0.75; stroke: #000000; stroke-opacity: 0.75"/>
     <use xlink:href="#m9a1c43543d" x="170.365495" y="59.526963" style="fill-opacity: 0.75; stroke: #000000; stroke-opacity: 0.75"/>
     <use xlink:href="#m9a1c43543d" x="177.022335" y="59.744271" style="fill-opacity: 0.75; stroke: #000000; stroke-opacity: 0.75"/>
     <use xlink:href="#m9a1c43543d" x="175.910654" y="74.792518" style="fill-opacity: 0.75; stroke: #000000; stroke-opacity: 0.75"/>
     <use xlink:href="#m9a1c43543d" x="153.739083" y="115.195569" style="fill-opacity: 0.75; stroke: #000000; stroke-opacity: 0.75"/>
     <use xlink:href="#m9a1c43543d" x="187.069072" y="137.580522" style="fill-opacity: 0.75; stroke: #000000; stroke-opacity: 0.75"/>
     <use xlink:href="#m9a1c43543d" x="199.188774" y="132.226819" style="fill-opacity: 0.75; stroke: #000000; stroke-opacity: 0.75"/>
     <use xlink:href="#m9a1c43543d" x="199.602042" y="134.578111" style="fill-opacity: 0.75; stroke: #000000; stroke-opacity: 0.75"/>
     <use xlink:href="#m9a1c43543d" x="203.996431" y="134.389685" style="fill-opacity: 0.75; stroke: #000000; stroke-opacity: 0.75"/>
     <use xlink:href="#m9a1c43543d" x="208.379189" y="130.953986" style="fill-opacity: 0.75; stroke: #000000; stroke-opacity: 0.75"/>
     <use xlink:href="#m9a1c43543d" x="207.000355" y="130.994425" style="fill-opacity: 0.75; stroke: #000000; stroke-opacity: 0.75"/>
     <use xlink:href="#m9a1c43543d" x="205.169017" y="131.410642" style="fill-opacity: 0.75; stroke: #000000; stroke-opacity: 0.75"/>
     <use xlink:href="#m9a1c43543d" x="200.868479" y="128.864608" style="fill-opacity: 0.75; stroke: #000000; stroke-opacity: 0.75"/>
     <use xlink:href="#m9a1c43543d" x="203.291331" y="126.477202" style="fill-opacity: 0.75; stroke: #000000; stroke-opacity: 0.75"/>
     <use xlink:href="#m9a1c43543d" x="208.493795" y="132.087667" style="fill-opacity: 0.75; stroke: #000000; stroke-opacity: 0.75"/>
     <use xlink:href="#m9a1c43543d" x="204.40228" y="131.117995" style="fill-opacity: 0.75; stroke: #000000; stroke-opacity: 0.75"/>
    </g>
   </g>
   <g id="line2d_9">
    <path d="M 201.777099 130.098907 
L 202.262886 129.913889 
L 201.163823 128.1653 
L 205.058616 129.028617 
L 205.801113 130.592583 
L 208.047602 130.229063 
L 209.544377 128.881516 
L 303.486791 107.89596 
L 214.925638 50.350343 
L 193.11613 80.463249 
L 190.049257 79.94404 
L 192.222631 75.477155 
L 184.900912 88.407479 
L 172.746605 112.530094 
L 187.26428 141.652123 
L 195.792097 135.928946 
L 196.853064 133.564145 
L 196.17482 130.675987 
L 198.542105 132.277363 
L 202.269367 132.040713 
L 202.341514 130.973476 
L 204.778549 130.151154 
L 205.179266 131.43703 
L 207.516032 128.901964 
L 210.028628 129.609109 
L 222.485066 138.745797 
L 244.727907 212.048182 
L 106.543636 183.531759 
L 112.298554 145.978645 
L 125.978218 120.588533 
L 131.413766 118.388281 
L 137.793494 116.200157 
L 155.518788 148.199995 
L 182.460975 145.595393 
L 193.00892 139.462408 
L 194.757232 137.606625 
L 196.312325 138.351274 
L 198.721178 137.631537 
L 200.579972 135.612879 
L 201.06436 132.942727 
L 203.097232 134.257857 
L 202.769935 132.793649 
L 203.81807 134.54027 
L 203.611798 133.521466 
" clip-path="url(#p8c38573091)" style="fill: none; stroke: #1e90ff; stroke-opacity: 0.75; stroke-width: 1.5; stroke-linecap: square"/>
    <defs>
     <path id="mdae5e33a08" d="M 0 3 
C 0.795609 3 1.55874 2.683901 2.12132 2.12132 
C 2.683901 1.55874 3 0.795609 3 0 
C 3 -0.795609 2.683901 -1.55874 2.12132 -2.12132 
C 1.55874 -2.683901 0.795609 -3 0 -3 
C -0.795609 -3 -1.55874 -2.683901 -2.12132 -2.12132 
C -2.683901 -1.55874 -3 -0.795609 -3 0 
C -3 0.795609 -2.683901 1.55874 -2.12132 2.12132 
C -1.55874 2.683901 -0.795609 3 0 3 
z
" style="stroke: #1e90ff; stroke-opacity: 0.75"/>
    </defs>
    <g clip-path="url(#p8c38573091)">
     <use xlink:href="#mdae5e33a08" x="201.777099" y="130.098907" style="fill: #1e90ff; fill-opacity: 0.75; stroke: #1e90ff; stroke-opacity: 0.75"/>
     <use xlink:href="#mdae5e33a08" x="202.262886" y="129.913889" style="fill: #1e90ff; fill-opacity: 0.75; stroke: #1e90ff; stroke-opacity: 0.75"/>
     <use xlink:href="#mdae5e33a08" x="201.163823" y="128.1653" style="fill: #1e90ff; fill-opacity: 0.75; stroke: #1e90ff; stroke-opacity: 0.75"/>
     <use xlink:href="#mdae5e33a08" x="205.058616" y="129.028617" style="fill: #1e90ff; fill-opacity: 0.75; stroke: #1e90ff; stroke-opacity: 0.75"/>
     <use xlink:href="#mdae5e33a08" x="205.801113" y="130.592583" style="fill: #1e90ff; fill-opacity: 0.75; stroke: #1e90ff; stroke-opacity: 0.75"/>
     <use xlink:href="#mdae5e33a08" x="208.047602" y="130.229063" style="fill: #1e90ff; fill-opacity: 0.75; stroke: #1e90ff; stroke-opacity: 0.75"/>
     <use xlink:href="#mdae5e33a08" x="209.544377" y="128.881516" style="fill: #1e90ff; fill-opacity: 0.75; stroke: #1e90ff; stroke-opacity: 0.75"/>
     <use xlink:href="#mdae5e33a08" x="303.486791" y="107.89596" style="fill: #1e90ff; fill-opacity: 0.75; stroke: #1e90ff; stroke-opacity: 0.75"/>
     <use xlink:href="#mdae5e33a08" x="214.925638" y="50.350343" style="fill: #1e90ff; fill-opacity: 0.75; stroke: #1e90ff; stroke-opacity: 0.75"/>
     <use xlink:href="#mdae5e33a08" x="193.11613" y="80.463249" style="fill: #1e90ff; fill-opacity: 0.75; stroke: #1e90ff; stroke-opacity: 0.75"/>
     <use xlink:href="#mdae5e33a08" x="190.049257" y="79.94404" style="fill: #1e90ff; fill-opacity: 0.75; stroke: #1e90ff; stroke-opacity: 0.75"/>
     <use xlink:href="#mdae5e33a08" x="192.222631" y="75.477155" style="fill: #1e90ff; fill-opacity: 0.75; stroke: #1e90ff; stroke-opacity: 0.75"/>
     <use xlink:href="#mdae5e33a08" x="184.900912" y="88.407479" style="fill: #1e90ff; fill-opacity: 0.75; stroke: #1e90ff; stroke-opacity: 0.75"/>
     <use xlink:href="#mdae5e33a08" x="172.746605" y="112.530094" style="fill: #1e90ff; fill-opacity: 0.75; stroke: #1e90ff; stroke-opacity: 0.75"/>
     <use xlink:href="#mdae5e33a08" x="187.26428" y="141.652123" style="fill: #1e90ff; fill-opacity: 0.75; stroke: #1e90ff; stroke-opacity: 0.75"/>
     <use xlink:href="#mdae5e33a08" x="195.792097" y="135.928946" style="fill: #1e90ff; fill-opacity: 0.75; stroke: #1e90ff; stroke-opacity: 0.75"/>
     <use xlink:href="#mdae5e33a08" x="196.853064" y="133.564145" style="fill: #1e90ff; fill-opacity: 0.75; stroke: #1e90ff; stroke-opacity: 0.75"/>
     <use xlink:href="#mdae5e33a08" x="196.17482" y="130.675987" style="fill: #1e90ff; fill-opacity: 0.75; stroke: #1e90ff; stroke-opacity: 0.75"/>
     <use xlink:href="#mdae5e33a08" x="198.542105" y="132.277363" style="fill: #1e90ff; fill-opacity: 0.75; stroke: #1e90ff; stroke-opacity: 0.75"/>
     <use xlink:href="#mdae5e33a08" x="202.269367" y="132.040713" style="fill: #1e90ff; fill-opacity: 0.75; stroke: #1e90ff; stroke-opacity: 0.75"/>
     <use xlink:href="#mdae5e33a08" x="202.341514" y="130.973476" style="fill: #1e90ff; fill-opacity: 0.75; stroke: #1e90ff; stroke-opacity: 0.75"/>
     <use xlink:href="#mdae5e33a08" x="204.778549" y="130.151154" style="fill: #1e90ff; fill-opacity: 0.75; stroke: #1e90ff; stroke-opacity: 0.75"/>
     <use xlink:href="#mdae5e33a08" x="205.179266" y="131.43703" style="fill: #1e90ff; fill-opacity: 0.75; stroke: #1e90ff; stroke-opacity: 0.75"/>
     <use xlink:href="#mdae5e33a08" x="207.516032" y="128.901964" style="fill: #1e90ff; fill-opacity: 0.75; stroke: #1e90ff; stroke-opacity: 0.75"/>
     <use xlink:href="#mdae5e33a08" x="210.028628" y="129.609109" style="fill: #1e90ff; fill-opacity: 0.75; stroke: #1e90ff; stroke-opacity: 0.75"/>
     <use xlink:href="#mdae5e33a08" x="222.485066" y="138.745797" style="fill: #1e90ff; fill-opacity: 0.75; stroke: #1e90ff; stroke-opacity: 0.75"/>
     <use xlink:href="#mdae5e33a08" x="244.727907" y="212.048182" style="fill: #1e90ff; fill-opacity: 0.75; stroke: #1e90ff; stroke-opacity: 0.75"/>
     <use xlink:href="#mdae5e33a08" x="106.543636" y="183.531759" style="fill: #1e90ff; fill-opacity: 0.75; stroke: #1e90ff; stroke-opacity: 0.75"/>
     <use xlink:href="#mdae5e33a08" x="112.298554" y="145.978645" style="fill: #1e90ff; fill-opacity: 0.75; stroke: #1e90ff; stroke-opacity: 0.75"/>
     <use xlink:href="#mdae5e33a08" x="125.978218" y="120.588533" style="fill: #1e90ff; fill-opacity: 0.75; stroke: #1e90ff; stroke-opacity: 0.75"/>
     <use xlink:href="#mdae5e33a08" x="131.413766" y="118.388281" style="fill: #1e90ff; fill-opacity: 0.75; stroke: #1e90ff; stroke-opacity: 0.75"/>
     <use xlink:href="#mdae5e33a08" x="137.793494" y="116.200157" style="fill: #1e90ff; fill-opacity: 0.75; stroke: #1e90ff; stroke-opacity: 0.75"/>
     <use xlink:href="#mdae5e33a08" x="155.518788" y="148.199995" style="fill: #1e90ff; fill-opacity: 0.75; stroke: #1e90ff; stroke-opacity: 0.75"/>
     <use xlink:href="#mdae5e33a08" x="182.460975" y="145.595393" style="fill: #1e90ff; fill-opacity: 0.75; stroke: #1e90ff; stroke-opacity: 0.75"/>
     <use xlink:href="#mdae5e33a08" x="193.00892" y="139.462408" style="fill: #1e90ff; fill-opacity: 0.75; stroke: #1e90ff; stroke-opacity: 0.75"/>
     <use xlink:href="#mdae5e33a08" x="194.757232" y="137.606625" style="fill: #1e90ff; fill-opacity: 0.75; stroke: #1e90ff; stroke-opacity: 0.75"/>
     <use xlink:href="#mdae5e33a08" x="196.312325" y="138.351274" style="fill: #1e90ff; fill-opacity: 0.75; stroke: #1e90ff; stroke-opacity: 0.75"/>
     <use xlink:href="#mdae5e33a08" x="198.721178" y="137.631537" style="fill: #1e90ff; fill-opacity: 0.75; stroke: #1e90ff; stroke-opacity: 0.75"/>
     <use xlink:href="#mdae5e33a08" x="200.579972" y="135.612879" style="fill: #1e90ff; fill-opacity: 0.75; stroke: #1e90ff; stroke-opacity: 0.75"/>
     <use xlink:href="#mdae5e33a08" x="201.06436" y="132.942727" style="fill: #1e90ff; fill-opacity: 0.75; stroke: #1e90ff; stroke-opacity: 0.75"/>
     <use xlink:href="#mdae5e33a08" x="203.097232" y="134.257857" style="fill: #1e90ff; fill-opacity: 0.75; stroke: #1e90ff; stroke-opacity: 0.75"/>
     <use xlink:href="#mdae5e33a08" x="202.769935" y="132.793649" style="fill: #1e90ff; fill-opacity: 0.75; stroke: #1e90ff; stroke-opacity: 0.75"/>
     <use xlink:href="#mdae5e33a08" x="203.81807" y="134.54027" style="fill: #1e90ff; fill-opacity: 0.75; stroke: #1e90ff; stroke-opacity: 0.75"/>
     <use xlink:href="#mdae5e33a08" x="203.611798" y="133.521466" style="fill: #1e90ff; fill-opacity: 0.75; stroke: #1e90ff; stroke-opacity: 0.75"/>
    </g>
   </g>
   <g id="line2d_10">
    <path d="M 201.52008 131.984749 
L 201.11206 133.054486 
L 203.928448 130.372792 
L 206.73346 131.474881 
L 208.283922 131.262245 
L 208.130657 130.812314 
L 208.454465 129.386964 
L 266.240373 178.995131 
L 155.026909 153.199898 
L 151.36374 126.013919 
L 158.267696 112.816516 
L 158.830285 111.85586 
L 159.637406 114.607743 
L 161.487743 135.811186 
L 183.152375 146.226224 
L 192.246882 140.145031 
L 192.099194 134.804351 
L 194.428827 133.48504 
L 199.356494 134.988871 
L 200.427018 131.461489 
L 202.484908 130.744283 
L 204.979072 132.344673 
L 204.763858 131.719912 
L 209.048134 129.212086 
L 209.525136 130.058912 
L 219.901415 130.371233 
L 319.828965 82.453723 
L 205.157629 32.484043 
L 182.92764 60.197938 
L 180.237723 64.221348 
L 184.197191 65.136919 
L 178.648139 74.475896 
L 167.236806 118.298856 
L 190.24276 132.321126 
L 197.932332 133.458424 
L 198.666677 130.759888 
L 200.408763 131.029992 
L 204.625369 130.67798 
L 203.977276 131.876596 
L 203.50845 128.158356 
L 208.333187 127.348642 
L 208.946153 127.646516 
L 211.066967 126.271088 
L 208.678582 130.151682 
" clip-path="url(#p8c38573091)" style="fill: none; stroke: #808080; stroke-opacity: 0.75; stroke-width: 1.5; stroke-linecap: square"/>
    <defs>
     <path id="m15f0eaa366" d="M 0 3 
C 0.795609 3 1.55874 2.683901 2.12132 2.12132 
C 2.683901 1.55874 3 0.795609 3 0 
C 3 -0.795609 2.683901 -1.55874 2.12132 -2.12132 
C 1.55874 -2.683901 0.795609 -3 0 -3 
C -0.795609 -3 -1.55874 -2.683901 -2.12132 -2.12132 
C -2.683901 -1.55874 -3 -0.795609 -3 0 
C -3 0.795609 -2.683901 1.55874 -2.12132 2.12132 
C -1.55874 2.683901 -0.795609 3 0 3 
z
" style="stroke: #808080; stroke-opacity: 0.75"/>
    </defs>
    <g clip-path="url(#p8c38573091)">
     <use xlink:href="#m15f0eaa366" x="201.52008" y="131.984749" style="fill: #808080; fill-opacity: 0.75; stroke: #808080; stroke-opacity: 0.75"/>
     <use xlink:href="#m15f0eaa366" x="201.11206" y="133.054486" style="fill: #808080; fill-opacity: 0.75; stroke: #808080; stroke-opacity: 0.75"/>
     <use xlink:href="#m15f0eaa366" x="203.928448" y="130.372792" style="fill: #808080; fill-opacity: 0.75; stroke: #808080; stroke-opacity: 0.75"/>
     <use xlink:href="#m15f0eaa366" x="206.73346" y="131.474881" style="fill: #808080; fill-opacity: 0.75; stroke: #808080; stroke-opacity: 0.75"/>
     <use xlink:href="#m15f0eaa366" x="208.283922" y="131.262245" style="fill: #808080; fill-opacity: 0.75; stroke: #808080; stroke-opacity: 0.75"/>
     <use xlink:href="#m15f0eaa366" x="208.130657" y="130.812314" style="fill: #808080; fill-opacity: 0.75; stroke: #808080; stroke-opacity: 0.75"/>
     <use xlink:href="#m15f0eaa366" x="208.454465" y="129.386964" style="fill: #808080; fill-opacity: 0.75; stroke: #808080; stroke-opacity: 0.75"/>
     <use xlink:href="#m15f0eaa366" x="266.240373" y="178.995131" style="fill: #808080; fill-opacity: 0.75; stroke: #808080; stroke-opacity: 0.75"/>
     <use xlink:href="#m15f0eaa366" x="155.026909" y="153.199898" style="fill: #808080; fill-opacity: 0.75; stroke: #808080; stroke-opacity: 0.75"/>
     <use xlink:href="#m15f0eaa366" x="151.36374" y="126.013919" style="fill: #808080; fill-opacity: 0.75; stroke: #808080; stroke-opacity: 0.75"/>
     <use xlink:href="#m15f0eaa366" x="158.267696" y="112.816516" style="fill: #808080; fill-opacity: 0.75; stroke: #808080; stroke-opacity: 0.75"/>
     <use xlink:href="#m15f0eaa366" x="158.830285" y="111.85586" style="fill: #808080; fill-opacity: 0.75; stroke: #808080; stroke-opacity: 0.75"/>
     <use xlink:href="#m15f0eaa366" x="159.637406" y="114.607743" style="fill: #808080; fill-opacity: 0.75; stroke: #808080; stroke-opacity: 0.75"/>
     <use xlink:href="#m15f0eaa366" x="161.487743" y="135.811186" style="fill: #808080; fill-opacity: 0.75; stroke: #808080; stroke-opacity: 0.75"/>
     <use xlink:href="#m15f0eaa366" x="183.152375" y="146.226224" style="fill: #808080; fill-opacity: 0.75; stroke: #808080; stroke-opacity: 0.75"/>
     <use xlink:href="#m15f0eaa366" x="192.246882" y="140.145031" style="fill: #808080; fill-opacity: 0.75; stroke: #808080; stroke-opacity: 0.75"/>
     <use xlink:href="#m15f0eaa366" x="192.099194" y="134.804351" style="fill: #808080; fill-opacity: 0.75; stroke: #808080; stroke-opacity: 0.75"/>
     <use xlink:href="#m15f0eaa366" x="194.428827" y="133.48504" style="fill: #808080; fill-opacity: 0.75; stroke: #808080; stroke-opacity: 0.75"/>
     <use xlink:href="#m15f0eaa366" x="199.356494" y="134.988871" style="fill: #808080; fill-opacity: 0.75; stroke: #808080; stroke-opacity: 0.75"/>
     <use xlink:href="#m15f0eaa366" x="200.427018" y="131.461489" style="fill: #808080; fill-opacity: 0.75; stroke: #808080; stroke-opacity: 0.75"/>
     <use xlink:href="#m15f0eaa366" x="202.484908" y="130.744283" style="fill: #808080; fill-opacity: 0.75; stroke: #808080; stroke-opacity: 0.75"/>
     <use xlink:href="#m15f0eaa366" x="204.979072" y="132.344673" style="fill: #808080; fill-opacity: 0.75; stroke: #808080; stroke-opacity: 0.75"/>
     <use xlink:href="#m15f0eaa366" x="204.763858" y="131.719912" style="fill: #808080; fill-opacity: 0.75; stroke: #808080; stroke-opacity: 0.75"/>
     <use xlink:href="#m15f0eaa366" x="209.048134" y="129.212086" style="fill: #808080; fill-opacity: 0.75; stroke: #808080; stroke-opacity: 0.75"/>
     <use xlink:href="#m15f0eaa366" x="209.525136" y="130.058912" style="fill: #808080; fill-opacity: 0.75; stroke: #808080; stroke-opacity: 0.75"/>
     <use xlink:href="#m15f0eaa366" x="219.901415" y="130.371233" style="fill: #808080; fill-opacity: 0.75; stroke: #808080; stroke-opacity: 0.75"/>
     <use xlink:href="#m15f0eaa366" x="319.828965" y="82.453723" style="fill: #808080; fill-opacity: 0.75; stroke: #808080; stroke-opacity: 0.75"/>
     <use xlink:href="#m15f0eaa366" x="205.157629" y="32.484043" style="fill: #808080; fill-opacity: 0.75; stroke: #808080; stroke-opacity: 0.75"/>
     <use xlink:href="#m15f0eaa366" x="182.92764" y="60.197938" style="fill: #808080; fill-opacity: 0.75; stroke: #808080; stroke-opacity: 0.75"/>
     <use xlink:href="#m15f0eaa366" x="180.237723" y="64.221348" style="fill: #808080; fill-opacity: 0.75; stroke: #808080; stroke-opacity: 0.75"/>
     <use xlink:href="#m15f0eaa366" x="184.197191" y="65.136919" style="fill: #808080; fill-opacity: 0.75; stroke: #808080; stroke-opacity: 0.75"/>
     <use xlink:href="#m15f0eaa366" x="178.648139" y="74.475896" style="fill: #808080; fill-opacity: 0.75; stroke: #808080; stroke-opacity: 0.75"/>
     <use xlink:href="#m15f0eaa366" x="167.236806" y="118.298856" style="fill: #808080; fill-opacity: 0.75; stroke: #808080; stroke-opacity: 0.75"/>
     <use xlink:href="#m15f0eaa366" x="190.24276" y="132.321126" style="fill: #808080; fill-opacity: 0.75; stroke: #808080; stroke-opacity: 0.75"/>
     <use xlink:href="#m15f0eaa366" x="197.932332" y="133.458424" style="fill: #808080; fill-opacity: 0.75; stroke: #808080; stroke-opacity: 0.75"/>
     <use xlink:href="#m15f0eaa366" x="198.666677" y="130.759888" style="fill: #808080; fill-opacity: 0.75; stroke: #808080; stroke-opacity: 0.75"/>
     <use xlink:href="#m15f0eaa366" x="200.408763" y="131.029992" style="fill: #808080; fill-opacity: 0.75; stroke: #808080; stroke-opacity: 0.75"/>
     <use xlink:href="#m15f0eaa366" x="204.625369" y="130.67798" style="fill: #808080; fill-opacity: 0.75; stroke: #808080; stroke-opacity: 0.75"/>
     <use xlink:href="#m15f0eaa366" x="203.977276" y="131.876596" style="fill: #808080; fill-opacity: 0.75; stroke: #808080; stroke-opacity: 0.75"/>
     <use xlink:href="#m15f0eaa366" x="203.50845" y="128.158356" style="fill: #808080; fill-opacity: 0.75; stroke: #808080; stroke-opacity: 0.75"/>
     <use xlink:href="#m15f0eaa366" x="208.333187" y="127.348642" style="fill: #808080; fill-opacity: 0.75; stroke: #808080; stroke-opacity: 0.75"/>
     <use xlink:href="#m15f0eaa366" x="208.946153" y="127.646516" style="fill: #808080; fill-opacity: 0.75; stroke: #808080; stroke-opacity: 0.75"/>
     <use xlink:href="#m15f0eaa366" x="211.066967" y="126.271088" style="fill: #808080; fill-opacity: 0.75; stroke: #808080; stroke-opacity: 0.75"/>
     <use xlink:href="#m15f0eaa366" x="208.678582" y="130.151682" style="fill: #808080; fill-opacity: 0.75; stroke: #808080; stroke-opacity: 0.75"/>
    </g>
   </g>
   <g id="line2d_11">
    <path d="M 203.636612 131.019039 
L 202.913046 132.031864 
L 205.045107 129.663749 
L 206.961781 129.579426 
L 208.081574 129.892696 
L 208.761232 131.760668 
L 211.7528 130.387682 
L 266.104614 180.050871 
L 156.964777 150.201366 
L 150.394915 122.235578 
L 159.956604 109.694687 
L 160.864101 110.461259 
L 160.820648 112.4382 
L 162.343212 134.601767 
L 183.88685 147.382736 
L 192.523301 138.604518 
L 193.62365 134.458632 
L 195.04982 133.159933 
L 199.796467 133.682458 
L 202.581997 131.519372 
L 203.118748 131.214734 
L 205.400462 130.876848 
L 207.290791 132.102198 
L 208.872023 130.448437 
L 208.359279 130.494423 
L 218.464628 135.85727 
L 245.096027 207.287857 
L 108.477355 181.303394 
L 116.287656 141.580295 
L 127.953993 119.265521 
L 137.015864 114.195577 
L 142.447664 112.584167 
L 157.402711 144.198282 
L 185.657568 141.341537 
L 195.903558 138.635062 
L 196.518368 136.201572 
L 198.850478 134.912364 
L 202.170726 135.893018 
L 202.116124 134.557384 
L 201.437136 133.200381 
L 203.908524 133.535941 
L 203.518403 133.221898 
L 203.686699 133.143687 
L 204.329566 133.070317 
" clip-path="url(#p8c38573091)" style="fill: none; stroke: #ff00ff; stroke-opacity: 0.75; stroke-width: 1.5; stroke-linecap: square"/>
    <defs>
     <path id="m551f3e8141" d="M 0 3 
C 0.795609 3 1.55874 2.683901 2.12132 2.12132 
C 2.683901 1.55874 3 0.795609 3 0 
C 3 -0.795609 2.683901 -1.55874 2.12132 -2.12132 
C 1.55874 -2.683901 0.795609 -3 0 -3 
C -0.795609 -3 -1.55874 -2.683901 -2.12132 -2.12132 
C -2.683901 -1.55874 -3 -0.795609 -3 0 
C -3 0.795609 -2.683901 1.55874 -2.12132 2.12132 
C -1.55874 2.683901 -0.795609 3 0 3 
z
" style="stroke: #ff00ff; stroke-opacity: 0.75"/>
    </defs>
    <g clip-path="url(#p8c38573091)">
     <use xlink:href="#m551f3e8141" x="203.636612" y="131.019039" style="fill: #ff00ff; fill-opacity: 0.75; stroke: #ff00ff; stroke-opacity: 0.75"/>
     <use xlink:href="#m551f3e8141" x="202.913046" y="132.031864" style="fill: #ff00ff; fill-opacity: 0.75; stroke: #ff00ff; stroke-opacity: 0.75"/>
     <use xlink:href="#m551f3e8141" x="205.045107" y="129.663749" style="fill: #ff00ff; fill-opacity: 0.75; stroke: #ff00ff; stroke-opacity: 0.75"/>
     <use xlink:href="#m551f3e8141" x="206.961781" y="129.579426" style="fill: #ff00ff; fill-opacity: 0.75; stroke: #ff00ff; stroke-opacity: 0.75"/>
     <use xlink:href="#m551f3e8141" x="208.081574" y="129.892696" style="fill: #ff00ff; fill-opacity: 0.75; stroke: #ff00ff; stroke-opacity: 0.75"/>
     <use xlink:href="#m551f3e8141" x="208.761232" y="131.760668" style="fill: #ff00ff; fill-opacity: 0.75; stroke: #ff00ff; stroke-opacity: 0.75"/>
     <use xlink:href="#m551f3e8141" x="211.7528" y="130.387682" style="fill: #ff00ff; fill-opacity: 0.75; stroke: #ff00ff; stroke-opacity: 0.75"/>
     <use xlink:href="#m551f3e8141" x="266.104614" y="180.050871" style="fill: #ff00ff; fill-opacity: 0.75; stroke: #ff00ff; stroke-opacity: 0.75"/>
     <use xlink:href="#m551f3e8141" x="156.964777" y="150.201366" style="fill: #ff00ff; fill-opacity: 0.75; stroke: #ff00ff; stroke-opacity: 0.75"/>
     <use xlink:href="#m551f3e8141" x="150.394915" y="122.235578" style="fill: #ff00ff; fill-opacity: 0.75; stroke: #ff00ff; stroke-opacity: 0.75"/>
     <use xlink:href="#m551f3e8141" x="159.956604" y="109.694687" style="fill: #ff00ff; fill-opacity: 0.75; stroke: #ff00ff; stroke-opacity: 0.75"/>
     <use xlink:href="#m551f3e8141" x="160.864101" y="110.461259" style="fill: #ff00ff; fill-opacity: 0.75; stroke: #ff00ff; stroke-opacity: 0.75"/>
     <use xlink:href="#m551f3e8141" x="160.820648" y="112.4382" style="fill: #ff00ff; fill-opacity: 0.75; stroke: #ff00ff; stroke-opacity: 0.75"/>
     <use xlink:href="#m551f3e8141" x="162.343212" y="134.601767" style="fill: #ff00ff; fill-opacity: 0.75; stroke: #ff00ff; stroke-opacity: 0.75"/>
     <use xlink:href="#m551f3e8141" x="183.88685" y="147.382736" style="fill: #ff00ff; fill-opacity: 0.75; stroke: #ff00ff; stroke-opacity: 0.75"/>
     <use xlink:href="#m551f3e8141" x="192.523301" y="138.604518" style="fill: #ff00ff; fill-opacity: 0.75; stroke: #ff00ff; stroke-opacity: 0.75"/>
     <use xlink:href="#m551f3e8141" x="193.62365" y="134.458632" style="fill: #ff00ff; fill-opacity: 0.75; stroke: #ff00ff; stroke-opacity: 0.75"/>
     <use xlink:href="#m551f3e8141" x="195.04982" y="133.159933" style="fill: #ff00ff; fill-opacity: 0.75; stroke: #ff00ff; stroke-opacity: 0.75"/>
     <use xlink:href="#m551f3e8141" x="199.796467" y="133.682458" style="fill: #ff00ff; fill-opacity: 0.75; stroke: #ff00ff; stroke-opacity: 0.75"/>
     <use xlink:href="#m551f3e8141" x="202.581997" y="131.519372" style="fill: #ff00ff; fill-opacity: 0.75; stroke: #ff00ff; stroke-opacity: 0.75"/>
     <use xlink:href="#m551f3e8141" x="203.118748" y="131.214734" style="fill: #ff00ff; fill-opacity: 0.75; stroke: #ff00ff; stroke-opacity: 0.75"/>
     <use xlink:href="#m551f3e8141" x="205.400462" y="130.876848" style="fill: #ff00ff; fill-opacity: 0.75; stroke: #ff00ff; stroke-opacity: 0.75"/>
     <use xlink:href="#m551f3e8141" x="207.290791" y="132.102198" style="fill: #ff00ff; fill-opacity: 0.75; stroke: #ff00ff; stroke-opacity: 0.75"/>
     <use xlink:href="#m551f3e8141" x="208.872023" y="130.448437" style="fill: #ff00ff; fill-opacity: 0.75; stroke: #ff00ff; stroke-opacity: 0.75"/>
     <use xlink:href="#m551f3e8141" x="208.359279" y="130.494423" style="fill: #ff00ff; fill-opacity: 0.75; stroke: #ff00ff; stroke-opacity: 0.75"/>
     <use xlink:href="#m551f3e8141" x="218.464628" y="135.85727" style="fill: #ff00ff; fill-opacity: 0.75; stroke: #ff00ff; stroke-opacity: 0.75"/>
     <use xlink:href="#m551f3e8141" x="245.096027" y="207.287857" style="fill: #ff00ff; fill-opacity: 0.75; stroke: #ff00ff; stroke-opacity: 0.75"/>
     <use xlink:href="#m551f3e8141" x="108.477355" y="181.303394" style="fill: #ff00ff; fill-opacity: 0.75; stroke: #ff00ff; stroke-opacity: 0.75"/>
     <use xlink:href="#m551f3e8141" x="116.287656" y="141.580295" style="fill: #ff00ff; fill-opacity: 0.75; stroke: #ff00ff; stroke-opacity: 0.75"/>
     <use xlink:href="#m551f3e8141" x="127.953993" y="119.265521" style="fill: #ff00ff; fill-opacity: 0.75; stroke: #ff00ff; stroke-opacity: 0.75"/>
     <use xlink:href="#m551f3e8141" x="137.015864" y="114.195577" style="fill: #ff00ff; fill-opacity: 0.75; stroke: #ff00ff; stroke-opacity: 0.75"/>
     <use xlink:href="#m551f3e8141" x="142.447664" y="112.584167" style="fill: #ff00ff; fill-opacity: 0.75; stroke: #ff00ff; stroke-opacity: 0.75"/>
     <use xlink:href="#m551f3e8141" x="157.402711" y="144.198282" style="fill: #ff00ff; fill-opacity: 0.75; stroke: #ff00ff; stroke-opacity: 0.75"/>
     <use xlink:href="#m551f3e8141" x="185.657568" y="141.341537" style="fill: #ff00ff; fill-opacity: 0.75; stroke: #ff00ff; stroke-opacity: 0.75"/>
     <use xlink:href="#m551f3e8141" x="195.903558" y="138.635062" style="fill: #ff00ff; fill-opacity: 0.75; stroke: #ff00ff; stroke-opacity: 0.75"/>
     <use xlink:href="#m551f3e8141" x="196.518368" y="136.201572" style="fill: #ff00ff; fill-opacity: 0.75; stroke: #ff00ff; stroke-opacity: 0.75"/>
     <use xlink:href="#m551f3e8141" x="198.850478" y="134.912364" style="fill: #ff00ff; fill-opacity: 0.75; stroke: #ff00ff; stroke-opacity: 0.75"/>
     <use xlink:href="#m551f3e8141" x="202.170726" y="135.893018" style="fill: #ff00ff; fill-opacity: 0.75; stroke: #ff00ff; stroke-opacity: 0.75"/>
     <use xlink:href="#m551f3e8141" x="202.116124" y="134.557384" style="fill: #ff00ff; fill-opacity: 0.75; stroke: #ff00ff; stroke-opacity: 0.75"/>
     <use xlink:href="#m551f3e8141" x="201.437136" y="133.200381" style="fill: #ff00ff; fill-opacity: 0.75; stroke: #ff00ff; stroke-opacity: 0.75"/>
     <use xlink:href="#m551f3e8141" x="203.908524" y="133.535941" style="fill: #ff00ff; fill-opacity: 0.75; stroke: #ff00ff; stroke-opacity: 0.75"/>
     <use xlink:href="#m551f3e8141" x="203.518403" y="133.221898" style="fill: #ff00ff; fill-opacity: 0.75; stroke: #ff00ff; stroke-opacity: 0.75"/>
     <use xlink:href="#m551f3e8141" x="203.686699" y="133.143687" style="fill: #ff00ff; fill-opacity: 0.75; stroke: #ff00ff; stroke-opacity: 0.75"/>
     <use xlink:href="#m551f3e8141" x="204.329566" y="133.070317" style="fill: #ff00ff; fill-opacity: 0.75; stroke: #ff00ff; stroke-opacity: 0.75"/>
    </g>
   </g>
   <g id="patch_3">
    <path d="M 95.4 221.22 
L 95.4 19.44 
" style="fill: none; stroke: #000000; stroke-width: 1.25; stroke-linejoin: miter; stroke-linecap: square"/>
   </g>
   <g id="patch_4">
    <path d="M 95.4 221.22 
L 340.56 221.22 
" style="fill: none; stroke: #000000; stroke-width: 1.25; stroke-linejoin: miter; stroke-linecap: square"/>
   </g>
  </g>
 </g>
 <defs>
  <clipPath id="p8c38573091">
   <rect x="95.4" y="19.44" width="245.16" height="201.78"/>
  </clipPath>
 </defs>
</svg>
