<?xml version="1.0" encoding="utf-8" standalone="no"?>
<!DOCTYPE svg PUBLIC "-//W3C//DTD SVG 1.1//EN"
  "http://www.w3.org/Graphics/SVG/1.1/DTD/svg11.dtd">
<svg xmlns:xlink="http://www.w3.org/1999/xlink" width="432pt" height="864pt" viewBox="0 0 432 864" xmlns="http://www.w3.org/2000/svg" version="1.1">
 <metadata>
  <rdf:RDF xmlns:dc="http://purl.org/dc/elements/1.1/" xmlns:cc="http://creativecommons.org/ns#" xmlns:rdf="http://www.w3.org/1999/02/22-rdf-syntax-ns#">
   <cc:Work>
    <dc:type rdf:resource="http://purl.org/dc/dcmitype/StillImage"/>
    <dc:date>2024-08-30T18:52:38.860853</dc:date>
    <dc:format>image/svg+xml</dc:format>
    <dc:creator>
     <cc:Agent>
      <dc:title>Matplotlib v3.9.2, https://matplotlib.org/</dc:title>
     </cc:Agent>
    </dc:creator>
   </cc:Work>
  </rdf:RDF>
 </metadata>
 <defs>
  <style type="text/css">*{stroke-linejoin: round; stroke-linecap: butt}</style>
 </defs>
 <g id="figure_1">
  <g id="patch_1">
   <path d="M 0 864 
L 432 864 
L 432 0 
L 0 0 
z
" style="fill: #ffffff"/>
  </g>
  <g id="axes_1">
   <g id="patch_2">
    <path d="M 84.96 276.06 
L 412.56 276.06 
L 412.56 82.26 
L 84.96 82.26 
z
" style="fill: #ffffff"/>
   </g>
   <g id="patch_3">
    <path d="M 139.675433 276.06 
L 182.96296 276.06 
L 182.96296 82.26 
L 139.675433 82.26 
z
" clip-path="url(#p313dcac9bb)" style="fill: #808080; opacity: 0.35; stroke: #808080; stroke-linejoin: miter"/>
   </g>
   <g id="patch_4">
    <path d="M 269.538013 276.06 
L 312.825539 276.06 
L 312.825539 82.26 
L 269.538013 82.26 
z
" clip-path="url(#p313dcac9bb)" style="fill: #808080; opacity: 0.35; stroke: #808080; stroke-linejoin: miter"/>
   </g>
   <g id="matplotlib.axis_1">
    <g id="xtick_1">
     <g id="line2d_1">
      <defs>
       <path id="m03262145d5" d="M 0 0 
L 0 6 
" style="stroke: #000000; stroke-width: 1.25"/>
      </defs>
      <g>
       <use xlink:href="#m03262145d5" x="96.387907" y="276.06" style="stroke: #000000; stroke-width: 1.25"/>
      </g>
     </g>
     <g id="text_1">
      <!-- −1.0 -->
      <g transform="translate(76.354587 298.097422) scale(0.165 -0.165)">
       <defs>
        <path id="DejaVuSans-2212" d="M 678 2272 
L 4684 2272 
L 4684 1741 
L 678 1741 
L 678 2272 
z
" transform="scale(0.015625)"/>
        <path id="DejaVuSans-31" d="M 794 531 
L 1825 531 
L 1825 4091 
L 703 3866 
L 703 4441 
L 1819 4666 
L 2450 4666 
L 2450 531 
L 3481 531 
L 3481 0 
L 794 0 
L 794 531 
z
" transform="scale(0.015625)"/>
        <path id="DejaVuSans-2e" d="M 684 794 
L 1344 794 
L 1344 0 
L 684 0 
L 684 794 
z
" transform="scale(0.015625)"/>
        <path id="DejaVuSans-30" d="M 2034 4250 
Q 1547 4250 1301 3770 
Q 1056 3291 1056 2328 
Q 1056 1369 1301 889 
Q 1547 409 2034 409 
Q 2525 409 2770 889 
Q 3016 1369 3016 2328 
Q 3016 3291 2770 3770 
Q 2525 4250 2034 4250 
z
M 2034 4750 
Q 2819 4750 3233 4129 
Q 3647 3509 3647 2328 
Q 3647 1150 3233 529 
Q 2819 -91 2034 -91 
Q 1250 -91 836 529 
Q 422 1150 422 2328 
Q 422 3509 836 4129 
Q 1250 4750 2034 4750 
z
" transform="scale(0.015625)"/>
       </defs>
       <use xlink:href="#DejaVuSans-2212"/>
       <use xlink:href="#DejaVuSans-31" x="83.789062"/>
       <use xlink:href="#DejaVuSans-2e" x="147.412109"/>
       <use xlink:href="#DejaVuSans-30" x="179.199219"/>
      </g>
     </g>
    </g>
    <g id="xtick_2">
     <g id="line2d_2">
      <g>
       <use xlink:href="#m03262145d5" x="182.96296" y="276.06" style="stroke: #000000; stroke-width: 1.25"/>
      </g>
     </g>
     <g id="text_2">
      <!-- −0.5 -->
      <g transform="translate(162.92964 298.097422) scale(0.165 -0.165)">
       <defs>
        <path id="DejaVuSans-35" d="M 691 4666 
L 3169 4666 
L 3169 4134 
L 1269 4134 
L 1269 2991 
Q 1406 3038 1543 3061 
Q 1681 3084 1819 3084 
Q 2600 3084 3056 2656 
Q 3513 2228 3513 1497 
Q 3513 744 3044 326 
Q 2575 -91 1722 -91 
Q 1428 -91 1123 -41 
Q 819 9 494 109 
L 494 744 
Q 775 591 1075 516 
Q 1375 441 1709 441 
Q 2250 441 2565 725 
Q 2881 1009 2881 1497 
Q 2881 1984 2565 2268 
Q 2250 2553 1709 2553 
Q 1456 2553 1204 2497 
Q 953 2441 691 2322 
L 691 4666 
z
" transform="scale(0.015625)"/>
       </defs>
       <use xlink:href="#DejaVuSans-2212"/>
       <use xlink:href="#DejaVuSans-30" x="83.789062"/>
       <use xlink:href="#DejaVuSans-2e" x="147.412109"/>
       <use xlink:href="#DejaVuSans-35" x="179.199219"/>
      </g>
     </g>
    </g>
    <g id="xtick_3">
     <g id="line2d_3">
      <g>
       <use xlink:href="#m03262145d5" x="269.538013" y="276.06" style="stroke: #000000; stroke-width: 1.25"/>
      </g>
     </g>
     <g id="text_3">
      <!-- 0.0 -->
      <g transform="translate(256.417935 298.097422) scale(0.165 -0.165)">
       <use xlink:href="#DejaVuSans-30"/>
       <use xlink:href="#DejaVuSans-2e" x="63.623047"/>
       <use xlink:href="#DejaVuSans-30" x="95.410156"/>
      </g>
     </g>
    </g>
    <g id="xtick_4">
     <g id="line2d_4">
      <g>
       <use xlink:href="#m03262145d5" x="356.113066" y="276.06" style="stroke: #000000; stroke-width: 1.25"/>
      </g>
     </g>
     <g id="text_4">
      <!-- 0.5 -->
      <g transform="translate(342.992987 298.097422) scale(0.165 -0.165)">
       <use xlink:href="#DejaVuSans-30"/>
       <use xlink:href="#DejaVuSans-2e" x="63.623047"/>
       <use xlink:href="#DejaVuSans-35" x="95.410156"/>
      </g>
     </g>
    </g>
    <g id="text_5">
     <!-- time -->
     <g transform="translate(228.427031 319.206094) scale(0.18 -0.18)">
      <defs>
       <path id="DejaVuSans-74" d="M 1172 4494 
L 1172 3500 
L 2356 3500 
L 2356 3053 
L 1172 3053 
L 1172 1153 
Q 1172 725 1289 603 
Q 1406 481 1766 481 
L 2356 481 
L 2356 0 
L 1766 0 
Q 1100 0 847 248 
Q 594 497 594 1153 
L 594 3053 
L 172 3053 
L 172 3500 
L 594 3500 
L 594 4494 
L 1172 4494 
z
" transform="scale(0.015625)"/>
       <path id="DejaVuSans-69" d="M 603 3500 
L 1178 3500 
L 1178 0 
L 603 0 
L 603 3500 
z
M 603 4863 
L 1178 4863 
L 1178 4134 
L 603 4134 
L 603 4863 
z
" transform="scale(0.015625)"/>
       <path id="DejaVuSans-6d" d="M 3328 2828 
Q 3544 3216 3844 3400 
Q 4144 3584 4550 3584 
Q 5097 3584 5394 3201 
Q 5691 2819 5691 2113 
L 5691 0 
L 5113 0 
L 5113 2094 
Q 5113 2597 4934 2840 
Q 4756 3084 4391 3084 
Q 3944 3084 3684 2787 
Q 3425 2491 3425 1978 
L 3425 0 
L 2847 0 
L 2847 2094 
Q 2847 2600 2669 2842 
Q 2491 3084 2119 3084 
Q 1678 3084 1418 2786 
Q 1159 2488 1159 1978 
L 1159 0 
L 581 0 
L 581 3500 
L 1159 3500 
L 1159 2956 
Q 1356 3278 1631 3431 
Q 1906 3584 2284 3584 
Q 2666 3584 2933 3390 
Q 3200 3197 3328 2828 
z
" transform="scale(0.015625)"/>
       <path id="DejaVuSans-65" d="M 3597 1894 
L 3597 1613 
L 953 1613 
Q 991 1019 1311 708 
Q 1631 397 2203 397 
Q 2534 397 2845 478 
Q 3156 559 3463 722 
L 3463 178 
Q 3153 47 2828 -22 
Q 2503 -91 2169 -91 
Q 1331 -91 842 396 
Q 353 884 353 1716 
Q 353 2575 817 3079 
Q 1281 3584 2069 3584 
Q 2775 3584 3186 3129 
Q 3597 2675 3597 1894 
z
M 3022 2063 
Q 3016 2534 2758 2815 
Q 2500 3097 2075 3097 
Q 1594 3097 1305 2825 
Q 1016 2553 972 2059 
L 3022 2063 
z
" transform="scale(0.015625)"/>
      </defs>
      <use xlink:href="#DejaVuSans-74"/>
      <use xlink:href="#DejaVuSans-69" x="39.208984"/>
      <use xlink:href="#DejaVuSans-6d" x="66.992188"/>
      <use xlink:href="#DejaVuSans-65" x="164.404297"/>
     </g>
    </g>
   </g>
   <g id="matplotlib.axis_2">
    <g id="ytick_1">
     <g id="line2d_5">
      <defs>
       <path id="md91f566b0f" d="M 0 0 
L -6 0 
" style="stroke: #000000; stroke-width: 1.25"/>
      </defs>
      <g>
       <use xlink:href="#md91f566b0f" x="84.96" y="235.013466" style="stroke: #000000; stroke-width: 1.25"/>
      </g>
     </g>
     <g id="text_6">
      <!-- 0 -->
      <g transform="translate(64.961875 241.282177) scale(0.165 -0.165)">
       <use xlink:href="#DejaVuSans-30"/>
      </g>
     </g>
    </g>
    <g id="ytick_2">
     <g id="line2d_6">
      <g>
       <use xlink:href="#md91f566b0f" x="84.96" y="190.449501" style="stroke: #000000; stroke-width: 1.25"/>
      </g>
     </g>
     <g id="text_7">
      <!-- 100 -->
      <g transform="translate(43.965625 196.718211) scale(0.165 -0.165)">
       <use xlink:href="#DejaVuSans-31"/>
       <use xlink:href="#DejaVuSans-30" x="63.623047"/>
       <use xlink:href="#DejaVuSans-30" x="127.246094"/>
      </g>
     </g>
    </g>
    <g id="ytick_3">
     <g id="line2d_7">
      <g>
       <use xlink:href="#md91f566b0f" x="84.96" y="145.885535" style="stroke: #000000; stroke-width: 1.25"/>
      </g>
     </g>
     <g id="text_8">
      <!-- 200 -->
      <g transform="translate(43.965625 152.154246) scale(0.165 -0.165)">
       <defs>
        <path id="DejaVuSans-32" d="M 1228 531 
L 3431 531 
L 3431 0 
L 469 0 
L 469 531 
Q 828 903 1448 1529 
Q 2069 2156 2228 2338 
Q 2531 2678 2651 2914 
Q 2772 3150 2772 3378 
Q 2772 3750 2511 3984 
Q 2250 4219 1831 4219 
Q 1534 4219 1204 4116 
Q 875 4013 500 3803 
L 500 4441 
Q 881 4594 1212 4672 
Q 1544 4750 1819 4750 
Q 2544 4750 2975 4387 
Q 3406 4025 3406 3419 
Q 3406 3131 3298 2873 
Q 3191 2616 2906 2266 
Q 2828 2175 2409 1742 
Q 1991 1309 1228 531 
z
" transform="scale(0.015625)"/>
       </defs>
       <use xlink:href="#DejaVuSans-32"/>
       <use xlink:href="#DejaVuSans-30" x="63.623047"/>
       <use xlink:href="#DejaVuSans-30" x="127.246094"/>
      </g>
     </g>
    </g>
    <g id="ytick_4">
     <g id="line2d_8">
      <g>
       <use xlink:href="#md91f566b0f" x="84.96" y="101.321569" style="stroke: #000000; stroke-width: 1.25"/>
      </g>
     </g>
     <g id="text_9">
      <!-- 300 -->
      <g transform="translate(43.965625 107.59028) scale(0.165 -0.165)">
       <defs>
        <path id="DejaVuSans-33" d="M 2597 2516 
Q 3050 2419 3304 2112 
Q 3559 1806 3559 1356 
Q 3559 666 3084 287 
Q 2609 -91 1734 -91 
Q 1441 -91 1130 -33 
Q 819 25 488 141 
L 488 750 
Q 750 597 1062 519 
Q 1375 441 1716 441 
Q 2309 441 2620 675 
Q 2931 909 2931 1356 
Q 2931 1769 2642 2001 
Q 2353 2234 1838 2234 
L 1294 2234 
L 1294 2753 
L 1863 2753 
Q 2328 2753 2575 2939 
Q 2822 3125 2822 3475 
Q 2822 3834 2567 4026 
Q 2313 4219 1838 4219 
Q 1578 4219 1281 4162 
Q 984 4106 628 3988 
L 628 4550 
Q 988 4650 1302 4700 
Q 1616 4750 1894 4750 
Q 2613 4750 3031 4423 
Q 3450 4097 3450 3541 
Q 3450 3153 3228 2886 
Q 3006 2619 2597 2516 
z
" transform="scale(0.015625)"/>
       </defs>
       <use xlink:href="#DejaVuSans-33"/>
       <use xlink:href="#DejaVuSans-30" x="63.623047"/>
       <use xlink:href="#DejaVuSans-30" x="127.246094"/>
      </g>
     </g>
    </g>
    <g id="text_10">
     <!-- PC1 -->
     <g transform="translate(36.222188 196.5975) rotate(-90) scale(0.18 -0.18)">
      <defs>
       <path id="DejaVuSans-50" d="M 1259 4147 
L 1259 2394 
L 2053 2394 
Q 2494 2394 2734 2622 
Q 2975 2850 2975 3272 
Q 2975 3691 2734 3919 
Q 2494 4147 2053 4147 
L 1259 4147 
z
M 628 4666 
L 2053 4666 
Q 2838 4666 3239 4311 
Q 3641 3956 3641 3272 
Q 3641 2581 3239 2228 
Q 2838 1875 2053 1875 
L 1259 1875 
L 1259 0 
L 628 0 
L 628 4666 
z
" transform="scale(0.015625)"/>
       <path id="DejaVuSans-43" d="M 4122 4306 
L 4122 3641 
Q 3803 3938 3442 4084 
Q 3081 4231 2675 4231 
Q 1875 4231 1450 3742 
Q 1025 3253 1025 2328 
Q 1025 1406 1450 917 
Q 1875 428 2675 428 
Q 3081 428 3442 575 
Q 3803 722 4122 1019 
L 4122 359 
Q 3791 134 3420 21 
Q 3050 -91 2638 -91 
Q 1578 -91 968 557 
Q 359 1206 359 2328 
Q 359 3453 968 4101 
Q 1578 4750 2638 4750 
Q 3056 4750 3426 4639 
Q 3797 4528 4122 4306 
z
" transform="scale(0.015625)"/>
      </defs>
      <use xlink:href="#DejaVuSans-50"/>
      <use xlink:href="#DejaVuSans-43" x="60.302734"/>
      <use xlink:href="#DejaVuSans-31" x="130.126953"/>
     </g>
    </g>
   </g>
   <g id="line2d_9">
    <path d="M 99.850909 224.194367 
L 106.776913 239.478159 
L 113.702918 249.804352 
L 120.628922 259.236514 
L 127.554926 263.094118 
L 134.48093 259.86797 
L 141.406934 251.774485 
L 148.332939 193.541912 
L 155.258943 250.712448 
L 162.184947 267.250909 
L 169.110951 264.106089 
L 176.036956 259.920412 
L 182.96296 212.922534 
L 189.888964 189.189799 
L 196.814968 229.34326 
L 203.740973 246.991359 
L 210.666977 255.794533 
L 217.592981 254.868246 
L 224.518985 247.028501 
L 231.444989 248.325235 
L 238.370994 252.080271 
L 245.296998 252.946848 
L 252.223002 252.759728 
L 259.149006 257.811806 
L 266.075011 257.204324 
L 273.001015 251.788376 
L 279.927019 139.079769 
L 286.853023 209.833164 
L 293.779027 220.512584 
L 300.705032 218.834965 
L 307.631036 207.018297 
L 314.55704 178.977923 
L 321.483044 205.961913 
L 328.409049 234.999653 
L 335.335053 256.462084 
L 342.261057 252.865855 
L 349.187061 252.961735 
L 356.113066 249.928033 
L 363.03907 248.113431 
L 369.965074 243.031196 
L 376.891078 236.445512 
L 383.817082 242.025759 
L 390.743087 254.806548 
L 397.669091 263.329085 
" clip-path="url(#p313dcac9bb)" style="fill: none; stroke: #000000; stroke-opacity: 0.75; stroke-width: 1.5; stroke-linecap: square"/>
   </g>
   <g id="line2d_10">
    <path d="M 99.850909 243.620466 
L 106.776913 232.845238 
L 113.702918 246.501146 
L 120.628922 257.726477 
L 127.554926 258.675026 
L 134.48093 256.195336 
L 141.406934 252.295081 
L 148.332939 193.425655 
L 155.258943 243.350028 
L 162.184947 261.171445 
L 169.110951 260.975806 
L 176.036956 250.782797 
L 182.96296 216.862076 
L 189.888964 190.036144 
L 196.814968 239.152942 
L 203.740973 264.155896 
L 210.666977 263.71459 
L 217.592981 261.389567 
L 224.518985 250.660834 
L 231.444989 233.263643 
L 238.370994 240.671617 
L 245.296998 256.011849 
L 252.223002 257.913105 
L 259.149006 255.84342 
L 266.075011 253.556389 
L 273.001015 244.156778 
L 279.927019 120.03405 
L 286.853023 91.069091 
L 293.779027 151.725048 
L 300.705032 155.960764 
L 307.631036 149.481163 
L 314.55704 153.250234 
L 321.483044 189.603902 
L 328.409049 233.775899 
L 335.335053 239.018971 
L 342.261057 231.078137 
L 349.187061 243.619885 
L 356.113066 245.78529 
L 363.03907 247.547134 
L 369.965074 252.286707 
L 376.891078 256.524861 
L 383.817082 258.24771 
L 390.743087 257.251621 
L 397.669091 260.291667 
" clip-path="url(#p313dcac9bb)" style="fill: none; stroke: #1e90ff; stroke-opacity: 0.75; stroke-width: 1.5; stroke-linecap: square"/>
   </g>
   <g id="line2d_11">
    <path d="M 99.850909 239.858338 
L 106.776913 241.212096 
L 113.702918 254.032659 
L 120.628922 259.682595 
L 127.554926 261.71735 
L 134.48093 261.498741 
L 141.406934 260.280383 
L 148.332939 193.252023 
L 155.258943 206.221057 
L 162.184947 233.108409 
L 169.110951 238.823281 
L 176.036956 230.086294 
L 182.96296 217.69589 
L 189.888964 197.888009 
L 196.814968 245.268361 
L 203.740973 266.464537 
L 210.666977 263.738106 
L 217.592981 263.551602 
L 224.518985 252.857527 
L 231.444989 234.752178 
L 238.370994 236.377514 
L 245.296998 258.42568 
L 252.223002 263.479397 
L 259.149006 262.333942 
L 266.075011 258.815701 
L 273.001015 247.393086 
L 279.927019 153.085304 
L 286.853023 216.194955 
L 293.779027 230.097337 
L 300.705032 236.163262 
L 307.631036 216.224596 
L 314.55704 212.461138 
L 321.483044 200.712638 
L 328.409049 249.570316 
L 335.335053 260.579148 
L 342.261057 257.408013 
L 349.187061 250.004936 
L 356.113066 238.74466 
L 363.03907 232.502388 
L 369.965074 239.974253 
L 376.891078 254.995186 
L 383.817082 261.050673 
L 390.743087 262.512311 
L 397.669091 265.226225 
" clip-path="url(#p313dcac9bb)" style="fill: none; stroke: #808080; stroke-opacity: 0.75; stroke-width: 1.5; stroke-linecap: square"/>
   </g>
   <g id="line2d_12">
    <path d="M 99.850909 240.679726 
L 106.776913 238.412282 
L 113.702918 253.213628 
L 120.628922 262.022592 
L 127.554926 263.236571 
L 134.48093 259.202124 
L 141.406934 257.562198 
L 148.332939 196.332127 
L 155.258943 206.686087 
L 162.184947 229.659081 
L 169.110951 237.414744 
L 176.036956 231.417496 
L 182.96296 220.920596 
L 189.888964 197.604248 
L 196.814968 245.276044 
L 203.740973 265.160243 
L 210.666977 264.748968 
L 217.592981 264.418719 
L 224.518985 254.968757 
L 231.444989 237.319811 
L 238.370994 239.899398 
L 245.296998 259.750188 
L 252.223002 262.83005 
L 259.149006 261.66272 
L 266.075011 261.174136 
L 273.001015 252.877064 
L 279.927019 135.190389 
L 286.853023 100.017252 
L 293.779027 151.523626 
L 300.705032 157.604836 
L 307.631036 157.138382 
L 314.55704 156.167559 
L 321.483044 194.991662 
L 328.409049 238.418152 
L 335.335053 240.687951 
L 342.261057 234.215419 
L 349.187061 242.08776 
L 356.113066 247.092118 
L 363.03907 246.197357 
L 369.965074 249.902327 
L 376.891078 254.736936 
L 383.817082 256.061118 
L 390.743087 258.187036 
L 397.669091 262.648906 
" clip-path="url(#p313dcac9bb)" style="fill: none; stroke: #ff00ff; stroke-opacity: 0.75; stroke-width: 1.5; stroke-linecap: square"/>
   </g>
   <g id="patch_5">
    <path d="M 84.96 276.06 
L 84.96 82.26 
" style="fill: none; stroke: #000000; stroke-width: 1.25; stroke-linejoin: miter; stroke-linecap: square"/>
   </g>
   <g id="patch_6">
    <path d="M 84.96 276.06 
L 412.56 276.06 
" style="fill: none; stroke: #000000; stroke-width: 1.25; stroke-linejoin: miter; stroke-linecap: square"/>
   </g>
   <g id="legend_1">
    <g id="patch_7">
     <path d="M 106.3575 74.01 
L 325.6425 74.01 
Q 328.9425 74.01 328.9425 70.71 
L 328.9425 23.922187 
Q 328.9425 20.622187 325.6425 20.622187 
L 106.3575 20.622187 
Q 103.0575 20.622187 103.0575 23.922187 
L 103.0575 70.71 
Q 103.0575 74.01 106.3575 74.01 
z
" style="fill: #ffffff; opacity: 0.8; stroke: #cccccc; stroke-linejoin: miter"/>
    </g>
    <g id="line2d_13">
     <path d="M 109.6575 33.984609 
L 126.1575 33.984609 
L 142.6575 33.984609 
" style="fill: none; stroke: #000000; stroke-opacity: 0.75; stroke-width: 1.5; stroke-linecap: square"/>
    </g>
    <g id="text_11">
     <!-- F$\rightarrow$F -->
     <g transform="translate(155.8575 39.759609) scale(0.165 -0.165)">
      <defs>
       <path id="DejaVuSans-46" d="M 628 4666 
L 3309 4666 
L 3309 4134 
L 1259 4134 
L 1259 2759 
L 3109 2759 
L 3109 2228 
L 1259 2228 
L 1259 0 
L 628 0 
L 628 4666 
z
" transform="scale(0.015625)"/>
       <path id="DejaVuSans-2192" d="M 5050 2147 
L 5050 1866 
L 3822 638 
L 3447 1013 
L 4175 1741 
L 366 1741 
L 366 2272 
L 4175 2272 
L 3447 3000 
L 3822 3375 
L 5050 2147 
z
" transform="scale(0.015625)"/>
      </defs>
      <use xlink:href="#DejaVuSans-46" transform="translate(0 0.09375)"/>
      <use xlink:href="#DejaVuSans-2192" transform="translate(77.001953 0.09375)"/>
      <use xlink:href="#DejaVuSans-46" transform="translate(180.273438 0.09375)"/>
     </g>
    </g>
    <g id="line2d_14">
     <path d="M 109.6575 58.203516 
L 126.1575 58.203516 
L 142.6575 58.203516 
" style="fill: none; stroke: #1e90ff; stroke-opacity: 0.75; stroke-width: 1.5; stroke-linecap: square"/>
    </g>
    <g id="text_12">
     <!-- F$\rightarrow$N -->
     <g transform="translate(155.8575 63.978516) scale(0.165 -0.165)">
      <defs>
       <path id="DejaVuSans-4e" d="M 628 4666 
L 1478 4666 
L 3547 763 
L 3547 4666 
L 4159 4666 
L 4159 0 
L 3309 0 
L 1241 3903 
L 1241 0 
L 628 0 
L 628 4666 
z
" transform="scale(0.015625)"/>
      </defs>
      <use xlink:href="#DejaVuSans-46" transform="translate(0 0.09375)"/>
      <use xlink:href="#DejaVuSans-2192" transform="translate(77.001953 0.09375)"/>
      <use xlink:href="#DejaVuSans-4e" transform="translate(180.273438 0.09375)"/>
     </g>
    </g>
    <g id="line2d_15">
     <path d="M 231.0975 33.984609 
L 247.5975 33.984609 
L 264.0975 33.984609 
" style="fill: none; stroke: #808080; stroke-opacity: 0.75; stroke-width: 1.5; stroke-linecap: square"/>
    </g>
    <g id="text_13">
     <!-- N$\rightarrow$F -->
     <g transform="translate(277.2975 39.759609) scale(0.165 -0.165)">
      <use xlink:href="#DejaVuSans-4e" transform="translate(0 0.09375)"/>
      <use xlink:href="#DejaVuSans-2192" transform="translate(94.287109 0.09375)"/>
      <use xlink:href="#DejaVuSans-46" transform="translate(197.558594 0.09375)"/>
     </g>
    </g>
    <g id="line2d_16">
     <path d="M 231.0975 58.203516 
L 247.5975 58.203516 
L 264.0975 58.203516 
" style="fill: none; stroke: #ff00ff; stroke-opacity: 0.75; stroke-width: 1.5; stroke-linecap: square"/>
    </g>
    <g id="text_14">
     <!-- N$\rightarrow$N -->
     <g transform="translate(277.2975 63.978516) scale(0.165 -0.165)">
      <use xlink:href="#DejaVuSans-4e" transform="translate(0 0.09375)"/>
      <use xlink:href="#DejaVuSans-2192" transform="translate(94.287109 0.09375)"/>
      <use xlink:href="#DejaVuSans-4e" transform="translate(197.558594 0.09375)"/>
     </g>
    </g>
   </g>
  </g>
  <g id="axes_2">
   <g id="patch_8">
    <path d="M 84.96 536.64 
L 412.56 536.64 
L 412.56 342.84 
L 84.96 342.84 
z
" style="fill: #ffffff"/>
   </g>
   <g id="patch_9">
    <path d="M 139.675433 536.64 
L 182.96296 536.64 
L 182.96296 342.84 
L 139.675433 342.84 
z
" clip-path="url(#p6fbc60bab8)" style="fill: #808080; opacity: 0.35; stroke: #808080; stroke-linejoin: miter"/>
   </g>
   <g id="patch_10">
    <path d="M 269.538013 536.64 
L 312.825539 536.64 
L 312.825539 342.84 
L 269.538013 342.84 
z
" clip-path="url(#p6fbc60bab8)" style="fill: #808080; opacity: 0.35; stroke: #808080; stroke-linejoin: miter"/>
   </g>
   <g id="matplotlib.axis_3">
    <g id="xtick_5">
     <g id="line2d_17">
      <g>
       <use xlink:href="#m03262145d5" x="96.387907" y="536.64" style="stroke: #000000; stroke-width: 1.25"/>
      </g>
     </g>
     <g id="text_15">
      <!-- −1.0 -->
      <g transform="translate(76.354587 558.677422) scale(0.165 -0.165)">
       <use xlink:href="#DejaVuSans-2212"/>
       <use xlink:href="#DejaVuSans-31" x="83.789062"/>
       <use xlink:href="#DejaVuSans-2e" x="147.412109"/>
       <use xlink:href="#DejaVuSans-30" x="179.199219"/>
      </g>
     </g>
    </g>
    <g id="xtick_6">
     <g id="line2d_18">
      <g>
       <use xlink:href="#m03262145d5" x="182.96296" y="536.64" style="stroke: #000000; stroke-width: 1.25"/>
      </g>
     </g>
     <g id="text_16">
      <!-- −0.5 -->
      <g transform="translate(162.92964 558.677422) scale(0.165 -0.165)">
       <use xlink:href="#DejaVuSans-2212"/>
       <use xlink:href="#DejaVuSans-30" x="83.789062"/>
       <use xlink:href="#DejaVuSans-2e" x="147.412109"/>
       <use xlink:href="#DejaVuSans-35" x="179.199219"/>
      </g>
     </g>
    </g>
    <g id="xtick_7">
     <g id="line2d_19">
      <g>
       <use xlink:href="#m03262145d5" x="269.538013" y="536.64" style="stroke: #000000; stroke-width: 1.25"/>
      </g>
     </g>
     <g id="text_17">
      <!-- 0.0 -->
      <g transform="translate(256.417935 558.677422) scale(0.165 -0.165)">
       <use xlink:href="#DejaVuSans-30"/>
       <use xlink:href="#DejaVuSans-2e" x="63.623047"/>
       <use xlink:href="#DejaVuSans-30" x="95.410156"/>
      </g>
     </g>
    </g>
    <g id="xtick_8">
     <g id="line2d_20">
      <g>
       <use xlink:href="#m03262145d5" x="356.113066" y="536.64" style="stroke: #000000; stroke-width: 1.25"/>
      </g>
     </g>
     <g id="text_18">
      <!-- 0.5 -->
      <g transform="translate(342.992987 558.677422) scale(0.165 -0.165)">
       <use xlink:href="#DejaVuSans-30"/>
       <use xlink:href="#DejaVuSans-2e" x="63.623047"/>
       <use xlink:href="#DejaVuSans-35" x="95.410156"/>
      </g>
     </g>
    </g>
    <g id="text_19">
     <!-- time -->
     <g transform="translate(228.427031 579.786094) scale(0.18 -0.18)">
      <use xlink:href="#DejaVuSans-74"/>
      <use xlink:href="#DejaVuSans-69" x="39.208984"/>
      <use xlink:href="#DejaVuSans-6d" x="66.992188"/>
      <use xlink:href="#DejaVuSans-65" x="164.404297"/>
     </g>
    </g>
   </g>
   <g id="matplotlib.axis_4">
    <g id="ytick_5">
     <g id="line2d_21">
      <g>
       <use xlink:href="#md91f566b0f" x="84.96" y="484.234048" style="stroke: #000000; stroke-width: 1.25"/>
      </g>
     </g>
     <g id="text_20">
      <!-- −50 -->
      <g transform="translate(40.637266 490.502758) scale(0.165 -0.165)">
       <use xlink:href="#DejaVuSans-2212"/>
       <use xlink:href="#DejaVuSans-35" x="83.789062"/>
       <use xlink:href="#DejaVuSans-30" x="147.412109"/>
      </g>
     </g>
    </g>
    <g id="ytick_6">
     <g id="line2d_22">
      <g>
       <use xlink:href="#md91f566b0f" x="84.96" y="430.067533" style="stroke: #000000; stroke-width: 1.25"/>
      </g>
     </g>
     <g id="text_21">
      <!-- 0 -->
      <g transform="translate(64.961875 436.336244) scale(0.165 -0.165)">
       <use xlink:href="#DejaVuSans-30"/>
      </g>
     </g>
    </g>
    <g id="ytick_7">
     <g id="line2d_23">
      <g>
       <use xlink:href="#md91f566b0f" x="84.96" y="375.901019" style="stroke: #000000; stroke-width: 1.25"/>
      </g>
     </g>
     <g id="text_22">
      <!-- 50 -->
      <g transform="translate(54.46375 382.16973) scale(0.165 -0.165)">
       <use xlink:href="#DejaVuSans-35"/>
       <use xlink:href="#DejaVuSans-30" x="63.623047"/>
      </g>
     </g>
    </g>
    <g id="text_23">
     <!-- PC2 -->
     <g transform="translate(32.893828 457.1775) rotate(-90) scale(0.18 -0.18)">
      <use xlink:href="#DejaVuSans-50"/>
      <use xlink:href="#DejaVuSans-43" x="60.302734"/>
      <use xlink:href="#DejaVuSans-32" x="130.126953"/>
     </g>
    </g>
   </g>
   <g id="line2d_24">
    <path d="M 99.850909 425.802355 
L 106.776913 415.833575 
L 113.702918 437.828569 
L 120.628922 419.880644 
L 127.554926 429.543106 
L 134.48093 424.934199 
L 141.406934 431.302119 
L 148.332939 505.57763 
L 155.258943 434.650354 
L 162.184947 424.700832 
L 169.110951 423.81444 
L 176.036956 421.618813 
L 182.96296 435.53195 
L 189.888964 475.258148 
L 196.814968 451.018574 
L 203.740973 424.87728 
L 210.666977 421.865435 
L 217.592981 426.966694 
L 224.518985 435.35192 
L 231.444989 441.073721 
L 238.370994 437.876194 
L 245.296998 438.302701 
L 252.223002 433.044165 
L 259.149006 435.084389 
L 266.075011 434.539213 
L 273.001015 444.437938 
L 279.927019 527.830909 
L 286.853023 430.996118 
L 293.779027 401.579268 
L 300.705032 409.435057 
L 307.631036 422.099693 
L 314.55704 392.166452 
L 321.483044 475.013001 
L 328.409049 453.400204 
L 335.335053 425.019465 
L 342.261057 411.493612 
L 349.187061 429.195266 
L 356.113066 424.210891 
L 363.03907 423.889203 
L 369.965074 437.957032 
L 376.891078 431.607873 
L 383.817082 428.808195 
L 390.743087 429.33558 
L 397.669091 428.959489 
" clip-path="url(#p6fbc60bab8)" style="fill: none; stroke: #000000; stroke-opacity: 0.75; stroke-width: 1.5; stroke-linecap: square"/>
   </g>
   <g id="line2d_25">
    <path d="M 99.850909 431.992549 
L 106.776913 427.658704 
L 113.702918 426.567448 
L 120.628922 430.068939 
L 127.554926 427.885012 
L 134.48093 432.253321 
L 141.406934 439.162618 
L 148.332939 511.910003 
L 155.258943 436.54166 
L 162.184947 426.584312 
L 169.110951 422.870927 
L 176.036956 427.136701 
L 182.96296 440.345244 
L 189.888964 464.519408 
L 196.814968 437.889011 
L 203.740973 421.739465 
L 210.666977 421.325674 
L 217.592981 426.095294 
L 224.518985 433.351119 
L 231.444989 423.718011 
L 238.370994 428.523705 
L 245.296998 426.690481 
L 252.223002 430.119151 
L 259.149006 433.277157 
L 266.075011 435.638898 
L 273.001015 442.662683 
L 279.927019 505.137762 
L 286.853023 351.649091 
L 293.779027 369.226524 
L 300.705032 379.730253 
L 307.631036 359.934162 
L 314.55704 371.509778 
L 321.483044 475.439178 
L 328.409049 439.316222 
L 335.335053 406.569268 
L 342.261057 409.064508 
L 349.187061 424.018036 
L 356.113066 425.19711 
L 363.03907 425.489256 
L 369.965074 430.928542 
L 376.891078 426.504001 
L 383.817082 429.474421 
L 390.743087 433.018388 
L 397.669091 429.53634 
" clip-path="url(#p6fbc60bab8)" style="fill: none; stroke: #1e90ff; stroke-opacity: 0.75; stroke-width: 1.5; stroke-linecap: square"/>
   </g>
   <g id="line2d_26">
    <path d="M 99.850909 429.580522 
L 106.776913 428.014279 
L 113.702918 429.970342 
L 120.628922 429.466651 
L 127.554926 428.007113 
L 134.48093 431.232926 
L 141.406934 433.929923 
L 148.332939 507.416051 
L 155.258943 434.934324 
L 162.184947 416.443965 
L 169.110951 414.204808 
L 176.036956 416.203492 
L 182.96296 417.602927 
L 189.888964 477.796851 
L 196.814968 441.69426 
L 203.740973 423.438644 
L 210.666977 421.146865 
L 217.592981 423.912627 
L 224.518985 434.535898 
L 231.444989 432.895265 
L 238.370994 429.705861 
L 245.296998 431.211688 
L 252.223002 426.020639 
L 259.149006 430.302248 
L 266.075011 433.659353 
L 273.001015 447.804697 
L 279.927019 525.346108 
L 286.853023 427.818343 
L 293.779027 414.603873 
L 300.705032 412.405445 
L 307.631036 409.370057 
L 314.55704 404.056939 
L 321.483044 480.17755 
L 328.409049 427.528956 
L 335.335053 417.610097 
L 342.261057 414.642586 
L 349.187061 427.098246 
L 356.113066 431.161371 
L 363.03907 428.633891 
L 369.965074 420.971882 
L 376.891078 424.992374 
L 383.817082 428.258186 
L 390.743087 429.086453 
L 397.669091 429.654218 
" clip-path="url(#p6fbc60bab8)" style="fill: none; stroke: #808080; stroke-opacity: 0.75; stroke-width: 1.5; stroke-linecap: square"/>
   </g>
   <g id="line2d_27">
    <path d="M 99.850909 432.330504 
L 106.776913 426.310349 
L 113.702918 430.825851 
L 120.628922 428.745622 
L 127.554926 429.86444 
L 134.48093 431.338224 
L 141.406934 434.307563 
L 148.332939 503.29004 
L 155.258943 437.924198 
L 162.184947 411.405913 
L 169.110951 417.607637 
L 176.036956 417.834665 
L 182.96296 421.122619 
L 189.888964 474.044294 
L 196.814968 441.425061 
L 203.740973 422.538461 
L 210.666977 423.044052 
L 217.592981 423.984203 
L 224.518985 428.677158 
L 231.444989 428.074783 
L 238.370994 426.472224 
L 245.296998 428.529119 
L 252.223002 428.999502 
L 259.149006 430.281298 
L 266.075011 432.779124 
L 273.001015 443.818963 
L 279.927019 512.936046 
L 286.853023 360.771884 
L 293.779027 378.988015 
L 300.705032 373.979372 
L 307.631036 360.08512 
L 314.55704 365.820221 
L 321.483044 469.846772 
L 328.409049 435.679411 
L 335.335053 408.473372 
L 342.261057 416.2987 
L 349.187061 418.468203 
L 356.113066 426.976627 
L 363.03907 427.377596 
L 369.965074 427.191014 
L 376.891078 428.381311 
L 383.817082 432.842577 
L 390.743087 430.099784 
L 397.669091 425.562588 
" clip-path="url(#p6fbc60bab8)" style="fill: none; stroke: #ff00ff; stroke-opacity: 0.75; stroke-width: 1.5; stroke-linecap: square"/>
   </g>
   <g id="patch_11">
    <path d="M 84.96 536.64 
L 84.96 342.84 
" style="fill: none; stroke: #000000; stroke-width: 1.25; stroke-linejoin: miter; stroke-linecap: square"/>
   </g>
   <g id="patch_12">
    <path d="M 84.96 536.64 
L 412.56 536.64 
" style="fill: none; stroke: #000000; stroke-width: 1.25; stroke-linejoin: miter; stroke-linecap: square"/>
   </g>
  </g>
  <g id="axes_3">
   <g id="patch_13">
    <path d="M 84.96 797.22 
L 412.56 797.22 
L 412.56 603.42 
L 84.96 603.42 
z
" style="fill: #ffffff"/>
   </g>
   <g id="patch_14">
    <path d="M 139.675433 797.22 
L 182.96296 797.22 
L 182.96296 603.42 
L 139.675433 603.42 
z
" clip-path="url(#pf6b51d70bc)" style="fill: #808080; opacity: 0.35; stroke: #808080; stroke-linejoin: miter"/>
   </g>
   <g id="patch_15">
    <path d="M 269.538013 797.22 
L 312.825539 797.22 
L 312.825539 603.42 
L 269.538013 603.42 
z
" clip-path="url(#pf6b51d70bc)" style="fill: #808080; opacity: 0.35; stroke: #808080; stroke-linejoin: miter"/>
   </g>
   <g id="matplotlib.axis_5">
    <g id="xtick_9">
     <g id="line2d_28">
      <g>
       <use xlink:href="#m03262145d5" x="96.387907" y="797.22" style="stroke: #000000; stroke-width: 1.25"/>
      </g>
     </g>
     <g id="text_24">
      <!-- −1.0 -->
      <g transform="translate(76.354587 819.257422) scale(0.165 -0.165)">
       <use xlink:href="#DejaVuSans-2212"/>
       <use xlink:href="#DejaVuSans-31" x="83.789062"/>
       <use xlink:href="#DejaVuSans-2e" x="147.412109"/>
       <use xlink:href="#DejaVuSans-30" x="179.199219"/>
      </g>
     </g>
    </g>
    <g id="xtick_10">
     <g id="line2d_29">
      <g>
       <use xlink:href="#m03262145d5" x="182.96296" y="797.22" style="stroke: #000000; stroke-width: 1.25"/>
      </g>
     </g>
     <g id="text_25">
      <!-- −0.5 -->
      <g transform="translate(162.92964 819.257422) scale(0.165 -0.165)">
       <use xlink:href="#DejaVuSans-2212"/>
       <use xlink:href="#DejaVuSans-30" x="83.789062"/>
       <use xlink:href="#DejaVuSans-2e" x="147.412109"/>
       <use xlink:href="#DejaVuSans-35" x="179.199219"/>
      </g>
     </g>
    </g>
    <g id="xtick_11">
     <g id="line2d_30">
      <g>
       <use xlink:href="#m03262145d5" x="269.538013" y="797.22" style="stroke: #000000; stroke-width: 1.25"/>
      </g>
     </g>
     <g id="text_26">
      <!-- 0.0 -->
      <g transform="translate(256.417935 819.257422) scale(0.165 -0.165)">
       <use xlink:href="#DejaVuSans-30"/>
       <use xlink:href="#DejaVuSans-2e" x="63.623047"/>
       <use xlink:href="#DejaVuSans-30" x="95.410156"/>
      </g>
     </g>
    </g>
    <g id="xtick_12">
     <g id="line2d_31">
      <g>
       <use xlink:href="#m03262145d5" x="356.113066" y="797.22" style="stroke: #000000; stroke-width: 1.25"/>
      </g>
     </g>
     <g id="text_27">
      <!-- 0.5 -->
      <g transform="translate(342.992987 819.257422) scale(0.165 -0.165)">
       <use xlink:href="#DejaVuSans-30"/>
       <use xlink:href="#DejaVuSans-2e" x="63.623047"/>
       <use xlink:href="#DejaVuSans-35" x="95.410156"/>
      </g>
     </g>
    </g>
    <g id="text_28">
     <!-- time -->
     <g transform="translate(228.427031 840.366094) scale(0.18 -0.18)">
      <use xlink:href="#DejaVuSans-74"/>
      <use xlink:href="#DejaVuSans-69" x="39.208984"/>
      <use xlink:href="#DejaVuSans-6d" x="66.992188"/>
      <use xlink:href="#DejaVuSans-65" x="164.404297"/>
     </g>
    </g>
   </g>
   <g id="matplotlib.axis_6">
    <g id="ytick_8">
     <g id="line2d_32">
      <g>
       <use xlink:href="#md91f566b0f" x="84.96" y="748.018869" style="stroke: #000000; stroke-width: 1.25"/>
      </g>
     </g>
     <g id="text_29">
      <!-- −50 -->
      <g transform="translate(40.637266 754.28758) scale(0.165 -0.165)">
       <use xlink:href="#DejaVuSans-2212"/>
       <use xlink:href="#DejaVuSans-35" x="83.789062"/>
       <use xlink:href="#DejaVuSans-30" x="147.412109"/>
      </g>
     </g>
    </g>
    <g id="ytick_9">
     <g id="line2d_33">
      <g>
       <use xlink:href="#md91f566b0f" x="84.96" y="693.502856" style="stroke: #000000; stroke-width: 1.25"/>
      </g>
     </g>
     <g id="text_30">
      <!-- 0 -->
      <g transform="translate(64.961875 699.771567) scale(0.165 -0.165)">
       <use xlink:href="#DejaVuSans-30"/>
      </g>
     </g>
    </g>
    <g id="ytick_10">
     <g id="line2d_34">
      <g>
       <use xlink:href="#md91f566b0f" x="84.96" y="638.986843" style="stroke: #000000; stroke-width: 1.25"/>
      </g>
     </g>
     <g id="text_31">
      <!-- 50 -->
      <g transform="translate(54.46375 645.255554) scale(0.165 -0.165)">
       <use xlink:href="#DejaVuSans-35"/>
       <use xlink:href="#DejaVuSans-30" x="63.623047"/>
      </g>
     </g>
    </g>
    <g id="text_32">
     <!-- PC3 -->
     <g transform="translate(32.893828 717.7575) rotate(-90) scale(0.18 -0.18)">
      <use xlink:href="#DejaVuSans-50"/>
      <use xlink:href="#DejaVuSans-43" x="60.302734"/>
      <use xlink:href="#DejaVuSans-33" x="130.126953"/>
     </g>
    </g>
   </g>
   <g id="line2d_35">
    <path d="M 99.850909 692.294763 
L 106.776913 708.024203 
L 113.702918 699.621179 
L 120.628922 706.553514 
L 127.554926 708.060208 
L 134.48093 701.332851 
L 141.406934 690.946619 
L 148.332939 712.305309 
L 155.258943 697.240684 
L 162.184947 717.106216 
L 169.110951 715.059668 
L 176.036956 701.09527 
L 182.96296 692.656837 
L 189.888964 639.95863 
L 196.814968 665.62405 
L 203.740973 689.058184 
L 210.666977 690.199351 
L 217.592981 696.799748 
L 224.518985 685.580258 
L 231.444989 683.139691 
L 238.370994 698.167188 
L 245.296998 691.733059 
L 252.223002 689.966439 
L 259.149006 693.577777 
L 266.075011 698.515555 
L 273.001015 692.863317 
L 279.927019 755.071519 
L 286.853023 710.581302 
L 293.779027 681.807908 
L 300.705032 676.855938 
L 307.631036 668.388149 
L 314.55704 663.016037 
L 321.483044 617.652383 
L 328.409049 644.841627 
L 335.335053 691.051792 
L 342.261057 696.247918 
L 349.187061 690.065003 
L 356.113066 687.141915 
L 363.03907 691.733572 
L 369.965074 679.234853 
L 376.891078 672.221025 
L 383.817082 671.375347 
L 390.743087 685.416501 
L 397.669091 704.318972 
" clip-path="url(#pf6b51d70bc)" style="fill: none; stroke: #000000; stroke-opacity: 0.75; stroke-width: 1.5; stroke-linecap: square"/>
   </g>
   <g id="line2d_36">
    <path d="M 99.850909 694.833692 
L 106.776913 691.915397 
L 113.702918 694.451663 
L 120.628922 699.877799 
L 127.554926 699.936264 
L 134.48093 699.07975 
L 141.406934 692.769821 
L 148.332939 710.217395 
L 155.258943 701.228555 
L 162.184947 711.992276 
L 169.110951 710.525755 
L 176.036956 710.422232 
L 182.96296 687.663152 
L 189.888964 643.060179 
L 196.814968 680.22254 
L 203.740973 705.599834 
L 210.666977 709.247403 
L 217.592981 704.298202 
L 224.518985 693.720281 
L 231.444989 699.706161 
L 238.370994 693.174896 
L 245.296998 696.229444 
L 252.223002 703.221064 
L 259.149006 695.659432 
L 266.075011 693.074297 
L 273.001015 688.696214 
L 279.927019 767.293043 
L 286.853023 788.410909 
L 293.779027 683.024584 
L 300.705032 671.924744 
L 307.631036 657.248196 
L 314.55704 648.636767 
L 321.483044 612.397878 
L 328.409049 673.012658 
L 335.335053 688.353716 
L 342.261057 680.641505 
L 349.187061 675.977078 
L 356.113066 679.249998 
L 363.03907 681.098839 
L 369.965074 685.963917 
L 376.891078 691.686053 
L 383.817082 696.133397 
L 390.743087 695.929824 
L 397.669091 704.036857 
" clip-path="url(#pf6b51d70bc)" style="fill: none; stroke: #1e90ff; stroke-opacity: 0.75; stroke-width: 1.5; stroke-linecap: square"/>
   </g>
   <g id="line2d_37">
    <path d="M 99.850909 699.577197 
L 106.776913 697.693499 
L 113.702918 698.494705 
L 120.628922 703.948084 
L 127.554926 705.938905 
L 134.48093 705.902322 
L 141.406934 703.537479 
L 148.332939 698.087529 
L 155.258943 714.937876 
L 162.184947 706.382782 
L 169.110951 699.356272 
L 176.036956 690.936052 
L 182.96296 685.526603 
L 189.888964 630.785426 
L 196.814968 690.171066 
L 203.740973 713.072242 
L 210.666977 711.182425 
L 217.592981 711.027275 
L 224.518985 697.079536 
L 231.444989 693.875938 
L 238.370994 692.266796 
L 245.296998 701.358979 
L 252.223002 705.983447 
L 259.149006 706.982785 
L 266.075011 702.019533 
L 273.001015 694.337487 
L 279.927019 751.794491 
L 286.853023 708.369053 
L 293.779027 701.990146 
L 300.705032 697.378373 
L 307.631036 686.598754 
L 314.55704 676.592261 
L 321.483044 617.416669 
L 328.409049 685.087117 
L 335.335053 698.596071 
L 342.261057 701.185147 
L 349.187061 692.40873 
L 356.113066 691.440026 
L 363.03907 691.117021 
L 369.965074 687.874825 
L 376.891078 692.587635 
L 383.817082 701.547612 
L 390.743087 703.402628 
L 397.669091 707.708964 
" clip-path="url(#pf6b51d70bc)" style="fill: none; stroke: #808080; stroke-opacity: 0.75; stroke-width: 1.5; stroke-linecap: square"/>
   </g>
   <g id="line2d_38">
    <path d="M 99.850909 696.682935 
L 106.776913 695.239538 
L 113.702918 698.423441 
L 120.628922 703.363506 
L 127.554926 705.913923 
L 134.48093 705.790478 
L 141.406934 698.447499 
L 148.332939 703.099082 
L 155.258943 714.891622 
L 162.184947 702.18745 
L 169.110951 699.740885 
L 176.036956 691.950799 
L 182.96296 680.281431 
L 189.888964 628.877281 
L 196.814968 690.467509 
L 203.740973 710.0491 
L 210.666977 709.81165 
L 217.592981 709.320064 
L 224.518985 702.185386 
L 231.444989 699.295878 
L 238.370994 696.512819 
L 245.296998 705.500846 
L 252.223002 707.265859 
L 259.149006 706.27136 
L 266.075011 703.791063 
L 273.001015 696.43759 
L 279.927019 756.667248 
L 286.853023 783.876673 
L 293.779027 697.76235 
L 300.705032 673.149861 
L 307.631036 664.340496 
L 314.55704 650.567249 
L 321.483044 612.229091 
L 328.409049 677.902184 
L 335.335053 688.859306 
L 342.261057 681.381732 
L 349.187061 682.576425 
L 356.113066 680.329925 
L 363.03907 684.394743 
L 369.965074 685.647718 
L 376.891078 691.667004 
L 383.817082 692.128153 
L 390.743087 695.97452 
L 397.669091 705.345237 
" clip-path="url(#pf6b51d70bc)" style="fill: none; stroke: #ff00ff; stroke-opacity: 0.75; stroke-width: 1.5; stroke-linecap: square"/>
   </g>
   <g id="patch_16">
    <path d="M 84.96 797.22 
L 84.96 603.42 
" style="fill: none; stroke: #000000; stroke-width: 1.25; stroke-linejoin: miter; stroke-linecap: square"/>
   </g>
   <g id="patch_17">
    <path d="M 84.96 797.22 
L 412.56 797.22 
" style="fill: none; stroke: #000000; stroke-width: 1.25; stroke-linejoin: miter; stroke-linecap: square"/>
   </g>
  </g>
 </g>
 <defs>
  <clipPath id="p313dcac9bb">
   <rect x="84.96" y="82.26" width="327.6" height="193.8"/>
  </clipPath>
  <clipPath id="p6fbc60bab8">
   <rect x="84.96" y="342.84" width="327.6" height="193.8"/>
  </clipPath>
  <clipPath id="pf6b51d70bc">
   <rect x="84.96" y="603.42" width="327.6" height="193.8"/>
  </clipPath>
 </defs>
</svg>
