<?xml version="1.0" encoding="utf-8" standalone="no"?>
<!DOCTYPE svg PUBLIC "-//W3C//DTD SVG 1.1//EN"
  "http://www.w3.org/Graphics/SVG/1.1/DTD/svg11.dtd">
<svg xmlns:xlink="http://www.w3.org/1999/xlink" width="432pt" height="864pt" viewBox="0 0 432 864" xmlns="http://www.w3.org/2000/svg" version="1.1">
 <metadata>
  <rdf:RDF xmlns:dc="http://purl.org/dc/elements/1.1/" xmlns:cc="http://creativecommons.org/ns#" xmlns:rdf="http://www.w3.org/1999/02/22-rdf-syntax-ns#">
   <cc:Work>
    <dc:type rdf:resource="http://purl.org/dc/dcmitype/StillImage"/>
    <dc:date>2024-08-30T18:55:36.447670</dc:date>
    <dc:format>image/svg+xml</dc:format>
    <dc:creator>
     <cc:Agent>
      <dc:title>Matplotlib v3.9.2, https://matplotlib.org/</dc:title>
     </cc:Agent>
    </dc:creator>
   </cc:Work>
  </rdf:RDF>
 </metadata>
 <defs>
  <style type="text/css">*{stroke-linejoin: round; stroke-linecap: butt}</style>
 </defs>
 <g id="figure_1">
  <g id="patch_1">
   <path d="M 0 864 
L 432 864 
L 432 0 
L 0 0 
z
" style="fill: #ffffff"/>
  </g>
  <g id="axes_1">
   <g id="patch_2">
    <path d="M 95.4 276.06 
L 412.56 276.06 
L 412.56 82.26 
L 95.4 82.26 
z
" style="fill: #ffffff"/>
   </g>
   <g id="patch_3">
    <path d="M 148.371755 276.06 
L 190.279789 276.06 
L 190.279789 82.26 
L 148.371755 82.26 
z
" clip-path="url(#p2ada24d0a5)" style="fill: #808080; opacity: 0.35; stroke: #808080; stroke-linejoin: miter"/>
   </g>
   <g id="patch_4">
    <path d="M 274.095856 276.06 
L 316.00389 276.06 
L 316.00389 82.26 
L 274.095856 82.26 
z
" clip-path="url(#p2ada24d0a5)" style="fill: #808080; opacity: 0.35; stroke: #808080; stroke-linejoin: miter"/>
   </g>
   <g id="matplotlib.axis_1">
    <g id="xtick_1">
     <g id="line2d_1">
      <defs>
       <path id="ma2d98d047b" d="M 0 0 
L 0 6 
" style="stroke: #000000; stroke-width: 1.25"/>
      </defs>
      <g>
       <use xlink:href="#ma2d98d047b" x="106.463721" y="276.06" style="stroke: #000000; stroke-width: 1.25"/>
      </g>
     </g>
     <g id="text_1">
      <!-- −1.0 -->
      <g transform="translate(86.430401 298.097422) scale(0.165 -0.165)">
       <defs>
        <path id="DejaVuSans-2212" d="M 678 2272 
L 4684 2272 
L 4684 1741 
L 678 1741 
L 678 2272 
z
" transform="scale(0.015625)"/>
        <path id="DejaVuSans-31" d="M 794 531 
L 1825 531 
L 1825 4091 
L 703 3866 
L 703 4441 
L 1819 4666 
L 2450 4666 
L 2450 531 
L 3481 531 
L 3481 0 
L 794 0 
L 794 531 
z
" transform="scale(0.015625)"/>
        <path id="DejaVuSans-2e" d="M 684 794 
L 1344 794 
L 1344 0 
L 684 0 
L 684 794 
z
" transform="scale(0.015625)"/>
        <path id="DejaVuSans-30" d="M 2034 4250 
Q 1547 4250 1301 3770 
Q 1056 3291 1056 2328 
Q 1056 1369 1301 889 
Q 1547 409 2034 409 
Q 2525 409 2770 889 
Q 3016 1369 3016 2328 
Q 3016 3291 2770 3770 
Q 2525 4250 2034 4250 
z
M 2034 4750 
Q 2819 4750 3233 4129 
Q 3647 3509 3647 2328 
Q 3647 1150 3233 529 
Q 2819 -91 2034 -91 
Q 1250 -91 836 529 
Q 422 1150 422 2328 
Q 422 3509 836 4129 
Q 1250 4750 2034 4750 
z
" transform="scale(0.015625)"/>
       </defs>
       <use xlink:href="#DejaVuSans-2212"/>
       <use xlink:href="#DejaVuSans-31" x="83.789062"/>
       <use xlink:href="#DejaVuSans-2e" x="147.412109"/>
       <use xlink:href="#DejaVuSans-30" x="179.199219"/>
      </g>
     </g>
    </g>
    <g id="xtick_2">
     <g id="line2d_2">
      <g>
       <use xlink:href="#ma2d98d047b" x="190.279789" y="276.06" style="stroke: #000000; stroke-width: 1.25"/>
      </g>
     </g>
     <g id="text_2">
      <!-- −0.5 -->
      <g transform="translate(170.246468 298.097422) scale(0.165 -0.165)">
       <defs>
        <path id="DejaVuSans-35" d="M 691 4666 
L 3169 4666 
L 3169 4134 
L 1269 4134 
L 1269 2991 
Q 1406 3038 1543 3061 
Q 1681 3084 1819 3084 
Q 2600 3084 3056 2656 
Q 3513 2228 3513 1497 
Q 3513 744 3044 326 
Q 2575 -91 1722 -91 
Q 1428 -91 1123 -41 
Q 819 9 494 109 
L 494 744 
Q 775 591 1075 516 
Q 1375 441 1709 441 
Q 2250 441 2565 725 
Q 2881 1009 2881 1497 
Q 2881 1984 2565 2268 
Q 2250 2553 1709 2553 
Q 1456 2553 1204 2497 
Q 953 2441 691 2322 
L 691 4666 
z
" transform="scale(0.015625)"/>
       </defs>
       <use xlink:href="#DejaVuSans-2212"/>
       <use xlink:href="#DejaVuSans-30" x="83.789062"/>
       <use xlink:href="#DejaVuSans-2e" x="147.412109"/>
       <use xlink:href="#DejaVuSans-35" x="179.199219"/>
      </g>
     </g>
    </g>
    <g id="xtick_3">
     <g id="line2d_3">
      <g>
       <use xlink:href="#ma2d98d047b" x="274.095856" y="276.06" style="stroke: #000000; stroke-width: 1.25"/>
      </g>
     </g>
     <g id="text_3">
      <!-- 0.0 -->
      <g transform="translate(260.975778 298.097422) scale(0.165 -0.165)">
       <use xlink:href="#DejaVuSans-30"/>
       <use xlink:href="#DejaVuSans-2e" x="63.623047"/>
       <use xlink:href="#DejaVuSans-30" x="95.410156"/>
      </g>
     </g>
    </g>
    <g id="xtick_4">
     <g id="line2d_4">
      <g>
       <use xlink:href="#ma2d98d047b" x="357.911924" y="276.06" style="stroke: #000000; stroke-width: 1.25"/>
      </g>
     </g>
     <g id="text_4">
      <!-- 0.5 -->
      <g transform="translate(344.791846 298.097422) scale(0.165 -0.165)">
       <use xlink:href="#DejaVuSans-30"/>
       <use xlink:href="#DejaVuSans-2e" x="63.623047"/>
       <use xlink:href="#DejaVuSans-35" x="95.410156"/>
      </g>
     </g>
    </g>
    <g id="text_5">
     <!-- time -->
     <g transform="translate(233.647031 319.206094) scale(0.18 -0.18)">
      <defs>
       <path id="DejaVuSans-74" d="M 1172 4494 
L 1172 3500 
L 2356 3500 
L 2356 3053 
L 1172 3053 
L 1172 1153 
Q 1172 725 1289 603 
Q 1406 481 1766 481 
L 2356 481 
L 2356 0 
L 1766 0 
Q 1100 0 847 248 
Q 594 497 594 1153 
L 594 3053 
L 172 3053 
L 172 3500 
L 594 3500 
L 594 4494 
L 1172 4494 
z
" transform="scale(0.015625)"/>
       <path id="DejaVuSans-69" d="M 603 3500 
L 1178 3500 
L 1178 0 
L 603 0 
L 603 3500 
z
M 603 4863 
L 1178 4863 
L 1178 4134 
L 603 4134 
L 603 4863 
z
" transform="scale(0.015625)"/>
       <path id="DejaVuSans-6d" d="M 3328 2828 
Q 3544 3216 3844 3400 
Q 4144 3584 4550 3584 
Q 5097 3584 5394 3201 
Q 5691 2819 5691 2113 
L 5691 0 
L 5113 0 
L 5113 2094 
Q 5113 2597 4934 2840 
Q 4756 3084 4391 3084 
Q 3944 3084 3684 2787 
Q 3425 2491 3425 1978 
L 3425 0 
L 2847 0 
L 2847 2094 
Q 2847 2600 2669 2842 
Q 2491 3084 2119 3084 
Q 1678 3084 1418 2786 
Q 1159 2488 1159 1978 
L 1159 0 
L 581 0 
L 581 3500 
L 1159 3500 
L 1159 2956 
Q 1356 3278 1631 3431 
Q 1906 3584 2284 3584 
Q 2666 3584 2933 3390 
Q 3200 3197 3328 2828 
z
" transform="scale(0.015625)"/>
       <path id="DejaVuSans-65" d="M 3597 1894 
L 3597 1613 
L 953 1613 
Q 991 1019 1311 708 
Q 1631 397 2203 397 
Q 2534 397 2845 478 
Q 3156 559 3463 722 
L 3463 178 
Q 3153 47 2828 -22 
Q 2503 -91 2169 -91 
Q 1331 -91 842 396 
Q 353 884 353 1716 
Q 353 2575 817 3079 
Q 1281 3584 2069 3584 
Q 2775 3584 3186 3129 
Q 3597 2675 3597 1894 
z
M 3022 2063 
Q 3016 2534 2758 2815 
Q 2500 3097 2075 3097 
Q 1594 3097 1305 2825 
Q 1016 2553 972 2059 
L 3022 2063 
z
" transform="scale(0.015625)"/>
      </defs>
      <use xlink:href="#DejaVuSans-74"/>
      <use xlink:href="#DejaVuSans-69" x="39.208984"/>
      <use xlink:href="#DejaVuSans-6d" x="66.992188"/>
      <use xlink:href="#DejaVuSans-65" x="164.404297"/>
     </g>
    </g>
   </g>
   <g id="matplotlib.axis_2">
    <g id="ytick_1">
     <g id="line2d_5">
      <defs>
       <path id="m6258313e8a" d="M 0 0 
L -6 0 
" style="stroke: #000000; stroke-width: 1.25"/>
      </defs>
      <g>
       <use xlink:href="#m6258313e8a" x="95.4" y="240.973367" style="stroke: #000000; stroke-width: 1.25"/>
      </g>
     </g>
     <g id="text_6">
      <!-- 0 -->
      <g transform="translate(75.401875 247.242078) scale(0.165 -0.165)">
       <use xlink:href="#DejaVuSans-30"/>
      </g>
     </g>
    </g>
    <g id="ytick_2">
     <g id="line2d_6">
      <g>
       <use xlink:href="#m6258313e8a" x="95.4" y="170.968814" style="stroke: #000000; stroke-width: 1.25"/>
      </g>
     </g>
     <g id="text_7">
      <!-- 200 -->
      <g transform="translate(54.405625 177.237525) scale(0.165 -0.165)">
       <defs>
        <path id="DejaVuSans-32" d="M 1228 531 
L 3431 531 
L 3431 0 
L 469 0 
L 469 531 
Q 828 903 1448 1529 
Q 2069 2156 2228 2338 
Q 2531 2678 2651 2914 
Q 2772 3150 2772 3378 
Q 2772 3750 2511 3984 
Q 2250 4219 1831 4219 
Q 1534 4219 1204 4116 
Q 875 4013 500 3803 
L 500 4441 
Q 881 4594 1212 4672 
Q 1544 4750 1819 4750 
Q 2544 4750 2975 4387 
Q 3406 4025 3406 3419 
Q 3406 3131 3298 2873 
Q 3191 2616 2906 2266 
Q 2828 2175 2409 1742 
Q 1991 1309 1228 531 
z
" transform="scale(0.015625)"/>
       </defs>
       <use xlink:href="#DejaVuSans-32"/>
       <use xlink:href="#DejaVuSans-30" x="63.623047"/>
       <use xlink:href="#DejaVuSans-30" x="127.246094"/>
      </g>
     </g>
    </g>
    <g id="ytick_3">
     <g id="line2d_7">
      <g>
       <use xlink:href="#m6258313e8a" x="95.4" y="100.964261" style="stroke: #000000; stroke-width: 1.25"/>
      </g>
     </g>
     <g id="text_8">
      <!-- 400 -->
      <g transform="translate(54.405625 107.232972) scale(0.165 -0.165)">
       <defs>
        <path id="DejaVuSans-34" d="M 2419 4116 
L 825 1625 
L 2419 1625 
L 2419 4116 
z
M 2253 4666 
L 3047 4666 
L 3047 1625 
L 3713 1625 
L 3713 1100 
L 3047 1100 
L 3047 0 
L 2419 0 
L 2419 1100 
L 313 1100 
L 313 1709 
L 2253 4666 
z
" transform="scale(0.015625)"/>
       </defs>
       <use xlink:href="#DejaVuSans-34"/>
       <use xlink:href="#DejaVuSans-30" x="63.623047"/>
       <use xlink:href="#DejaVuSans-30" x="127.246094"/>
      </g>
     </g>
    </g>
    <g id="text_9">
     <!-- PC1 -->
     <g transform="translate(46.662188 196.5975) rotate(-90) scale(0.18 -0.18)">
      <defs>
       <path id="DejaVuSans-50" d="M 1259 4147 
L 1259 2394 
L 2053 2394 
Q 2494 2394 2734 2622 
Q 2975 2850 2975 3272 
Q 2975 3691 2734 3919 
Q 2494 4147 2053 4147 
L 1259 4147 
z
M 628 4666 
L 2053 4666 
Q 2838 4666 3239 4311 
Q 3641 3956 3641 3272 
Q 3641 2581 3239 2228 
Q 2838 1875 2053 1875 
L 1259 1875 
L 1259 0 
L 628 0 
L 628 4666 
z
" transform="scale(0.015625)"/>
       <path id="DejaVuSans-43" d="M 4122 4306 
L 4122 3641 
Q 3803 3938 3442 4084 
Q 3081 4231 2675 4231 
Q 1875 4231 1450 3742 
Q 1025 3253 1025 2328 
Q 1025 1406 1450 917 
Q 1875 428 2675 428 
Q 3081 428 3442 575 
Q 3803 722 4122 1019 
L 4122 359 
Q 3791 134 3420 21 
Q 3050 -91 2638 -91 
Q 1578 -91 968 557 
Q 359 1206 359 2328 
Q 359 3453 968 4101 
Q 1578 4750 2638 4750 
Q 3056 4750 3426 4639 
Q 3797 4528 4122 4306 
z
" transform="scale(0.015625)"/>
      </defs>
      <use xlink:href="#DejaVuSans-50"/>
      <use xlink:href="#DejaVuSans-43" x="60.302734"/>
      <use xlink:href="#DejaVuSans-31" x="130.126953"/>
     </g>
    </g>
   </g>
   <g id="line2d_8">
    <path d="M 109.816364 256.03452 
L 116.521649 251.488473 
L 123.226934 253.236454 
L 129.93222 252.143658 
L 136.637505 250.093126 
L 143.342791 254.165906 
L 150.048076 254.060314 
L 156.753362 172.513263 
L 163.458647 233.541783 
L 170.163932 253.588448 
L 176.869218 253.532006 
L 183.574503 249.252764 
L 190.279789 239.117554 
L 196.985074 211.35446 
L 203.690359 250.882196 
L 210.395645 256.859429 
L 217.10093 253.701033 
L 223.806216 255.728942 
L 230.511501 263.008844 
L 237.216786 256.011891 
L 243.922072 253.643633 
L 250.627357 255.615895 
L 257.332643 258.577137 
L 264.037928 255.674005 
L 270.743214 253.863485 
L 277.448499 238.835321 
L 284.153784 142.940276 
L 290.85907 217.716454 
L 297.564355 240.764185 
L 304.269641 241.325866 
L 310.974926 239.050809 
L 317.680211 241.427287 
L 324.385497 217.287134 
L 331.090782 258.718327 
L 337.796068 267.182286 
L 344.501353 260.537927 
L 351.206638 256.314719 
L 357.911924 255.300728 
L 364.617209 255.858874 
L 371.322495 258.08692 
L 378.02778 252.262109 
L 384.733066 249.850225 
L 391.438351 258.671514 
L 398.143636 260.030967 
" clip-path="url(#p2ada24d0a5)" style="fill: none; stroke: #000000; stroke-opacity: 0.75; stroke-width: 1.5; stroke-linecap: square"/>
   </g>
   <g id="line2d_9">
    <path d="M 109.816364 256.480003 
L 116.521649 256.451094 
L 123.226934 254.940351 
L 129.93222 255.158073 
L 136.637505 253.487115 
L 143.342791 252.334699 
L 150.048076 252.866084 
L 156.753362 176.561883 
L 163.458647 235.549553 
L 170.163932 252.110434 
L 176.869218 254.374181 
L 183.574503 245.883013 
L 190.279789 242.934331 
L 196.985074 222.926036 
L 203.690359 248.132216 
L 210.395645 258.003228 
L 217.10093 255.682507 
L 223.806216 255.491404 
L 230.511501 256.661796 
L 237.216786 257.390428 
L 243.922072 255.708861 
L 250.627357 254.722764 
L 257.332643 253.324539 
L 264.037928 252.654012 
L 270.743214 253.307735 
L 277.448499 237.751414 
L 284.153784 91.069091 
L 290.85907 111.194808 
L 297.564355 174.403644 
L 304.269641 202.917874 
L 310.974926 209.282428 
L 317.680211 215.655852 
L 324.385497 197.090826 
L 331.090782 255.168384 
L 337.796068 266.910818 
L 344.501353 266.620109 
L 351.206638 251.966945 
L 357.911924 250.880574 
L 364.617209 258.44274 
L 371.322495 258.275161 
L 378.02778 257.385239 
L 384.733066 256.332668 
L 391.438351 255.785331 
L 398.143636 259.613022 
" clip-path="url(#p2ada24d0a5)" style="fill: none; stroke: #1e90ff; stroke-opacity: 0.75; stroke-width: 1.5; stroke-linecap: square"/>
   </g>
   <g id="line2d_10">
    <path d="M 109.816364 255.957684 
L 116.521649 258.178048 
L 123.226934 259.064901 
L 129.93222 255.832195 
L 136.637505 255.670916 
L 143.342791 255.947976 
L 150.048076 253.318407 
L 156.753362 153.362185 
L 163.458647 175.841015 
L 170.163932 217.580351 
L 176.869218 236.072655 
L 183.574503 231.611311 
L 190.279789 230.584676 
L 196.985074 206.097296 
L 203.690359 243.994286 
L 210.395645 259.828407 
L 217.10093 256.227002 
L 223.806216 254.98779 
L 230.511501 254.06255 
L 237.216786 256.627241 
L 243.922072 257.268992 
L 250.627357 256.763638 
L 257.332643 256.396887 
L 264.037928 256.043014 
L 270.743214 255.304848 
L 277.448499 242.577286 
L 284.153784 151.530095 
L 290.85907 220.140922 
L 297.564355 242.836907 
L 304.269641 245.200424 
L 310.974926 240.111057 
L 317.680211 240.916455 
L 324.385497 220.586237 
L 331.090782 259.690165 
L 337.796068 265.358873 
L 344.501353 263.034468 
L 351.206638 256.945658 
L 357.911924 257.011305 
L 364.617209 258.892801 
L 371.322495 256.362865 
L 378.02778 256.903799 
L 384.733066 254.454578 
L 391.438351 255.300061 
L 398.143636 258.949054 
" clip-path="url(#p2ada24d0a5)" style="fill: none; stroke: #808080; stroke-opacity: 0.75; stroke-width: 1.5; stroke-linecap: square"/>
   </g>
   <g id="line2d_11">
    <path d="M 109.816364 257.831312 
L 116.521649 257.964599 
L 123.226934 257.404394 
L 129.93222 257.536856 
L 136.637505 255.908259 
L 143.342791 256.439129 
L 150.048076 255.543175 
L 156.753362 153.500479 
L 163.458647 176.292694 
L 170.163932 218.575439 
L 176.869218 235.476863 
L 183.574503 229.236565 
L 190.279789 232.568559 
L 196.985074 208.00924 
L 203.690359 242.913607 
L 210.395645 262.592007 
L 217.10093 257.594892 
L 223.806216 257.063343 
L 230.511501 254.044538 
L 237.216786 257.554076 
L 243.922072 257.904163 
L 250.627357 257.302216 
L 257.332643 256.40636 
L 264.037928 255.968789 
L 270.743214 256.105092 
L 277.448499 240.113602 
L 284.153784 98.827695 
L 290.85907 122.177564 
L 297.564355 185.690088 
L 304.269641 208.164476 
L 310.974926 214.407158 
L 317.680211 220.34646 
L 324.385497 200.838159 
L 331.090782 257.105902 
L 337.796068 267.250909 
L 344.501353 266.042874 
L 351.206638 256.436469 
L 357.911924 251.588715 
L 364.617209 260.788009 
L 371.322495 261.026424 
L 378.02778 259.972551 
L 384.733066 255.227696 
L 391.438351 256.999431 
L 398.143636 261.410081 
" clip-path="url(#p2ada24d0a5)" style="fill: none; stroke: #ff00ff; stroke-opacity: 0.75; stroke-width: 1.5; stroke-linecap: square"/>
   </g>
   <g id="patch_5">
    <path d="M 95.4 276.06 
L 95.4 82.26 
" style="fill: none; stroke: #000000; stroke-width: 1.25; stroke-linejoin: miter; stroke-linecap: square"/>
   </g>
   <g id="patch_6">
    <path d="M 95.4 276.06 
L 412.56 276.06 
" style="fill: none; stroke: #000000; stroke-width: 1.25; stroke-linejoin: miter; stroke-linecap: square"/>
   </g>
   <g id="legend_1">
    <g id="patch_7">
     <path d="M 112.6215 74.01 
L 331.9065 74.01 
Q 335.2065 74.01 335.2065 70.71 
L 335.2065 23.922187 
Q 335.2065 20.622187 331.9065 20.622187 
L 112.6215 20.622187 
Q 109.3215 20.622187 109.3215 23.922187 
L 109.3215 70.71 
Q 109.3215 74.01 112.6215 74.01 
z
" style="fill: #ffffff; opacity: 0.8; stroke: #cccccc; stroke-linejoin: miter"/>
    </g>
    <g id="line2d_12">
     <path d="M 115.9215 33.984609 
L 132.4215 33.984609 
L 148.9215 33.984609 
" style="fill: none; stroke: #000000; stroke-opacity: 0.75; stroke-width: 1.5; stroke-linecap: square"/>
    </g>
    <g id="text_10">
     <!-- F$\rightarrow$F -->
     <g transform="translate(162.1215 39.759609) scale(0.165 -0.165)">
      <defs>
       <path id="DejaVuSans-46" d="M 628 4666 
L 3309 4666 
L 3309 4134 
L 1259 4134 
L 1259 2759 
L 3109 2759 
L 3109 2228 
L 1259 2228 
L 1259 0 
L 628 0 
L 628 4666 
z
" transform="scale(0.015625)"/>
       <path id="DejaVuSans-2192" d="M 5050 2147 
L 5050 1866 
L 3822 638 
L 3447 1013 
L 4175 1741 
L 366 1741 
L 366 2272 
L 4175 2272 
L 3447 3000 
L 3822 3375 
L 5050 2147 
z
" transform="scale(0.015625)"/>
      </defs>
      <use xlink:href="#DejaVuSans-46" transform="translate(0 0.09375)"/>
      <use xlink:href="#DejaVuSans-2192" transform="translate(77.001953 0.09375)"/>
      <use xlink:href="#DejaVuSans-46" transform="translate(180.273438 0.09375)"/>
     </g>
    </g>
    <g id="line2d_13">
     <path d="M 115.9215 58.203516 
L 132.4215 58.203516 
L 148.9215 58.203516 
" style="fill: none; stroke: #1e90ff; stroke-opacity: 0.75; stroke-width: 1.5; stroke-linecap: square"/>
    </g>
    <g id="text_11">
     <!-- F$\rightarrow$N -->
     <g transform="translate(162.1215 63.978516) scale(0.165 -0.165)">
      <defs>
       <path id="DejaVuSans-4e" d="M 628 4666 
L 1478 4666 
L 3547 763 
L 3547 4666 
L 4159 4666 
L 4159 0 
L 3309 0 
L 1241 3903 
L 1241 0 
L 628 0 
L 628 4666 
z
" transform="scale(0.015625)"/>
      </defs>
      <use xlink:href="#DejaVuSans-46" transform="translate(0 0.09375)"/>
      <use xlink:href="#DejaVuSans-2192" transform="translate(77.001953 0.09375)"/>
      <use xlink:href="#DejaVuSans-4e" transform="translate(180.273438 0.09375)"/>
     </g>
    </g>
    <g id="line2d_14">
     <path d="M 237.3615 33.984609 
L 253.8615 33.984609 
L 270.3615 33.984609 
" style="fill: none; stroke: #808080; stroke-opacity: 0.75; stroke-width: 1.5; stroke-linecap: square"/>
    </g>
    <g id="text_12">
     <!-- N$\rightarrow$F -->
     <g transform="translate(283.5615 39.759609) scale(0.165 -0.165)">
      <use xlink:href="#DejaVuSans-4e" transform="translate(0 0.09375)"/>
      <use xlink:href="#DejaVuSans-2192" transform="translate(94.287109 0.09375)"/>
      <use xlink:href="#DejaVuSans-46" transform="translate(197.558594 0.09375)"/>
     </g>
    </g>
    <g id="line2d_15">
     <path d="M 237.3615 58.203516 
L 253.8615 58.203516 
L 270.3615 58.203516 
" style="fill: none; stroke: #ff00ff; stroke-opacity: 0.75; stroke-width: 1.5; stroke-linecap: square"/>
    </g>
    <g id="text_13">
     <!-- N$\rightarrow$N -->
     <g transform="translate(283.5615 63.978516) scale(0.165 -0.165)">
      <use xlink:href="#DejaVuSans-4e" transform="translate(0 0.09375)"/>
      <use xlink:href="#DejaVuSans-2192" transform="translate(94.287109 0.09375)"/>
      <use xlink:href="#DejaVuSans-4e" transform="translate(197.558594 0.09375)"/>
     </g>
    </g>
   </g>
  </g>
  <g id="axes_2">
   <g id="patch_8">
    <path d="M 95.4 536.64 
L 412.56 536.64 
L 412.56 342.84 
L 95.4 342.84 
z
" style="fill: #ffffff"/>
   </g>
   <g id="patch_9">
    <path d="M 148.371755 536.64 
L 190.279789 536.64 
L 190.279789 342.84 
L 148.371755 342.84 
z
" clip-path="url(#p041a287eff)" style="fill: #808080; opacity: 0.35; stroke: #808080; stroke-linejoin: miter"/>
   </g>
   <g id="patch_10">
    <path d="M 274.095856 536.64 
L 316.00389 536.64 
L 316.00389 342.84 
L 274.095856 342.84 
z
" clip-path="url(#p041a287eff)" style="fill: #808080; opacity: 0.35; stroke: #808080; stroke-linejoin: miter"/>
   </g>
   <g id="matplotlib.axis_3">
    <g id="xtick_5">
     <g id="line2d_16">
      <g>
       <use xlink:href="#ma2d98d047b" x="106.463721" y="536.64" style="stroke: #000000; stroke-width: 1.25"/>
      </g>
     </g>
     <g id="text_14">
      <!-- −1.0 -->
      <g transform="translate(86.430401 558.677422) scale(0.165 -0.165)">
       <use xlink:href="#DejaVuSans-2212"/>
       <use xlink:href="#DejaVuSans-31" x="83.789062"/>
       <use xlink:href="#DejaVuSans-2e" x="147.412109"/>
       <use xlink:href="#DejaVuSans-30" x="179.199219"/>
      </g>
     </g>
    </g>
    <g id="xtick_6">
     <g id="line2d_17">
      <g>
       <use xlink:href="#ma2d98d047b" x="190.279789" y="536.64" style="stroke: #000000; stroke-width: 1.25"/>
      </g>
     </g>
     <g id="text_15">
      <!-- −0.5 -->
      <g transform="translate(170.246468 558.677422) scale(0.165 -0.165)">
       <use xlink:href="#DejaVuSans-2212"/>
       <use xlink:href="#DejaVuSans-30" x="83.789062"/>
       <use xlink:href="#DejaVuSans-2e" x="147.412109"/>
       <use xlink:href="#DejaVuSans-35" x="179.199219"/>
      </g>
     </g>
    </g>
    <g id="xtick_7">
     <g id="line2d_18">
      <g>
       <use xlink:href="#ma2d98d047b" x="274.095856" y="536.64" style="stroke: #000000; stroke-width: 1.25"/>
      </g>
     </g>
     <g id="text_16">
      <!-- 0.0 -->
      <g transform="translate(260.975778 558.677422) scale(0.165 -0.165)">
       <use xlink:href="#DejaVuSans-30"/>
       <use xlink:href="#DejaVuSans-2e" x="63.623047"/>
       <use xlink:href="#DejaVuSans-30" x="95.410156"/>
      </g>
     </g>
    </g>
    <g id="xtick_8">
     <g id="line2d_19">
      <g>
       <use xlink:href="#ma2d98d047b" x="357.911924" y="536.64" style="stroke: #000000; stroke-width: 1.25"/>
      </g>
     </g>
     <g id="text_17">
      <!-- 0.5 -->
      <g transform="translate(344.791846 558.677422) scale(0.165 -0.165)">
       <use xlink:href="#DejaVuSans-30"/>
       <use xlink:href="#DejaVuSans-2e" x="63.623047"/>
       <use xlink:href="#DejaVuSans-35" x="95.410156"/>
      </g>
     </g>
    </g>
    <g id="text_18">
     <!-- time -->
     <g transform="translate(233.647031 579.786094) scale(0.18 -0.18)">
      <use xlink:href="#DejaVuSans-74"/>
      <use xlink:href="#DejaVuSans-69" x="39.208984"/>
      <use xlink:href="#DejaVuSans-6d" x="66.992188"/>
      <use xlink:href="#DejaVuSans-65" x="164.404297"/>
     </g>
    </g>
   </g>
   <g id="matplotlib.axis_4">
    <g id="ytick_4">
     <g id="line2d_20">
      <g>
       <use xlink:href="#m6258313e8a" x="95.4" y="499.331758" style="stroke: #000000; stroke-width: 1.25"/>
      </g>
     </g>
     <g id="text_19">
      <!-- −100 -->
      <g transform="translate(40.579141 505.600469) scale(0.165 -0.165)">
       <use xlink:href="#DejaVuSans-2212"/>
       <use xlink:href="#DejaVuSans-31" x="83.789062"/>
       <use xlink:href="#DejaVuSans-30" x="147.412109"/>
       <use xlink:href="#DejaVuSans-30" x="211.035156"/>
      </g>
     </g>
    </g>
    <g id="ytick_5">
     <g id="line2d_21">
      <g>
       <use xlink:href="#m6258313e8a" x="95.4" y="429.759986" style="stroke: #000000; stroke-width: 1.25"/>
      </g>
     </g>
     <g id="text_20">
      <!-- 0 -->
      <g transform="translate(75.401875 436.028697) scale(0.165 -0.165)">
       <use xlink:href="#DejaVuSans-30"/>
      </g>
     </g>
    </g>
    <g id="ytick_6">
     <g id="line2d_22">
      <g>
       <use xlink:href="#m6258313e8a" x="95.4" y="360.188215" style="stroke: #000000; stroke-width: 1.25"/>
      </g>
     </g>
     <g id="text_21">
      <!-- 100 -->
      <g transform="translate(54.405625 366.456925) scale(0.165 -0.165)">
       <use xlink:href="#DejaVuSans-31"/>
       <use xlink:href="#DejaVuSans-30" x="63.623047"/>
       <use xlink:href="#DejaVuSans-30" x="127.246094"/>
      </g>
     </g>
    </g>
    <g id="text_22">
     <!-- PC2 -->
     <g transform="translate(32.835703 457.1775) rotate(-90) scale(0.18 -0.18)">
      <use xlink:href="#DejaVuSans-50"/>
      <use xlink:href="#DejaVuSans-43" x="60.302734"/>
      <use xlink:href="#DejaVuSans-32" x="130.126953"/>
     </g>
    </g>
   </g>
   <g id="line2d_23">
    <path d="M 109.816364 430.993716 
L 116.521649 434.028359 
L 123.226934 434.037946 
L 129.93222 434.883306 
L 136.637505 428.470519 
L 143.342791 439.087639 
L 150.048076 437.446927 
L 156.753362 494.352944 
L 163.458647 412.73681 
L 170.163932 412.226431 
L 176.869218 416.464021 
L 183.574503 412.039632 
L 190.279789 417.59115 
L 196.985074 443.672194 
L 203.690359 438.521183 
L 210.395645 431.928932 
L 217.10093 437.417171 
L 223.806216 429.577646 
L 230.511501 434.686098 
L 237.216786 437.42002 
L 243.922072 435.666884 
L 250.627357 438.41366 
L 257.332643 439.927024 
L 264.037928 439.087429 
L 270.743214 443.217185 
L 277.448499 460.125758 
L 284.153784 488.966565 
L 290.85907 383.945887 
L 297.564355 400.231859 
L 304.269641 399.584178 
L 310.974926 405.864965 
L 317.680211 400.759042 
L 324.385497 441.596277 
L 331.090782 441.605299 
L 337.796068 435.610783 
L 344.501353 447.004659 
L 351.206638 445.946173 
L 357.911924 438.316883 
L 364.617209 432.935509 
L 371.322495 433.273811 
L 378.02778 439.607175 
L 384.733066 432.263234 
L 391.438351 438.400393 
L 398.143636 442.421291 
" clip-path="url(#p041a287eff)" style="fill: none; stroke: #000000; stroke-opacity: 0.75; stroke-width: 1.5; stroke-linecap: square"/>
   </g>
   <g id="line2d_24">
    <path d="M 109.816364 434.192308 
L 116.521649 436.708237 
L 123.226934 439.401352 
L 129.93222 439.894377 
L 136.637505 439.167621 
L 143.342791 438.382084 
L 150.048076 441.158599 
L 156.753362 499.499463 
L 163.458647 414.852992 
L 170.163932 411.80782 
L 176.869218 417.158331 
L 183.574503 415.039834 
L 190.279789 404.646491 
L 196.985074 430.999976 
L 203.690359 437.838524 
L 210.395645 435.162689 
L 217.10093 437.558599 
L 223.806216 433.069774 
L 230.511501 432.994621 
L 237.216786 435.853151 
L 243.922072 436.070082 
L 250.627357 438.931868 
L 257.332643 440.097071 
L 264.037928 438.156688 
L 270.743214 441.173889 
L 277.448499 461.466221 
L 284.153784 503.208129 
L 290.85907 363.954958 
L 297.564355 364.48696 
L 304.269641 365.408205 
L 310.974926 367.348569 
L 317.680211 368.801418 
L 324.385497 434.49719 
L 331.090782 434.160855 
L 337.796068 432.730667 
L 344.501353 434.310259 
L 351.206638 443.965454 
L 357.911924 436.967653 
L 364.617209 427.363598 
L 371.322495 429.16217 
L 378.02778 431.455901 
L 384.733066 431.963587 
L 391.438351 431.108501 
L 398.143636 433.413243 
" clip-path="url(#p041a287eff)" style="fill: none; stroke: #1e90ff; stroke-opacity: 0.75; stroke-width: 1.5; stroke-linecap: square"/>
   </g>
   <g id="line2d_25">
    <path d="M 109.816364 433.557892 
L 116.521649 433.867171 
L 123.226934 435.408979 
L 129.93222 438.902197 
L 136.637505 436.964903 
L 143.342791 440.175955 
L 150.048076 440.397013 
L 156.753362 523.321115 
L 163.458647 400.274891 
L 170.163932 383.611963 
L 176.869218 390.783015 
L 183.574503 380.296215 
L 190.279789 379.435186 
L 196.985074 429.184803 
L 203.690359 442.843246 
L 210.395645 438.520041 
L 217.10093 437.480162 
L 223.806216 436.598052 
L 230.511501 435.934928 
L 237.216786 432.760272 
L 243.922072 434.47113 
L 250.627357 436.228335 
L 257.332643 437.426285 
L 264.037928 438.828676 
L 270.743214 439.36013 
L 277.448499 454.871103 
L 284.153784 488.08731 
L 290.85907 387.862179 
L 297.564355 398.589128 
L 304.269641 398.396891 
L 310.974926 398.398698 
L 317.680211 400.841392 
L 324.385497 438.25927 
L 331.090782 437.254696 
L 337.796068 438.060728 
L 344.501353 441.154422 
L 351.206638 444.795825 
L 357.911924 438.613374 
L 364.617209 434.573303 
L 371.322495 436.838 
L 378.02778 439.52932 
L 384.733066 438.779552 
L 391.438351 438.241899 
L 398.143636 438.498776 
" clip-path="url(#p041a287eff)" style="fill: none; stroke: #808080; stroke-opacity: 0.75; stroke-width: 1.5; stroke-linecap: square"/>
   </g>
   <g id="line2d_26">
    <path d="M 109.816364 432.24537 
L 116.521649 435.404083 
L 123.226934 437.183159 
L 129.93222 439.173891 
L 136.637505 438.648699 
L 143.342791 440.219556 
L 150.048076 440.551151 
L 156.753362 527.830909 
L 163.458647 398.583931 
L 170.163932 382.631945 
L 176.869218 387.412748 
L 183.574503 383.567202 
L 190.279789 381.667329 
L 196.985074 427.003619 
L 203.690359 442.285687 
L 210.395645 437.696446 
L 217.10093 436.583675 
L 223.806216 438.791048 
L 230.511501 436.306134 
L 237.216786 433.74298 
L 243.922072 436.983405 
L 250.627357 436.473275 
L 257.332643 438.23181 
L 264.037928 438.178097 
L 270.743214 438.902159 
L 277.448499 460.506606 
L 284.153784 502.953123 
L 290.85907 351.649091 
L 297.564355 357.793603 
L 304.269641 360.358165 
L 310.974926 362.623422 
L 317.680211 367.446664 
L 324.385497 435.206138 
L 331.090782 436.089065 
L 337.796068 435.303234 
L 344.501353 436.73448 
L 351.206638 445.0494 
L 357.911924 439.312687 
L 364.617209 432.384878 
L 371.322495 433.211133 
L 378.02778 434.518884 
L 384.733066 436.149422 
L 391.438351 432.80789 
L 398.143636 435.138409 
" clip-path="url(#p041a287eff)" style="fill: none; stroke: #ff00ff; stroke-opacity: 0.75; stroke-width: 1.5; stroke-linecap: square"/>
   </g>
   <g id="patch_11">
    <path d="M 95.4 536.64 
L 95.4 342.84 
" style="fill: none; stroke: #000000; stroke-width: 1.25; stroke-linejoin: miter; stroke-linecap: square"/>
   </g>
   <g id="patch_12">
    <path d="M 95.4 536.64 
L 412.56 536.64 
" style="fill: none; stroke: #000000; stroke-width: 1.25; stroke-linejoin: miter; stroke-linecap: square"/>
   </g>
  </g>
  <g id="axes_3">
   <g id="patch_13">
    <path d="M 95.4 797.22 
L 412.56 797.22 
L 412.56 603.42 
L 95.4 603.42 
z
" style="fill: #ffffff"/>
   </g>
   <g id="patch_14">
    <path d="M 148.371755 797.22 
L 190.279789 797.22 
L 190.279789 603.42 
L 148.371755 603.42 
z
" clip-path="url(#pcec7aa9710)" style="fill: #808080; opacity: 0.35; stroke: #808080; stroke-linejoin: miter"/>
   </g>
   <g id="patch_15">
    <path d="M 274.095856 797.22 
L 316.00389 797.22 
L 316.00389 603.42 
L 274.095856 603.42 
z
" clip-path="url(#pcec7aa9710)" style="fill: #808080; opacity: 0.35; stroke: #808080; stroke-linejoin: miter"/>
   </g>
   <g id="matplotlib.axis_5">
    <g id="xtick_9">
     <g id="line2d_27">
      <g>
       <use xlink:href="#ma2d98d047b" x="106.463721" y="797.22" style="stroke: #000000; stroke-width: 1.25"/>
      </g>
     </g>
     <g id="text_23">
      <!-- −1.0 -->
      <g transform="translate(86.430401 819.257422) scale(0.165 -0.165)">
       <use xlink:href="#DejaVuSans-2212"/>
       <use xlink:href="#DejaVuSans-31" x="83.789062"/>
       <use xlink:href="#DejaVuSans-2e" x="147.412109"/>
       <use xlink:href="#DejaVuSans-30" x="179.199219"/>
      </g>
     </g>
    </g>
    <g id="xtick_10">
     <g id="line2d_28">
      <g>
       <use xlink:href="#ma2d98d047b" x="190.279789" y="797.22" style="stroke: #000000; stroke-width: 1.25"/>
      </g>
     </g>
     <g id="text_24">
      <!-- −0.5 -->
      <g transform="translate(170.246468 819.257422) scale(0.165 -0.165)">
       <use xlink:href="#DejaVuSans-2212"/>
       <use xlink:href="#DejaVuSans-30" x="83.789062"/>
       <use xlink:href="#DejaVuSans-2e" x="147.412109"/>
       <use xlink:href="#DejaVuSans-35" x="179.199219"/>
      </g>
     </g>
    </g>
    <g id="xtick_11">
     <g id="line2d_29">
      <g>
       <use xlink:href="#ma2d98d047b" x="274.095856" y="797.22" style="stroke: #000000; stroke-width: 1.25"/>
      </g>
     </g>
     <g id="text_25">
      <!-- 0.0 -->
      <g transform="translate(260.975778 819.257422) scale(0.165 -0.165)">
       <use xlink:href="#DejaVuSans-30"/>
       <use xlink:href="#DejaVuSans-2e" x="63.623047"/>
       <use xlink:href="#DejaVuSans-30" x="95.410156"/>
      </g>
     </g>
    </g>
    <g id="xtick_12">
     <g id="line2d_30">
      <g>
       <use xlink:href="#ma2d98d047b" x="357.911924" y="797.22" style="stroke: #000000; stroke-width: 1.25"/>
      </g>
     </g>
     <g id="text_26">
      <!-- 0.5 -->
      <g transform="translate(344.791846 819.257422) scale(0.165 -0.165)">
       <use xlink:href="#DejaVuSans-30"/>
       <use xlink:href="#DejaVuSans-2e" x="63.623047"/>
       <use xlink:href="#DejaVuSans-35" x="95.410156"/>
      </g>
     </g>
    </g>
    <g id="text_27">
     <!-- time -->
     <g transform="translate(233.647031 840.366094) scale(0.18 -0.18)">
      <use xlink:href="#DejaVuSans-74"/>
      <use xlink:href="#DejaVuSans-69" x="39.208984"/>
      <use xlink:href="#DejaVuSans-6d" x="66.992188"/>
      <use xlink:href="#DejaVuSans-65" x="164.404297"/>
     </g>
    </g>
   </g>
   <g id="matplotlib.axis_6">
    <g id="ytick_7">
     <g id="line2d_31">
      <g>
       <use xlink:href="#m6258313e8a" x="95.4" y="792.484429" style="stroke: #000000; stroke-width: 1.25"/>
      </g>
     </g>
     <g id="text_28">
      <!-- −100 -->
      <g transform="translate(40.579141 798.75314) scale(0.165 -0.165)">
       <use xlink:href="#DejaVuSans-2212"/>
       <use xlink:href="#DejaVuSans-31" x="83.789062"/>
       <use xlink:href="#DejaVuSans-30" x="147.412109"/>
       <use xlink:href="#DejaVuSans-30" x="211.035156"/>
      </g>
     </g>
    </g>
    <g id="ytick_8">
     <g id="line2d_32">
      <g>
       <use xlink:href="#m6258313e8a" x="95.4" y="721.500967" style="stroke: #000000; stroke-width: 1.25"/>
      </g>
     </g>
     <g id="text_29">
      <!-- 0 -->
      <g transform="translate(75.401875 727.769678) scale(0.165 -0.165)">
       <use xlink:href="#DejaVuSans-30"/>
      </g>
     </g>
    </g>
    <g id="ytick_9">
     <g id="line2d_33">
      <g>
       <use xlink:href="#m6258313e8a" x="95.4" y="650.517506" style="stroke: #000000; stroke-width: 1.25"/>
      </g>
     </g>
     <g id="text_30">
      <!-- 100 -->
      <g transform="translate(54.405625 656.786217) scale(0.165 -0.165)">
       <use xlink:href="#DejaVuSans-31"/>
       <use xlink:href="#DejaVuSans-30" x="63.623047"/>
       <use xlink:href="#DejaVuSans-30" x="127.246094"/>
      </g>
     </g>
    </g>
    <g id="text_31">
     <!-- PC3 -->
     <g transform="translate(32.835703 717.7575) rotate(-90) scale(0.18 -0.18)">
      <defs>
       <path id="DejaVuSans-33" d="M 2597 2516 
Q 3050 2419 3304 2112 
Q 3559 1806 3559 1356 
Q 3559 666 3084 287 
Q 2609 -91 1734 -91 
Q 1441 -91 1130 -33 
Q 819 25 488 141 
L 488 750 
Q 750 597 1062 519 
Q 1375 441 1716 441 
Q 2309 441 2620 675 
Q 2931 909 2931 1356 
Q 2931 1769 2642 2001 
Q 2353 2234 1838 2234 
L 1294 2234 
L 1294 2753 
L 1863 2753 
Q 2328 2753 2575 2939 
Q 2822 3125 2822 3475 
Q 2822 3834 2567 4026 
Q 2313 4219 1838 4219 
Q 1578 4219 1281 4162 
Q 984 4106 628 3988 
L 628 4550 
Q 988 4650 1302 4700 
Q 1616 4750 1894 4750 
Q 2613 4750 3031 4423 
Q 3450 4097 3450 3541 
Q 3450 3153 3228 2886 
Q 3006 2619 2597 2516 
z
" transform="scale(0.015625)"/>
      </defs>
      <use xlink:href="#DejaVuSans-50"/>
      <use xlink:href="#DejaVuSans-43" x="60.302734"/>
      <use xlink:href="#DejaVuSans-33" x="130.126953"/>
     </g>
    </g>
   </g>
   <g id="line2d_34">
    <path d="M 109.816364 719.882157 
L 116.521649 724.435503 
L 123.226934 721.257809 
L 129.93222 731.239207 
L 136.637505 729.858612 
L 143.342791 731.467381 
L 150.048076 735.81285 
L 156.753362 772.006423 
L 163.458647 762.642385 
L 170.163932 740.697895 
L 176.869218 735.054247 
L 183.574503 744.2072 
L 190.279789 729.126321 
L 196.985074 637.701321 
L 203.690359 694.579326 
L 210.395645 712.000427 
L 217.10093 701.067925 
L 223.806216 705.715651 
L 230.511501 719.229074 
L 237.216786 724.349487 
L 243.922072 725.696039 
L 250.627357 723.30678 
L 257.332643 729.570239 
L 264.037928 731.814861 
L 270.743214 735.379966 
L 277.448499 727.136694 
L 284.153784 785.337865 
L 290.85907 776.230914 
L 297.564355 761.11718 
L 304.269641 754.457349 
L 310.974926 750.866152 
L 317.680211 737.681224 
L 324.385497 635.746757 
L 331.090782 707.114313 
L 337.796068 714.150069 
L 344.501353 710.297394 
L 351.206638 714.207153 
L 357.911924 724.139367 
L 364.617209 724.342882 
L 371.322495 727.240505 
L 378.02778 728.708101 
L 384.733066 732.88808 
L 391.438351 727.236328 
L 398.143636 726.338692 
" clip-path="url(#pcec7aa9710)" style="fill: none; stroke: #000000; stroke-opacity: 0.75; stroke-width: 1.5; stroke-linecap: square"/>
   </g>
   <g id="line2d_35">
    <path d="M 109.816364 720.834656 
L 116.521649 723.773989 
L 123.226934 724.65965 
L 129.93222 727.785134 
L 136.637505 731.3193 
L 143.342791 731.489878 
L 150.048076 732.957434 
L 156.753362 773.490906 
L 163.458647 762.048489 
L 170.163932 745.083965 
L 176.869218 737.985177 
L 183.574503 742.72305 
L 190.279789 734.958239 
L 196.985074 650.770385 
L 203.690359 692.242754 
L 210.395645 711.967954 
L 217.10093 704.510759 
L 223.806216 709.886896 
L 230.511501 717.768606 
L 237.216786 721.780253 
L 243.922072 723.205471 
L 250.627357 724.981151 
L 257.332643 728.687553 
L 264.037928 730.871686 
L 270.743214 733.546149 
L 277.448499 730.871892 
L 284.153784 728.803062 
L 290.85907 689.25013 
L 297.564355 711.978406 
L 304.269641 727.339262 
L 310.974926 728.359592 
L 317.680211 728.177943 
L 324.385497 612.229091 
L 331.090782 693.275914 
L 337.796068 713.305967 
L 344.501353 712.064108 
L 351.206638 723.097001 
L 357.911924 719.635253 
L 364.617209 721.509299 
L 371.322495 721.656144 
L 378.02778 724.053283 
L 384.733066 725.335832 
L 391.438351 725.905824 
L 398.143636 723.403047 
" clip-path="url(#pcec7aa9710)" style="fill: none; stroke: #1e90ff; stroke-opacity: 0.75; stroke-width: 1.5; stroke-linecap: square"/>
   </g>
   <g id="line2d_36">
    <path d="M 109.816364 719.721048 
L 116.521649 720.119398 
L 123.226934 723.110697 
L 129.93222 726.208961 
L 136.637505 725.085076 
L 143.342791 730.635057 
L 150.048076 730.345409 
L 156.753362 743.130452 
L 163.458647 716.448177 
L 170.163932 719.466465 
L 176.869218 729.278291 
L 183.574503 732.018457 
L 190.279789 730.110362 
L 196.985074 639.408197 
L 203.690359 674.091777 
L 210.395645 707.374046 
L 217.10093 701.498235 
L 223.806216 708.244087 
L 230.511501 718.398482 
L 237.216786 721.46912 
L 243.922072 721.560338 
L 250.627357 723.207232 
L 257.332643 723.849922 
L 264.037928 727.941344 
L 270.743214 730.89443 
L 277.448499 728.675513 
L 284.153784 788.410909 
L 290.85907 769.74962 
L 297.564355 754.478573 
L 304.269641 750.063048 
L 310.974926 745.189864 
L 317.680211 736.783518 
L 324.385497 639.823801 
L 331.090782 700.945667 
L 337.796068 712.207841 
L 344.501353 708.942857 
L 351.206638 716.439728 
L 357.911924 720.571215 
L 364.617209 722.810043 
L 371.322495 726.37665 
L 378.02778 724.66167 
L 384.733066 729.198939 
L 391.438351 730.935084 
L 398.143636 727.902549 
" clip-path="url(#pcec7aa9710)" style="fill: none; stroke: #808080; stroke-opacity: 0.75; stroke-width: 1.5; stroke-linecap: square"/>
   </g>
   <g id="line2d_37">
    <path d="M 109.816364 719.663891 
L 116.521649 720.083922 
L 123.226934 723.082874 
L 129.93222 723.951565 
L 136.637505 726.858508 
L 143.342791 727.787152 
L 150.048076 729.68023 
L 156.753362 740.493203 
L 163.458647 715.182133 
L 170.163932 720.110845 
L 176.869218 733.787307 
L 183.574503 732.790504 
L 190.279789 730.777332 
L 196.985074 640.567741 
L 203.690359 673.863015 
L 210.395645 707.935205 
L 217.10093 704.251364 
L 223.806216 709.40185 
L 230.511501 717.676236 
L 237.216786 719.939576 
L 243.922072 721.689772 
L 250.627357 721.78616 
L 257.332643 726.104219 
L 264.037928 727.313301 
L 270.743214 728.801864 
L 277.448499 727.293027 
L 284.153784 728.923663 
L 290.85907 695.159731 
L 297.564355 717.837364 
L 304.269641 731.073986 
L 310.974926 733.135351 
L 317.680211 733.008852 
L 324.385497 618.154206 
L 331.090782 694.45217 
L 337.796068 711.603099 
L 344.501353 711.007839 
L 351.206638 722.148194 
L 357.911924 722.364945 
L 364.617209 719.786908 
L 371.322495 720.054615 
L 378.02778 722.911387 
L 384.733066 725.005414 
L 391.438351 724.099695 
L 398.143636 721.871264 
" clip-path="url(#pcec7aa9710)" style="fill: none; stroke: #ff00ff; stroke-opacity: 0.75; stroke-width: 1.5; stroke-linecap: square"/>
   </g>
   <g id="patch_16">
    <path d="M 95.4 797.22 
L 95.4 603.42 
" style="fill: none; stroke: #000000; stroke-width: 1.25; stroke-linejoin: miter; stroke-linecap: square"/>
   </g>
   <g id="patch_17">
    <path d="M 95.4 797.22 
L 412.56 797.22 
" style="fill: none; stroke: #000000; stroke-width: 1.25; stroke-linejoin: miter; stroke-linecap: square"/>
   </g>
  </g>
 </g>
 <defs>
  <clipPath id="p2ada24d0a5">
   <rect x="95.4" y="82.26" width="317.16" height="193.8"/>
  </clipPath>
  <clipPath id="p041a287eff">
   <rect x="95.4" y="342.84" width="317.16" height="193.8"/>
  </clipPath>
  <clipPath id="pcec7aa9710">
   <rect x="95.4" y="603.42" width="317.16" height="193.8"/>
  </clipPath>
 </defs>
</svg>
