<?xml version="1.0" encoding="utf-8" standalone="no"?>
<!DOCTYPE svg PUBLIC "-//W3C//DTD SVG 1.1//EN"
  "http://www.w3.org/Graphics/SVG/1.1/DTD/svg11.dtd">
<svg xmlns:xlink="http://www.w3.org/1999/xlink" width="432pt" height="864pt" viewBox="0 0 432 864" xmlns="http://www.w3.org/2000/svg" version="1.1">
 <metadata>
  <rdf:RDF xmlns:dc="http://purl.org/dc/elements/1.1/" xmlns:cc="http://creativecommons.org/ns#" xmlns:rdf="http://www.w3.org/1999/02/22-rdf-syntax-ns#">
   <cc:Work>
    <dc:type rdf:resource="http://purl.org/dc/dcmitype/StillImage"/>
    <dc:date>2024-08-30T19:09:24.467975</dc:date>
    <dc:format>image/svg+xml</dc:format>
    <dc:creator>
     <cc:Agent>
      <dc:title>Matplotlib v3.9.2, https://matplotlib.org/</dc:title>
     </cc:Agent>
    </dc:creator>
   </cc:Work>
  </rdf:RDF>
 </metadata>
 <defs>
  <style type="text/css">*{stroke-linejoin: round; stroke-linecap: butt}</style>
 </defs>
 <g id="figure_1">
  <g id="patch_1">
   <path d="M 0 864 
L 432 864 
L 432 0 
L 0 0 
z
" style="fill: #ffffff"/>
  </g>
  <g id="axes_1">
   <g id="patch_2">
    <path d="M 95.4 276.06 
L 412.56 276.06 
L 412.56 82.26 
L 95.4 82.26 
z
" style="fill: #ffffff"/>
   </g>
   <g id="patch_3">
    <path d="M 148.371755 276.06 
L 190.279789 276.06 
L 190.279789 82.26 
L 148.371755 82.26 
z
" clip-path="url(#p187d1bb8c0)" style="fill: #808080; opacity: 0.35; stroke: #808080; stroke-linejoin: miter"/>
   </g>
   <g id="patch_4">
    <path d="M 274.095856 276.06 
L 316.00389 276.06 
L 316.00389 82.26 
L 274.095856 82.26 
z
" clip-path="url(#p187d1bb8c0)" style="fill: #808080; opacity: 0.35; stroke: #808080; stroke-linejoin: miter"/>
   </g>
   <g id="matplotlib.axis_1">
    <g id="xtick_1">
     <g id="line2d_1">
      <defs>
       <path id="m259fa3b94b" d="M 0 0 
L 0 6 
" style="stroke: #000000; stroke-width: 1.25"/>
      </defs>
      <g>
       <use xlink:href="#m259fa3b94b" x="106.463721" y="276.06" style="stroke: #000000; stroke-width: 1.25"/>
      </g>
     </g>
     <g id="text_1">
      <!-- −1.0 -->
      <g transform="translate(86.430401 298.097422) scale(0.165 -0.165)">
       <defs>
        <path id="DejaVuSans-2212" d="M 678 2272 
L 4684 2272 
L 4684 1741 
L 678 1741 
L 678 2272 
z
" transform="scale(0.015625)"/>
        <path id="DejaVuSans-31" d="M 794 531 
L 1825 531 
L 1825 4091 
L 703 3866 
L 703 4441 
L 1819 4666 
L 2450 4666 
L 2450 531 
L 3481 531 
L 3481 0 
L 794 0 
L 794 531 
z
" transform="scale(0.015625)"/>
        <path id="DejaVuSans-2e" d="M 684 794 
L 1344 794 
L 1344 0 
L 684 0 
L 684 794 
z
" transform="scale(0.015625)"/>
        <path id="DejaVuSans-30" d="M 2034 4250 
Q 1547 4250 1301 3770 
Q 1056 3291 1056 2328 
Q 1056 1369 1301 889 
Q 1547 409 2034 409 
Q 2525 409 2770 889 
Q 3016 1369 3016 2328 
Q 3016 3291 2770 3770 
Q 2525 4250 2034 4250 
z
M 2034 4750 
Q 2819 4750 3233 4129 
Q 3647 3509 3647 2328 
Q 3647 1150 3233 529 
Q 2819 -91 2034 -91 
Q 1250 -91 836 529 
Q 422 1150 422 2328 
Q 422 3509 836 4129 
Q 1250 4750 2034 4750 
z
" transform="scale(0.015625)"/>
       </defs>
       <use xlink:href="#DejaVuSans-2212"/>
       <use xlink:href="#DejaVuSans-31" x="83.789062"/>
       <use xlink:href="#DejaVuSans-2e" x="147.412109"/>
       <use xlink:href="#DejaVuSans-30" x="179.199219"/>
      </g>
     </g>
    </g>
    <g id="xtick_2">
     <g id="line2d_2">
      <g>
       <use xlink:href="#m259fa3b94b" x="190.279789" y="276.06" style="stroke: #000000; stroke-width: 1.25"/>
      </g>
     </g>
     <g id="text_2">
      <!-- −0.5 -->
      <g transform="translate(170.246468 298.097422) scale(0.165 -0.165)">
       <defs>
        <path id="DejaVuSans-35" d="M 691 4666 
L 3169 4666 
L 3169 4134 
L 1269 4134 
L 1269 2991 
Q 1406 3038 1543 3061 
Q 1681 3084 1819 3084 
Q 2600 3084 3056 2656 
Q 3513 2228 3513 1497 
Q 3513 744 3044 326 
Q 2575 -91 1722 -91 
Q 1428 -91 1123 -41 
Q 819 9 494 109 
L 494 744 
Q 775 591 1075 516 
Q 1375 441 1709 441 
Q 2250 441 2565 725 
Q 2881 1009 2881 1497 
Q 2881 1984 2565 2268 
Q 2250 2553 1709 2553 
Q 1456 2553 1204 2497 
Q 953 2441 691 2322 
L 691 4666 
z
" transform="scale(0.015625)"/>
       </defs>
       <use xlink:href="#DejaVuSans-2212"/>
       <use xlink:href="#DejaVuSans-30" x="83.789062"/>
       <use xlink:href="#DejaVuSans-2e" x="147.412109"/>
       <use xlink:href="#DejaVuSans-35" x="179.199219"/>
      </g>
     </g>
    </g>
    <g id="xtick_3">
     <g id="line2d_3">
      <g>
       <use xlink:href="#m259fa3b94b" x="274.095856" y="276.06" style="stroke: #000000; stroke-width: 1.25"/>
      </g>
     </g>
     <g id="text_3">
      <!-- 0.0 -->
      <g transform="translate(260.975778 298.097422) scale(0.165 -0.165)">
       <use xlink:href="#DejaVuSans-30"/>
       <use xlink:href="#DejaVuSans-2e" x="63.623047"/>
       <use xlink:href="#DejaVuSans-30" x="95.410156"/>
      </g>
     </g>
    </g>
    <g id="xtick_4">
     <g id="line2d_4">
      <g>
       <use xlink:href="#m259fa3b94b" x="357.911924" y="276.06" style="stroke: #000000; stroke-width: 1.25"/>
      </g>
     </g>
     <g id="text_4">
      <!-- 0.5 -->
      <g transform="translate(344.791846 298.097422) scale(0.165 -0.165)">
       <use xlink:href="#DejaVuSans-30"/>
       <use xlink:href="#DejaVuSans-2e" x="63.623047"/>
       <use xlink:href="#DejaVuSans-35" x="95.410156"/>
      </g>
     </g>
    </g>
    <g id="text_5">
     <!-- time -->
     <g transform="translate(233.647031 319.206094) scale(0.18 -0.18)">
      <defs>
       <path id="DejaVuSans-74" d="M 1172 4494 
L 1172 3500 
L 2356 3500 
L 2356 3053 
L 1172 3053 
L 1172 1153 
Q 1172 725 1289 603 
Q 1406 481 1766 481 
L 2356 481 
L 2356 0 
L 1766 0 
Q 1100 0 847 248 
Q 594 497 594 1153 
L 594 3053 
L 172 3053 
L 172 3500 
L 594 3500 
L 594 4494 
L 1172 4494 
z
" transform="scale(0.015625)"/>
       <path id="DejaVuSans-69" d="M 603 3500 
L 1178 3500 
L 1178 0 
L 603 0 
L 603 3500 
z
M 603 4863 
L 1178 4863 
L 1178 4134 
L 603 4134 
L 603 4863 
z
" transform="scale(0.015625)"/>
       <path id="DejaVuSans-6d" d="M 3328 2828 
Q 3544 3216 3844 3400 
Q 4144 3584 4550 3584 
Q 5097 3584 5394 3201 
Q 5691 2819 5691 2113 
L 5691 0 
L 5113 0 
L 5113 2094 
Q 5113 2597 4934 2840 
Q 4756 3084 4391 3084 
Q 3944 3084 3684 2787 
Q 3425 2491 3425 1978 
L 3425 0 
L 2847 0 
L 2847 2094 
Q 2847 2600 2669 2842 
Q 2491 3084 2119 3084 
Q 1678 3084 1418 2786 
Q 1159 2488 1159 1978 
L 1159 0 
L 581 0 
L 581 3500 
L 1159 3500 
L 1159 2956 
Q 1356 3278 1631 3431 
Q 1906 3584 2284 3584 
Q 2666 3584 2933 3390 
Q 3200 3197 3328 2828 
z
" transform="scale(0.015625)"/>
       <path id="DejaVuSans-65" d="M 3597 1894 
L 3597 1613 
L 953 1613 
Q 991 1019 1311 708 
Q 1631 397 2203 397 
Q 2534 397 2845 478 
Q 3156 559 3463 722 
L 3463 178 
Q 3153 47 2828 -22 
Q 2503 -91 2169 -91 
Q 1331 -91 842 396 
Q 353 884 353 1716 
Q 353 2575 817 3079 
Q 1281 3584 2069 3584 
Q 2775 3584 3186 3129 
Q 3597 2675 3597 1894 
z
M 3022 2063 
Q 3016 2534 2758 2815 
Q 2500 3097 2075 3097 
Q 1594 3097 1305 2825 
Q 1016 2553 972 2059 
L 3022 2063 
z
" transform="scale(0.015625)"/>
      </defs>
      <use xlink:href="#DejaVuSans-74"/>
      <use xlink:href="#DejaVuSans-69" x="39.208984"/>
      <use xlink:href="#DejaVuSans-6d" x="66.992188"/>
      <use xlink:href="#DejaVuSans-65" x="164.404297"/>
     </g>
    </g>
   </g>
   <g id="matplotlib.axis_2">
    <g id="ytick_1">
     <g id="line2d_5">
      <defs>
       <path id="mbb64fafc0e" d="M 0 0 
L -6 0 
" style="stroke: #000000; stroke-width: 1.25"/>
      </defs>
      <g>
       <use xlink:href="#mbb64fafc0e" x="95.4" y="239.412986" style="stroke: #000000; stroke-width: 1.25"/>
      </g>
     </g>
     <g id="text_6">
      <!-- 0 -->
      <g transform="translate(75.401875 245.681697) scale(0.165 -0.165)">
       <use xlink:href="#DejaVuSans-30"/>
      </g>
     </g>
    </g>
    <g id="ytick_2">
     <g id="line2d_6">
      <g>
       <use xlink:href="#mbb64fafc0e" x="95.4" y="167.615931" style="stroke: #000000; stroke-width: 1.25"/>
      </g>
     </g>
     <g id="text_7">
      <!-- 200 -->
      <g transform="translate(54.405625 173.884642) scale(0.165 -0.165)">
       <defs>
        <path id="DejaVuSans-32" d="M 1228 531 
L 3431 531 
L 3431 0 
L 469 0 
L 469 531 
Q 828 903 1448 1529 
Q 2069 2156 2228 2338 
Q 2531 2678 2651 2914 
Q 2772 3150 2772 3378 
Q 2772 3750 2511 3984 
Q 2250 4219 1831 4219 
Q 1534 4219 1204 4116 
Q 875 4013 500 3803 
L 500 4441 
Q 881 4594 1212 4672 
Q 1544 4750 1819 4750 
Q 2544 4750 2975 4387 
Q 3406 4025 3406 3419 
Q 3406 3131 3298 2873 
Q 3191 2616 2906 2266 
Q 2828 2175 2409 1742 
Q 1991 1309 1228 531 
z
" transform="scale(0.015625)"/>
       </defs>
       <use xlink:href="#DejaVuSans-32"/>
       <use xlink:href="#DejaVuSans-30" x="63.623047"/>
       <use xlink:href="#DejaVuSans-30" x="127.246094"/>
      </g>
     </g>
    </g>
    <g id="ytick_3">
     <g id="line2d_7">
      <g>
       <use xlink:href="#mbb64fafc0e" x="95.4" y="95.818875" style="stroke: #000000; stroke-width: 1.25"/>
      </g>
     </g>
     <g id="text_8">
      <!-- 400 -->
      <g transform="translate(54.405625 102.087586) scale(0.165 -0.165)">
       <defs>
        <path id="DejaVuSans-34" d="M 2419 4116 
L 825 1625 
L 2419 1625 
L 2419 4116 
z
M 2253 4666 
L 3047 4666 
L 3047 1625 
L 3713 1625 
L 3713 1100 
L 3047 1100 
L 3047 0 
L 2419 0 
L 2419 1100 
L 313 1100 
L 313 1709 
L 2253 4666 
z
" transform="scale(0.015625)"/>
       </defs>
       <use xlink:href="#DejaVuSans-34"/>
       <use xlink:href="#DejaVuSans-30" x="63.623047"/>
       <use xlink:href="#DejaVuSans-30" x="127.246094"/>
      </g>
     </g>
    </g>
    <g id="text_9">
     <!-- PC1 -->
     <g transform="translate(46.662188 196.5975) rotate(-90) scale(0.18 -0.18)">
      <defs>
       <path id="DejaVuSans-50" d="M 1259 4147 
L 1259 2394 
L 2053 2394 
Q 2494 2394 2734 2622 
Q 2975 2850 2975 3272 
Q 2975 3691 2734 3919 
Q 2494 4147 2053 4147 
L 1259 4147 
z
M 628 4666 
L 2053 4666 
Q 2838 4666 3239 4311 
Q 3641 3956 3641 3272 
Q 3641 2581 3239 2228 
Q 2838 1875 2053 1875 
L 1259 1875 
L 1259 0 
L 628 0 
L 628 4666 
z
" transform="scale(0.015625)"/>
       <path id="DejaVuSans-43" d="M 4122 4306 
L 4122 3641 
Q 3803 3938 3442 4084 
Q 3081 4231 2675 4231 
Q 1875 4231 1450 3742 
Q 1025 3253 1025 2328 
Q 1025 1406 1450 917 
Q 1875 428 2675 428 
Q 3081 428 3442 575 
Q 3803 722 4122 1019 
L 4122 359 
Q 3791 134 3420 21 
Q 3050 -91 2638 -91 
Q 1578 -91 968 557 
Q 359 1206 359 2328 
Q 359 3453 968 4101 
Q 1578 4750 2638 4750 
Q 3056 4750 3426 4639 
Q 3797 4528 4122 4306 
z
" transform="scale(0.015625)"/>
      </defs>
      <use xlink:href="#DejaVuSans-50"/>
      <use xlink:href="#DejaVuSans-43" x="60.302734"/>
      <use xlink:href="#DejaVuSans-31" x="130.126953"/>
     </g>
    </g>
   </g>
   <g id="line2d_8">
    <path d="M 109.816364 258.014298 
L 116.521649 253.926719 
L 123.226934 255.300319 
L 129.93222 255.900625 
L 136.637505 252.494566 
L 143.342791 253.34714 
L 150.048076 253.026993 
L 156.753362 161.769908 
L 163.458647 218.282575 
L 170.163932 244.039156 
L 176.869218 247.27109 
L 183.574503 233.086996 
L 190.279789 240.056783 
L 196.985074 228.738547 
L 203.690359 252.702477 
L 210.395645 264.523428 
L 217.10093 258.436379 
L 223.806216 253.820137 
L 230.511501 255.453166 
L 237.216786 254.943464 
L 243.922072 255.248724 
L 250.627357 254.303698 
L 257.332643 257.399277 
L 264.037928 254.588785 
L 270.743214 256.644391 
L 277.448499 244.849589 
L 284.153784 114.656782 
L 290.85907 180.72032 
L 297.564355 213.186994 
L 304.269641 215.68758 
L 310.974926 221.950883 
L 317.680211 229.316797 
L 324.385497 219.686001 
L 331.090782 259.779699 
L 337.796068 267.250909 
L 344.501353 266.611407 
L 351.206638 257.26799 
L 357.911924 250.110607 
L 364.617209 257.84656 
L 371.322495 260.301358 
L 378.02778 256.796512 
L 384.733066 255.326835 
L 391.438351 256.144738 
L 398.143636 261.382666 
" clip-path="url(#p187d1bb8c0)" style="fill: none; stroke: #000000; stroke-opacity: 0.75; stroke-width: 1.5; stroke-linecap: square"/>
   </g>
   <g id="line2d_9">
    <path d="M 109.816364 255.296267 
L 116.521649 255.025693 
L 123.226934 254.512465 
L 129.93222 254.095928 
L 136.637505 252.859656 
L 143.342791 252.3183 
L 150.048076 252.126141 
L 156.753362 165.472336 
L 163.458647 216.481797 
L 170.163932 243.871412 
L 176.869218 240.9119 
L 183.574503 235.782718 
L 190.279789 236.796826 
L 196.985074 226.304047 
L 203.690359 250.711652 
L 210.395645 264.251832 
L 217.10093 259.875181 
L 223.806216 253.367982 
L 230.511501 253.938121 
L 237.216786 255.456766 
L 243.922072 253.954891 
L 250.627357 254.660815 
L 257.332643 253.481995 
L 264.037928 253.973941 
L 270.743214 253.843231 
L 277.448499 240.933685 
L 284.153784 91.069091 
L 290.85907 120.923859 
L 297.564355 169.834931 
L 304.269641 193.34355 
L 310.974926 202.96404 
L 317.680211 211.611534 
L 324.385497 213.878637 
L 331.090782 255.387992 
L 337.796068 264.553732 
L 344.501353 261.349822 
L 351.206638 258.107784 
L 357.911924 256.248646 
L 364.617209 259.996207 
L 371.322495 261.507442 
L 378.02778 261.301732 
L 384.733066 260.411243 
L 391.438351 259.842981 
L 398.143636 263.084096 
" clip-path="url(#p187d1bb8c0)" style="fill: none; stroke: #1e90ff; stroke-opacity: 0.75; stroke-width: 1.5; stroke-linecap: square"/>
   </g>
   <g id="line2d_10">
    <path d="M 109.816364 258.161105 
L 116.521649 258.173074 
L 123.226934 258.444868 
L 129.93222 257.29629 
L 136.637505 257.580175 
L 143.342791 257.591915 
L 150.048076 256.956914 
L 156.753362 160.770461 
L 163.458647 175.778743 
L 170.163932 211.340364 
L 176.869218 227.093424 
L 183.574503 225.372932 
L 190.279789 228.012126 
L 196.985074 219.620994 
L 203.690359 245.572903 
L 210.395645 261.086464 
L 217.10093 255.99644 
L 223.806216 252.719443 
L 230.511501 256.10818 
L 237.216786 257.701349 
L 243.922072 258.184393 
L 250.627357 257.824736 
L 257.332643 258.313384 
L 264.037928 257.294903 
L 270.743214 256.685145 
L 277.448499 249.30752 
L 284.153784 121.419771 
L 290.85907 190.035975 
L 297.564355 223.703353 
L 304.269641 226.006746 
L 310.974926 224.443988 
L 317.680211 228.093991 
L 324.385497 224.207239 
L 331.090782 260.295724 
L 337.796068 266.187762 
L 344.501353 261.713418 
L 351.206638 256.280989 
L 357.911924 252.728884 
L 364.617209 257.677194 
L 371.322495 256.376204 
L 378.02778 256.95754 
L 384.733066 255.746824 
L 391.438351 254.599509 
L 398.143636 260.13859 
" clip-path="url(#p187d1bb8c0)" style="fill: none; stroke: #808080; stroke-opacity: 0.75; stroke-width: 1.5; stroke-linecap: square"/>
   </g>
   <g id="line2d_11">
    <path d="M 109.816364 256.992454 
L 116.521649 258.188177 
L 123.226934 258.260859 
L 129.93222 257.793769 
L 136.637505 255.911914 
L 143.342791 255.555558 
L 150.048076 254.604755 
L 156.753362 159.534109 
L 163.458647 176.491371 
L 170.163932 214.209768 
L 176.869218 228.204721 
L 183.574503 228.874079 
L 190.279789 230.177447 
L 196.985074 220.761879 
L 203.690359 246.111852 
L 210.395645 261.625525 
L 217.10093 256.966404 
L 223.806216 254.5425 
L 230.511501 254.49154 
L 237.216786 257.722394 
L 243.922072 257.796422 
L 250.627357 257.021922 
L 257.332643 257.123492 
L 264.037928 255.872134 
L 270.743214 256.323271 
L 277.448499 245.344852 
L 284.153784 100.086543 
L 290.85907 122.71668 
L 297.564355 170.736838 
L 304.269641 194.640068 
L 310.974926 206.248055 
L 317.680211 215.608074 
L 324.385497 216.921913 
L 331.090782 257.875333 
L 337.796068 266.140614 
L 344.501353 264.049676 
L 351.206638 261.07384 
L 357.911924 257.903733 
L 364.617209 260.797514 
L 371.322495 262.221664 
L 378.02778 262.797353 
L 384.733066 262.49665 
L 391.438351 261.162478 
L 398.143636 263.186711 
" clip-path="url(#p187d1bb8c0)" style="fill: none; stroke: #ff00ff; stroke-opacity: 0.75; stroke-width: 1.5; stroke-linecap: square"/>
   </g>
   <g id="patch_5">
    <path d="M 95.4 276.06 
L 95.4 82.26 
" style="fill: none; stroke: #000000; stroke-width: 1.25; stroke-linejoin: miter; stroke-linecap: square"/>
   </g>
   <g id="patch_6">
    <path d="M 95.4 276.06 
L 412.56 276.06 
" style="fill: none; stroke: #000000; stroke-width: 1.25; stroke-linejoin: miter; stroke-linecap: square"/>
   </g>
   <g id="legend_1">
    <g id="patch_7">
     <path d="M 112.6215 74.01 
L 331.9065 74.01 
Q 335.2065 74.01 335.2065 70.71 
L 335.2065 23.922187 
Q 335.2065 20.622187 331.9065 20.622187 
L 112.6215 20.622187 
Q 109.3215 20.622187 109.3215 23.922187 
L 109.3215 70.71 
Q 109.3215 74.01 112.6215 74.01 
z
" style="fill: #ffffff; opacity: 0.8; stroke: #cccccc; stroke-linejoin: miter"/>
    </g>
    <g id="line2d_12">
     <path d="M 115.9215 33.984609 
L 132.4215 33.984609 
L 148.9215 33.984609 
" style="fill: none; stroke: #000000; stroke-opacity: 0.75; stroke-width: 1.5; stroke-linecap: square"/>
    </g>
    <g id="text_10">
     <!-- F$\rightarrow$F -->
     <g transform="translate(162.1215 39.759609) scale(0.165 -0.165)">
      <defs>
       <path id="DejaVuSans-46" d="M 628 4666 
L 3309 4666 
L 3309 4134 
L 1259 4134 
L 1259 2759 
L 3109 2759 
L 3109 2228 
L 1259 2228 
L 1259 0 
L 628 0 
L 628 4666 
z
" transform="scale(0.015625)"/>
       <path id="DejaVuSans-2192" d="M 5050 2147 
L 5050 1866 
L 3822 638 
L 3447 1013 
L 4175 1741 
L 366 1741 
L 366 2272 
L 4175 2272 
L 3447 3000 
L 3822 3375 
L 5050 2147 
z
" transform="scale(0.015625)"/>
      </defs>
      <use xlink:href="#DejaVuSans-46" transform="translate(0 0.09375)"/>
      <use xlink:href="#DejaVuSans-2192" transform="translate(77.001953 0.09375)"/>
      <use xlink:href="#DejaVuSans-46" transform="translate(180.273438 0.09375)"/>
     </g>
    </g>
    <g id="line2d_13">
     <path d="M 115.9215 58.203516 
L 132.4215 58.203516 
L 148.9215 58.203516 
" style="fill: none; stroke: #1e90ff; stroke-opacity: 0.75; stroke-width: 1.5; stroke-linecap: square"/>
    </g>
    <g id="text_11">
     <!-- F$\rightarrow$N -->
     <g transform="translate(162.1215 63.978516) scale(0.165 -0.165)">
      <defs>
       <path id="DejaVuSans-4e" d="M 628 4666 
L 1478 4666 
L 3547 763 
L 3547 4666 
L 4159 4666 
L 4159 0 
L 3309 0 
L 1241 3903 
L 1241 0 
L 628 0 
L 628 4666 
z
" transform="scale(0.015625)"/>
      </defs>
      <use xlink:href="#DejaVuSans-46" transform="translate(0 0.09375)"/>
      <use xlink:href="#DejaVuSans-2192" transform="translate(77.001953 0.09375)"/>
      <use xlink:href="#DejaVuSans-4e" transform="translate(180.273438 0.09375)"/>
     </g>
    </g>
    <g id="line2d_14">
     <path d="M 237.3615 33.984609 
L 253.8615 33.984609 
L 270.3615 33.984609 
" style="fill: none; stroke: #808080; stroke-opacity: 0.75; stroke-width: 1.5; stroke-linecap: square"/>
    </g>
    <g id="text_12">
     <!-- N$\rightarrow$F -->
     <g transform="translate(283.5615 39.759609) scale(0.165 -0.165)">
      <use xlink:href="#DejaVuSans-4e" transform="translate(0 0.09375)"/>
      <use xlink:href="#DejaVuSans-2192" transform="translate(94.287109 0.09375)"/>
      <use xlink:href="#DejaVuSans-46" transform="translate(197.558594 0.09375)"/>
     </g>
    </g>
    <g id="line2d_15">
     <path d="M 237.3615 58.203516 
L 253.8615 58.203516 
L 270.3615 58.203516 
" style="fill: none; stroke: #ff00ff; stroke-opacity: 0.75; stroke-width: 1.5; stroke-linecap: square"/>
    </g>
    <g id="text_13">
     <!-- N$\rightarrow$N -->
     <g transform="translate(283.5615 63.978516) scale(0.165 -0.165)">
      <use xlink:href="#DejaVuSans-4e" transform="translate(0 0.09375)"/>
      <use xlink:href="#DejaVuSans-2192" transform="translate(94.287109 0.09375)"/>
      <use xlink:href="#DejaVuSans-4e" transform="translate(197.558594 0.09375)"/>
     </g>
    </g>
   </g>
  </g>
  <g id="axes_2">
   <g id="patch_8">
    <path d="M 95.4 536.64 
L 412.56 536.64 
L 412.56 342.84 
L 95.4 342.84 
z
" style="fill: #ffffff"/>
   </g>
   <g id="patch_9">
    <path d="M 148.371755 536.64 
L 190.279789 536.64 
L 190.279789 342.84 
L 148.371755 342.84 
z
" clip-path="url(#p9acc43bdd6)" style="fill: #808080; opacity: 0.35; stroke: #808080; stroke-linejoin: miter"/>
   </g>
   <g id="patch_10">
    <path d="M 274.095856 536.64 
L 316.00389 536.64 
L 316.00389 342.84 
L 274.095856 342.84 
z
" clip-path="url(#p9acc43bdd6)" style="fill: #808080; opacity: 0.35; stroke: #808080; stroke-linejoin: miter"/>
   </g>
   <g id="matplotlib.axis_3">
    <g id="xtick_5">
     <g id="line2d_16">
      <g>
       <use xlink:href="#m259fa3b94b" x="106.463721" y="536.64" style="stroke: #000000; stroke-width: 1.25"/>
      </g>
     </g>
     <g id="text_14">
      <!-- −1.0 -->
      <g transform="translate(86.430401 558.677422) scale(0.165 -0.165)">
       <use xlink:href="#DejaVuSans-2212"/>
       <use xlink:href="#DejaVuSans-31" x="83.789062"/>
       <use xlink:href="#DejaVuSans-2e" x="147.412109"/>
       <use xlink:href="#DejaVuSans-30" x="179.199219"/>
      </g>
     </g>
    </g>
    <g id="xtick_6">
     <g id="line2d_17">
      <g>
       <use xlink:href="#m259fa3b94b" x="190.279789" y="536.64" style="stroke: #000000; stroke-width: 1.25"/>
      </g>
     </g>
     <g id="text_15">
      <!-- −0.5 -->
      <g transform="translate(170.246468 558.677422) scale(0.165 -0.165)">
       <use xlink:href="#DejaVuSans-2212"/>
       <use xlink:href="#DejaVuSans-30" x="83.789062"/>
       <use xlink:href="#DejaVuSans-2e" x="147.412109"/>
       <use xlink:href="#DejaVuSans-35" x="179.199219"/>
      </g>
     </g>
    </g>
    <g id="xtick_7">
     <g id="line2d_18">
      <g>
       <use xlink:href="#m259fa3b94b" x="274.095856" y="536.64" style="stroke: #000000; stroke-width: 1.25"/>
      </g>
     </g>
     <g id="text_16">
      <!-- 0.0 -->
      <g transform="translate(260.975778 558.677422) scale(0.165 -0.165)">
       <use xlink:href="#DejaVuSans-30"/>
       <use xlink:href="#DejaVuSans-2e" x="63.623047"/>
       <use xlink:href="#DejaVuSans-30" x="95.410156"/>
      </g>
     </g>
    </g>
    <g id="xtick_8">
     <g id="line2d_19">
      <g>
       <use xlink:href="#m259fa3b94b" x="357.911924" y="536.64" style="stroke: #000000; stroke-width: 1.25"/>
      </g>
     </g>
     <g id="text_17">
      <!-- 0.5 -->
      <g transform="translate(344.791846 558.677422) scale(0.165 -0.165)">
       <use xlink:href="#DejaVuSans-30"/>
       <use xlink:href="#DejaVuSans-2e" x="63.623047"/>
       <use xlink:href="#DejaVuSans-35" x="95.410156"/>
      </g>
     </g>
    </g>
    <g id="text_18">
     <!-- time -->
     <g transform="translate(233.647031 579.786094) scale(0.18 -0.18)">
      <use xlink:href="#DejaVuSans-74"/>
      <use xlink:href="#DejaVuSans-69" x="39.208984"/>
      <use xlink:href="#DejaVuSans-6d" x="66.992188"/>
      <use xlink:href="#DejaVuSans-65" x="164.404297"/>
     </g>
    </g>
   </g>
   <g id="matplotlib.axis_4">
    <g id="ytick_4">
     <g id="line2d_20">
      <g>
       <use xlink:href="#mbb64fafc0e" x="95.4" y="508.460391" style="stroke: #000000; stroke-width: 1.25"/>
      </g>
     </g>
     <g id="text_19">
      <!-- −100 -->
      <g transform="translate(40.579141 514.729102) scale(0.165 -0.165)">
       <use xlink:href="#DejaVuSans-2212"/>
       <use xlink:href="#DejaVuSans-31" x="83.789062"/>
       <use xlink:href="#DejaVuSans-30" x="147.412109"/>
       <use xlink:href="#DejaVuSans-30" x="211.035156"/>
      </g>
     </g>
    </g>
    <g id="ytick_5">
     <g id="line2d_21">
      <g>
       <use xlink:href="#mbb64fafc0e" x="95.4" y="457.151806" style="stroke: #000000; stroke-width: 1.25"/>
      </g>
     </g>
     <g id="text_20">
      <!-- 0 -->
      <g transform="translate(75.401875 463.420517) scale(0.165 -0.165)">
       <use xlink:href="#DejaVuSans-30"/>
      </g>
     </g>
    </g>
    <g id="ytick_6">
     <g id="line2d_22">
      <g>
       <use xlink:href="#mbb64fafc0e" x="95.4" y="405.84322" style="stroke: #000000; stroke-width: 1.25"/>
      </g>
     </g>
     <g id="text_21">
      <!-- 100 -->
      <g transform="translate(54.405625 412.111931) scale(0.165 -0.165)">
       <use xlink:href="#DejaVuSans-31"/>
       <use xlink:href="#DejaVuSans-30" x="63.623047"/>
       <use xlink:href="#DejaVuSans-30" x="127.246094"/>
      </g>
     </g>
    </g>
    <g id="ytick_7">
     <g id="line2d_23">
      <g>
       <use xlink:href="#mbb64fafc0e" x="95.4" y="354.534635" style="stroke: #000000; stroke-width: 1.25"/>
      </g>
     </g>
     <g id="text_22">
      <!-- 200 -->
      <g transform="translate(54.405625 360.803346) scale(0.165 -0.165)">
       <use xlink:href="#DejaVuSans-32"/>
       <use xlink:href="#DejaVuSans-30" x="63.623047"/>
       <use xlink:href="#DejaVuSans-30" x="127.246094"/>
      </g>
     </g>
    </g>
    <g id="text_23">
     <!-- PC2 -->
     <g transform="translate(32.835703 457.1775) rotate(-90) scale(0.18 -0.18)">
      <use xlink:href="#DejaVuSans-50"/>
      <use xlink:href="#DejaVuSans-43" x="60.302734"/>
      <use xlink:href="#DejaVuSans-32" x="130.126953"/>
     </g>
    </g>
   </g>
   <g id="line2d_24">
    <path d="M 109.816364 454.860261 
L 116.521649 452.31471 
L 123.226934 451.935212 
L 129.93222 448.665007 
L 136.637505 447.397056 
L 143.342791 444.992317 
L 150.048076 441.597923 
L 156.753362 366.300744 
L 163.458647 444.393904 
L 170.163932 463.657128 
L 176.869218 458.579312 
L 183.574503 459.872381 
L 190.279789 463.771902 
L 196.985074 473.404496 
L 203.690359 464.457397 
L 210.395645 458.272638 
L 217.10093 457.905569 
L 223.806216 459.109725 
L 230.511501 453.161759 
L 237.216786 454.436924 
L 243.922072 451.541218 
L 250.627357 450.789948 
L 257.332643 448.873204 
L 264.037928 447.550399 
L 270.743214 448.391543 
L 277.448499 435.342197 
L 284.153784 351.649091 
L 290.85907 445.746197 
L 297.564355 474.240846 
L 304.269641 477.379465 
L 310.974926 472.117204 
L 317.680211 472.995993 
L 324.385497 490.522712 
L 331.090782 464.175217 
L 337.796068 454.594543 
L 344.501353 454.267853 
L 351.206638 450.794069 
L 357.911924 447.329481 
L 364.617209 448.419455 
L 371.322495 449.867135 
L 378.02778 453.266728 
L 384.733066 451.351454 
L 391.438351 447.238885 
L 398.143636 450.473244 
" clip-path="url(#p9acc43bdd6)" style="fill: none; stroke: #000000; stroke-opacity: 0.75; stroke-width: 1.5; stroke-linecap: square"/>
   </g>
   <g id="line2d_25">
    <path d="M 109.816364 452.54846 
L 116.521649 452.164444 
L 123.226934 453.033258 
L 129.93222 449.954408 
L 136.637505 449.367461 
L 143.342791 447.591602 
L 150.048076 446.408395 
L 156.753362 372.146526 
L 163.458647 442.154486 
L 170.163932 459.394993 
L 176.869218 461.819369 
L 183.574503 460.101308 
L 190.279789 465.889157 
L 196.985074 475.497187 
L 203.690359 464.020904 
L 210.395645 457.27963 
L 217.10093 456.440931 
L 223.806216 456.977086 
L 230.511501 455.105737 
L 237.216786 452.159321 
L 243.922072 452.102288 
L 250.627357 450.175802 
L 257.332643 449.859034 
L 264.037928 448.011811 
L 270.743214 446.025593 
L 277.448499 436.178726 
L 284.153784 418.595668 
L 290.85907 527.830909 
L 297.564355 523.281623 
L 304.269641 512.467791 
L 310.974926 508.170968 
L 317.680211 503.127767 
L 324.385497 489.115848 
L 331.090782 467.817937 
L 337.796068 459.479743 
L 344.501353 458.097695 
L 351.206638 456.868387 
L 357.911924 454.964179 
L 364.617209 453.494795 
L 371.322495 453.111883 
L 378.02778 451.50489 
L 384.733066 451.763619 
L 391.438351 450.935065 
L 398.143636 451.098124 
" clip-path="url(#p9acc43bdd6)" style="fill: none; stroke: #1e90ff; stroke-opacity: 0.75; stroke-width: 1.5; stroke-linecap: square"/>
   </g>
   <g id="line2d_26">
    <path d="M 109.816364 452.751635 
L 116.521649 453.074177 
L 123.226934 450.84781 
L 129.93222 448.630436 
L 136.637505 447.40479 
L 143.342791 447.525947 
L 150.048076 447.269975 
L 156.753362 401.589974 
L 163.458647 489.504681 
L 170.163932 492.400431 
L 176.869218 486.942824 
L 183.574503 486.498096 
L 190.279789 485.860063 
L 196.985074 484.397364 
L 203.690359 467.271382 
L 210.395645 460.082137 
L 217.10093 460.198884 
L 223.806216 458.3573 
L 230.511501 454.461959 
L 237.216786 453.615706 
L 243.922072 451.988935 
L 250.627357 450.017288 
L 257.332643 450.187415 
L 264.037928 446.800678 
L 270.743214 446.423605 
L 277.448499 438.221113 
L 284.153784 359.227969 
L 290.85907 449.876138 
L 297.564355 467.449037 
L 304.269641 469.575427 
L 310.974926 466.445451 
L 317.680211 470.832 
L 324.385497 479.852706 
L 331.090782 461.666404 
L 337.796068 455.587765 
L 344.501353 455.007262 
L 351.206638 453.630136 
L 357.911924 450.296892 
L 364.617209 450.809211 
L 371.322495 451.17982 
L 378.02778 447.365846 
L 384.733066 446.881293 
L 391.438351 445.204781 
L 398.143636 447.092809 
" clip-path="url(#p9acc43bdd6)" style="fill: none; stroke: #808080; stroke-opacity: 0.75; stroke-width: 1.5; stroke-linecap: square"/>
   </g>
   <g id="line2d_27">
    <path d="M 109.816364 451.078508 
L 116.521649 451.65049 
L 123.226934 449.965087 
L 129.93222 448.449948 
L 136.637505 447.564747 
L 143.342791 447.027475 
L 150.048076 444.662627 
L 156.753362 401.697292 
L 163.458647 487.972788 
L 170.163932 493.166291 
L 176.869218 485.607736 
L 183.574503 484.890356 
L 190.279789 484.924706 
L 196.985074 483.721112 
L 203.690359 466.690777 
L 210.395645 459.863626 
L 217.10093 458.993796 
L 223.806216 457.866403 
L 230.511501 454.114158 
L 237.216786 451.912186 
L 243.922072 451.487881 
L 250.627357 449.684177 
L 257.332643 448.189864 
L 264.037928 446.939894 
L 270.743214 447.34522 
L 277.448499 439.356899 
L 284.153784 418.304668 
L 290.85907 526.302297 
L 297.564355 520.128221 
L 304.269641 510.905933 
L 310.974926 503.742487 
L 317.680211 499.448626 
L 324.385497 487.626599 
L 331.090782 465.291017 
L 337.796068 457.191519 
L 344.501353 456.70551 
L 351.206638 454.861967 
L 357.911924 452.237297 
L 364.617209 452.28046 
L 371.322495 452.817203 
L 378.02778 450.86356 
L 384.733066 451.171953 
L 391.438351 451.038914 
L 398.143636 450.530725 
" clip-path="url(#p9acc43bdd6)" style="fill: none; stroke: #ff00ff; stroke-opacity: 0.75; stroke-width: 1.5; stroke-linecap: square"/>
   </g>
   <g id="patch_11">
    <path d="M 95.4 536.64 
L 95.4 342.84 
" style="fill: none; stroke: #000000; stroke-width: 1.25; stroke-linejoin: miter; stroke-linecap: square"/>
   </g>
   <g id="patch_12">
    <path d="M 95.4 536.64 
L 412.56 536.64 
" style="fill: none; stroke: #000000; stroke-width: 1.25; stroke-linejoin: miter; stroke-linecap: square"/>
   </g>
  </g>
  <g id="axes_3">
   <g id="patch_13">
    <path d="M 95.4 797.22 
L 412.56 797.22 
L 412.56 603.42 
L 95.4 603.42 
z
" style="fill: #ffffff"/>
   </g>
   <g id="patch_14">
    <path d="M 148.371755 797.22 
L 190.279789 797.22 
L 190.279789 603.42 
L 148.371755 603.42 
z
" clip-path="url(#p9d2bbf3a2c)" style="fill: #808080; opacity: 0.35; stroke: #808080; stroke-linejoin: miter"/>
   </g>
   <g id="patch_15">
    <path d="M 274.095856 797.22 
L 316.00389 797.22 
L 316.00389 603.42 
L 274.095856 603.42 
z
" clip-path="url(#p9d2bbf3a2c)" style="fill: #808080; opacity: 0.35; stroke: #808080; stroke-linejoin: miter"/>
   </g>
   <g id="matplotlib.axis_5">
    <g id="xtick_9">
     <g id="line2d_28">
      <g>
       <use xlink:href="#m259fa3b94b" x="106.463721" y="797.22" style="stroke: #000000; stroke-width: 1.25"/>
      </g>
     </g>
     <g id="text_24">
      <!-- −1.0 -->
      <g transform="translate(86.430401 819.257422) scale(0.165 -0.165)">
       <use xlink:href="#DejaVuSans-2212"/>
       <use xlink:href="#DejaVuSans-31" x="83.789062"/>
       <use xlink:href="#DejaVuSans-2e" x="147.412109"/>
       <use xlink:href="#DejaVuSans-30" x="179.199219"/>
      </g>
     </g>
    </g>
    <g id="xtick_10">
     <g id="line2d_29">
      <g>
       <use xlink:href="#m259fa3b94b" x="190.279789" y="797.22" style="stroke: #000000; stroke-width: 1.25"/>
      </g>
     </g>
     <g id="text_25">
      <!-- −0.5 -->
      <g transform="translate(170.246468 819.257422) scale(0.165 -0.165)">
       <use xlink:href="#DejaVuSans-2212"/>
       <use xlink:href="#DejaVuSans-30" x="83.789062"/>
       <use xlink:href="#DejaVuSans-2e" x="147.412109"/>
       <use xlink:href="#DejaVuSans-35" x="179.199219"/>
      </g>
     </g>
    </g>
    <g id="xtick_11">
     <g id="line2d_30">
      <g>
       <use xlink:href="#m259fa3b94b" x="274.095856" y="797.22" style="stroke: #000000; stroke-width: 1.25"/>
      </g>
     </g>
     <g id="text_26">
      <!-- 0.0 -->
      <g transform="translate(260.975778 819.257422) scale(0.165 -0.165)">
       <use xlink:href="#DejaVuSans-30"/>
       <use xlink:href="#DejaVuSans-2e" x="63.623047"/>
       <use xlink:href="#DejaVuSans-30" x="95.410156"/>
      </g>
     </g>
    </g>
    <g id="xtick_12">
     <g id="line2d_31">
      <g>
       <use xlink:href="#m259fa3b94b" x="357.911924" y="797.22" style="stroke: #000000; stroke-width: 1.25"/>
      </g>
     </g>
     <g id="text_27">
      <!-- 0.5 -->
      <g transform="translate(344.791846 819.257422) scale(0.165 -0.165)">
       <use xlink:href="#DejaVuSans-30"/>
       <use xlink:href="#DejaVuSans-2e" x="63.623047"/>
       <use xlink:href="#DejaVuSans-35" x="95.410156"/>
      </g>
     </g>
    </g>
    <g id="text_28">
     <!-- time -->
     <g transform="translate(233.647031 840.366094) scale(0.18 -0.18)">
      <use xlink:href="#DejaVuSans-74"/>
      <use xlink:href="#DejaVuSans-69" x="39.208984"/>
      <use xlink:href="#DejaVuSans-6d" x="66.992188"/>
      <use xlink:href="#DejaVuSans-65" x="164.404297"/>
     </g>
    </g>
   </g>
   <g id="matplotlib.axis_6">
    <g id="ytick_8">
     <g id="line2d_32">
      <g>
       <use xlink:href="#mbb64fafc0e" x="95.4" y="768.167104" style="stroke: #000000; stroke-width: 1.25"/>
      </g>
     </g>
     <g id="text_29">
      <!-- −100 -->
      <g transform="translate(40.579141 774.435815) scale(0.165 -0.165)">
       <use xlink:href="#DejaVuSans-2212"/>
       <use xlink:href="#DejaVuSans-31" x="83.789062"/>
       <use xlink:href="#DejaVuSans-30" x="147.412109"/>
       <use xlink:href="#DejaVuSans-30" x="211.035156"/>
      </g>
     </g>
    </g>
    <g id="ytick_9">
     <g id="line2d_33">
      <g>
       <use xlink:href="#mbb64fafc0e" x="95.4" y="704.814043" style="stroke: #000000; stroke-width: 1.25"/>
      </g>
     </g>
     <g id="text_30">
      <!-- 0 -->
      <g transform="translate(75.401875 711.082754) scale(0.165 -0.165)">
       <use xlink:href="#DejaVuSans-30"/>
      </g>
     </g>
    </g>
    <g id="ytick_10">
     <g id="line2d_34">
      <g>
       <use xlink:href="#mbb64fafc0e" x="95.4" y="641.460982" style="stroke: #000000; stroke-width: 1.25"/>
      </g>
     </g>
     <g id="text_31">
      <!-- 100 -->
      <g transform="translate(54.405625 647.729693) scale(0.165 -0.165)">
       <use xlink:href="#DejaVuSans-31"/>
       <use xlink:href="#DejaVuSans-30" x="63.623047"/>
       <use xlink:href="#DejaVuSans-30" x="127.246094"/>
      </g>
     </g>
    </g>
    <g id="text_32">
     <!-- PC3 -->
     <g transform="translate(32.835703 717.7575) rotate(-90) scale(0.18 -0.18)">
      <defs>
       <path id="DejaVuSans-33" d="M 2597 2516 
Q 3050 2419 3304 2112 
Q 3559 1806 3559 1356 
Q 3559 666 3084 287 
Q 2609 -91 1734 -91 
Q 1441 -91 1130 -33 
Q 819 25 488 141 
L 488 750 
Q 750 597 1062 519 
Q 1375 441 1716 441 
Q 2309 441 2620 675 
Q 2931 909 2931 1356 
Q 2931 1769 2642 2001 
Q 2353 2234 1838 2234 
L 1294 2234 
L 1294 2753 
L 1863 2753 
Q 2328 2753 2575 2939 
Q 2822 3125 2822 3475 
Q 2822 3834 2567 4026 
Q 2313 4219 1838 4219 
Q 1578 4219 1281 4162 
Q 984 4106 628 3988 
L 628 4550 
Q 988 4650 1302 4700 
Q 1616 4750 1894 4750 
Q 2613 4750 3031 4423 
Q 3450 4097 3450 3541 
Q 3450 3153 3228 2886 
Q 3006 2619 2597 2516 
z
" transform="scale(0.015625)"/>
      </defs>
      <use xlink:href="#DejaVuSans-50"/>
      <use xlink:href="#DejaVuSans-43" x="60.302734"/>
      <use xlink:href="#DejaVuSans-33" x="130.126953"/>
     </g>
    </g>
   </g>
   <g id="line2d_35">
    <path d="M 109.816364 708.302801 
L 116.521649 714.530371 
L 123.226934 710.531645 
L 129.93222 708.864742 
L 136.637505 709.164935 
L 143.342791 711.275667 
L 150.048076 711.086154 
L 156.753362 689.378563 
L 163.458647 634.016978 
L 170.163932 657.9075 
L 176.869218 669.873017 
L 183.574503 657.784079 
L 190.279789 664.792216 
L 196.985074 691.256715 
L 203.690359 712.886633 
L 210.395645 713.850514 
L 217.10093 711.733886 
L 223.806216 710.044845 
L 230.511501 707.869494 
L 237.216786 709.017979 
L 243.922072 711.883014 
L 250.627357 710.901357 
L 257.332643 709.761782 
L 264.037928 713.735381 
L 270.743214 710.311191 
L 277.448499 712.939028 
L 284.153784 660.873778 
L 290.85907 612.229091 
L 297.564355 642.315158 
L 304.269641 641.921603 
L 310.974926 642.130317 
L 317.680211 656.583436 
L 324.385497 695.388626 
L 331.090782 716.888298 
L 337.796068 711.746323 
L 344.501353 714.004627 
L 351.206638 713.823652 
L 357.911924 710.523828 
L 364.617209 710.562668 
L 371.322495 710.962424 
L 378.02778 708.517081 
L 384.733066 706.224092 
L 391.438351 711.612675 
L 398.143636 710.681351 
" clip-path="url(#p9d2bbf3a2c)" style="fill: none; stroke: #000000; stroke-opacity: 0.75; stroke-width: 1.5; stroke-linecap: square"/>
   </g>
   <g id="line2d_36">
    <path d="M 109.816364 709.702566 
L 116.521649 709.524865 
L 123.226934 707.845429 
L 129.93222 708.674604 
L 136.637505 710.176718 
L 143.342791 709.827575 
L 150.048076 708.53332 
L 156.753362 688.377701 
L 163.458647 633.1079 
L 170.163932 662.0299 
L 176.869218 661.531225 
L 183.574503 657.240996 
L 190.279789 669.659952 
L 196.985074 692.828565 
L 203.690359 720.798875 
L 210.395645 715.302039 
L 217.10093 713.030761 
L 223.806216 710.256823 
L 230.511501 711.794868 
L 237.216786 711.567578 
L 243.922072 710.542548 
L 250.627357 709.752747 
L 257.332643 710.987769 
L 264.037928 708.55296 
L 270.743214 709.232139 
L 277.448499 718.007489 
L 284.153784 788.410909 
L 290.85907 761.022255 
L 297.564355 724.954292 
L 304.269641 700.568309 
L 310.974926 698.455072 
L 317.680211 696.353484 
L 324.385497 727.087792 
L 331.090782 724.586197 
L 337.796068 718.695759 
L 344.501353 716.913369 
L 351.206638 717.628568 
L 357.911924 716.937295 
L 364.617209 714.998472 
L 371.322495 712.433918 
L 378.02778 713.697038 
L 384.733066 712.290736 
L 391.438351 713.968282 
L 398.143636 712.98977 
" clip-path="url(#p9d2bbf3a2c)" style="fill: none; stroke: #1e90ff; stroke-opacity: 0.75; stroke-width: 1.5; stroke-linecap: square"/>
   </g>
   <g id="line2d_37">
    <path d="M 109.816364 711.513827 
L 116.521649 712.541258 
L 123.226934 709.96562 
L 129.93222 711.024123 
L 136.637505 710.819896 
L 143.342791 710.387759 
L 150.048076 709.018779 
L 156.753362 756.665041 
L 163.458647 731.889958 
L 170.163932 705.779132 
L 176.869218 693.10366 
L 183.574503 692.180996 
L 190.279789 694.824047 
L 196.985074 715.188936 
L 203.690359 725.19208 
L 210.395645 719.351386 
L 217.10093 714.221919 
L 223.806216 712.954785 
L 230.511501 714.399141 
L 237.216786 711.01126 
L 243.922072 710.322419 
L 250.627357 711.859516 
L 257.332643 711.259464 
L 264.037928 708.850817 
L 270.743214 709.664153 
L 277.448499 709.964122 
L 284.153784 663.941655 
L 290.85907 615.948177 
L 297.564355 642.566042 
L 304.269641 646.430334 
L 310.974926 647.309697 
L 317.680211 656.279335 
L 324.385497 698.369184 
L 331.090782 711.836901 
L 337.796068 712.929221 
L 344.501353 710.337407 
L 351.206638 710.596829 
L 357.911924 710.258738 
L 364.617209 711.409951 
L 371.322495 707.83876 
L 378.02778 707.061069 
L 384.733066 707.347162 
L 391.438351 706.02613 
L 398.143636 709.753253 
" clip-path="url(#p9d2bbf3a2c)" style="fill: none; stroke: #808080; stroke-opacity: 0.75; stroke-width: 1.5; stroke-linecap: square"/>
   </g>
   <g id="line2d_38">
    <path d="M 109.816364 710.586309 
L 116.521649 711.559078 
L 123.226934 709.284618 
L 129.93222 709.203629 
L 136.637505 709.50451 
L 143.342791 711.298607 
L 150.048076 709.979921 
L 156.753362 757.679029 
L 163.458647 729.010012 
L 170.163932 702.150216 
L 176.869218 690.105293 
L 183.574503 690.841548 
L 190.279789 692.740305 
L 196.985074 714.027347 
L 203.690359 726.302854 
L 210.395645 717.871797 
L 217.10093 713.889872 
L 223.806216 712.642535 
L 230.511501 713.144395 
L 237.216786 711.066854 
L 243.922072 710.774264 
L 250.627357 710.449741 
L 257.332643 711.626631 
L 264.037928 710.038273 
L 270.743214 710.082441 
L 277.448499 715.233197 
L 284.153784 783.838845 
L 290.85907 758.882017 
L 297.564355 720.729887 
L 304.269641 699.297619 
L 310.974926 694.428181 
L 317.680211 692.880499 
L 324.385497 723.244339 
L 331.090782 720.500572 
L 337.796068 717.901133 
L 344.501353 715.563883 
L 351.206638 714.325661 
L 357.911924 715.267531 
L 364.617209 713.984719 
L 371.322495 712.681382 
L 378.02778 713.003672 
L 384.733066 712.702049 
L 391.438351 712.626931 
L 398.143636 712.556463 
" clip-path="url(#p9d2bbf3a2c)" style="fill: none; stroke: #ff00ff; stroke-opacity: 0.75; stroke-width: 1.5; stroke-linecap: square"/>
   </g>
   <g id="patch_16">
    <path d="M 95.4 797.22 
L 95.4 603.42 
" style="fill: none; stroke: #000000; stroke-width: 1.25; stroke-linejoin: miter; stroke-linecap: square"/>
   </g>
   <g id="patch_17">
    <path d="M 95.4 797.22 
L 412.56 797.22 
" style="fill: none; stroke: #000000; stroke-width: 1.25; stroke-linejoin: miter; stroke-linecap: square"/>
   </g>
  </g>
 </g>
 <defs>
  <clipPath id="p187d1bb8c0">
   <rect x="95.4" y="82.26" width="317.16" height="193.8"/>
  </clipPath>
  <clipPath id="p9acc43bdd6">
   <rect x="95.4" y="342.84" width="317.16" height="193.8"/>
  </clipPath>
  <clipPath id="p9d2bbf3a2c">
   <rect x="95.4" y="603.42" width="317.16" height="193.8"/>
  </clipPath>
 </defs>
</svg>
