<?xml version="1.0" encoding="utf-8" standalone="no"?>
<!DOCTYPE svg PUBLIC "-//W3C//DTD SVG 1.1//EN"
  "http://www.w3.org/Graphics/SVG/1.1/DTD/svg11.dtd">
<svg xmlns:xlink="http://www.w3.org/1999/xlink" width="360pt" height="288pt" viewBox="0 0 360 288" xmlns="http://www.w3.org/2000/svg" version="1.1">
 <metadata>
  <rdf:RDF xmlns:dc="http://purl.org/dc/elements/1.1/" xmlns:cc="http://creativecommons.org/ns#" xmlns:rdf="http://www.w3.org/1999/02/22-rdf-syntax-ns#">
   <cc:Work>
    <dc:type rdf:resource="http://purl.org/dc/dcmitype/StillImage"/>
    <dc:date>2024-08-29T21:55:53.258897</dc:date>
    <dc:format>image/svg+xml</dc:format>
    <dc:creator>
     <cc:Agent>
      <dc:title>Matplotlib v3.9.2, https://matplotlib.org/</dc:title>
     </cc:Agent>
    </dc:creator>
   </cc:Work>
  </rdf:RDF>
 </metadata>
 <defs>
  <style type="text/css">*{stroke-linejoin: round; stroke-linecap: butt}</style>
 </defs>
 <g id="figure_1">
  <g id="patch_1">
   <path d="M 0 288 
L 360 288 
L 360 0 
L 0 0 
z
" style="fill: #ffffff"/>
  </g>
  <g id="axes_1">
   <g id="patch_2">
    <path d="M 84.96 221.22 
L 340.56 221.22 
L 340.56 19.44 
L 84.96 19.44 
z
" style="fill: #ffffff"/>
   </g>
   <g id="matplotlib.axis_1">
    <g id="xtick_1">
     <g id="line2d_1">
      <defs>
       <path id="m21f43c9dd2" d="M 0 0 
L 0 6 
" style="stroke: #000000; stroke-width: 1.25"/>
      </defs>
      <g>
       <use xlink:href="#m21f43c9dd2" x="139.095676" y="221.22" style="stroke: #000000; stroke-width: 1.25"/>
      </g>
     </g>
     <g id="text_1">
      <!-- 0 -->
      <g transform="translate(133.846614 243.257422) scale(0.165 -0.165)">
       <defs>
        <path id="DejaVuSans-30" d="M 2034 4250 
Q 1547 4250 1301 3770 
Q 1056 3291 1056 2328 
Q 1056 1369 1301 889 
Q 1547 409 2034 409 
Q 2525 409 2770 889 
Q 3016 1369 3016 2328 
Q 3016 3291 2770 3770 
Q 2525 4250 2034 4250 
z
M 2034 4750 
Q 2819 4750 3233 4129 
Q 3647 3509 3647 2328 
Q 3647 1150 3233 529 
Q 2819 -91 2034 -91 
Q 1250 -91 836 529 
Q 422 1150 422 2328 
Q 422 3509 836 4129 
Q 1250 4750 2034 4750 
z
" transform="scale(0.015625)"/>
       </defs>
       <use xlink:href="#DejaVuSans-30"/>
      </g>
     </g>
    </g>
    <g id="xtick_2">
     <g id="line2d_2">
      <g>
       <use xlink:href="#m21f43c9dd2" x="197.870442" y="221.22" style="stroke: #000000; stroke-width: 1.25"/>
      </g>
     </g>
     <g id="text_2">
      <!-- 100 -->
      <g transform="translate(182.123255 243.257422) scale(0.165 -0.165)">
       <defs>
        <path id="DejaVuSans-31" d="M 794 531 
L 1825 531 
L 1825 4091 
L 703 3866 
L 703 4441 
L 1819 4666 
L 2450 4666 
L 2450 531 
L 3481 531 
L 3481 0 
L 794 0 
L 794 531 
z
" transform="scale(0.015625)"/>
       </defs>
       <use xlink:href="#DejaVuSans-31"/>
       <use xlink:href="#DejaVuSans-30" x="63.623047"/>
       <use xlink:href="#DejaVuSans-30" x="127.246094"/>
      </g>
     </g>
    </g>
    <g id="xtick_3">
     <g id="line2d_3">
      <g>
       <use xlink:href="#m21f43c9dd2" x="256.645208" y="221.22" style="stroke: #000000; stroke-width: 1.25"/>
      </g>
     </g>
     <g id="text_3">
      <!-- 200 -->
      <g transform="translate(240.89802 243.257422) scale(0.165 -0.165)">
       <defs>
        <path id="DejaVuSans-32" d="M 1228 531 
L 3431 531 
L 3431 0 
L 469 0 
L 469 531 
Q 828 903 1448 1529 
Q 2069 2156 2228 2338 
Q 2531 2678 2651 2914 
Q 2772 3150 2772 3378 
Q 2772 3750 2511 3984 
Q 2250 4219 1831 4219 
Q 1534 4219 1204 4116 
Q 875 4013 500 3803 
L 500 4441 
Q 881 4594 1212 4672 
Q 1544 4750 1819 4750 
Q 2544 4750 2975 4387 
Q 3406 4025 3406 3419 
Q 3406 3131 3298 2873 
Q 3191 2616 2906 2266 
Q 2828 2175 2409 1742 
Q 1991 1309 1228 531 
z
" transform="scale(0.015625)"/>
       </defs>
       <use xlink:href="#DejaVuSans-32"/>
       <use xlink:href="#DejaVuSans-30" x="63.623047"/>
       <use xlink:href="#DejaVuSans-30" x="127.246094"/>
      </g>
     </g>
    </g>
    <g id="xtick_4">
     <g id="line2d_4">
      <g>
       <use xlink:href="#m21f43c9dd2" x="315.419973" y="221.22" style="stroke: #000000; stroke-width: 1.25"/>
      </g>
     </g>
     <g id="text_4">
      <!-- 300 -->
      <g transform="translate(299.672786 243.257422) scale(0.165 -0.165)">
       <defs>
        <path id="DejaVuSans-33" d="M 2597 2516 
Q 3050 2419 3304 2112 
Q 3559 1806 3559 1356 
Q 3559 666 3084 287 
Q 2609 -91 1734 -91 
Q 1441 -91 1130 -33 
Q 819 25 488 141 
L 488 750 
Q 750 597 1062 519 
Q 1375 441 1716 441 
Q 2309 441 2620 675 
Q 2931 909 2931 1356 
Q 2931 1769 2642 2001 
Q 2353 2234 1838 2234 
L 1294 2234 
L 1294 2753 
L 1863 2753 
Q 2328 2753 2575 2939 
Q 2822 3125 2822 3475 
Q 2822 3834 2567 4026 
Q 2313 4219 1838 4219 
Q 1578 4219 1281 4162 
Q 984 4106 628 3988 
L 628 4550 
Q 988 4650 1302 4700 
Q 1616 4750 1894 4750 
Q 2613 4750 3031 4423 
Q 3450 4097 3450 3541 
Q 3450 3153 3228 2886 
Q 3006 2619 2597 2516 
z
" transform="scale(0.015625)"/>
       </defs>
       <use xlink:href="#DejaVuSans-33"/>
       <use xlink:href="#DejaVuSans-30" x="63.623047"/>
       <use xlink:href="#DejaVuSans-30" x="127.246094"/>
      </g>
     </g>
    </g>
    <g id="text_5">
     <!-- PC1 -->
     <g transform="translate(195.3225 264.366094) scale(0.18 -0.18)">
      <defs>
       <path id="DejaVuSans-50" d="M 1259 4147 
L 1259 2394 
L 2053 2394 
Q 2494 2394 2734 2622 
Q 2975 2850 2975 3272 
Q 2975 3691 2734 3919 
Q 2494 4147 2053 4147 
L 1259 4147 
z
M 628 4666 
L 2053 4666 
Q 2838 4666 3239 4311 
Q 3641 3956 3641 3272 
Q 3641 2581 3239 2228 
Q 2838 1875 2053 1875 
L 1259 1875 
L 1259 0 
L 628 0 
L 628 4666 
z
" transform="scale(0.015625)"/>
       <path id="DejaVuSans-43" d="M 4122 4306 
L 4122 3641 
Q 3803 3938 3442 4084 
Q 3081 4231 2675 4231 
Q 1875 4231 1450 3742 
Q 1025 3253 1025 2328 
Q 1025 1406 1450 917 
Q 1875 428 2675 428 
Q 3081 428 3442 575 
Q 3803 722 4122 1019 
L 4122 359 
Q 3791 134 3420 21 
Q 3050 -91 2638 -91 
Q 1578 -91 968 557 
Q 359 1206 359 2328 
Q 359 3453 968 4101 
Q 1578 4750 2638 4750 
Q 3056 4750 3426 4639 
Q 3797 4528 4122 4306 
z
" transform="scale(0.015625)"/>
      </defs>
      <use xlink:href="#DejaVuSans-50"/>
      <use xlink:href="#DejaVuSans-43" x="60.302734"/>
      <use xlink:href="#DejaVuSans-31" x="130.126953"/>
     </g>
    </g>
   </g>
   <g id="matplotlib.axis_2">
    <g id="ytick_1">
     <g id="line2d_5">
      <defs>
       <path id="md3b331b675" d="M 0 0 
L -6 0 
" style="stroke: #000000; stroke-width: 1.25"/>
      </defs>
      <g>
       <use xlink:href="#md3b331b675" x="84.96" y="169.99294" style="stroke: #000000; stroke-width: 1.25"/>
      </g>
     </g>
     <g id="text_6">
      <!-- −50 -->
      <g transform="translate(40.637266 176.261651) scale(0.165 -0.165)">
       <defs>
        <path id="DejaVuSans-2212" d="M 678 2272 
L 4684 2272 
L 4684 1741 
L 678 1741 
L 678 2272 
z
" transform="scale(0.015625)"/>
        <path id="DejaVuSans-35" d="M 691 4666 
L 3169 4666 
L 3169 4134 
L 1269 4134 
L 1269 2991 
Q 1406 3038 1543 3061 
Q 1681 3084 1819 3084 
Q 2600 3084 3056 2656 
Q 3513 2228 3513 1497 
Q 3513 744 3044 326 
Q 2575 -91 1722 -91 
Q 1428 -91 1123 -41 
Q 819 9 494 109 
L 494 744 
Q 775 591 1075 516 
Q 1375 441 1709 441 
Q 2250 441 2565 725 
Q 2881 1009 2881 1497 
Q 2881 1984 2565 2268 
Q 2250 2553 1709 2553 
Q 1456 2553 1204 2497 
Q 953 2441 691 2322 
L 691 4666 
z
" transform="scale(0.015625)"/>
       </defs>
       <use xlink:href="#DejaVuSans-2212"/>
       <use xlink:href="#DejaVuSans-35" x="83.789062"/>
       <use xlink:href="#DejaVuSans-30" x="147.412109"/>
      </g>
     </g>
    </g>
    <g id="ytick_2">
     <g id="line2d_6">
      <g>
       <use xlink:href="#md3b331b675" x="84.96" y="113.23215" style="stroke: #000000; stroke-width: 1.25"/>
      </g>
     </g>
     <g id="text_7">
      <!-- 0 -->
      <g transform="translate(64.961875 119.500861) scale(0.165 -0.165)">
       <use xlink:href="#DejaVuSans-30"/>
      </g>
     </g>
    </g>
    <g id="ytick_3">
     <g id="line2d_7">
      <g>
       <use xlink:href="#md3b331b675" x="84.96" y="56.47136" style="stroke: #000000; stroke-width: 1.25"/>
      </g>
     </g>
     <g id="text_8">
      <!-- 50 -->
      <g transform="translate(54.46375 62.740071) scale(0.165 -0.165)">
       <use xlink:href="#DejaVuSans-35"/>
       <use xlink:href="#DejaVuSans-30" x="63.623047"/>
      </g>
     </g>
    </g>
    <g id="text_9">
     <!-- PC3 -->
     <g transform="translate(32.893828 137.7675) rotate(-90) scale(0.18 -0.18)">
      <use xlink:href="#DejaVuSans-50"/>
      <use xlink:href="#DejaVuSans-43" x="60.302734"/>
      <use xlink:href="#DejaVuSans-33" x="130.126953"/>
     </g>
    </g>
   </g>
   <g id="line2d_8">
    <path d="M 153.364829 111.974312 
L 133.207257 128.351435 
L 119.588192 119.602404 
L 107.148251 126.820188 
L 102.060512 128.388922 
L 106.315432 121.384557 
L 116.989812 110.570657 
L 193.791906 132.808822 
L 118.390517 117.123888 
L 96.578182 137.807413 
L 100.725839 135.676596 
L 106.246268 121.137193 
L 168.231086 112.351295 
L 199.531844 57.483161 
L 146.574028 84.205393 
L 123.298207 108.604462 
L 111.687829 109.792618 
L 112.909496 116.664796 
L 123.249222 104.983327 
L 121.538977 102.442267 
L 116.586516 118.088542 
L 115.4436 111.389479 
L 115.69039 109.550116 
L 109.027277 113.310156 
L 109.828477 118.451254 
L 116.971492 112.566277 
L 265.621233 177.335994 
L 172.305611 131.013826 
L 158.220678 101.055645 
L 160.433266 95.899771 
L 176.018097 87.083308 
L 213.000139 81.489992 
L 177.411347 34.258422 
L 139.113894 62.567223 
L 110.807406 110.680159 
L 115.55042 116.090244 
L 115.423966 109.652739 
L 119.425071 106.609288 
L 121.818323 111.390014 
L 128.521209 98.376641 
L 137.206972 91.074008 
L 129.847265 90.193508 
L 112.990869 104.812828 
L 101.750618 124.493635 
" clip-path="url(#p213ab58213)" style="fill: none; stroke: #000000; stroke-opacity: 0.75; stroke-width: 1.5; stroke-linecap: square"/>
    <defs>
     <path id="mfbbca85c2c" d="M 0 3 
C 0.795609 3 1.55874 2.683901 2.12132 2.12132 
C 2.683901 1.55874 3 0.795609 3 0 
C 3 -0.795609 2.683901 -1.55874 2.12132 -2.12132 
C 1.55874 -2.683901 0.795609 -3 0 -3 
C -0.795609 -3 -1.55874 -2.683901 -2.12132 -2.12132 
C -2.683901 -1.55874 -3 -0.795609 -3 0 
C -3 0.795609 -2.683901 1.55874 -2.12132 2.12132 
C -1.55874 2.683901 -0.795609 3 0 3 
z
" style="stroke: #000000; stroke-opacity: 0.75"/>
    </defs>
    <g clip-path="url(#p213ab58213)">
     <use xlink:href="#mfbbca85c2c" x="153.364829" y="111.974312" style="fill-opacity: 0.75; stroke: #000000; stroke-opacity: 0.75"/>
     <use xlink:href="#mfbbca85c2c" x="133.207257" y="128.351435" style="fill-opacity: 0.75; stroke: #000000; stroke-opacity: 0.75"/>
     <use xlink:href="#mfbbca85c2c" x="119.588192" y="119.602404" style="fill-opacity: 0.75; stroke: #000000; stroke-opacity: 0.75"/>
     <use xlink:href="#mfbbca85c2c" x="107.148251" y="126.820188" style="fill-opacity: 0.75; stroke: #000000; stroke-opacity: 0.75"/>
     <use xlink:href="#mfbbca85c2c" x="102.060512" y="128.388922" style="fill-opacity: 0.75; stroke: #000000; stroke-opacity: 0.75"/>
     <use xlink:href="#mfbbca85c2c" x="106.315432" y="121.384557" style="fill-opacity: 0.75; stroke: #000000; stroke-opacity: 0.75"/>
     <use xlink:href="#mfbbca85c2c" x="116.989812" y="110.570657" style="fill-opacity: 0.75; stroke: #000000; stroke-opacity: 0.75"/>
     <use xlink:href="#mfbbca85c2c" x="193.791906" y="132.808822" style="fill-opacity: 0.75; stroke: #000000; stroke-opacity: 0.75"/>
     <use xlink:href="#mfbbca85c2c" x="118.390517" y="117.123888" style="fill-opacity: 0.75; stroke: #000000; stroke-opacity: 0.75"/>
     <use xlink:href="#mfbbca85c2c" x="96.578182" y="137.807413" style="fill-opacity: 0.75; stroke: #000000; stroke-opacity: 0.75"/>
     <use xlink:href="#mfbbca85c2c" x="100.725839" y="135.676596" style="fill-opacity: 0.75; stroke: #000000; stroke-opacity: 0.75"/>
     <use xlink:href="#mfbbca85c2c" x="106.246268" y="121.137193" style="fill-opacity: 0.75; stroke: #000000; stroke-opacity: 0.75"/>
     <use xlink:href="#mfbbca85c2c" x="168.231086" y="112.351295" style="fill-opacity: 0.75; stroke: #000000; stroke-opacity: 0.75"/>
     <use xlink:href="#mfbbca85c2c" x="199.531844" y="57.483161" style="fill-opacity: 0.75; stroke: #000000; stroke-opacity: 0.75"/>
     <use xlink:href="#mfbbca85c2c" x="146.574028" y="84.205393" style="fill-opacity: 0.75; stroke: #000000; stroke-opacity: 0.75"/>
     <use xlink:href="#mfbbca85c2c" x="123.298207" y="108.604462" style="fill-opacity: 0.75; stroke: #000000; stroke-opacity: 0.75"/>
     <use xlink:href="#mfbbca85c2c" x="111.687829" y="109.792618" style="fill-opacity: 0.75; stroke: #000000; stroke-opacity: 0.75"/>
     <use xlink:href="#mfbbca85c2c" x="112.909496" y="116.664796" style="fill-opacity: 0.75; stroke: #000000; stroke-opacity: 0.75"/>
     <use xlink:href="#mfbbca85c2c" x="123.249222" y="104.983327" style="fill-opacity: 0.75; stroke: #000000; stroke-opacity: 0.75"/>
     <use xlink:href="#mfbbca85c2c" x="121.538977" y="102.442267" style="fill-opacity: 0.75; stroke: #000000; stroke-opacity: 0.75"/>
     <use xlink:href="#mfbbca85c2c" x="116.586516" y="118.088542" style="fill-opacity: 0.75; stroke: #000000; stroke-opacity: 0.75"/>
     <use xlink:href="#mfbbca85c2c" x="115.4436" y="111.389479" style="fill-opacity: 0.75; stroke: #000000; stroke-opacity: 0.75"/>
     <use xlink:href="#mfbbca85c2c" x="115.69039" y="109.550116" style="fill-opacity: 0.75; stroke: #000000; stroke-opacity: 0.75"/>
     <use xlink:href="#mfbbca85c2c" x="109.027277" y="113.310156" style="fill-opacity: 0.75; stroke: #000000; stroke-opacity: 0.75"/>
     <use xlink:href="#mfbbca85c2c" x="109.828477" y="118.451254" style="fill-opacity: 0.75; stroke: #000000; stroke-opacity: 0.75"/>
     <use xlink:href="#mfbbca85c2c" x="116.971492" y="112.566277" style="fill-opacity: 0.75; stroke: #000000; stroke-opacity: 0.75"/>
     <use xlink:href="#mfbbca85c2c" x="265.621233" y="177.335994" style="fill-opacity: 0.75; stroke: #000000; stroke-opacity: 0.75"/>
     <use xlink:href="#mfbbca85c2c" x="172.305611" y="131.013826" style="fill-opacity: 0.75; stroke: #000000; stroke-opacity: 0.75"/>
     <use xlink:href="#mfbbca85c2c" x="158.220678" y="101.055645" style="fill-opacity: 0.75; stroke: #000000; stroke-opacity: 0.75"/>
     <use xlink:href="#mfbbca85c2c" x="160.433266" y="95.899771" style="fill-opacity: 0.75; stroke: #000000; stroke-opacity: 0.75"/>
     <use xlink:href="#mfbbca85c2c" x="176.018097" y="87.083308" style="fill-opacity: 0.75; stroke: #000000; stroke-opacity: 0.75"/>
     <use xlink:href="#mfbbca85c2c" x="213.000139" y="81.489992" style="fill-opacity: 0.75; stroke: #000000; stroke-opacity: 0.75"/>
     <use xlink:href="#mfbbca85c2c" x="177.411347" y="34.258422" style="fill-opacity: 0.75; stroke: #000000; stroke-opacity: 0.75"/>
     <use xlink:href="#mfbbca85c2c" x="139.113894" y="62.567223" style="fill-opacity: 0.75; stroke: #000000; stroke-opacity: 0.75"/>
     <use xlink:href="#mfbbca85c2c" x="110.807406" y="110.680159" style="fill-opacity: 0.75; stroke: #000000; stroke-opacity: 0.75"/>
     <use xlink:href="#mfbbca85c2c" x="115.55042" y="116.090244" style="fill-opacity: 0.75; stroke: #000000; stroke-opacity: 0.75"/>
     <use xlink:href="#mfbbca85c2c" x="115.423966" y="109.652739" style="fill-opacity: 0.75; stroke: #000000; stroke-opacity: 0.75"/>
     <use xlink:href="#mfbbca85c2c" x="119.425071" y="106.609288" style="fill-opacity: 0.75; stroke: #000000; stroke-opacity: 0.75"/>
     <use xlink:href="#mfbbca85c2c" x="121.818323" y="111.390014" style="fill-opacity: 0.75; stroke: #000000; stroke-opacity: 0.75"/>
     <use xlink:href="#mfbbca85c2c" x="128.521209" y="98.376641" style="fill-opacity: 0.75; stroke: #000000; stroke-opacity: 0.75"/>
     <use xlink:href="#mfbbca85c2c" x="137.206972" y="91.074008" style="fill-opacity: 0.75; stroke: #000000; stroke-opacity: 0.75"/>
     <use xlink:href="#mfbbca85c2c" x="129.847265" y="90.193508" style="fill-opacity: 0.75; stroke: #000000; stroke-opacity: 0.75"/>
     <use xlink:href="#mfbbca85c2c" x="112.990869" y="104.812828" style="fill-opacity: 0.75; stroke: #000000; stroke-opacity: 0.75"/>
     <use xlink:href="#mfbbca85c2c" x="101.750618" y="124.493635" style="fill-opacity: 0.75; stroke: #000000; stroke-opacity: 0.75"/>
    </g>
   </g>
   <g id="line2d_9">
    <path d="M 127.744029 114.617786 
L 141.955321 111.579325 
L 123.944742 114.220026 
L 109.139817 119.86959 
L 107.888789 119.930464 
L 111.159216 119.038681 
L 116.303206 112.468931 
L 193.945235 130.634935 
L 128.100706 121.275966 
L 104.596298 132.4829 
L 104.854325 130.955992 
L 118.297735 130.848206 
L 163.035281 107.151988 
L 198.415613 60.712422 
L 133.636182 99.404998 
L 100.660149 125.827239 
L 101.242181 129.625002 
L 104.308621 124.472011 
L 118.458591 113.458528 
L 141.403493 119.690885 
L 131.633224 112.890686 
L 111.401214 116.071009 
L 108.893676 123.350519 
L 111.623353 115.477527 
L 114.639685 112.785944 
L 127.036695 108.227587 
L 290.740356 190.060756 
L 328.941818 212.048182 
L 248.943558 102.32242 
L 243.357134 90.765528 
L 251.902986 75.484652 
L 246.932013 66.518634 
L 198.98569 28.787555 
L 140.727886 91.898238 
L 133.812874 107.870986 
L 144.285925 99.841214 
L 127.744796 94.984722 
L 124.888875 98.39241 
L 122.565204 100.317379 
L 116.31425 105.382784 
L 110.724611 111.340538 
L 108.45237 115.971008 
L 109.766098 115.759052 
L 105.756625 124.199904 
" clip-path="url(#p213ab58213)" style="fill: none; stroke: #1e90ff; stroke-opacity: 0.75; stroke-width: 1.5; stroke-linecap: square"/>
    <defs>
     <path id="mb0e134d852" d="M 0 3 
C 0.795609 3 1.55874 2.683901 2.12132 2.12132 
C 2.683901 1.55874 3 0.795609 3 0 
C 3 -0.795609 2.683901 -1.55874 2.12132 -2.12132 
C 1.55874 -2.683901 0.795609 -3 0 -3 
C -0.795609 -3 -1.55874 -2.683901 -2.12132 -2.12132 
C -2.683901 -1.55874 -3 -0.795609 -3 0 
C -3 0.795609 -2.683901 1.55874 -2.12132 2.12132 
C -1.55874 2.683901 -0.795609 3 0 3 
z
" style="stroke: #1e90ff; stroke-opacity: 0.75"/>
    </defs>
    <g clip-path="url(#p213ab58213)">
     <use xlink:href="#mb0e134d852" x="127.744029" y="114.617786" style="fill: #1e90ff; fill-opacity: 0.75; stroke: #1e90ff; stroke-opacity: 0.75"/>
     <use xlink:href="#mb0e134d852" x="141.955321" y="111.579325" style="fill: #1e90ff; fill-opacity: 0.75; stroke: #1e90ff; stroke-opacity: 0.75"/>
     <use xlink:href="#mb0e134d852" x="123.944742" y="114.220026" style="fill: #1e90ff; fill-opacity: 0.75; stroke: #1e90ff; stroke-opacity: 0.75"/>
     <use xlink:href="#mb0e134d852" x="109.139817" y="119.86959" style="fill: #1e90ff; fill-opacity: 0.75; stroke: #1e90ff; stroke-opacity: 0.75"/>
     <use xlink:href="#mb0e134d852" x="107.888789" y="119.930464" style="fill: #1e90ff; fill-opacity: 0.75; stroke: #1e90ff; stroke-opacity: 0.75"/>
     <use xlink:href="#mb0e134d852" x="111.159216" y="119.038681" style="fill: #1e90ff; fill-opacity: 0.75; stroke: #1e90ff; stroke-opacity: 0.75"/>
     <use xlink:href="#mb0e134d852" x="116.303206" y="112.468931" style="fill: #1e90ff; fill-opacity: 0.75; stroke: #1e90ff; stroke-opacity: 0.75"/>
     <use xlink:href="#mb0e134d852" x="193.945235" y="130.634935" style="fill: #1e90ff; fill-opacity: 0.75; stroke: #1e90ff; stroke-opacity: 0.75"/>
     <use xlink:href="#mb0e134d852" x="128.100706" y="121.275966" style="fill: #1e90ff; fill-opacity: 0.75; stroke: #1e90ff; stroke-opacity: 0.75"/>
     <use xlink:href="#mb0e134d852" x="104.596298" y="132.4829" style="fill: #1e90ff; fill-opacity: 0.75; stroke: #1e90ff; stroke-opacity: 0.75"/>
     <use xlink:href="#mb0e134d852" x="104.854325" y="130.955992" style="fill: #1e90ff; fill-opacity: 0.75; stroke: #1e90ff; stroke-opacity: 0.75"/>
     <use xlink:href="#mb0e134d852" x="118.297735" y="130.848206" style="fill: #1e90ff; fill-opacity: 0.75; stroke: #1e90ff; stroke-opacity: 0.75"/>
     <use xlink:href="#mb0e134d852" x="163.035281" y="107.151988" style="fill: #1e90ff; fill-opacity: 0.75; stroke: #1e90ff; stroke-opacity: 0.75"/>
     <use xlink:href="#mb0e134d852" x="198.415613" y="60.712422" style="fill: #1e90ff; fill-opacity: 0.75; stroke: #1e90ff; stroke-opacity: 0.75"/>
     <use xlink:href="#mb0e134d852" x="133.636182" y="99.404998" style="fill: #1e90ff; fill-opacity: 0.75; stroke: #1e90ff; stroke-opacity: 0.75"/>
     <use xlink:href="#mb0e134d852" x="100.660149" y="125.827239" style="fill: #1e90ff; fill-opacity: 0.75; stroke: #1e90ff; stroke-opacity: 0.75"/>
     <use xlink:href="#mb0e134d852" x="101.242181" y="129.625002" style="fill: #1e90ff; fill-opacity: 0.75; stroke: #1e90ff; stroke-opacity: 0.75"/>
     <use xlink:href="#mb0e134d852" x="104.308621" y="124.472011" style="fill: #1e90ff; fill-opacity: 0.75; stroke: #1e90ff; stroke-opacity: 0.75"/>
     <use xlink:href="#mb0e134d852" x="118.458591" y="113.458528" style="fill: #1e90ff; fill-opacity: 0.75; stroke: #1e90ff; stroke-opacity: 0.75"/>
     <use xlink:href="#mb0e134d852" x="141.403493" y="119.690885" style="fill: #1e90ff; fill-opacity: 0.75; stroke: #1e90ff; stroke-opacity: 0.75"/>
     <use xlink:href="#mb0e134d852" x="131.633224" y="112.890686" style="fill: #1e90ff; fill-opacity: 0.75; stroke: #1e90ff; stroke-opacity: 0.75"/>
     <use xlink:href="#mb0e134d852" x="111.401214" y="116.071009" style="fill: #1e90ff; fill-opacity: 0.75; stroke: #1e90ff; stroke-opacity: 0.75"/>
     <use xlink:href="#mb0e134d852" x="108.893676" y="123.350519" style="fill: #1e90ff; fill-opacity: 0.75; stroke: #1e90ff; stroke-opacity: 0.75"/>
     <use xlink:href="#mb0e134d852" x="111.623353" y="115.477527" style="fill: #1e90ff; fill-opacity: 0.75; stroke: #1e90ff; stroke-opacity: 0.75"/>
     <use xlink:href="#mb0e134d852" x="114.639685" y="112.785944" style="fill: #1e90ff; fill-opacity: 0.75; stroke: #1e90ff; stroke-opacity: 0.75"/>
     <use xlink:href="#mb0e134d852" x="127.036695" y="108.227587" style="fill: #1e90ff; fill-opacity: 0.75; stroke: #1e90ff; stroke-opacity: 0.75"/>
     <use xlink:href="#mb0e134d852" x="290.740356" y="190.060756" style="fill: #1e90ff; fill-opacity: 0.75; stroke: #1e90ff; stroke-opacity: 0.75"/>
     <use xlink:href="#mb0e134d852" x="328.941818" y="212.048182" style="fill: #1e90ff; fill-opacity: 0.75; stroke: #1e90ff; stroke-opacity: 0.75"/>
     <use xlink:href="#mb0e134d852" x="248.943558" y="102.32242" style="fill: #1e90ff; fill-opacity: 0.75; stroke: #1e90ff; stroke-opacity: 0.75"/>
     <use xlink:href="#mb0e134d852" x="243.357134" y="90.765528" style="fill: #1e90ff; fill-opacity: 0.75; stroke: #1e90ff; stroke-opacity: 0.75"/>
     <use xlink:href="#mb0e134d852" x="251.902986" y="75.484652" style="fill: #1e90ff; fill-opacity: 0.75; stroke: #1e90ff; stroke-opacity: 0.75"/>
     <use xlink:href="#mb0e134d852" x="246.932013" y="66.518634" style="fill: #1e90ff; fill-opacity: 0.75; stroke: #1e90ff; stroke-opacity: 0.75"/>
     <use xlink:href="#mb0e134d852" x="198.98569" y="28.787555" style="fill: #1e90ff; fill-opacity: 0.75; stroke: #1e90ff; stroke-opacity: 0.75"/>
     <use xlink:href="#mb0e134d852" x="140.727886" y="91.898238" style="fill: #1e90ff; fill-opacity: 0.75; stroke: #1e90ff; stroke-opacity: 0.75"/>
     <use xlink:href="#mb0e134d852" x="133.812874" y="107.870986" style="fill: #1e90ff; fill-opacity: 0.75; stroke: #1e90ff; stroke-opacity: 0.75"/>
     <use xlink:href="#mb0e134d852" x="144.285925" y="99.841214" style="fill: #1e90ff; fill-opacity: 0.75; stroke: #1e90ff; stroke-opacity: 0.75"/>
     <use xlink:href="#mb0e134d852" x="127.744796" y="94.984722" style="fill: #1e90ff; fill-opacity: 0.75; stroke: #1e90ff; stroke-opacity: 0.75"/>
     <use xlink:href="#mb0e134d852" x="124.888875" y="98.39241" style="fill: #1e90ff; fill-opacity: 0.75; stroke: #1e90ff; stroke-opacity: 0.75"/>
     <use xlink:href="#mb0e134d852" x="122.565204" y="100.317379" style="fill: #1e90ff; fill-opacity: 0.75; stroke: #1e90ff; stroke-opacity: 0.75"/>
     <use xlink:href="#mb0e134d852" x="116.31425" y="105.382784" style="fill: #1e90ff; fill-opacity: 0.75; stroke: #1e90ff; stroke-opacity: 0.75"/>
     <use xlink:href="#mb0e134d852" x="110.724611" y="111.340538" style="fill: #1e90ff; fill-opacity: 0.75; stroke: #1e90ff; stroke-opacity: 0.75"/>
     <use xlink:href="#mb0e134d852" x="108.45237" y="115.971008" style="fill: #1e90ff; fill-opacity: 0.75; stroke: #1e90ff; stroke-opacity: 0.75"/>
     <use xlink:href="#mb0e134d852" x="109.766098" y="115.759052" style="fill: #1e90ff; fill-opacity: 0.75; stroke: #1e90ff; stroke-opacity: 0.75"/>
     <use xlink:href="#mb0e134d852" x="105.756625" y="124.199904" style="fill: #1e90ff; fill-opacity: 0.75; stroke: #1e90ff; stroke-opacity: 0.75"/>
    </g>
   </g>
   <g id="line2d_10">
    <path d="M 132.705845 119.556611 
L 130.920393 117.595349 
L 114.01154 118.429546 
L 106.559921 124.107476 
L 103.876312 126.180271 
L 104.164633 126.142182 
L 105.771507 123.679964 
L 194.174236 118.005604 
L 177.069565 135.549789 
L 141.608228 126.642426 
L 134.070967 119.32659 
L 145.594052 110.559654 
L 161.935575 104.927464 
L 188.059902 47.932238 
L 125.570645 109.763169 
L 97.615316 133.607334 
L 101.211167 131.639701 
L 101.457144 131.478163 
L 115.561404 116.956105 
L 139.440285 113.620594 
L 137.296653 111.945194 
L 108.217648 121.411761 
L 101.552374 126.226648 
L 103.063098 127.267135 
L 107.703255 122.099514 
L 122.768376 114.101148 
L 247.149538 173.924029 
L 163.915137 128.710485 
L 145.579487 122.068917 
L 137.579228 117.267247 
L 163.876043 106.043761 
L 168.839614 95.625236 
L 184.33454 34.013003 
L 119.896858 104.469881 
L 105.37747 118.535085 
L 109.559834 121.230771 
L 119.323644 112.092972 
L 134.174659 111.08438 
L 142.4075 110.748075 
L 132.552966 107.372376 
L 112.742076 112.279243 
L 104.755583 121.608161 
L 102.82785 123.539559 
L 99.248509 128.023216 
" clip-path="url(#p213ab58213)" style="fill: none; stroke: #808080; stroke-opacity: 0.75; stroke-width: 1.5; stroke-linecap: square"/>
    <defs>
     <path id="mcd7c624bb3" d="M 0 3 
C 0.795609 3 1.55874 2.683901 2.12132 2.12132 
C 2.683901 1.55874 3 0.795609 3 0 
C 3 -0.795609 2.683901 -1.55874 2.12132 -2.12132 
C 1.55874 -2.683901 0.795609 -3 0 -3 
C -0.795609 -3 -1.55874 -2.683901 -2.12132 -2.12132 
C -2.683901 -1.55874 -3 -0.795609 -3 0 
C -3 0.795609 -2.683901 1.55874 -2.12132 2.12132 
C -1.55874 2.683901 -0.795609 3 0 3 
z
" style="stroke: #808080; stroke-opacity: 0.75"/>
    </defs>
    <g clip-path="url(#p213ab58213)">
     <use xlink:href="#mcd7c624bb3" x="132.705845" y="119.556611" style="fill: #808080; fill-opacity: 0.75; stroke: #808080; stroke-opacity: 0.75"/>
     <use xlink:href="#mcd7c624bb3" x="130.920393" y="117.595349" style="fill: #808080; fill-opacity: 0.75; stroke: #808080; stroke-opacity: 0.75"/>
     <use xlink:href="#mcd7c624bb3" x="114.01154" y="118.429546" style="fill: #808080; fill-opacity: 0.75; stroke: #808080; stroke-opacity: 0.75"/>
     <use xlink:href="#mcd7c624bb3" x="106.559921" y="124.107476" style="fill: #808080; fill-opacity: 0.75; stroke: #808080; stroke-opacity: 0.75"/>
     <use xlink:href="#mcd7c624bb3" x="103.876312" y="126.180271" style="fill: #808080; fill-opacity: 0.75; stroke: #808080; stroke-opacity: 0.75"/>
     <use xlink:href="#mcd7c624bb3" x="104.164633" y="126.142182" style="fill: #808080; fill-opacity: 0.75; stroke: #808080; stroke-opacity: 0.75"/>
     <use xlink:href="#mcd7c624bb3" x="105.771507" y="123.679964" style="fill: #808080; fill-opacity: 0.75; stroke: #808080; stroke-opacity: 0.75"/>
     <use xlink:href="#mcd7c624bb3" x="194.174236" y="118.005604" style="fill: #808080; fill-opacity: 0.75; stroke: #808080; stroke-opacity: 0.75"/>
     <use xlink:href="#mcd7c624bb3" x="177.069565" y="135.549789" style="fill: #808080; fill-opacity: 0.75; stroke: #808080; stroke-opacity: 0.75"/>
     <use xlink:href="#mcd7c624bb3" x="141.608228" y="126.642426" style="fill: #808080; fill-opacity: 0.75; stroke: #808080; stroke-opacity: 0.75"/>
     <use xlink:href="#mcd7c624bb3" x="134.070967" y="119.32659" style="fill: #808080; fill-opacity: 0.75; stroke: #808080; stroke-opacity: 0.75"/>
     <use xlink:href="#mcd7c624bb3" x="145.594052" y="110.559654" style="fill: #808080; fill-opacity: 0.75; stroke: #808080; stroke-opacity: 0.75"/>
     <use xlink:href="#mcd7c624bb3" x="161.935575" y="104.927464" style="fill: #808080; fill-opacity: 0.75; stroke: #808080; stroke-opacity: 0.75"/>
     <use xlink:href="#mcd7c624bb3" x="188.059902" y="47.932238" style="fill: #808080; fill-opacity: 0.75; stroke: #808080; stroke-opacity: 0.75"/>
     <use xlink:href="#mcd7c624bb3" x="125.570645" y="109.763169" style="fill: #808080; fill-opacity: 0.75; stroke: #808080; stroke-opacity: 0.75"/>
     <use xlink:href="#mcd7c624bb3" x="97.615316" y="133.607334" style="fill: #808080; fill-opacity: 0.75; stroke: #808080; stroke-opacity: 0.75"/>
     <use xlink:href="#mcd7c624bb3" x="101.211167" y="131.639701" style="fill: #808080; fill-opacity: 0.75; stroke: #808080; stroke-opacity: 0.75"/>
     <use xlink:href="#mcd7c624bb3" x="101.457144" y="131.478163" style="fill: #808080; fill-opacity: 0.75; stroke: #808080; stroke-opacity: 0.75"/>
     <use xlink:href="#mcd7c624bb3" x="115.561404" y="116.956105" style="fill: #808080; fill-opacity: 0.75; stroke: #808080; stroke-opacity: 0.75"/>
     <use xlink:href="#mcd7c624bb3" x="139.440285" y="113.620594" style="fill: #808080; fill-opacity: 0.75; stroke: #808080; stroke-opacity: 0.75"/>
     <use xlink:href="#mcd7c624bb3" x="137.296653" y="111.945194" style="fill: #808080; fill-opacity: 0.75; stroke: #808080; stroke-opacity: 0.75"/>
     <use xlink:href="#mcd7c624bb3" x="108.217648" y="121.411761" style="fill: #808080; fill-opacity: 0.75; stroke: #808080; stroke-opacity: 0.75"/>
     <use xlink:href="#mcd7c624bb3" x="101.552374" y="126.226648" style="fill: #808080; fill-opacity: 0.75; stroke: #808080; stroke-opacity: 0.75"/>
     <use xlink:href="#mcd7c624bb3" x="103.063098" y="127.267135" style="fill: #808080; fill-opacity: 0.75; stroke: #808080; stroke-opacity: 0.75"/>
     <use xlink:href="#mcd7c624bb3" x="107.703255" y="122.099514" style="fill: #808080; fill-opacity: 0.75; stroke: #808080; stroke-opacity: 0.75"/>
     <use xlink:href="#mcd7c624bb3" x="122.768376" y="114.101148" style="fill: #808080; fill-opacity: 0.75; stroke: #808080; stroke-opacity: 0.75"/>
     <use xlink:href="#mcd7c624bb3" x="247.149538" y="173.924029" style="fill: #808080; fill-opacity: 0.75; stroke: #808080; stroke-opacity: 0.75"/>
     <use xlink:href="#mcd7c624bb3" x="163.915137" y="128.710485" style="fill: #808080; fill-opacity: 0.75; stroke: #808080; stroke-opacity: 0.75"/>
     <use xlink:href="#mcd7c624bb3" x="145.579487" y="122.068917" style="fill: #808080; fill-opacity: 0.75; stroke: #808080; stroke-opacity: 0.75"/>
     <use xlink:href="#mcd7c624bb3" x="137.579228" y="117.267247" style="fill: #808080; fill-opacity: 0.75; stroke: #808080; stroke-opacity: 0.75"/>
     <use xlink:href="#mcd7c624bb3" x="163.876043" y="106.043761" style="fill: #808080; fill-opacity: 0.75; stroke: #808080; stroke-opacity: 0.75"/>
     <use xlink:href="#mcd7c624bb3" x="168.839614" y="95.625236" style="fill: #808080; fill-opacity: 0.75; stroke: #808080; stroke-opacity: 0.75"/>
     <use xlink:href="#mcd7c624bb3" x="184.33454" y="34.013003" style="fill: #808080; fill-opacity: 0.75; stroke: #808080; stroke-opacity: 0.75"/>
     <use xlink:href="#mcd7c624bb3" x="119.896858" y="104.469881" style="fill: #808080; fill-opacity: 0.75; stroke: #808080; stroke-opacity: 0.75"/>
     <use xlink:href="#mcd7c624bb3" x="105.37747" y="118.535085" style="fill: #808080; fill-opacity: 0.75; stroke: #808080; stroke-opacity: 0.75"/>
     <use xlink:href="#mcd7c624bb3" x="109.559834" y="121.230771" style="fill: #808080; fill-opacity: 0.75; stroke: #808080; stroke-opacity: 0.75"/>
     <use xlink:href="#mcd7c624bb3" x="119.323644" y="112.092972" style="fill: #808080; fill-opacity: 0.75; stroke: #808080; stroke-opacity: 0.75"/>
     <use xlink:href="#mcd7c624bb3" x="134.174659" y="111.08438" style="fill: #808080; fill-opacity: 0.75; stroke: #808080; stroke-opacity: 0.75"/>
     <use xlink:href="#mcd7c624bb3" x="142.4075" y="110.748075" style="fill: #808080; fill-opacity: 0.75; stroke: #808080; stroke-opacity: 0.75"/>
     <use xlink:href="#mcd7c624bb3" x="132.552966" y="107.372376" style="fill: #808080; fill-opacity: 0.75; stroke: #808080; stroke-opacity: 0.75"/>
     <use xlink:href="#mcd7c624bb3" x="112.742076" y="112.279243" style="fill: #808080; fill-opacity: 0.75; stroke: #808080; stroke-opacity: 0.75"/>
     <use xlink:href="#mcd7c624bb3" x="104.755583" y="121.608161" style="fill: #808080; fill-opacity: 0.75; stroke: #808080; stroke-opacity: 0.75"/>
     <use xlink:href="#mcd7c624bb3" x="102.82785" y="123.539559" style="fill: #808080; fill-opacity: 0.75; stroke: #808080; stroke-opacity: 0.75"/>
     <use xlink:href="#mcd7c624bb3" x="99.248509" y="128.023216" style="fill: #808080; fill-opacity: 0.75; stroke: #808080; stroke-opacity: 0.75"/>
    </g>
   </g>
   <g id="line2d_11">
    <path d="M 131.622528 116.543174 
L 134.613028 115.040343 
L 115.091748 118.355347 
L 103.473733 123.498827 
L 101.872634 126.154261 
L 107.193607 126.025733 
L 109.356482 118.380396 
L 190.111932 123.223514 
L 176.456244 135.50163 
L 146.157497 122.274345 
L 135.928666 119.727039 
L 143.838349 111.616185 
L 157.682558 99.466314 
L 188.43415 45.945522 
L 125.560511 110.071818 
L 99.335531 130.45971 
L 99.877956 130.212482 
L 100.313516 129.700655 
L 112.776934 122.272196 
L 136.053872 119.263708 
L 132.651691 116.366053 
L 106.470773 125.724175 
L 102.408789 127.561865 
L 103.948363 126.526416 
L 104.59275 123.943989 
L 115.535637 116.287726 
L 270.75088 178.997428 
L 317.140219 207.327241 
L 249.209212 117.667035 
L 241.188792 92.041091 
L 241.803991 82.868987 
L 243.084396 68.528606 
L 191.879852 28.611818 
L 134.605286 96.989098 
L 131.611681 108.397395 
L 140.148209 100.611921 
L 129.765493 101.855807 
L 123.165319 99.516804 
L 124.345405 103.748997 
L 119.458974 105.053565 
L 113.082679 111.320704 
L 111.336234 111.800842 
L 108.532393 115.805589 
L 102.647696 125.562158 
" clip-path="url(#p213ab58213)" style="fill: none; stroke: #ff00ff; stroke-opacity: 0.75; stroke-width: 1.5; stroke-linecap: square"/>
    <defs>
     <path id="m12e0f1c5bc" d="M 0 3 
C 0.795609 3 1.55874 2.683901 2.12132 2.12132 
C 2.683901 1.55874 3 0.795609 3 0 
C 3 -0.795609 2.683901 -1.55874 2.12132 -2.12132 
C 1.55874 -2.683901 0.795609 -3 0 -3 
C -0.795609 -3 -1.55874 -2.683901 -2.12132 -2.12132 
C -2.683901 -1.55874 -3 -0.795609 -3 0 
C -3 0.795609 -2.683901 1.55874 -2.12132 2.12132 
C -1.55874 2.683901 -0.795609 3 0 3 
z
" style="stroke: #ff00ff; stroke-opacity: 0.75"/>
    </defs>
    <g clip-path="url(#p213ab58213)">
     <use xlink:href="#m12e0f1c5bc" x="131.622528" y="116.543174" style="fill: #ff00ff; fill-opacity: 0.75; stroke: #ff00ff; stroke-opacity: 0.75"/>
     <use xlink:href="#m12e0f1c5bc" x="134.613028" y="115.040343" style="fill: #ff00ff; fill-opacity: 0.75; stroke: #ff00ff; stroke-opacity: 0.75"/>
     <use xlink:href="#m12e0f1c5bc" x="115.091748" y="118.355347" style="fill: #ff00ff; fill-opacity: 0.75; stroke: #ff00ff; stroke-opacity: 0.75"/>
     <use xlink:href="#m12e0f1c5bc" x="103.473733" y="123.498827" style="fill: #ff00ff; fill-opacity: 0.75; stroke: #ff00ff; stroke-opacity: 0.75"/>
     <use xlink:href="#m12e0f1c5bc" x="101.872634" y="126.154261" style="fill: #ff00ff; fill-opacity: 0.75; stroke: #ff00ff; stroke-opacity: 0.75"/>
     <use xlink:href="#m12e0f1c5bc" x="107.193607" y="126.025733" style="fill: #ff00ff; fill-opacity: 0.75; stroke: #ff00ff; stroke-opacity: 0.75"/>
     <use xlink:href="#m12e0f1c5bc" x="109.356482" y="118.380396" style="fill: #ff00ff; fill-opacity: 0.75; stroke: #ff00ff; stroke-opacity: 0.75"/>
     <use xlink:href="#m12e0f1c5bc" x="190.111932" y="123.223514" style="fill: #ff00ff; fill-opacity: 0.75; stroke: #ff00ff; stroke-opacity: 0.75"/>
     <use xlink:href="#m12e0f1c5bc" x="176.456244" y="135.50163" style="fill: #ff00ff; fill-opacity: 0.75; stroke: #ff00ff; stroke-opacity: 0.75"/>
     <use xlink:href="#m12e0f1c5bc" x="146.157497" y="122.274345" style="fill: #ff00ff; fill-opacity: 0.75; stroke: #ff00ff; stroke-opacity: 0.75"/>
     <use xlink:href="#m12e0f1c5bc" x="135.928666" y="119.727039" style="fill: #ff00ff; fill-opacity: 0.75; stroke: #ff00ff; stroke-opacity: 0.75"/>
     <use xlink:href="#m12e0f1c5bc" x="143.838349" y="111.616185" style="fill: #ff00ff; fill-opacity: 0.75; stroke: #ff00ff; stroke-opacity: 0.75"/>
     <use xlink:href="#m12e0f1c5bc" x="157.682558" y="99.466314" style="fill: #ff00ff; fill-opacity: 0.75; stroke: #ff00ff; stroke-opacity: 0.75"/>
     <use xlink:href="#m12e0f1c5bc" x="188.43415" y="45.945522" style="fill: #ff00ff; fill-opacity: 0.75; stroke: #ff00ff; stroke-opacity: 0.75"/>
     <use xlink:href="#m12e0f1c5bc" x="125.560511" y="110.071818" style="fill: #ff00ff; fill-opacity: 0.75; stroke: #ff00ff; stroke-opacity: 0.75"/>
     <use xlink:href="#m12e0f1c5bc" x="99.335531" y="130.45971" style="fill: #ff00ff; fill-opacity: 0.75; stroke: #ff00ff; stroke-opacity: 0.75"/>
     <use xlink:href="#m12e0f1c5bc" x="99.877956" y="130.212482" style="fill: #ff00ff; fill-opacity: 0.75; stroke: #ff00ff; stroke-opacity: 0.75"/>
     <use xlink:href="#m12e0f1c5bc" x="100.313516" y="129.700655" style="fill: #ff00ff; fill-opacity: 0.75; stroke: #ff00ff; stroke-opacity: 0.75"/>
     <use xlink:href="#m12e0f1c5bc" x="112.776934" y="122.272196" style="fill: #ff00ff; fill-opacity: 0.75; stroke: #ff00ff; stroke-opacity: 0.75"/>
     <use xlink:href="#m12e0f1c5bc" x="136.053872" y="119.263708" style="fill: #ff00ff; fill-opacity: 0.75; stroke: #ff00ff; stroke-opacity: 0.75"/>
     <use xlink:href="#m12e0f1c5bc" x="132.651691" y="116.366053" style="fill: #ff00ff; fill-opacity: 0.75; stroke: #ff00ff; stroke-opacity: 0.75"/>
     <use xlink:href="#m12e0f1c5bc" x="106.470773" y="125.724175" style="fill: #ff00ff; fill-opacity: 0.75; stroke: #ff00ff; stroke-opacity: 0.75"/>
     <use xlink:href="#m12e0f1c5bc" x="102.408789" y="127.561865" style="fill: #ff00ff; fill-opacity: 0.75; stroke: #ff00ff; stroke-opacity: 0.75"/>
     <use xlink:href="#m12e0f1c5bc" x="103.948363" y="126.526416" style="fill: #ff00ff; fill-opacity: 0.75; stroke: #ff00ff; stroke-opacity: 0.75"/>
     <use xlink:href="#m12e0f1c5bc" x="104.59275" y="123.943989" style="fill: #ff00ff; fill-opacity: 0.75; stroke: #ff00ff; stroke-opacity: 0.75"/>
     <use xlink:href="#m12e0f1c5bc" x="115.535637" y="116.287726" style="fill: #ff00ff; fill-opacity: 0.75; stroke: #ff00ff; stroke-opacity: 0.75"/>
     <use xlink:href="#m12e0f1c5bc" x="270.75088" y="178.997428" style="fill: #ff00ff; fill-opacity: 0.75; stroke: #ff00ff; stroke-opacity: 0.75"/>
     <use xlink:href="#m12e0f1c5bc" x="317.140219" y="207.327241" style="fill: #ff00ff; fill-opacity: 0.75; stroke: #ff00ff; stroke-opacity: 0.75"/>
     <use xlink:href="#m12e0f1c5bc" x="249.209212" y="117.667035" style="fill: #ff00ff; fill-opacity: 0.75; stroke: #ff00ff; stroke-opacity: 0.75"/>
     <use xlink:href="#m12e0f1c5bc" x="241.188792" y="92.041091" style="fill: #ff00ff; fill-opacity: 0.75; stroke: #ff00ff; stroke-opacity: 0.75"/>
     <use xlink:href="#m12e0f1c5bc" x="241.803991" y="82.868987" style="fill: #ff00ff; fill-opacity: 0.75; stroke: #ff00ff; stroke-opacity: 0.75"/>
     <use xlink:href="#m12e0f1c5bc" x="243.084396" y="68.528606" style="fill: #ff00ff; fill-opacity: 0.75; stroke: #ff00ff; stroke-opacity: 0.75"/>
     <use xlink:href="#m12e0f1c5bc" x="191.879852" y="28.611818" style="fill: #ff00ff; fill-opacity: 0.75; stroke: #ff00ff; stroke-opacity: 0.75"/>
     <use xlink:href="#m12e0f1c5bc" x="134.605286" y="96.989098" style="fill: #ff00ff; fill-opacity: 0.75; stroke: #ff00ff; stroke-opacity: 0.75"/>
     <use xlink:href="#m12e0f1c5bc" x="131.611681" y="108.397395" style="fill: #ff00ff; fill-opacity: 0.75; stroke: #ff00ff; stroke-opacity: 0.75"/>
     <use xlink:href="#m12e0f1c5bc" x="140.148209" y="100.611921" style="fill: #ff00ff; fill-opacity: 0.75; stroke: #ff00ff; stroke-opacity: 0.75"/>
     <use xlink:href="#m12e0f1c5bc" x="129.765493" y="101.855807" style="fill: #ff00ff; fill-opacity: 0.75; stroke: #ff00ff; stroke-opacity: 0.75"/>
     <use xlink:href="#m12e0f1c5bc" x="123.165319" y="99.516804" style="fill: #ff00ff; fill-opacity: 0.75; stroke: #ff00ff; stroke-opacity: 0.75"/>
     <use xlink:href="#m12e0f1c5bc" x="124.345405" y="103.748997" style="fill: #ff00ff; fill-opacity: 0.75; stroke: #ff00ff; stroke-opacity: 0.75"/>
     <use xlink:href="#m12e0f1c5bc" x="119.458974" y="105.053565" style="fill: #ff00ff; fill-opacity: 0.75; stroke: #ff00ff; stroke-opacity: 0.75"/>
     <use xlink:href="#m12e0f1c5bc" x="113.082679" y="111.320704" style="fill: #ff00ff; fill-opacity: 0.75; stroke: #ff00ff; stroke-opacity: 0.75"/>
     <use xlink:href="#m12e0f1c5bc" x="111.336234" y="111.800842" style="fill: #ff00ff; fill-opacity: 0.75; stroke: #ff00ff; stroke-opacity: 0.75"/>
     <use xlink:href="#m12e0f1c5bc" x="108.532393" y="115.805589" style="fill: #ff00ff; fill-opacity: 0.75; stroke: #ff00ff; stroke-opacity: 0.75"/>
     <use xlink:href="#m12e0f1c5bc" x="102.647696" y="125.562158" style="fill: #ff00ff; fill-opacity: 0.75; stroke: #ff00ff; stroke-opacity: 0.75"/>
    </g>
   </g>
   <g id="patch_3">
    <path d="M 84.96 221.22 
L 84.96 19.44 
" style="fill: none; stroke: #000000; stroke-width: 1.25; stroke-linejoin: miter; stroke-linecap: square"/>
   </g>
   <g id="patch_4">
    <path d="M 84.96 221.22 
L 340.56 221.22 
" style="fill: none; stroke: #000000; stroke-width: 1.25; stroke-linejoin: miter; stroke-linecap: square"/>
   </g>
  </g>
 </g>
 <defs>
  <clipPath id="p213ab58213">
   <rect x="84.96" y="19.44" width="255.6" height="201.78"/>
  </clipPath>
 </defs>
</svg>
