<?xml version="1.0" encoding="utf-8" standalone="no"?>
<!DOCTYPE svg PUBLIC "-//W3C//DTD SVG 1.1//EN"
  "http://www.w3.org/Graphics/SVG/1.1/DTD/svg11.dtd">
<svg xmlns:xlink="http://www.w3.org/1999/xlink" width="360pt" height="288pt" viewBox="0 0 360 288" xmlns="http://www.w3.org/2000/svg" version="1.1">
 <metadata>
  <rdf:RDF xmlns:dc="http://purl.org/dc/elements/1.1/" xmlns:cc="http://creativecommons.org/ns#" xmlns:rdf="http://www.w3.org/1999/02/22-rdf-syntax-ns#">
   <cc:Work>
    <dc:type rdf:resource="http://purl.org/dc/dcmitype/StillImage"/>
    <dc:date>2024-08-30T18:52:11.813179</dc:date>
    <dc:format>image/svg+xml</dc:format>
    <dc:creator>
     <cc:Agent>
      <dc:title>Matplotlib v3.9.2, https://matplotlib.org/</dc:title>
     </cc:Agent>
    </dc:creator>
   </cc:Work>
  </rdf:RDF>
 </metadata>
 <defs>
  <style type="text/css">*{stroke-linejoin: round; stroke-linecap: butt}</style>
 </defs>
 <g id="figure_1">
  <g id="patch_1">
   <path d="M 0 288 
L 360 288 
L 360 0 
L 0 0 
z
" style="fill: #ffffff"/>
  </g>
  <g id="axes_1">
   <g id="patch_2">
    <path d="M 84.96 221.22 
L 340.56 221.22 
L 340.56 19.44 
L 84.96 19.44 
z
" style="fill: #ffffff"/>
   </g>
   <g id="matplotlib.axis_1">
    <g id="xtick_1">
     <g id="line2d_1">
      <defs>
       <path id="m9947077001" d="M 0 0 
L 0 6 
" style="stroke: #000000; stroke-width: 1.25"/>
      </defs>
      <g>
       <use xlink:href="#m9947077001" x="139.095676" y="221.22" style="stroke: #000000; stroke-width: 1.25"/>
      </g>
     </g>
     <g id="text_1">
      <!-- 0 -->
      <g transform="translate(133.846614 243.257422) scale(0.165 -0.165)">
       <defs>
        <path id="DejaVuSans-30" d="M 2034 4250 
Q 1547 4250 1301 3770 
Q 1056 3291 1056 2328 
Q 1056 1369 1301 889 
Q 1547 409 2034 409 
Q 2525 409 2770 889 
Q 3016 1369 3016 2328 
Q 3016 3291 2770 3770 
Q 2525 4250 2034 4250 
z
M 2034 4750 
Q 2819 4750 3233 4129 
Q 3647 3509 3647 2328 
Q 3647 1150 3233 529 
Q 2819 -91 2034 -91 
Q 1250 -91 836 529 
Q 422 1150 422 2328 
Q 422 3509 836 4129 
Q 1250 4750 2034 4750 
z
" transform="scale(0.015625)"/>
       </defs>
       <use xlink:href="#DejaVuSans-30"/>
      </g>
     </g>
    </g>
    <g id="xtick_2">
     <g id="line2d_2">
      <g>
       <use xlink:href="#m9947077001" x="197.870442" y="221.22" style="stroke: #000000; stroke-width: 1.25"/>
      </g>
     </g>
     <g id="text_2">
      <!-- 100 -->
      <g transform="translate(182.123255 243.257422) scale(0.165 -0.165)">
       <defs>
        <path id="DejaVuSans-31" d="M 794 531 
L 1825 531 
L 1825 4091 
L 703 3866 
L 703 4441 
L 1819 4666 
L 2450 4666 
L 2450 531 
L 3481 531 
L 3481 0 
L 794 0 
L 794 531 
z
" transform="scale(0.015625)"/>
       </defs>
       <use xlink:href="#DejaVuSans-31"/>
       <use xlink:href="#DejaVuSans-30" x="63.623047"/>
       <use xlink:href="#DejaVuSans-30" x="127.246094"/>
      </g>
     </g>
    </g>
    <g id="xtick_3">
     <g id="line2d_3">
      <g>
       <use xlink:href="#m9947077001" x="256.645208" y="221.22" style="stroke: #000000; stroke-width: 1.25"/>
      </g>
     </g>
     <g id="text_3">
      <!-- 200 -->
      <g transform="translate(240.89802 243.257422) scale(0.165 -0.165)">
       <defs>
        <path id="DejaVuSans-32" d="M 1228 531 
L 3431 531 
L 3431 0 
L 469 0 
L 469 531 
Q 828 903 1448 1529 
Q 2069 2156 2228 2338 
Q 2531 2678 2651 2914 
Q 2772 3150 2772 3378 
Q 2772 3750 2511 3984 
Q 2250 4219 1831 4219 
Q 1534 4219 1204 4116 
Q 875 4013 500 3803 
L 500 4441 
Q 881 4594 1212 4672 
Q 1544 4750 1819 4750 
Q 2544 4750 2975 4387 
Q 3406 4025 3406 3419 
Q 3406 3131 3298 2873 
Q 3191 2616 2906 2266 
Q 2828 2175 2409 1742 
Q 1991 1309 1228 531 
z
" transform="scale(0.015625)"/>
       </defs>
       <use xlink:href="#DejaVuSans-32"/>
       <use xlink:href="#DejaVuSans-30" x="63.623047"/>
       <use xlink:href="#DejaVuSans-30" x="127.246094"/>
      </g>
     </g>
    </g>
    <g id="xtick_4">
     <g id="line2d_4">
      <g>
       <use xlink:href="#m9947077001" x="315.419973" y="221.22" style="stroke: #000000; stroke-width: 1.25"/>
      </g>
     </g>
     <g id="text_4">
      <!-- 300 -->
      <g transform="translate(299.672786 243.257422) scale(0.165 -0.165)">
       <defs>
        <path id="DejaVuSans-33" d="M 2597 2516 
Q 3050 2419 3304 2112 
Q 3559 1806 3559 1356 
Q 3559 666 3084 287 
Q 2609 -91 1734 -91 
Q 1441 -91 1130 -33 
Q 819 25 488 141 
L 488 750 
Q 750 597 1062 519 
Q 1375 441 1716 441 
Q 2309 441 2620 675 
Q 2931 909 2931 1356 
Q 2931 1769 2642 2001 
Q 2353 2234 1838 2234 
L 1294 2234 
L 1294 2753 
L 1863 2753 
Q 2328 2753 2575 2939 
Q 2822 3125 2822 3475 
Q 2822 3834 2567 4026 
Q 2313 4219 1838 4219 
Q 1578 4219 1281 4162 
Q 984 4106 628 3988 
L 628 4550 
Q 988 4650 1302 4700 
Q 1616 4750 1894 4750 
Q 2613 4750 3031 4423 
Q 3450 4097 3450 3541 
Q 3450 3153 3228 2886 
Q 3006 2619 2597 2516 
z
" transform="scale(0.015625)"/>
       </defs>
       <use xlink:href="#DejaVuSans-33"/>
       <use xlink:href="#DejaVuSans-30" x="63.623047"/>
       <use xlink:href="#DejaVuSans-30" x="127.246094"/>
      </g>
     </g>
    </g>
    <g id="text_5">
     <!-- PC1 -->
     <g transform="translate(195.3225 264.366094) scale(0.18 -0.18)">
      <defs>
       <path id="DejaVuSans-50" d="M 1259 4147 
L 1259 2394 
L 2053 2394 
Q 2494 2394 2734 2622 
Q 2975 2850 2975 3272 
Q 2975 3691 2734 3919 
Q 2494 4147 2053 4147 
L 1259 4147 
z
M 628 4666 
L 2053 4666 
Q 2838 4666 3239 4311 
Q 3641 3956 3641 3272 
Q 3641 2581 3239 2228 
Q 2838 1875 2053 1875 
L 1259 1875 
L 1259 0 
L 628 0 
L 628 4666 
z
" transform="scale(0.015625)"/>
       <path id="DejaVuSans-43" d="M 4122 4306 
L 4122 3641 
Q 3803 3938 3442 4084 
Q 3081 4231 2675 4231 
Q 1875 4231 1450 3742 
Q 1025 3253 1025 2328 
Q 1025 1406 1450 917 
Q 1875 428 2675 428 
Q 3081 428 3442 575 
Q 3803 722 4122 1019 
L 4122 359 
Q 3791 134 3420 21 
Q 3050 -91 2638 -91 
Q 1578 -91 968 557 
Q 359 1206 359 2328 
Q 359 3453 968 4101 
Q 1578 4750 2638 4750 
Q 3056 4750 3426 4639 
Q 3797 4528 4122 4306 
z
" transform="scale(0.015625)"/>
      </defs>
      <use xlink:href="#DejaVuSans-50"/>
      <use xlink:href="#DejaVuSans-43" x="60.302734"/>
      <use xlink:href="#DejaVuSans-31" x="130.126953"/>
     </g>
    </g>
   </g>
   <g id="matplotlib.axis_2">
    <g id="ytick_1">
     <g id="line2d_5">
      <defs>
       <path id="m8dcc387aa0" d="M 0 0 
L -6 0 
" style="stroke: #000000; stroke-width: 1.25"/>
      </defs>
      <g>
       <use xlink:href="#m8dcc387aa0" x="84.96" y="166.656155" style="stroke: #000000; stroke-width: 1.25"/>
      </g>
     </g>
     <g id="text_6">
      <!-- −50 -->
      <g transform="translate(40.637266 172.924866) scale(0.165 -0.165)">
       <defs>
        <path id="DejaVuSans-2212" d="M 678 2272 
L 4684 2272 
L 4684 1741 
L 678 1741 
L 678 2272 
z
" transform="scale(0.015625)"/>
        <path id="DejaVuSans-35" d="M 691 4666 
L 3169 4666 
L 3169 4134 
L 1269 4134 
L 1269 2991 
Q 1406 3038 1543 3061 
Q 1681 3084 1819 3084 
Q 2600 3084 3056 2656 
Q 3513 2228 3513 1497 
Q 3513 744 3044 326 
Q 2575 -91 1722 -91 
Q 1428 -91 1123 -41 
Q 819 9 494 109 
L 494 744 
Q 775 591 1075 516 
Q 1375 441 1709 441 
Q 2250 441 2565 725 
Q 2881 1009 2881 1497 
Q 2881 1984 2565 2268 
Q 2250 2553 1709 2553 
Q 1456 2553 1204 2497 
Q 953 2441 691 2322 
L 691 4666 
z
" transform="scale(0.015625)"/>
       </defs>
       <use xlink:href="#DejaVuSans-2212"/>
       <use xlink:href="#DejaVuSans-35" x="83.789062"/>
       <use xlink:href="#DejaVuSans-30" x="147.412109"/>
      </g>
     </g>
    </g>
    <g id="ytick_2">
     <g id="line2d_6">
      <g>
       <use xlink:href="#m8dcc387aa0" x="84.96" y="110.259255" style="stroke: #000000; stroke-width: 1.25"/>
      </g>
     </g>
     <g id="text_7">
      <!-- 0 -->
      <g transform="translate(64.961875 116.527966) scale(0.165 -0.165)">
       <use xlink:href="#DejaVuSans-30"/>
      </g>
     </g>
    </g>
    <g id="ytick_3">
     <g id="line2d_7">
      <g>
       <use xlink:href="#m8dcc387aa0" x="84.96" y="53.862355" style="stroke: #000000; stroke-width: 1.25"/>
      </g>
     </g>
     <g id="text_8">
      <!-- 50 -->
      <g transform="translate(54.46375 60.131066) scale(0.165 -0.165)">
       <use xlink:href="#DejaVuSans-35"/>
       <use xlink:href="#DejaVuSans-30" x="63.623047"/>
      </g>
     </g>
    </g>
    <g id="text_9">
     <!-- PC2 -->
     <g transform="translate(32.893828 137.7675) rotate(-90) scale(0.18 -0.18)">
      <use xlink:href="#DejaVuSans-50"/>
      <use xlink:href="#DejaVuSans-43" x="60.302734"/>
      <use xlink:href="#DejaVuSans-32" x="130.126953"/>
     </g>
    </g>
   </g>
   <g id="line2d_8">
    <path d="M 153.364829 105.818452 
L 133.207257 95.439193 
L 119.588192 118.339863 
L 107.148251 99.652906 
L 102.060512 109.713234 
L 106.315432 104.914548 
L 116.989812 111.544677 
L 193.791906 188.878591 
L 118.390517 115.030781 
L 96.578182 104.671572 
L 100.725839 103.748681 
L 106.246268 101.462646 
L 168.231086 115.948678 
L 199.531844 157.31066 
L 146.574028 132.072986 
L 123.298207 104.855286 
L 111.687829 101.719423 
L 112.909496 107.030734 
L 123.249222 115.761234 
L 121.538977 121.718639 
L 116.586516 118.389449 
L 115.4436 118.833518 
L 115.69039 113.358454 
L 109.027277 115.482687 
L 109.828477 114.915062 
L 116.971492 125.221382 
L 265.621233 212.048182 
L 172.305611 111.226075 
L 158.220678 80.597944 
L 160.433266 88.777207 
L 176.018097 101.963328 
L 213.000139 70.797541 
L 177.411347 157.055419 
L 139.113894 134.552683 
L 110.807406 105.003325 
L 115.55042 90.920525 
L 115.423966 109.351071 
L 119.425071 104.161457 
L 121.818323 103.826523 
L 128.521209 118.473616 
L 137.206972 111.86302 
L 129.847265 108.948062 
L 112.990869 109.497163 
L 101.750618 109.105585 
" clip-path="url(#p45e93762cf)" style="fill: none; stroke: #000000; stroke-opacity: 0.75; stroke-width: 1.5; stroke-linecap: square"/>
    <defs>
     <path id="m6fe51b4923" d="M 0 3 
C 0.795609 3 1.55874 2.683901 2.12132 2.12132 
C 2.683901 1.55874 3 0.795609 3 0 
C 3 -0.795609 2.683901 -1.55874 2.12132 -2.12132 
C 1.55874 -2.683901 0.795609 -3 0 -3 
C -0.795609 -3 -1.55874 -2.683901 -2.12132 -2.12132 
C -2.683901 -1.55874 -3 -0.795609 -3 0 
C -3 0.795609 -2.683901 1.55874 -2.12132 2.12132 
C -1.55874 2.683901 -0.795609 3 0 3 
z
" style="stroke: #000000; stroke-opacity: 0.75"/>
    </defs>
    <g clip-path="url(#p45e93762cf)">
     <use xlink:href="#m6fe51b4923" x="153.364829" y="105.818452" style="fill-opacity: 0.75; stroke: #000000; stroke-opacity: 0.75"/>
     <use xlink:href="#m6fe51b4923" x="133.207257" y="95.439193" style="fill-opacity: 0.75; stroke: #000000; stroke-opacity: 0.75"/>
     <use xlink:href="#m6fe51b4923" x="119.588192" y="118.339863" style="fill-opacity: 0.75; stroke: #000000; stroke-opacity: 0.75"/>
     <use xlink:href="#m6fe51b4923" x="107.148251" y="99.652906" style="fill-opacity: 0.75; stroke: #000000; stroke-opacity: 0.75"/>
     <use xlink:href="#m6fe51b4923" x="102.060512" y="109.713234" style="fill-opacity: 0.75; stroke: #000000; stroke-opacity: 0.75"/>
     <use xlink:href="#m6fe51b4923" x="106.315432" y="104.914548" style="fill-opacity: 0.75; stroke: #000000; stroke-opacity: 0.75"/>
     <use xlink:href="#m6fe51b4923" x="116.989812" y="111.544677" style="fill-opacity: 0.75; stroke: #000000; stroke-opacity: 0.75"/>
     <use xlink:href="#m6fe51b4923" x="193.791906" y="188.878591" style="fill-opacity: 0.75; stroke: #000000; stroke-opacity: 0.75"/>
     <use xlink:href="#m6fe51b4923" x="118.390517" y="115.030781" style="fill-opacity: 0.75; stroke: #000000; stroke-opacity: 0.75"/>
     <use xlink:href="#m6fe51b4923" x="96.578182" y="104.671572" style="fill-opacity: 0.75; stroke: #000000; stroke-opacity: 0.75"/>
     <use xlink:href="#m6fe51b4923" x="100.725839" y="103.748681" style="fill-opacity: 0.75; stroke: #000000; stroke-opacity: 0.75"/>
     <use xlink:href="#m6fe51b4923" x="106.246268" y="101.462646" style="fill-opacity: 0.75; stroke: #000000; stroke-opacity: 0.75"/>
     <use xlink:href="#m6fe51b4923" x="168.231086" y="115.948678" style="fill-opacity: 0.75; stroke: #000000; stroke-opacity: 0.75"/>
     <use xlink:href="#m6fe51b4923" x="199.531844" y="157.31066" style="fill-opacity: 0.75; stroke: #000000; stroke-opacity: 0.75"/>
     <use xlink:href="#m6fe51b4923" x="146.574028" y="132.072986" style="fill-opacity: 0.75; stroke: #000000; stroke-opacity: 0.75"/>
     <use xlink:href="#m6fe51b4923" x="123.298207" y="104.855286" style="fill-opacity: 0.75; stroke: #000000; stroke-opacity: 0.75"/>
     <use xlink:href="#m6fe51b4923" x="111.687829" y="101.719423" style="fill-opacity: 0.75; stroke: #000000; stroke-opacity: 0.75"/>
     <use xlink:href="#m6fe51b4923" x="112.909496" y="107.030734" style="fill-opacity: 0.75; stroke: #000000; stroke-opacity: 0.75"/>
     <use xlink:href="#m6fe51b4923" x="123.249222" y="115.761234" style="fill-opacity: 0.75; stroke: #000000; stroke-opacity: 0.75"/>
     <use xlink:href="#m6fe51b4923" x="121.538977" y="121.718639" style="fill-opacity: 0.75; stroke: #000000; stroke-opacity: 0.75"/>
     <use xlink:href="#m6fe51b4923" x="116.586516" y="118.389449" style="fill-opacity: 0.75; stroke: #000000; stroke-opacity: 0.75"/>
     <use xlink:href="#m6fe51b4923" x="115.4436" y="118.833518" style="fill-opacity: 0.75; stroke: #000000; stroke-opacity: 0.75"/>
     <use xlink:href="#m6fe51b4923" x="115.69039" y="113.358454" style="fill-opacity: 0.75; stroke: #000000; stroke-opacity: 0.75"/>
     <use xlink:href="#m6fe51b4923" x="109.027277" y="115.482687" style="fill-opacity: 0.75; stroke: #000000; stroke-opacity: 0.75"/>
     <use xlink:href="#m6fe51b4923" x="109.828477" y="114.915062" style="fill-opacity: 0.75; stroke: #000000; stroke-opacity: 0.75"/>
     <use xlink:href="#m6fe51b4923" x="116.971492" y="125.221382" style="fill-opacity: 0.75; stroke: #000000; stroke-opacity: 0.75"/>
     <use xlink:href="#m6fe51b4923" x="265.621233" y="212.048182" style="fill-opacity: 0.75; stroke: #000000; stroke-opacity: 0.75"/>
     <use xlink:href="#m6fe51b4923" x="172.305611" y="111.226075" style="fill-opacity: 0.75; stroke: #000000; stroke-opacity: 0.75"/>
     <use xlink:href="#m6fe51b4923" x="158.220678" y="80.597944" style="fill-opacity: 0.75; stroke: #000000; stroke-opacity: 0.75"/>
     <use xlink:href="#m6fe51b4923" x="160.433266" y="88.777207" style="fill-opacity: 0.75; stroke: #000000; stroke-opacity: 0.75"/>
     <use xlink:href="#m6fe51b4923" x="176.018097" y="101.963328" style="fill-opacity: 0.75; stroke: #000000; stroke-opacity: 0.75"/>
     <use xlink:href="#m6fe51b4923" x="213.000139" y="70.797541" style="fill-opacity: 0.75; stroke: #000000; stroke-opacity: 0.75"/>
     <use xlink:href="#m6fe51b4923" x="177.411347" y="157.055419" style="fill-opacity: 0.75; stroke: #000000; stroke-opacity: 0.75"/>
     <use xlink:href="#m6fe51b4923" x="139.113894" y="134.552683" style="fill-opacity: 0.75; stroke: #000000; stroke-opacity: 0.75"/>
     <use xlink:href="#m6fe51b4923" x="110.807406" y="105.003325" style="fill-opacity: 0.75; stroke: #000000; stroke-opacity: 0.75"/>
     <use xlink:href="#m6fe51b4923" x="115.55042" y="90.920525" style="fill-opacity: 0.75; stroke: #000000; stroke-opacity: 0.75"/>
     <use xlink:href="#m6fe51b4923" x="115.423966" y="109.351071" style="fill-opacity: 0.75; stroke: #000000; stroke-opacity: 0.75"/>
     <use xlink:href="#m6fe51b4923" x="119.425071" y="104.161457" style="fill-opacity: 0.75; stroke: #000000; stroke-opacity: 0.75"/>
     <use xlink:href="#m6fe51b4923" x="121.818323" y="103.826523" style="fill-opacity: 0.75; stroke: #000000; stroke-opacity: 0.75"/>
     <use xlink:href="#m6fe51b4923" x="128.521209" y="118.473616" style="fill-opacity: 0.75; stroke: #000000; stroke-opacity: 0.75"/>
     <use xlink:href="#m6fe51b4923" x="137.206972" y="111.86302" style="fill-opacity: 0.75; stroke: #000000; stroke-opacity: 0.75"/>
     <use xlink:href="#m6fe51b4923" x="129.847265" y="108.948062" style="fill-opacity: 0.75; stroke: #000000; stroke-opacity: 0.75"/>
     <use xlink:href="#m6fe51b4923" x="112.990869" y="109.497163" style="fill-opacity: 0.75; stroke: #000000; stroke-opacity: 0.75"/>
     <use xlink:href="#m6fe51b4923" x="101.750618" y="109.105585" style="fill-opacity: 0.75; stroke: #000000; stroke-opacity: 0.75"/>
    </g>
   </g>
   <g id="line2d_9">
    <path d="M 127.744029 112.263537 
L 141.955321 107.751239 
L 123.944742 106.615049 
L 109.139817 110.260719 
L 107.888789 107.986865 
L 111.159216 112.535046 
L 116.303206 119.728844 
L 193.945235 195.471709 
L 128.100706 116.999963 
L 104.596298 106.632607 
L 104.854325 102.766318 
L 118.297735 107.207742 
L 163.035281 120.960166 
L 198.415613 146.129736 
L 133.636182 118.402793 
L 100.660149 101.588266 
L 101.242181 101.157437 
L 104.308621 106.123453 
L 118.458591 113.678048 
L 141.403493 103.648282 
L 131.633224 108.651858 
L 111.401214 106.743148 
L 108.893676 110.312999 
L 111.623353 113.60104 
L 114.639685 116.060029 
L 127.036695 123.373028 
L 290.740356 188.420611 
L 328.941818 28.611818 
L 248.943558 46.913028 
L 243.357134 57.849263 
L 251.902986 37.238039 
L 246.932013 49.290298 
L 198.98569 157.499145 
L 140.727886 119.888772 
L 133.812874 85.793414 
L 144.285925 88.3914 
L 127.744796 103.960661 
L 124.888875 105.188285 
L 122.565204 105.49246 
L 116.31425 111.155717 
L 110.724611 106.548989 
L 108.45237 109.641721 
L 109.766098 113.331616 
L 105.756625 109.70619 
" clip-path="url(#p45e93762cf)" style="fill: none; stroke: #1e90ff; stroke-opacity: 0.75; stroke-width: 1.5; stroke-linecap: square"/>
    <defs>
     <path id="m05d9ea72d5" d="M 0 3 
C 0.795609 3 1.55874 2.683901 2.12132 2.12132 
C 2.683901 1.55874 3 0.795609 3 0 
C 3 -0.795609 2.683901 -1.55874 2.12132 -2.12132 
C 1.55874 -2.683901 0.795609 -3 0 -3 
C -0.795609 -3 -1.55874 -2.683901 -2.12132 -2.12132 
C -2.683901 -1.55874 -3 -0.795609 -3 0 
C -3 0.795609 -2.683901 1.55874 -2.12132 2.12132 
C -1.55874 2.683901 -0.795609 3 0 3 
z
" style="stroke: #1e90ff; stroke-opacity: 0.75"/>
    </defs>
    <g clip-path="url(#p45e93762cf)">
     <use xlink:href="#m05d9ea72d5" x="127.744029" y="112.263537" style="fill: #1e90ff; fill-opacity: 0.75; stroke: #1e90ff; stroke-opacity: 0.75"/>
     <use xlink:href="#m05d9ea72d5" x="141.955321" y="107.751239" style="fill: #1e90ff; fill-opacity: 0.75; stroke: #1e90ff; stroke-opacity: 0.75"/>
     <use xlink:href="#m05d9ea72d5" x="123.944742" y="106.615049" style="fill: #1e90ff; fill-opacity: 0.75; stroke: #1e90ff; stroke-opacity: 0.75"/>
     <use xlink:href="#m05d9ea72d5" x="109.139817" y="110.260719" style="fill: #1e90ff; fill-opacity: 0.75; stroke: #1e90ff; stroke-opacity: 0.75"/>
     <use xlink:href="#m05d9ea72d5" x="107.888789" y="107.986865" style="fill: #1e90ff; fill-opacity: 0.75; stroke: #1e90ff; stroke-opacity: 0.75"/>
     <use xlink:href="#m05d9ea72d5" x="111.159216" y="112.535046" style="fill: #1e90ff; fill-opacity: 0.75; stroke: #1e90ff; stroke-opacity: 0.75"/>
     <use xlink:href="#m05d9ea72d5" x="116.303206" y="119.728844" style="fill: #1e90ff; fill-opacity: 0.75; stroke: #1e90ff; stroke-opacity: 0.75"/>
     <use xlink:href="#m05d9ea72d5" x="193.945235" y="195.471709" style="fill: #1e90ff; fill-opacity: 0.75; stroke: #1e90ff; stroke-opacity: 0.75"/>
     <use xlink:href="#m05d9ea72d5" x="128.100706" y="116.999963" style="fill: #1e90ff; fill-opacity: 0.75; stroke: #1e90ff; stroke-opacity: 0.75"/>
     <use xlink:href="#m05d9ea72d5" x="104.596298" y="106.632607" style="fill: #1e90ff; fill-opacity: 0.75; stroke: #1e90ff; stroke-opacity: 0.75"/>
     <use xlink:href="#m05d9ea72d5" x="104.854325" y="102.766318" style="fill: #1e90ff; fill-opacity: 0.75; stroke: #1e90ff; stroke-opacity: 0.75"/>
     <use xlink:href="#m05d9ea72d5" x="118.297735" y="107.207742" style="fill: #1e90ff; fill-opacity: 0.75; stroke: #1e90ff; stroke-opacity: 0.75"/>
     <use xlink:href="#m05d9ea72d5" x="163.035281" y="120.960166" style="fill: #1e90ff; fill-opacity: 0.75; stroke: #1e90ff; stroke-opacity: 0.75"/>
     <use xlink:href="#m05d9ea72d5" x="198.415613" y="146.129736" style="fill: #1e90ff; fill-opacity: 0.75; stroke: #1e90ff; stroke-opacity: 0.75"/>
     <use xlink:href="#m05d9ea72d5" x="133.636182" y="118.402793" style="fill: #1e90ff; fill-opacity: 0.75; stroke: #1e90ff; stroke-opacity: 0.75"/>
     <use xlink:href="#m05d9ea72d5" x="100.660149" y="101.588266" style="fill: #1e90ff; fill-opacity: 0.75; stroke: #1e90ff; stroke-opacity: 0.75"/>
     <use xlink:href="#m05d9ea72d5" x="101.242181" y="101.157437" style="fill: #1e90ff; fill-opacity: 0.75; stroke: #1e90ff; stroke-opacity: 0.75"/>
     <use xlink:href="#m05d9ea72d5" x="104.308621" y="106.123453" style="fill: #1e90ff; fill-opacity: 0.75; stroke: #1e90ff; stroke-opacity: 0.75"/>
     <use xlink:href="#m05d9ea72d5" x="118.458591" y="113.678048" style="fill: #1e90ff; fill-opacity: 0.75; stroke: #1e90ff; stroke-opacity: 0.75"/>
     <use xlink:href="#m05d9ea72d5" x="141.403493" y="103.648282" style="fill: #1e90ff; fill-opacity: 0.75; stroke: #1e90ff; stroke-opacity: 0.75"/>
     <use xlink:href="#m05d9ea72d5" x="131.633224" y="108.651858" style="fill: #1e90ff; fill-opacity: 0.75; stroke: #1e90ff; stroke-opacity: 0.75"/>
     <use xlink:href="#m05d9ea72d5" x="111.401214" y="106.743148" style="fill: #1e90ff; fill-opacity: 0.75; stroke: #1e90ff; stroke-opacity: 0.75"/>
     <use xlink:href="#m05d9ea72d5" x="108.893676" y="110.312999" style="fill: #1e90ff; fill-opacity: 0.75; stroke: #1e90ff; stroke-opacity: 0.75"/>
     <use xlink:href="#m05d9ea72d5" x="111.623353" y="113.60104" style="fill: #1e90ff; fill-opacity: 0.75; stroke: #1e90ff; stroke-opacity: 0.75"/>
     <use xlink:href="#m05d9ea72d5" x="114.639685" y="116.060029" style="fill: #1e90ff; fill-opacity: 0.75; stroke: #1e90ff; stroke-opacity: 0.75"/>
     <use xlink:href="#m05d9ea72d5" x="127.036695" y="123.373028" style="fill: #1e90ff; fill-opacity: 0.75; stroke: #1e90ff; stroke-opacity: 0.75"/>
     <use xlink:href="#m05d9ea72d5" x="290.740356" y="188.420611" style="fill: #1e90ff; fill-opacity: 0.75; stroke: #1e90ff; stroke-opacity: 0.75"/>
     <use xlink:href="#m05d9ea72d5" x="328.941818" y="28.611818" style="fill: #1e90ff; fill-opacity: 0.75; stroke: #1e90ff; stroke-opacity: 0.75"/>
     <use xlink:href="#m05d9ea72d5" x="248.943558" y="46.913028" style="fill: #1e90ff; fill-opacity: 0.75; stroke: #1e90ff; stroke-opacity: 0.75"/>
     <use xlink:href="#m05d9ea72d5" x="243.357134" y="57.849263" style="fill: #1e90ff; fill-opacity: 0.75; stroke: #1e90ff; stroke-opacity: 0.75"/>
     <use xlink:href="#m05d9ea72d5" x="251.902986" y="37.238039" style="fill: #1e90ff; fill-opacity: 0.75; stroke: #1e90ff; stroke-opacity: 0.75"/>
     <use xlink:href="#m05d9ea72d5" x="246.932013" y="49.290298" style="fill: #1e90ff; fill-opacity: 0.75; stroke: #1e90ff; stroke-opacity: 0.75"/>
     <use xlink:href="#m05d9ea72d5" x="198.98569" y="157.499145" style="fill: #1e90ff; fill-opacity: 0.75; stroke: #1e90ff; stroke-opacity: 0.75"/>
     <use xlink:href="#m05d9ea72d5" x="140.727886" y="119.888772" style="fill: #1e90ff; fill-opacity: 0.75; stroke: #1e90ff; stroke-opacity: 0.75"/>
     <use xlink:href="#m05d9ea72d5" x="133.812874" y="85.793414" style="fill: #1e90ff; fill-opacity: 0.75; stroke: #1e90ff; stroke-opacity: 0.75"/>
     <use xlink:href="#m05d9ea72d5" x="144.285925" y="88.3914" style="fill: #1e90ff; fill-opacity: 0.75; stroke: #1e90ff; stroke-opacity: 0.75"/>
     <use xlink:href="#m05d9ea72d5" x="127.744796" y="103.960661" style="fill: #1e90ff; fill-opacity: 0.75; stroke: #1e90ff; stroke-opacity: 0.75"/>
     <use xlink:href="#m05d9ea72d5" x="124.888875" y="105.188285" style="fill: #1e90ff; fill-opacity: 0.75; stroke: #1e90ff; stroke-opacity: 0.75"/>
     <use xlink:href="#m05d9ea72d5" x="122.565204" y="105.49246" style="fill: #1e90ff; fill-opacity: 0.75; stroke: #1e90ff; stroke-opacity: 0.75"/>
     <use xlink:href="#m05d9ea72d5" x="116.31425" y="111.155717" style="fill: #1e90ff; fill-opacity: 0.75; stroke: #1e90ff; stroke-opacity: 0.75"/>
     <use xlink:href="#m05d9ea72d5" x="110.724611" y="106.548989" style="fill: #1e90ff; fill-opacity: 0.75; stroke: #1e90ff; stroke-opacity: 0.75"/>
     <use xlink:href="#m05d9ea72d5" x="108.45237" y="109.641721" style="fill: #1e90ff; fill-opacity: 0.75; stroke: #1e90ff; stroke-opacity: 0.75"/>
     <use xlink:href="#m05d9ea72d5" x="109.766098" y="113.331616" style="fill: #1e90ff; fill-opacity: 0.75; stroke: #1e90ff; stroke-opacity: 0.75"/>
     <use xlink:href="#m05d9ea72d5" x="105.756625" y="109.70619" style="fill: #1e90ff; fill-opacity: 0.75; stroke: #1e90ff; stroke-opacity: 0.75"/>
    </g>
   </g>
   <g id="line2d_10">
    <path d="M 132.705845 109.752191 
L 130.920393 108.121455 
L 114.01154 110.158061 
L 106.559921 109.63363 
L 103.876312 108.113994 
L 104.164633 111.472635 
L 105.771507 114.280685 
L 194.174236 190.792712 
L 177.069565 115.326443 
L 141.608228 96.074717 
L 134.070967 93.743359 
L 145.594052 95.824342 
L 161.935575 97.2814 
L 188.059902 159.953897 
L 125.570645 122.36473 
L 97.615316 103.357412 
L 101.211167 100.971265 
L 101.457144 103.850911 
L 115.561404 114.911611 
L 139.440285 113.203423 
L 137.296653 109.882691 
L 108.217648 111.450522 
L 101.552374 106.045724 
L 103.063098 110.503634 
L 107.703255 113.998974 
L 122.768376 128.726772 
L 247.149538 209.461065 
L 163.915137 107.917451 
L 145.579487 94.158856 
L 137.579228 91.869904 
L 163.876043 88.709529 
L 168.839614 83.177637 
L 184.33454 162.432625 
L 119.896858 107.616149 
L 105.37747 97.288866 
L 109.559834 94.199163 
L 119.323644 107.167703 
L 134.174659 111.398133 
L 142.4075 108.76658 
L 132.552966 100.789077 
L 112.742076 104.975119 
L 104.755583 108.375405 
L 102.82785 109.237777 
L 99.248509 109.828922 
" clip-path="url(#p45e93762cf)" style="fill: none; stroke: #808080; stroke-opacity: 0.75; stroke-width: 1.5; stroke-linecap: square"/>
    <defs>
     <path id="m82951090ca" d="M 0 3 
C 0.795609 3 1.55874 2.683901 2.12132 2.12132 
C 2.683901 1.55874 3 0.795609 3 0 
C 3 -0.795609 2.683901 -1.55874 2.12132 -2.12132 
C 1.55874 -2.683901 0.795609 -3 0 -3 
C -0.795609 -3 -1.55874 -2.683901 -2.12132 -2.12132 
C -2.683901 -1.55874 -3 -0.795609 -3 0 
C -3 0.795609 -2.683901 1.55874 -2.12132 2.12132 
C -1.55874 2.683901 -0.795609 3 0 3 
z
" style="stroke: #808080; stroke-opacity: 0.75"/>
    </defs>
    <g clip-path="url(#p45e93762cf)">
     <use xlink:href="#m82951090ca" x="132.705845" y="109.752191" style="fill: #808080; fill-opacity: 0.75; stroke: #808080; stroke-opacity: 0.75"/>
     <use xlink:href="#m82951090ca" x="130.920393" y="108.121455" style="fill: #808080; fill-opacity: 0.75; stroke: #808080; stroke-opacity: 0.75"/>
     <use xlink:href="#m82951090ca" x="114.01154" y="110.158061" style="fill: #808080; fill-opacity: 0.75; stroke: #808080; stroke-opacity: 0.75"/>
     <use xlink:href="#m82951090ca" x="106.559921" y="109.63363" style="fill: #808080; fill-opacity: 0.75; stroke: #808080; stroke-opacity: 0.75"/>
     <use xlink:href="#m82951090ca" x="103.876312" y="108.113994" style="fill: #808080; fill-opacity: 0.75; stroke: #808080; stroke-opacity: 0.75"/>
     <use xlink:href="#m82951090ca" x="104.164633" y="111.472635" style="fill: #808080; fill-opacity: 0.75; stroke: #808080; stroke-opacity: 0.75"/>
     <use xlink:href="#m82951090ca" x="105.771507" y="114.280685" style="fill: #808080; fill-opacity: 0.75; stroke: #808080; stroke-opacity: 0.75"/>
     <use xlink:href="#m82951090ca" x="194.174236" y="190.792712" style="fill: #808080; fill-opacity: 0.75; stroke: #808080; stroke-opacity: 0.75"/>
     <use xlink:href="#m82951090ca" x="177.069565" y="115.326443" style="fill: #808080; fill-opacity: 0.75; stroke: #808080; stroke-opacity: 0.75"/>
     <use xlink:href="#m82951090ca" x="141.608228" y="96.074717" style="fill: #808080; fill-opacity: 0.75; stroke: #808080; stroke-opacity: 0.75"/>
     <use xlink:href="#m82951090ca" x="134.070967" y="93.743359" style="fill: #808080; fill-opacity: 0.75; stroke: #808080; stroke-opacity: 0.75"/>
     <use xlink:href="#m82951090ca" x="145.594052" y="95.824342" style="fill: #808080; fill-opacity: 0.75; stroke: #808080; stroke-opacity: 0.75"/>
     <use xlink:href="#m82951090ca" x="161.935575" y="97.2814" style="fill: #808080; fill-opacity: 0.75; stroke: #808080; stroke-opacity: 0.75"/>
     <use xlink:href="#m82951090ca" x="188.059902" y="159.953897" style="fill: #808080; fill-opacity: 0.75; stroke: #808080; stroke-opacity: 0.75"/>
     <use xlink:href="#m82951090ca" x="125.570645" y="122.36473" style="fill: #808080; fill-opacity: 0.75; stroke: #808080; stroke-opacity: 0.75"/>
     <use xlink:href="#m82951090ca" x="97.615316" y="103.357412" style="fill: #808080; fill-opacity: 0.75; stroke: #808080; stroke-opacity: 0.75"/>
     <use xlink:href="#m82951090ca" x="101.211167" y="100.971265" style="fill: #808080; fill-opacity: 0.75; stroke: #808080; stroke-opacity: 0.75"/>
     <use xlink:href="#m82951090ca" x="101.457144" y="103.850911" style="fill: #808080; fill-opacity: 0.75; stroke: #808080; stroke-opacity: 0.75"/>
     <use xlink:href="#m82951090ca" x="115.561404" y="114.911611" style="fill: #808080; fill-opacity: 0.75; stroke: #808080; stroke-opacity: 0.75"/>
     <use xlink:href="#m82951090ca" x="139.440285" y="113.203423" style="fill: #808080; fill-opacity: 0.75; stroke: #808080; stroke-opacity: 0.75"/>
     <use xlink:href="#m82951090ca" x="137.296653" y="109.882691" style="fill: #808080; fill-opacity: 0.75; stroke: #808080; stroke-opacity: 0.75"/>
     <use xlink:href="#m82951090ca" x="108.217648" y="111.450522" style="fill: #808080; fill-opacity: 0.75; stroke: #808080; stroke-opacity: 0.75"/>
     <use xlink:href="#m82951090ca" x="101.552374" y="106.045724" style="fill: #808080; fill-opacity: 0.75; stroke: #808080; stroke-opacity: 0.75"/>
     <use xlink:href="#m82951090ca" x="103.063098" y="110.503634" style="fill: #808080; fill-opacity: 0.75; stroke: #808080; stroke-opacity: 0.75"/>
     <use xlink:href="#m82951090ca" x="107.703255" y="113.998974" style="fill: #808080; fill-opacity: 0.75; stroke: #808080; stroke-opacity: 0.75"/>
     <use xlink:href="#m82951090ca" x="122.768376" y="128.726772" style="fill: #808080; fill-opacity: 0.75; stroke: #808080; stroke-opacity: 0.75"/>
     <use xlink:href="#m82951090ca" x="247.149538" y="209.461065" style="fill: #808080; fill-opacity: 0.75; stroke: #808080; stroke-opacity: 0.75"/>
     <use xlink:href="#m82951090ca" x="163.915137" y="107.917451" style="fill: #808080; fill-opacity: 0.75; stroke: #808080; stroke-opacity: 0.75"/>
     <use xlink:href="#m82951090ca" x="145.579487" y="94.158856" style="fill: #808080; fill-opacity: 0.75; stroke: #808080; stroke-opacity: 0.75"/>
     <use xlink:href="#m82951090ca" x="137.579228" y="91.869904" style="fill: #808080; fill-opacity: 0.75; stroke: #808080; stroke-opacity: 0.75"/>
     <use xlink:href="#m82951090ca" x="163.876043" y="88.709529" style="fill: #808080; fill-opacity: 0.75; stroke: #808080; stroke-opacity: 0.75"/>
     <use xlink:href="#m82951090ca" x="168.839614" y="83.177637" style="fill: #808080; fill-opacity: 0.75; stroke: #808080; stroke-opacity: 0.75"/>
     <use xlink:href="#m82951090ca" x="184.33454" y="162.432625" style="fill: #808080; fill-opacity: 0.75; stroke: #808080; stroke-opacity: 0.75"/>
     <use xlink:href="#m82951090ca" x="119.896858" y="107.616149" style="fill: #808080; fill-opacity: 0.75; stroke: #808080; stroke-opacity: 0.75"/>
     <use xlink:href="#m82951090ca" x="105.37747" y="97.288866" style="fill: #808080; fill-opacity: 0.75; stroke: #808080; stroke-opacity: 0.75"/>
     <use xlink:href="#m82951090ca" x="109.559834" y="94.199163" style="fill: #808080; fill-opacity: 0.75; stroke: #808080; stroke-opacity: 0.75"/>
     <use xlink:href="#m82951090ca" x="119.323644" y="107.167703" style="fill: #808080; fill-opacity: 0.75; stroke: #808080; stroke-opacity: 0.75"/>
     <use xlink:href="#m82951090ca" x="134.174659" y="111.398133" style="fill: #808080; fill-opacity: 0.75; stroke: #808080; stroke-opacity: 0.75"/>
     <use xlink:href="#m82951090ca" x="142.4075" y="108.76658" style="fill: #808080; fill-opacity: 0.75; stroke: #808080; stroke-opacity: 0.75"/>
     <use xlink:href="#m82951090ca" x="132.552966" y="100.789077" style="fill: #808080; fill-opacity: 0.75; stroke: #808080; stroke-opacity: 0.75"/>
     <use xlink:href="#m82951090ca" x="112.742076" y="104.975119" style="fill: #808080; fill-opacity: 0.75; stroke: #808080; stroke-opacity: 0.75"/>
     <use xlink:href="#m82951090ca" x="104.755583" y="108.375405" style="fill: #808080; fill-opacity: 0.75; stroke: #808080; stroke-opacity: 0.75"/>
     <use xlink:href="#m82951090ca" x="102.82785" y="109.237777" style="fill: #808080; fill-opacity: 0.75; stroke: #808080; stroke-opacity: 0.75"/>
     <use xlink:href="#m82951090ca" x="99.248509" y="109.828922" style="fill: #808080; fill-opacity: 0.75; stroke: #808080; stroke-opacity: 0.75"/>
    </g>
   </g>
   <g id="line2d_11">
    <path d="M 131.622528 112.615408 
L 134.613028 106.347364 
L 115.091748 111.048798 
L 103.473733 108.882912 
L 101.872634 110.0478 
L 107.193607 111.582268 
L 109.356482 114.673875 
L 190.111932 186.496806 
L 176.456244 118.439429 
L 146.157497 90.829215 
L 135.928666 97.286304 
L 143.838349 97.522681 
L 157.682558 100.946021 
L 188.43415 156.046823 
L 125.560511 122.084446 
L 99.335531 102.420162 
L 99.877956 102.946572 
L 100.313516 103.925435 
L 112.776934 108.81163 
L 136.053872 108.184451 
L 132.651691 106.515904 
L 106.470773 108.657494 
L 102.408789 109.147247 
L 103.948363 110.481822 
L 104.59275 113.0825 
L 115.535637 124.57692 
L 270.75088 196.54 
L 317.140219 38.110256 
L 249.209212 57.076463 
L 241.188792 51.861581 
L 241.803991 37.395213 
L 243.084396 43.366466 
L 191.879852 151.676462 
L 134.605286 116.102211 
L 131.611681 87.775923 
L 140.148209 95.92347 
L 129.765493 98.182306 
L 123.165319 107.041076 
L 124.345405 107.458556 
L 119.458974 107.264291 
L 113.082679 108.5036 
L 111.336234 113.148566 
L 108.532393 110.292833 
L 102.647696 105.568813 
" clip-path="url(#p45e93762cf)" style="fill: none; stroke: #ff00ff; stroke-opacity: 0.75; stroke-width: 1.5; stroke-linecap: square"/>
    <defs>
     <path id="mcc81bf50e2" d="M 0 3 
C 0.795609 3 1.55874 2.683901 2.12132 2.12132 
C 2.683901 1.55874 3 0.795609 3 0 
C 3 -0.795609 2.683901 -1.55874 2.12132 -2.12132 
C 1.55874 -2.683901 0.795609 -3 0 -3 
C -0.795609 -3 -1.55874 -2.683901 -2.12132 -2.12132 
C -2.683901 -1.55874 -3 -0.795609 -3 0 
C -3 0.795609 -2.683901 1.55874 -2.12132 2.12132 
C -1.55874 2.683901 -0.795609 3 0 3 
z
" style="stroke: #ff00ff; stroke-opacity: 0.75"/>
    </defs>
    <g clip-path="url(#p45e93762cf)">
     <use xlink:href="#mcc81bf50e2" x="131.622528" y="112.615408" style="fill: #ff00ff; fill-opacity: 0.75; stroke: #ff00ff; stroke-opacity: 0.75"/>
     <use xlink:href="#mcc81bf50e2" x="134.613028" y="106.347364" style="fill: #ff00ff; fill-opacity: 0.75; stroke: #ff00ff; stroke-opacity: 0.75"/>
     <use xlink:href="#mcc81bf50e2" x="115.091748" y="111.048798" style="fill: #ff00ff; fill-opacity: 0.75; stroke: #ff00ff; stroke-opacity: 0.75"/>
     <use xlink:href="#mcc81bf50e2" x="103.473733" y="108.882912" style="fill: #ff00ff; fill-opacity: 0.75; stroke: #ff00ff; stroke-opacity: 0.75"/>
     <use xlink:href="#mcc81bf50e2" x="101.872634" y="110.0478" style="fill: #ff00ff; fill-opacity: 0.75; stroke: #ff00ff; stroke-opacity: 0.75"/>
     <use xlink:href="#mcc81bf50e2" x="107.193607" y="111.582268" style="fill: #ff00ff; fill-opacity: 0.75; stroke: #ff00ff; stroke-opacity: 0.75"/>
     <use xlink:href="#mcc81bf50e2" x="109.356482" y="114.673875" style="fill: #ff00ff; fill-opacity: 0.75; stroke: #ff00ff; stroke-opacity: 0.75"/>
     <use xlink:href="#mcc81bf50e2" x="190.111932" y="186.496806" style="fill: #ff00ff; fill-opacity: 0.75; stroke: #ff00ff; stroke-opacity: 0.75"/>
     <use xlink:href="#mcc81bf50e2" x="176.456244" y="118.439429" style="fill: #ff00ff; fill-opacity: 0.75; stroke: #ff00ff; stroke-opacity: 0.75"/>
     <use xlink:href="#mcc81bf50e2" x="146.157497" y="90.829215" style="fill: #ff00ff; fill-opacity: 0.75; stroke: #ff00ff; stroke-opacity: 0.75"/>
     <use xlink:href="#mcc81bf50e2" x="135.928666" y="97.286304" style="fill: #ff00ff; fill-opacity: 0.75; stroke: #ff00ff; stroke-opacity: 0.75"/>
     <use xlink:href="#mcc81bf50e2" x="143.838349" y="97.522681" style="fill: #ff00ff; fill-opacity: 0.75; stroke: #ff00ff; stroke-opacity: 0.75"/>
     <use xlink:href="#mcc81bf50e2" x="157.682558" y="100.946021" style="fill: #ff00ff; fill-opacity: 0.75; stroke: #ff00ff; stroke-opacity: 0.75"/>
     <use xlink:href="#mcc81bf50e2" x="188.43415" y="156.046823" style="fill: #ff00ff; fill-opacity: 0.75; stroke: #ff00ff; stroke-opacity: 0.75"/>
     <use xlink:href="#mcc81bf50e2" x="125.560511" y="122.084446" style="fill: #ff00ff; fill-opacity: 0.75; stroke: #ff00ff; stroke-opacity: 0.75"/>
     <use xlink:href="#mcc81bf50e2" x="99.335531" y="102.420162" style="fill: #ff00ff; fill-opacity: 0.75; stroke: #ff00ff; stroke-opacity: 0.75"/>
     <use xlink:href="#mcc81bf50e2" x="99.877956" y="102.946572" style="fill: #ff00ff; fill-opacity: 0.75; stroke: #ff00ff; stroke-opacity: 0.75"/>
     <use xlink:href="#mcc81bf50e2" x="100.313516" y="103.925435" style="fill: #ff00ff; fill-opacity: 0.75; stroke: #ff00ff; stroke-opacity: 0.75"/>
     <use xlink:href="#mcc81bf50e2" x="112.776934" y="108.81163" style="fill: #ff00ff; fill-opacity: 0.75; stroke: #ff00ff; stroke-opacity: 0.75"/>
     <use xlink:href="#mcc81bf50e2" x="136.053872" y="108.184451" style="fill: #ff00ff; fill-opacity: 0.75; stroke: #ff00ff; stroke-opacity: 0.75"/>
     <use xlink:href="#mcc81bf50e2" x="132.651691" y="106.515904" style="fill: #ff00ff; fill-opacity: 0.75; stroke: #ff00ff; stroke-opacity: 0.75"/>
     <use xlink:href="#mcc81bf50e2" x="106.470773" y="108.657494" style="fill: #ff00ff; fill-opacity: 0.75; stroke: #ff00ff; stroke-opacity: 0.75"/>
     <use xlink:href="#mcc81bf50e2" x="102.408789" y="109.147247" style="fill: #ff00ff; fill-opacity: 0.75; stroke: #ff00ff; stroke-opacity: 0.75"/>
     <use xlink:href="#mcc81bf50e2" x="103.948363" y="110.481822" style="fill: #ff00ff; fill-opacity: 0.75; stroke: #ff00ff; stroke-opacity: 0.75"/>
     <use xlink:href="#mcc81bf50e2" x="104.59275" y="113.0825" style="fill: #ff00ff; fill-opacity: 0.75; stroke: #ff00ff; stroke-opacity: 0.75"/>
     <use xlink:href="#mcc81bf50e2" x="115.535637" y="124.57692" style="fill: #ff00ff; fill-opacity: 0.75; stroke: #ff00ff; stroke-opacity: 0.75"/>
     <use xlink:href="#mcc81bf50e2" x="270.75088" y="196.54" style="fill: #ff00ff; fill-opacity: 0.75; stroke: #ff00ff; stroke-opacity: 0.75"/>
     <use xlink:href="#mcc81bf50e2" x="317.140219" y="38.110256" style="fill: #ff00ff; fill-opacity: 0.75; stroke: #ff00ff; stroke-opacity: 0.75"/>
     <use xlink:href="#mcc81bf50e2" x="249.209212" y="57.076463" style="fill: #ff00ff; fill-opacity: 0.75; stroke: #ff00ff; stroke-opacity: 0.75"/>
     <use xlink:href="#mcc81bf50e2" x="241.188792" y="51.861581" style="fill: #ff00ff; fill-opacity: 0.75; stroke: #ff00ff; stroke-opacity: 0.75"/>
     <use xlink:href="#mcc81bf50e2" x="241.803991" y="37.395213" style="fill: #ff00ff; fill-opacity: 0.75; stroke: #ff00ff; stroke-opacity: 0.75"/>
     <use xlink:href="#mcc81bf50e2" x="243.084396" y="43.366466" style="fill: #ff00ff; fill-opacity: 0.75; stroke: #ff00ff; stroke-opacity: 0.75"/>
     <use xlink:href="#mcc81bf50e2" x="191.879852" y="151.676462" style="fill: #ff00ff; fill-opacity: 0.75; stroke: #ff00ff; stroke-opacity: 0.75"/>
     <use xlink:href="#mcc81bf50e2" x="134.605286" y="116.102211" style="fill: #ff00ff; fill-opacity: 0.75; stroke: #ff00ff; stroke-opacity: 0.75"/>
     <use xlink:href="#mcc81bf50e2" x="131.611681" y="87.775923" style="fill: #ff00ff; fill-opacity: 0.75; stroke: #ff00ff; stroke-opacity: 0.75"/>
     <use xlink:href="#mcc81bf50e2" x="140.148209" y="95.92347" style="fill: #ff00ff; fill-opacity: 0.75; stroke: #ff00ff; stroke-opacity: 0.75"/>
     <use xlink:href="#mcc81bf50e2" x="129.765493" y="98.182306" style="fill: #ff00ff; fill-opacity: 0.75; stroke: #ff00ff; stroke-opacity: 0.75"/>
     <use xlink:href="#mcc81bf50e2" x="123.165319" y="107.041076" style="fill: #ff00ff; fill-opacity: 0.75; stroke: #ff00ff; stroke-opacity: 0.75"/>
     <use xlink:href="#mcc81bf50e2" x="124.345405" y="107.458556" style="fill: #ff00ff; fill-opacity: 0.75; stroke: #ff00ff; stroke-opacity: 0.75"/>
     <use xlink:href="#mcc81bf50e2" x="119.458974" y="107.264291" style="fill: #ff00ff; fill-opacity: 0.75; stroke: #ff00ff; stroke-opacity: 0.75"/>
     <use xlink:href="#mcc81bf50e2" x="113.082679" y="108.5036" style="fill: #ff00ff; fill-opacity: 0.75; stroke: #ff00ff; stroke-opacity: 0.75"/>
     <use xlink:href="#mcc81bf50e2" x="111.336234" y="113.148566" style="fill: #ff00ff; fill-opacity: 0.75; stroke: #ff00ff; stroke-opacity: 0.75"/>
     <use xlink:href="#mcc81bf50e2" x="108.532393" y="110.292833" style="fill: #ff00ff; fill-opacity: 0.75; stroke: #ff00ff; stroke-opacity: 0.75"/>
     <use xlink:href="#mcc81bf50e2" x="102.647696" y="105.568813" style="fill: #ff00ff; fill-opacity: 0.75; stroke: #ff00ff; stroke-opacity: 0.75"/>
    </g>
   </g>
   <g id="patch_3">
    <path d="M 84.96 221.22 
L 84.96 19.44 
" style="fill: none; stroke: #000000; stroke-width: 1.25; stroke-linejoin: miter; stroke-linecap: square"/>
   </g>
   <g id="patch_4">
    <path d="M 84.96 221.22 
L 340.56 221.22 
" style="fill: none; stroke: #000000; stroke-width: 1.25; stroke-linejoin: miter; stroke-linecap: square"/>
   </g>
  </g>
 </g>
 <defs>
  <clipPath id="p45e93762cf">
   <rect x="84.96" y="19.44" width="255.6" height="201.78"/>
  </clipPath>
 </defs>
</svg>
