<?xml version="1.0" encoding="utf-8" standalone="no"?>
<!DOCTYPE svg PUBLIC "-//W3C//DTD SVG 1.1//EN"
  "http://www.w3.org/Graphics/SVG/1.1/DTD/svg11.dtd">
<svg xmlns:xlink="http://www.w3.org/1999/xlink" width="432pt" height="864pt" viewBox="0 0 432 864" xmlns="http://www.w3.org/2000/svg" version="1.1">
 <metadata>
  <rdf:RDF xmlns:dc="http://purl.org/dc/elements/1.1/" xmlns:cc="http://creativecommons.org/ns#" xmlns:rdf="http://www.w3.org/1999/02/22-rdf-syntax-ns#">
   <cc:Work>
    <dc:type rdf:resource="http://purl.org/dc/dcmitype/StillImage"/>
    <dc:date>2024-08-30T19:04:34.289554</dc:date>
    <dc:format>image/svg+xml</dc:format>
    <dc:creator>
     <cc:Agent>
      <dc:title>Matplotlib v3.9.2, https://matplotlib.org/</dc:title>
     </cc:Agent>
    </dc:creator>
   </cc:Work>
  </rdf:RDF>
 </metadata>
 <defs>
  <style type="text/css">*{stroke-linejoin: round; stroke-linecap: butt}</style>
 </defs>
 <g id="figure_1">
  <g id="patch_1">
   <path d="M 0 864 
L 432 864 
L 432 0 
L 0 0 
z
" style="fill: #ffffff"/>
  </g>
  <g id="axes_1">
   <g id="patch_2">
    <path d="M 95.4 276.06 
L 412.56 276.06 
L 412.56 82.26 
L 95.4 82.26 
z
" style="fill: #ffffff"/>
   </g>
   <g id="patch_3">
    <path d="M 148.371755 276.06 
L 190.279789 276.06 
L 190.279789 82.26 
L 148.371755 82.26 
z
" clip-path="url(#p45b82884c4)" style="fill: #808080; opacity: 0.35; stroke: #808080; stroke-linejoin: miter"/>
   </g>
   <g id="patch_4">
    <path d="M 274.095856 276.06 
L 316.00389 276.06 
L 316.00389 82.26 
L 274.095856 82.26 
z
" clip-path="url(#p45b82884c4)" style="fill: #808080; opacity: 0.35; stroke: #808080; stroke-linejoin: miter"/>
   </g>
   <g id="matplotlib.axis_1">
    <g id="xtick_1">
     <g id="line2d_1">
      <defs>
       <path id="m7b545a1bd4" d="M 0 0 
L 0 6 
" style="stroke: #000000; stroke-width: 1.25"/>
      </defs>
      <g>
       <use xlink:href="#m7b545a1bd4" x="106.463721" y="276.06" style="stroke: #000000; stroke-width: 1.25"/>
      </g>
     </g>
     <g id="text_1">
      <!-- −1.0 -->
      <g transform="translate(86.430401 298.097422) scale(0.165 -0.165)">
       <defs>
        <path id="DejaVuSans-2212" d="M 678 2272 
L 4684 2272 
L 4684 1741 
L 678 1741 
L 678 2272 
z
" transform="scale(0.015625)"/>
        <path id="DejaVuSans-31" d="M 794 531 
L 1825 531 
L 1825 4091 
L 703 3866 
L 703 4441 
L 1819 4666 
L 2450 4666 
L 2450 531 
L 3481 531 
L 3481 0 
L 794 0 
L 794 531 
z
" transform="scale(0.015625)"/>
        <path id="DejaVuSans-2e" d="M 684 794 
L 1344 794 
L 1344 0 
L 684 0 
L 684 794 
z
" transform="scale(0.015625)"/>
        <path id="DejaVuSans-30" d="M 2034 4250 
Q 1547 4250 1301 3770 
Q 1056 3291 1056 2328 
Q 1056 1369 1301 889 
Q 1547 409 2034 409 
Q 2525 409 2770 889 
Q 3016 1369 3016 2328 
Q 3016 3291 2770 3770 
Q 2525 4250 2034 4250 
z
M 2034 4750 
Q 2819 4750 3233 4129 
Q 3647 3509 3647 2328 
Q 3647 1150 3233 529 
Q 2819 -91 2034 -91 
Q 1250 -91 836 529 
Q 422 1150 422 2328 
Q 422 3509 836 4129 
Q 1250 4750 2034 4750 
z
" transform="scale(0.015625)"/>
       </defs>
       <use xlink:href="#DejaVuSans-2212"/>
       <use xlink:href="#DejaVuSans-31" x="83.789062"/>
       <use xlink:href="#DejaVuSans-2e" x="147.412109"/>
       <use xlink:href="#DejaVuSans-30" x="179.199219"/>
      </g>
     </g>
    </g>
    <g id="xtick_2">
     <g id="line2d_2">
      <g>
       <use xlink:href="#m7b545a1bd4" x="190.279789" y="276.06" style="stroke: #000000; stroke-width: 1.25"/>
      </g>
     </g>
     <g id="text_2">
      <!-- −0.5 -->
      <g transform="translate(170.246468 298.097422) scale(0.165 -0.165)">
       <defs>
        <path id="DejaVuSans-35" d="M 691 4666 
L 3169 4666 
L 3169 4134 
L 1269 4134 
L 1269 2991 
Q 1406 3038 1543 3061 
Q 1681 3084 1819 3084 
Q 2600 3084 3056 2656 
Q 3513 2228 3513 1497 
Q 3513 744 3044 326 
Q 2575 -91 1722 -91 
Q 1428 -91 1123 -41 
Q 819 9 494 109 
L 494 744 
Q 775 591 1075 516 
Q 1375 441 1709 441 
Q 2250 441 2565 725 
Q 2881 1009 2881 1497 
Q 2881 1984 2565 2268 
Q 2250 2553 1709 2553 
Q 1456 2553 1204 2497 
Q 953 2441 691 2322 
L 691 4666 
z
" transform="scale(0.015625)"/>
       </defs>
       <use xlink:href="#DejaVuSans-2212"/>
       <use xlink:href="#DejaVuSans-30" x="83.789062"/>
       <use xlink:href="#DejaVuSans-2e" x="147.412109"/>
       <use xlink:href="#DejaVuSans-35" x="179.199219"/>
      </g>
     </g>
    </g>
    <g id="xtick_3">
     <g id="line2d_3">
      <g>
       <use xlink:href="#m7b545a1bd4" x="274.095856" y="276.06" style="stroke: #000000; stroke-width: 1.25"/>
      </g>
     </g>
     <g id="text_3">
      <!-- 0.0 -->
      <g transform="translate(260.975778 298.097422) scale(0.165 -0.165)">
       <use xlink:href="#DejaVuSans-30"/>
       <use xlink:href="#DejaVuSans-2e" x="63.623047"/>
       <use xlink:href="#DejaVuSans-30" x="95.410156"/>
      </g>
     </g>
    </g>
    <g id="xtick_4">
     <g id="line2d_4">
      <g>
       <use xlink:href="#m7b545a1bd4" x="357.911924" y="276.06" style="stroke: #000000; stroke-width: 1.25"/>
      </g>
     </g>
     <g id="text_4">
      <!-- 0.5 -->
      <g transform="translate(344.791846 298.097422) scale(0.165 -0.165)">
       <use xlink:href="#DejaVuSans-30"/>
       <use xlink:href="#DejaVuSans-2e" x="63.623047"/>
       <use xlink:href="#DejaVuSans-35" x="95.410156"/>
      </g>
     </g>
    </g>
    <g id="text_5">
     <!-- time -->
     <g transform="translate(233.647031 319.206094) scale(0.18 -0.18)">
      <defs>
       <path id="DejaVuSans-74" d="M 1172 4494 
L 1172 3500 
L 2356 3500 
L 2356 3053 
L 1172 3053 
L 1172 1153 
Q 1172 725 1289 603 
Q 1406 481 1766 481 
L 2356 481 
L 2356 0 
L 1766 0 
Q 1100 0 847 248 
Q 594 497 594 1153 
L 594 3053 
L 172 3053 
L 172 3500 
L 594 3500 
L 594 4494 
L 1172 4494 
z
" transform="scale(0.015625)"/>
       <path id="DejaVuSans-69" d="M 603 3500 
L 1178 3500 
L 1178 0 
L 603 0 
L 603 3500 
z
M 603 4863 
L 1178 4863 
L 1178 4134 
L 603 4134 
L 603 4863 
z
" transform="scale(0.015625)"/>
       <path id="DejaVuSans-6d" d="M 3328 2828 
Q 3544 3216 3844 3400 
Q 4144 3584 4550 3584 
Q 5097 3584 5394 3201 
Q 5691 2819 5691 2113 
L 5691 0 
L 5113 0 
L 5113 2094 
Q 5113 2597 4934 2840 
Q 4756 3084 4391 3084 
Q 3944 3084 3684 2787 
Q 3425 2491 3425 1978 
L 3425 0 
L 2847 0 
L 2847 2094 
Q 2847 2600 2669 2842 
Q 2491 3084 2119 3084 
Q 1678 3084 1418 2786 
Q 1159 2488 1159 1978 
L 1159 0 
L 581 0 
L 581 3500 
L 1159 3500 
L 1159 2956 
Q 1356 3278 1631 3431 
Q 1906 3584 2284 3584 
Q 2666 3584 2933 3390 
Q 3200 3197 3328 2828 
z
" transform="scale(0.015625)"/>
       <path id="DejaVuSans-65" d="M 3597 1894 
L 3597 1613 
L 953 1613 
Q 991 1019 1311 708 
Q 1631 397 2203 397 
Q 2534 397 2845 478 
Q 3156 559 3463 722 
L 3463 178 
Q 3153 47 2828 -22 
Q 2503 -91 2169 -91 
Q 1331 -91 842 396 
Q 353 884 353 1716 
Q 353 2575 817 3079 
Q 1281 3584 2069 3584 
Q 2775 3584 3186 3129 
Q 3597 2675 3597 1894 
z
M 3022 2063 
Q 3016 2534 2758 2815 
Q 2500 3097 2075 3097 
Q 1594 3097 1305 2825 
Q 1016 2553 972 2059 
L 3022 2063 
z
" transform="scale(0.015625)"/>
      </defs>
      <use xlink:href="#DejaVuSans-74"/>
      <use xlink:href="#DejaVuSans-69" x="39.208984"/>
      <use xlink:href="#DejaVuSans-6d" x="66.992188"/>
      <use xlink:href="#DejaVuSans-65" x="164.404297"/>
     </g>
    </g>
   </g>
   <g id="matplotlib.axis_2">
    <g id="ytick_1">
     <g id="line2d_5">
      <defs>
       <path id="m1e7fbd0837" d="M 0 0 
L -6 0 
" style="stroke: #000000; stroke-width: 1.25"/>
      </defs>
      <g>
       <use xlink:href="#m1e7fbd0837" x="95.4" y="237.434256" style="stroke: #000000; stroke-width: 1.25"/>
      </g>
     </g>
     <g id="text_6">
      <!-- 0 -->
      <g transform="translate(75.401875 243.702967) scale(0.165 -0.165)">
       <use xlink:href="#DejaVuSans-30"/>
      </g>
     </g>
    </g>
    <g id="ytick_2">
     <g id="line2d_6">
      <g>
       <use xlink:href="#m1e7fbd0837" x="95.4" y="193.183505" style="stroke: #000000; stroke-width: 1.25"/>
      </g>
     </g>
     <g id="text_7">
      <!-- 100 -->
      <g transform="translate(54.405625 199.452215) scale(0.165 -0.165)">
       <use xlink:href="#DejaVuSans-31"/>
       <use xlink:href="#DejaVuSans-30" x="63.623047"/>
       <use xlink:href="#DejaVuSans-30" x="127.246094"/>
      </g>
     </g>
    </g>
    <g id="ytick_3">
     <g id="line2d_7">
      <g>
       <use xlink:href="#m1e7fbd0837" x="95.4" y="148.932753" style="stroke: #000000; stroke-width: 1.25"/>
      </g>
     </g>
     <g id="text_8">
      <!-- 200 -->
      <g transform="translate(54.405625 155.201464) scale(0.165 -0.165)">
       <defs>
        <path id="DejaVuSans-32" d="M 1228 531 
L 3431 531 
L 3431 0 
L 469 0 
L 469 531 
Q 828 903 1448 1529 
Q 2069 2156 2228 2338 
Q 2531 2678 2651 2914 
Q 2772 3150 2772 3378 
Q 2772 3750 2511 3984 
Q 2250 4219 1831 4219 
Q 1534 4219 1204 4116 
Q 875 4013 500 3803 
L 500 4441 
Q 881 4594 1212 4672 
Q 1544 4750 1819 4750 
Q 2544 4750 2975 4387 
Q 3406 4025 3406 3419 
Q 3406 3131 3298 2873 
Q 3191 2616 2906 2266 
Q 2828 2175 2409 1742 
Q 1991 1309 1228 531 
z
" transform="scale(0.015625)"/>
       </defs>
       <use xlink:href="#DejaVuSans-32"/>
       <use xlink:href="#DejaVuSans-30" x="63.623047"/>
       <use xlink:href="#DejaVuSans-30" x="127.246094"/>
      </g>
     </g>
    </g>
    <g id="ytick_4">
     <g id="line2d_8">
      <g>
       <use xlink:href="#m1e7fbd0837" x="95.4" y="104.682002" style="stroke: #000000; stroke-width: 1.25"/>
      </g>
     </g>
     <g id="text_9">
      <!-- 300 -->
      <g transform="translate(54.405625 110.950713) scale(0.165 -0.165)">
       <defs>
        <path id="DejaVuSans-33" d="M 2597 2516 
Q 3050 2419 3304 2112 
Q 3559 1806 3559 1356 
Q 3559 666 3084 287 
Q 2609 -91 1734 -91 
Q 1441 -91 1130 -33 
Q 819 25 488 141 
L 488 750 
Q 750 597 1062 519 
Q 1375 441 1716 441 
Q 2309 441 2620 675 
Q 2931 909 2931 1356 
Q 2931 1769 2642 2001 
Q 2353 2234 1838 2234 
L 1294 2234 
L 1294 2753 
L 1863 2753 
Q 2328 2753 2575 2939 
Q 2822 3125 2822 3475 
Q 2822 3834 2567 4026 
Q 2313 4219 1838 4219 
Q 1578 4219 1281 4162 
Q 984 4106 628 3988 
L 628 4550 
Q 988 4650 1302 4700 
Q 1616 4750 1894 4750 
Q 2613 4750 3031 4423 
Q 3450 4097 3450 3541 
Q 3450 3153 3228 2886 
Q 3006 2619 2597 2516 
z
" transform="scale(0.015625)"/>
       </defs>
       <use xlink:href="#DejaVuSans-33"/>
       <use xlink:href="#DejaVuSans-30" x="63.623047"/>
       <use xlink:href="#DejaVuSans-30" x="127.246094"/>
      </g>
     </g>
    </g>
    <g id="text_10">
     <!-- PC1 -->
     <g transform="translate(46.662188 196.5975) rotate(-90) scale(0.18 -0.18)">
      <defs>
       <path id="DejaVuSans-50" d="M 1259 4147 
L 1259 2394 
L 2053 2394 
Q 2494 2394 2734 2622 
Q 2975 2850 2975 3272 
Q 2975 3691 2734 3919 
Q 2494 4147 2053 4147 
L 1259 4147 
z
M 628 4666 
L 2053 4666 
Q 2838 4666 3239 4311 
Q 3641 3956 3641 3272 
Q 3641 2581 3239 2228 
Q 2838 1875 2053 1875 
L 1259 1875 
L 1259 0 
L 628 0 
L 628 4666 
z
" transform="scale(0.015625)"/>
       <path id="DejaVuSans-43" d="M 4122 4306 
L 4122 3641 
Q 3803 3938 3442 4084 
Q 3081 4231 2675 4231 
Q 1875 4231 1450 3742 
Q 1025 3253 1025 2328 
Q 1025 1406 1450 917 
Q 1875 428 2675 428 
Q 3081 428 3442 575 
Q 3803 722 4122 1019 
L 4122 359 
Q 3791 134 3420 21 
Q 3050 -91 2638 -91 
Q 1578 -91 968 557 
Q 359 1206 359 2328 
Q 359 3453 968 4101 
Q 1578 4750 2638 4750 
Q 3056 4750 3426 4639 
Q 3797 4528 4122 4306 
z
" transform="scale(0.015625)"/>
      </defs>
      <use xlink:href="#DejaVuSans-50"/>
      <use xlink:href="#DejaVuSans-43" x="60.302734"/>
      <use xlink:href="#DejaVuSans-31" x="130.126953"/>
     </g>
    </g>
   </g>
   <g id="line2d_9">
    <path d="M 109.816364 251.604325 
L 116.521649 259.482544 
L 123.226934 254.859 
L 129.93222 257.142372 
L 136.637505 256.722062 
L 143.342791 253.719843 
L 150.048076 255.461424 
L 156.753362 182.11931 
L 163.458647 210.537962 
L 170.163932 242.943448 
L 176.869218 235.561544 
L 183.574503 227.303781 
L 190.279789 223.728295 
L 196.985074 219.863632 
L 203.690359 252.969814 
L 210.395645 266.684977 
L 217.10093 261.891242 
L 223.806216 254.669735 
L 230.511501 256.409478 
L 237.216786 254.978165 
L 243.922072 253.057457 
L 250.627357 251.482957 
L 257.332643 250.284196 
L 264.037928 252.134677 
L 270.743214 256.554136 
L 277.448499 236.46611 
L 284.153784 139.088345 
L 290.85907 186.207516 
L 297.564355 199.596194 
L 304.269641 216.164089 
L 310.974926 225.126562 
L 317.680211 227.259142 
L 324.385497 220.427778 
L 331.090782 256.324886 
L 337.796068 262.993419 
L 344.501353 260.368479 
L 351.206638 256.917427 
L 357.911924 253.867846 
L 364.617209 253.730015 
L 371.322495 256.864681 
L 378.02778 255.763046 
L 384.733066 259.086959 
L 391.438351 261.325072 
L 398.143636 260.173063 
" clip-path="url(#p45b82884c4)" style="fill: none; stroke: #000000; stroke-opacity: 0.75; stroke-width: 1.5; stroke-linecap: square"/>
   </g>
   <g id="line2d_10">
    <path d="M 109.816364 255.057048 
L 116.521649 256.578426 
L 123.226934 254.342704 
L 129.93222 256.299407 
L 136.637505 255.300245 
L 143.342791 255.577338 
L 150.048076 252.318296 
L 156.753362 177.563584 
L 163.458647 216.305438 
L 170.163932 240.631397 
L 176.869218 234.460471 
L 183.574503 229.676495 
L 190.279789 230.35609 
L 196.985074 221.962727 
L 203.690359 249.124316 
L 210.395645 261.509153 
L 217.10093 255.927344 
L 223.806216 254.612389 
L 230.511501 253.115108 
L 237.216786 253.917737 
L 243.922072 254.264362 
L 250.627357 253.966985 
L 257.332643 253.89095 
L 264.037928 255.51039 
L 270.743214 255.0869 
L 277.448499 239.450305 
L 284.153784 91.069091 
L 290.85907 92.843637 
L 297.564355 161.294298 
L 304.269641 191.23877 
L 310.974926 193.13591 
L 317.680211 199.331233 
L 324.385497 207.462623 
L 331.090782 256.570264 
L 337.796068 264.739124 
L 344.501353 261.382927 
L 351.206638 253.715339 
L 357.911924 254.856297 
L 364.617209 256.276568 
L 371.322495 259.68613 
L 378.02778 261.403916 
L 384.733066 257.75297 
L 391.438351 258.752659 
L 398.143636 264.667107 
" clip-path="url(#p45b82884c4)" style="fill: none; stroke: #1e90ff; stroke-opacity: 0.75; stroke-width: 1.5; stroke-linecap: square"/>
   </g>
   <g id="line2d_11">
    <path d="M 109.816364 251.659122 
L 116.521649 255.934453 
L 123.226934 256.079359 
L 129.93222 256.863125 
L 136.637505 255.543905 
L 143.342791 255.598977 
L 150.048076 255.274512 
L 156.753362 161.724226 
L 163.458647 170.424297 
L 170.163932 212.54731 
L 176.869218 228.398954 
L 183.574503 218.415758 
L 190.279789 218.279808 
L 196.985074 208.326389 
L 203.690359 243.882581 
L 210.395645 259.754222 
L 217.10093 252.082939 
L 223.806216 253.484254 
L 230.511501 255.33755 
L 237.216786 254.857267 
L 243.922072 257.200499 
L 250.627357 257.394456 
L 257.332643 256.338991 
L 264.037928 256.99448 
L 270.743214 257.423504 
L 277.448499 239.779795 
L 284.153784 137.724892 
L 290.85907 188.564078 
L 297.564355 212.896195 
L 304.269641 220.983911 
L 310.974926 219.575508 
L 317.680211 224.059735 
L 324.385497 224.134586 
L 331.090782 259.619149 
L 337.796068 267.250909 
L 344.501353 262.76149 
L 351.206638 257.425472 
L 357.911924 256.42574 
L 364.617209 257.910948 
L 371.322495 257.864351 
L 378.02778 257.147208 
L 384.733066 256.425667 
L 391.438351 257.457896 
L 398.143636 262.527827 
" clip-path="url(#p45b82884c4)" style="fill: none; stroke: #808080; stroke-opacity: 0.75; stroke-width: 1.5; stroke-linecap: square"/>
   </g>
   <g id="line2d_12">
    <path d="M 109.816364 254.326148 
L 116.521649 255.596642 
L 123.226934 256.685559 
L 129.93222 256.669522 
L 136.637505 256.943976 
L 143.342791 257.434861 
L 150.048076 256.969313 
L 156.753362 162.329271 
L 163.458647 168.931278 
L 170.163932 215.169067 
L 176.869218 229.459181 
L 183.574503 218.57029 
L 190.279789 215.612216 
L 196.985074 209.314068 
L 203.690359 244.448346 
L 210.395645 258.582087 
L 217.10093 252.492175 
L 223.806216 252.257869 
L 230.511501 254.124735 
L 237.216786 254.798911 
L 243.922072 256.438676 
L 250.627357 255.866563 
L 257.332643 256.1362 
L 264.037928 256.802576 
L 270.743214 256.407649 
L 277.448499 241.397663 
L 284.153784 93.15214 
L 290.85907 99.647587 
L 297.564355 163.161692 
L 304.269641 193.920849 
L 310.974926 196.739325 
L 317.680211 202.739646 
L 324.385497 208.224655 
L 331.090782 256.687039 
L 337.796068 265.388306 
L 344.501353 260.255076 
L 351.206638 255.207116 
L 357.911924 254.520913 
L 364.617209 258.03171 
L 371.322495 260.723189 
L 378.02778 260.162793 
L 384.733066 258.738318 
L 391.438351 259.799184 
L 398.143636 264.306892 
" clip-path="url(#p45b82884c4)" style="fill: none; stroke: #ff00ff; stroke-opacity: 0.75; stroke-width: 1.5; stroke-linecap: square"/>
   </g>
   <g id="patch_5">
    <path d="M 95.4 276.06 
L 95.4 82.26 
" style="fill: none; stroke: #000000; stroke-width: 1.25; stroke-linejoin: miter; stroke-linecap: square"/>
   </g>
   <g id="patch_6">
    <path d="M 95.4 276.06 
L 412.56 276.06 
" style="fill: none; stroke: #000000; stroke-width: 1.25; stroke-linejoin: miter; stroke-linecap: square"/>
   </g>
   <g id="legend_1">
    <g id="patch_7">
     <path d="M 112.6215 74.01 
L 331.9065 74.01 
Q 335.2065 74.01 335.2065 70.71 
L 335.2065 23.922187 
Q 335.2065 20.622187 331.9065 20.622187 
L 112.6215 20.622187 
Q 109.3215 20.622187 109.3215 23.922187 
L 109.3215 70.71 
Q 109.3215 74.01 112.6215 74.01 
z
" style="fill: #ffffff; opacity: 0.8; stroke: #cccccc; stroke-linejoin: miter"/>
    </g>
    <g id="line2d_13">
     <path d="M 115.9215 33.984609 
L 132.4215 33.984609 
L 148.9215 33.984609 
" style="fill: none; stroke: #000000; stroke-opacity: 0.75; stroke-width: 1.5; stroke-linecap: square"/>
    </g>
    <g id="text_11">
     <!-- F$\rightarrow$F -->
     <g transform="translate(162.1215 39.759609) scale(0.165 -0.165)">
      <defs>
       <path id="DejaVuSans-46" d="M 628 4666 
L 3309 4666 
L 3309 4134 
L 1259 4134 
L 1259 2759 
L 3109 2759 
L 3109 2228 
L 1259 2228 
L 1259 0 
L 628 0 
L 628 4666 
z
" transform="scale(0.015625)"/>
       <path id="DejaVuSans-2192" d="M 5050 2147 
L 5050 1866 
L 3822 638 
L 3447 1013 
L 4175 1741 
L 366 1741 
L 366 2272 
L 4175 2272 
L 3447 3000 
L 3822 3375 
L 5050 2147 
z
" transform="scale(0.015625)"/>
      </defs>
      <use xlink:href="#DejaVuSans-46" transform="translate(0 0.09375)"/>
      <use xlink:href="#DejaVuSans-2192" transform="translate(77.001953 0.09375)"/>
      <use xlink:href="#DejaVuSans-46" transform="translate(180.273438 0.09375)"/>
     </g>
    </g>
    <g id="line2d_14">
     <path d="M 115.9215 58.203516 
L 132.4215 58.203516 
L 148.9215 58.203516 
" style="fill: none; stroke: #1e90ff; stroke-opacity: 0.75; stroke-width: 1.5; stroke-linecap: square"/>
    </g>
    <g id="text_12">
     <!-- F$\rightarrow$N -->
     <g transform="translate(162.1215 63.978516) scale(0.165 -0.165)">
      <defs>
       <path id="DejaVuSans-4e" d="M 628 4666 
L 1478 4666 
L 3547 763 
L 3547 4666 
L 4159 4666 
L 4159 0 
L 3309 0 
L 1241 3903 
L 1241 0 
L 628 0 
L 628 4666 
z
" transform="scale(0.015625)"/>
      </defs>
      <use xlink:href="#DejaVuSans-46" transform="translate(0 0.09375)"/>
      <use xlink:href="#DejaVuSans-2192" transform="translate(77.001953 0.09375)"/>
      <use xlink:href="#DejaVuSans-4e" transform="translate(180.273438 0.09375)"/>
     </g>
    </g>
    <g id="line2d_15">
     <path d="M 237.3615 33.984609 
L 253.8615 33.984609 
L 270.3615 33.984609 
" style="fill: none; stroke: #808080; stroke-opacity: 0.75; stroke-width: 1.5; stroke-linecap: square"/>
    </g>
    <g id="text_13">
     <!-- N$\rightarrow$F -->
     <g transform="translate(283.5615 39.759609) scale(0.165 -0.165)">
      <use xlink:href="#DejaVuSans-4e" transform="translate(0 0.09375)"/>
      <use xlink:href="#DejaVuSans-2192" transform="translate(94.287109 0.09375)"/>
      <use xlink:href="#DejaVuSans-46" transform="translate(197.558594 0.09375)"/>
     </g>
    </g>
    <g id="line2d_16">
     <path d="M 237.3615 58.203516 
L 253.8615 58.203516 
L 270.3615 58.203516 
" style="fill: none; stroke: #ff00ff; stroke-opacity: 0.75; stroke-width: 1.5; stroke-linecap: square"/>
    </g>
    <g id="text_14">
     <!-- N$\rightarrow$N -->
     <g transform="translate(283.5615 63.978516) scale(0.165 -0.165)">
      <use xlink:href="#DejaVuSans-4e" transform="translate(0 0.09375)"/>
      <use xlink:href="#DejaVuSans-2192" transform="translate(94.287109 0.09375)"/>
      <use xlink:href="#DejaVuSans-4e" transform="translate(197.558594 0.09375)"/>
     </g>
    </g>
   </g>
  </g>
  <g id="axes_2">
   <g id="patch_8">
    <path d="M 95.4 536.64 
L 412.56 536.64 
L 412.56 342.84 
L 95.4 342.84 
z
" style="fill: #ffffff"/>
   </g>
   <g id="patch_9">
    <path d="M 148.371755 536.64 
L 190.279789 536.64 
L 190.279789 342.84 
L 148.371755 342.84 
z
" clip-path="url(#p2a50ec6338)" style="fill: #808080; opacity: 0.35; stroke: #808080; stroke-linejoin: miter"/>
   </g>
   <g id="patch_10">
    <path d="M 274.095856 536.64 
L 316.00389 536.64 
L 316.00389 342.84 
L 274.095856 342.84 
z
" clip-path="url(#p2a50ec6338)" style="fill: #808080; opacity: 0.35; stroke: #808080; stroke-linejoin: miter"/>
   </g>
   <g id="matplotlib.axis_3">
    <g id="xtick_5">
     <g id="line2d_17">
      <g>
       <use xlink:href="#m7b545a1bd4" x="106.463721" y="536.64" style="stroke: #000000; stroke-width: 1.25"/>
      </g>
     </g>
     <g id="text_15">
      <!-- −1.0 -->
      <g transform="translate(86.430401 558.677422) scale(0.165 -0.165)">
       <use xlink:href="#DejaVuSans-2212"/>
       <use xlink:href="#DejaVuSans-31" x="83.789062"/>
       <use xlink:href="#DejaVuSans-2e" x="147.412109"/>
       <use xlink:href="#DejaVuSans-30" x="179.199219"/>
      </g>
     </g>
    </g>
    <g id="xtick_6">
     <g id="line2d_18">
      <g>
       <use xlink:href="#m7b545a1bd4" x="190.279789" y="536.64" style="stroke: #000000; stroke-width: 1.25"/>
      </g>
     </g>
     <g id="text_16">
      <!-- −0.5 -->
      <g transform="translate(170.246468 558.677422) scale(0.165 -0.165)">
       <use xlink:href="#DejaVuSans-2212"/>
       <use xlink:href="#DejaVuSans-30" x="83.789062"/>
       <use xlink:href="#DejaVuSans-2e" x="147.412109"/>
       <use xlink:href="#DejaVuSans-35" x="179.199219"/>
      </g>
     </g>
    </g>
    <g id="xtick_7">
     <g id="line2d_19">
      <g>
       <use xlink:href="#m7b545a1bd4" x="274.095856" y="536.64" style="stroke: #000000; stroke-width: 1.25"/>
      </g>
     </g>
     <g id="text_17">
      <!-- 0.0 -->
      <g transform="translate(260.975778 558.677422) scale(0.165 -0.165)">
       <use xlink:href="#DejaVuSans-30"/>
       <use xlink:href="#DejaVuSans-2e" x="63.623047"/>
       <use xlink:href="#DejaVuSans-30" x="95.410156"/>
      </g>
     </g>
    </g>
    <g id="xtick_8">
     <g id="line2d_20">
      <g>
       <use xlink:href="#m7b545a1bd4" x="357.911924" y="536.64" style="stroke: #000000; stroke-width: 1.25"/>
      </g>
     </g>
     <g id="text_18">
      <!-- 0.5 -->
      <g transform="translate(344.791846 558.677422) scale(0.165 -0.165)">
       <use xlink:href="#DejaVuSans-30"/>
       <use xlink:href="#DejaVuSans-2e" x="63.623047"/>
       <use xlink:href="#DejaVuSans-35" x="95.410156"/>
      </g>
     </g>
    </g>
    <g id="text_19">
     <!-- time -->
     <g transform="translate(233.647031 579.786094) scale(0.18 -0.18)">
      <use xlink:href="#DejaVuSans-74"/>
      <use xlink:href="#DejaVuSans-69" x="39.208984"/>
      <use xlink:href="#DejaVuSans-6d" x="66.992188"/>
      <use xlink:href="#DejaVuSans-65" x="164.404297"/>
     </g>
    </g>
   </g>
   <g id="matplotlib.axis_4">
    <g id="ytick_5">
     <g id="line2d_21">
      <g>
       <use xlink:href="#m1e7fbd0837" x="95.4" y="487.611836" style="stroke: #000000; stroke-width: 1.25"/>
      </g>
     </g>
     <g id="text_20">
      <!-- −100 -->
      <g transform="translate(40.579141 493.880547) scale(0.165 -0.165)">
       <use xlink:href="#DejaVuSans-2212"/>
       <use xlink:href="#DejaVuSans-31" x="83.789062"/>
       <use xlink:href="#DejaVuSans-30" x="147.412109"/>
       <use xlink:href="#DejaVuSans-30" x="211.035156"/>
      </g>
     </g>
    </g>
    <g id="ytick_6">
     <g id="line2d_22">
      <g>
       <use xlink:href="#m1e7fbd0837" x="95.4" y="428.065069" style="stroke: #000000; stroke-width: 1.25"/>
      </g>
     </g>
     <g id="text_21">
      <!-- 0 -->
      <g transform="translate(75.401875 434.33378) scale(0.165 -0.165)">
       <use xlink:href="#DejaVuSans-30"/>
      </g>
     </g>
    </g>
    <g id="ytick_7">
     <g id="line2d_23">
      <g>
       <use xlink:href="#m1e7fbd0837" x="95.4" y="368.518302" style="stroke: #000000; stroke-width: 1.25"/>
      </g>
     </g>
     <g id="text_22">
      <!-- 100 -->
      <g transform="translate(54.405625 374.787013) scale(0.165 -0.165)">
       <use xlink:href="#DejaVuSans-31"/>
       <use xlink:href="#DejaVuSans-30" x="63.623047"/>
       <use xlink:href="#DejaVuSans-30" x="127.246094"/>
      </g>
     </g>
    </g>
    <g id="text_23">
     <!-- PC2 -->
     <g transform="translate(32.835703 457.1775) rotate(-90) scale(0.18 -0.18)">
      <use xlink:href="#DejaVuSans-50"/>
      <use xlink:href="#DejaVuSans-43" x="60.302734"/>
      <use xlink:href="#DejaVuSans-32" x="130.126953"/>
     </g>
    </g>
   </g>
   <g id="line2d_24">
    <path d="M 109.816364 429.477921 
L 116.521649 432.205915 
L 123.226934 427.725673 
L 129.93222 431.079962 
L 136.637505 434.523736 
L 143.342791 431.584447 
L 150.048076 430.777211 
L 156.753362 516.647117 
L 163.458647 453.122906 
L 170.163932 430.223936 
L 176.869218 428.564834 
L 183.574503 426.221201 
L 190.279789 417.976747 
L 196.985074 436.18163 
L 203.690359 434.704266 
L 210.395645 427.151545 
L 217.10093 429.787476 
L 223.806216 428.704064 
L 230.511501 429.146096 
L 237.216786 429.212191 
L 243.922072 438.638272 
L 250.627357 429.429235 
L 257.332643 428.817038 
L 264.037928 429.388456 
L 270.743214 428.56394 
L 277.448499 444.328638 
L 284.153784 527.830909 
L 290.85907 440.38574 
L 297.564355 422.127576 
L 304.269641 425.782125 
L 310.974926 417.069458 
L 317.680211 420.05292 
L 324.385497 440.978772 
L 331.090782 429.007509 
L 337.796068 424.521886 
L 344.501353 422.617981 
L 351.206638 431.52341 
L 357.911924 430.950221 
L 364.617209 431.125638 
L 371.322495 426.854624 
L 378.02778 428.476946 
L 384.733066 427.588231 
L 391.438351 425.827259 
L 398.143636 428.982347 
" clip-path="url(#p2a50ec6338)" style="fill: none; stroke: #000000; stroke-opacity: 0.75; stroke-width: 1.5; stroke-linecap: square"/>
   </g>
   <g id="line2d_25">
    <path d="M 109.816364 428.434758 
L 116.521649 428.682045 
L 123.226934 430.074337 
L 129.93222 427.345676 
L 136.637505 430.365546 
L 143.342791 430.285171 
L 150.048076 432.334775 
L 156.753362 520.913178 
L 163.458647 447.321797 
L 170.163932 424.904261 
L 176.869218 424.325753 
L 183.574503 427.97442 
L 190.279789 421.49987 
L 196.985074 437.103781 
L 203.690359 432.887665 
L 210.395645 430.586961 
L 217.10093 428.625895 
L 223.806216 430.394584 
L 230.511501 427.748172 
L 237.216786 426.810027 
L 243.922072 430.985603 
L 250.627357 428.312347 
L 257.332643 433.025622 
L 264.037928 432.547738 
L 270.743214 432.790114 
L 277.448499 444.844643 
L 284.153784 477.230915 
L 290.85907 353.893761 
L 297.564355 355.022642 
L 304.269641 370.226381 
L 310.974926 369.666695 
L 317.680211 372.01432 
L 324.385497 432.997103 
L 331.090782 428.786888 
L 337.796068 427.635706 
L 344.501353 425.333145 
L 351.206638 430.077948 
L 357.911924 429.585526 
L 364.617209 429.208254 
L 371.322495 428.434353 
L 378.02778 428.795282 
L 384.733066 429.197493 
L 391.438351 428.278904 
L 398.143636 427.682005 
" clip-path="url(#p2a50ec6338)" style="fill: none; stroke: #1e90ff; stroke-opacity: 0.75; stroke-width: 1.5; stroke-linecap: square"/>
   </g>
   <g id="line2d_26">
    <path d="M 109.816364 431.475434 
L 116.521649 430.281102 
L 123.226934 430.972006 
L 129.93222 431.652476 
L 136.637505 431.7993 
L 143.342791 431.990109 
L 150.048076 431.704219 
L 156.753362 500.974183 
L 163.458647 400.928387 
L 170.163932 391.488302 
L 176.869218 399.585759 
L 183.574503 399.712446 
L 190.279789 395.821592 
L 196.985074 436.593142 
L 203.690359 439.544072 
L 210.395645 426.211927 
L 217.10093 421.976417 
L 223.806216 424.079764 
L 230.511501 425.884262 
L 237.216786 428.200354 
L 243.922072 430.289031 
L 250.627357 433.956102 
L 257.332643 433.591982 
L 264.037928 432.373089 
L 270.743214 430.555519 
L 277.448499 448.891951 
L 284.153784 526.141623 
L 290.85907 438.133489 
L 297.564355 417.179223 
L 304.269641 421.297262 
L 310.974926 418.715117 
L 317.680211 420.921657 
L 324.385497 436.184182 
L 331.090782 428.271404 
L 337.796068 429.499029 
L 344.501353 430.327753 
L 351.206638 430.861164 
L 357.911924 431.56221 
L 364.617209 429.95221 
L 371.322495 429.833358 
L 378.02778 428.838955 
L 384.733066 429.052495 
L 391.438351 427.964209 
L 398.143636 427.161456 
" clip-path="url(#p2a50ec6338)" style="fill: none; stroke: #808080; stroke-opacity: 0.75; stroke-width: 1.5; stroke-linecap: square"/>
   </g>
   <g id="line2d_27">
    <path d="M 109.816364 427.350704 
L 116.521649 429.961674 
L 123.226934 430.499205 
L 129.93222 431.84416 
L 136.637505 431.322816 
L 143.342791 431.728684 
L 150.048076 432.250726 
L 156.753362 498.120086 
L 163.458647 402.979794 
L 170.163932 395.749106 
L 176.869218 400.131035 
L 183.574503 397.819165 
L 190.279789 393.823291 
L 196.985074 434.234747 
L 203.690359 438.880525 
L 210.395645 428.42634 
L 217.10093 425.99444 
L 223.806216 425.758184 
L 230.511501 429.12036 
L 237.216786 428.148645 
L 243.922072 430.8468 
L 250.627357 430.780137 
L 257.332643 431.170122 
L 264.037928 431.561826 
L 270.743214 433.146221 
L 277.448499 443.951785 
L 284.153784 475.332783 
L 290.85907 351.649091 
L 297.564355 356.540935 
L 304.269641 373.190936 
L 310.974926 377.840669 
L 317.680211 377.158686 
L 324.385497 435.780865 
L 331.090782 429.330385 
L 337.796068 427.602227 
L 344.501353 425.417982 
L 351.206638 430.016865 
L 357.911924 429.61844 
L 364.617209 431.025289 
L 371.322495 427.929373 
L 378.02778 428.769624 
L 384.733066 428.267818 
L 391.438351 426.871578 
L 398.143636 427.99825 
" clip-path="url(#p2a50ec6338)" style="fill: none; stroke: #ff00ff; stroke-opacity: 0.75; stroke-width: 1.5; stroke-linecap: square"/>
   </g>
   <g id="patch_11">
    <path d="M 95.4 536.64 
L 95.4 342.84 
" style="fill: none; stroke: #000000; stroke-width: 1.25; stroke-linejoin: miter; stroke-linecap: square"/>
   </g>
   <g id="patch_12">
    <path d="M 95.4 536.64 
L 412.56 536.64 
" style="fill: none; stroke: #000000; stroke-width: 1.25; stroke-linejoin: miter; stroke-linecap: square"/>
   </g>
  </g>
  <g id="axes_3">
   <g id="patch_13">
    <path d="M 95.4 797.22 
L 412.56 797.22 
L 412.56 603.42 
L 95.4 603.42 
z
" style="fill: #ffffff"/>
   </g>
   <g id="patch_14">
    <path d="M 148.371755 797.22 
L 190.279789 797.22 
L 190.279789 603.42 
L 148.371755 603.42 
z
" clip-path="url(#p3fbf3d99ce)" style="fill: #808080; opacity: 0.35; stroke: #808080; stroke-linejoin: miter"/>
   </g>
   <g id="patch_15">
    <path d="M 274.095856 797.22 
L 316.00389 797.22 
L 316.00389 603.42 
L 274.095856 603.42 
z
" clip-path="url(#p3fbf3d99ce)" style="fill: #808080; opacity: 0.35; stroke: #808080; stroke-linejoin: miter"/>
   </g>
   <g id="matplotlib.axis_5">
    <g id="xtick_9">
     <g id="line2d_28">
      <g>
       <use xlink:href="#m7b545a1bd4" x="106.463721" y="797.22" style="stroke: #000000; stroke-width: 1.25"/>
      </g>
     </g>
     <g id="text_24">
      <!-- −1.0 -->
      <g transform="translate(86.430401 819.257422) scale(0.165 -0.165)">
       <use xlink:href="#DejaVuSans-2212"/>
       <use xlink:href="#DejaVuSans-31" x="83.789062"/>
       <use xlink:href="#DejaVuSans-2e" x="147.412109"/>
       <use xlink:href="#DejaVuSans-30" x="179.199219"/>
      </g>
     </g>
    </g>
    <g id="xtick_10">
     <g id="line2d_29">
      <g>
       <use xlink:href="#m7b545a1bd4" x="190.279789" y="797.22" style="stroke: #000000; stroke-width: 1.25"/>
      </g>
     </g>
     <g id="text_25">
      <!-- −0.5 -->
      <g transform="translate(170.246468 819.257422) scale(0.165 -0.165)">
       <use xlink:href="#DejaVuSans-2212"/>
       <use xlink:href="#DejaVuSans-30" x="83.789062"/>
       <use xlink:href="#DejaVuSans-2e" x="147.412109"/>
       <use xlink:href="#DejaVuSans-35" x="179.199219"/>
      </g>
     </g>
    </g>
    <g id="xtick_11">
     <g id="line2d_30">
      <g>
       <use xlink:href="#m7b545a1bd4" x="274.095856" y="797.22" style="stroke: #000000; stroke-width: 1.25"/>
      </g>
     </g>
     <g id="text_26">
      <!-- 0.0 -->
      <g transform="translate(260.975778 819.257422) scale(0.165 -0.165)">
       <use xlink:href="#DejaVuSans-30"/>
       <use xlink:href="#DejaVuSans-2e" x="63.623047"/>
       <use xlink:href="#DejaVuSans-30" x="95.410156"/>
      </g>
     </g>
    </g>
    <g id="xtick_12">
     <g id="line2d_31">
      <g>
       <use xlink:href="#m7b545a1bd4" x="357.911924" y="797.22" style="stroke: #000000; stroke-width: 1.25"/>
      </g>
     </g>
     <g id="text_27">
      <!-- 0.5 -->
      <g transform="translate(344.791846 819.257422) scale(0.165 -0.165)">
       <use xlink:href="#DejaVuSans-30"/>
       <use xlink:href="#DejaVuSans-2e" x="63.623047"/>
       <use xlink:href="#DejaVuSans-35" x="95.410156"/>
      </g>
     </g>
    </g>
    <g id="text_28">
     <!-- time -->
     <g transform="translate(233.647031 840.366094) scale(0.18 -0.18)">
      <use xlink:href="#DejaVuSans-74"/>
      <use xlink:href="#DejaVuSans-69" x="39.208984"/>
      <use xlink:href="#DejaVuSans-6d" x="66.992188"/>
      <use xlink:href="#DejaVuSans-65" x="164.404297"/>
     </g>
    </g>
   </g>
   <g id="matplotlib.axis_6">
    <g id="ytick_8">
     <g id="line2d_32">
      <g>
       <use xlink:href="#m1e7fbd0837" x="95.4" y="755.942979" style="stroke: #000000; stroke-width: 1.25"/>
      </g>
     </g>
     <g id="text_29">
      <!-- −50 -->
      <g transform="translate(51.077266 762.21169) scale(0.165 -0.165)">
       <use xlink:href="#DejaVuSans-2212"/>
       <use xlink:href="#DejaVuSans-35" x="83.789062"/>
       <use xlink:href="#DejaVuSans-30" x="147.412109"/>
      </g>
     </g>
    </g>
    <g id="ytick_9">
     <g id="line2d_33">
      <g>
       <use xlink:href="#m1e7fbd0837" x="95.4" y="710.230674" style="stroke: #000000; stroke-width: 1.25"/>
      </g>
     </g>
     <g id="text_30">
      <!-- 0 -->
      <g transform="translate(75.401875 716.499385) scale(0.165 -0.165)">
       <use xlink:href="#DejaVuSans-30"/>
      </g>
     </g>
    </g>
    <g id="ytick_10">
     <g id="line2d_34">
      <g>
       <use xlink:href="#m1e7fbd0837" x="95.4" y="664.518369" style="stroke: #000000; stroke-width: 1.25"/>
      </g>
     </g>
     <g id="text_31">
      <!-- 50 -->
      <g transform="translate(64.90375 670.78708) scale(0.165 -0.165)">
       <use xlink:href="#DejaVuSans-35"/>
       <use xlink:href="#DejaVuSans-30" x="63.623047"/>
      </g>
     </g>
    </g>
    <g id="ytick_11">
     <g id="line2d_35">
      <g>
       <use xlink:href="#m1e7fbd0837" x="95.4" y="618.806064" style="stroke: #000000; stroke-width: 1.25"/>
      </g>
     </g>
     <g id="text_32">
      <!-- 100 -->
      <g transform="translate(54.405625 625.074775) scale(0.165 -0.165)">
       <use xlink:href="#DejaVuSans-31"/>
       <use xlink:href="#DejaVuSans-30" x="63.623047"/>
       <use xlink:href="#DejaVuSans-30" x="127.246094"/>
      </g>
     </g>
    </g>
    <g id="text_33">
     <!-- PC3 -->
     <g transform="translate(43.333828 717.7575) rotate(-90) scale(0.18 -0.18)">
      <use xlink:href="#DejaVuSans-50"/>
      <use xlink:href="#DejaVuSans-43" x="60.302734"/>
      <use xlink:href="#DejaVuSans-33" x="130.126953"/>
     </g>
    </g>
   </g>
   <g id="line2d_36">
    <path d="M 109.816364 719.121795 
L 116.521649 724.471658 
L 123.226934 720.970523 
L 129.93222 719.039493 
L 136.637505 721.727519 
L 143.342791 722.458233 
L 150.048076 724.979762 
L 156.753362 711.433435 
L 163.458647 631.419669 
L 170.163932 661.225286 
L 176.869218 662.289313 
L 183.574503 657.589561 
L 190.279789 660.69721 
L 196.985074 679.485676 
L 203.690359 720.015414 
L 210.395645 721.757985 
L 217.10093 722.920778 
L 223.806216 720.580674 
L 230.511501 717.506737 
L 237.216786 728.644371 
L 243.922072 722.763126 
L 250.627357 717.882956 
L 257.332643 719.098911 
L 264.037928 717.678488 
L 270.743214 719.535259 
L 277.448499 724.225833 
L 284.153784 679.118732 
L 290.85907 618.505456 
L 297.564355 634.888423 
L 304.269641 649.589472 
L 310.974926 645.932149 
L 317.680211 656.684469 
L 324.385497 702.362252 
L 331.090782 712.838932 
L 337.796068 710.959144 
L 344.501353 715.297951 
L 351.206638 717.892668 
L 357.911924 723.372158 
L 364.617209 712.926609 
L 371.322495 716.73591 
L 378.02778 724.570244 
L 384.733066 713.603627 
L 391.438351 723.111687 
L 398.143636 709.628084 
" clip-path="url(#p3fbf3d99ce)" style="fill: none; stroke: #000000; stroke-opacity: 0.75; stroke-width: 1.5; stroke-linecap: square"/>
   </g>
   <g id="line2d_37">
    <path d="M 109.816364 722.97298 
L 116.521649 723.696431 
L 123.226934 722.170825 
L 129.93222 720.345634 
L 136.637505 721.464436 
L 143.342791 722.560596 
L 150.048076 722.642502 
L 156.753362 715.762337 
L 163.458647 637.304609 
L 170.163932 659.045866 
L 176.869218 661.185161 
L 183.574503 656.824424 
L 190.279789 667.835183 
L 196.985074 688.725934 
L 203.690359 719.596404 
L 210.395645 721.971256 
L 217.10093 723.367003 
L 223.806216 725.220295 
L 230.511501 720.585515 
L 237.216786 719.244551 
L 243.922072 723.031464 
L 250.627357 722.33377 
L 257.332643 721.713608 
L 264.037928 724.820941 
L 270.743214 723.187573 
L 277.448499 723.441839 
L 284.153784 785.837524 
L 290.85907 788.410909 
L 297.564355 734.337869 
L 304.269641 710.24667 
L 310.974926 712.203116 
L 317.680211 713.708663 
L 324.385497 726.305426 
L 331.090782 712.949457 
L 337.796068 708.811117 
L 344.501353 712.923461 
L 351.206638 713.447022 
L 357.911924 714.815681 
L 364.617209 717.315733 
L 371.322495 714.702752 
L 378.02778 714.912357 
L 384.733066 713.518833 
L 391.438351 713.673167 
L 398.143636 715.331234 
" clip-path="url(#p3fbf3d99ce)" style="fill: none; stroke: #1e90ff; stroke-opacity: 0.75; stroke-width: 1.5; stroke-linecap: square"/>
   </g>
   <g id="line2d_38">
    <path d="M 109.816364 722.451867 
L 116.521649 720.468975 
L 123.226934 720.639241 
L 129.93222 723.296656 
L 136.637505 718.892023 
L 143.342791 719.971612 
L 150.048076 721.625617 
L 156.753362 748.227 
L 163.458647 728.945546 
L 170.163932 697.102334 
L 176.869218 687.522374 
L 183.574503 691.206901 
L 190.279789 696.636912 
L 196.985074 715.916631 
L 203.690359 723.836992 
L 210.395645 714.668756 
L 217.10093 715.459965 
L 223.806216 715.166311 
L 230.511501 719.44768 
L 237.216786 717.632185 
L 243.922072 721.502742 
L 250.627357 719.392912 
L 257.332643 722.112817 
L 264.037928 719.30416 
L 270.743214 721.381589 
L 277.448499 727.985777 
L 284.153784 684.061596 
L 290.85907 612.229091 
L 297.564355 634.624574 
L 304.269641 636.831894 
L 310.974926 647.366791 
L 317.680211 656.509082 
L 324.385497 697.498679 
L 331.090782 715.325655 
L 337.796068 713.987206 
L 344.501353 716.790747 
L 351.206638 720.046896 
L 357.911924 719.885807 
L 364.617209 719.110874 
L 371.322495 720.871665 
L 378.02778 719.877981 
L 384.733066 717.413902 
L 391.438351 721.098726 
L 398.143636 717.426762 
" clip-path="url(#p3fbf3d99ce)" style="fill: none; stroke: #808080; stroke-opacity: 0.75; stroke-width: 1.5; stroke-linecap: square"/>
   </g>
   <g id="line2d_39">
    <path d="M 109.816364 717.89884 
L 116.521649 719.536972 
L 123.226934 720.492997 
L 129.93222 719.720357 
L 136.637505 721.006586 
L 143.342791 721.68881 
L 150.048076 720.390863 
L 156.753362 742.205346 
L 163.458647 728.747312 
L 170.163932 697.793273 
L 176.869218 690.147534 
L 183.574503 689.517572 
L 190.279789 695.531197 
L 196.985074 713.910322 
L 203.690359 724.878714 
L 210.395645 714.066561 
L 217.10093 718.521326 
L 223.806216 718.200802 
L 230.511501 719.391946 
L 237.216786 719.653651 
L 243.922072 721.093472 
L 250.627357 720.942425 
L 257.332643 719.05895 
L 264.037928 721.484702 
L 270.743214 721.193184 
L 277.448499 724.648523 
L 284.153784 780.263792 
L 290.85907 773.066359 
L 297.564355 725.066399 
L 304.269641 699.140013 
L 310.974926 704.534719 
L 317.680211 707.844583 
L 324.385497 725.425653 
L 331.090782 711.247481 
L 337.796068 708.105246 
L 344.501353 712.218619 
L 351.206638 714.257745 
L 357.911924 712.612604 
L 364.617209 715.571495 
L 371.322495 715.96473 
L 378.02778 715.505405 
L 384.733066 714.026153 
L 391.438351 714.810084 
L 398.143636 715.42205 
" clip-path="url(#p3fbf3d99ce)" style="fill: none; stroke: #ff00ff; stroke-opacity: 0.75; stroke-width: 1.5; stroke-linecap: square"/>
   </g>
   <g id="patch_16">
    <path d="M 95.4 797.22 
L 95.4 603.42 
" style="fill: none; stroke: #000000; stroke-width: 1.25; stroke-linejoin: miter; stroke-linecap: square"/>
   </g>
   <g id="patch_17">
    <path d="M 95.4 797.22 
L 412.56 797.22 
" style="fill: none; stroke: #000000; stroke-width: 1.25; stroke-linejoin: miter; stroke-linecap: square"/>
   </g>
  </g>
 </g>
 <defs>
  <clipPath id="p45b82884c4">
   <rect x="95.4" y="82.26" width="317.16" height="193.8"/>
  </clipPath>
  <clipPath id="p2a50ec6338">
   <rect x="95.4" y="342.84" width="317.16" height="193.8"/>
  </clipPath>
  <clipPath id="p3fbf3d99ce">
   <rect x="95.4" y="603.42" width="317.16" height="193.8"/>
  </clipPath>
 </defs>
</svg>
