<?xml version="1.0" encoding="utf-8" standalone="no"?>
<!DOCTYPE svg PUBLIC "-//W3C//DTD SVG 1.1//EN"
  "http://www.w3.org/Graphics/SVG/1.1/DTD/svg11.dtd">
<svg xmlns:xlink="http://www.w3.org/1999/xlink" width="360pt" height="288pt" viewBox="0 0 360 288" xmlns="http://www.w3.org/2000/svg" version="1.1">
 <metadata>
  <rdf:RDF xmlns:dc="http://purl.org/dc/elements/1.1/" xmlns:cc="http://creativecommons.org/ns#" xmlns:rdf="http://www.w3.org/1999/02/22-rdf-syntax-ns#">
   <cc:Work>
    <dc:type rdf:resource="http://purl.org/dc/dcmitype/StillImage"/>
    <dc:date>2024-08-30T19:04:08.229990</dc:date>
    <dc:format>image/svg+xml</dc:format>
    <dc:creator>
     <cc:Agent>
      <dc:title>Matplotlib v3.9.2, https://matplotlib.org/</dc:title>
     </cc:Agent>
    </dc:creator>
   </cc:Work>
  </rdf:RDF>
 </metadata>
 <defs>
  <style type="text/css">*{stroke-linejoin: round; stroke-linecap: butt}</style>
 </defs>
 <g id="figure_1">
  <g id="patch_1">
   <path d="M 0 288 
L 360 288 
L 360 0 
L 0 0 
z
" style="fill: #ffffff"/>
  </g>
  <g id="axes_1">
   <g id="patch_2">
    <path d="M 95.4 221.22 
L 340.56 221.22 
L 340.56 19.44 
L 95.4 19.44 
z
" style="fill: #ffffff"/>
   </g>
   <g id="matplotlib.axis_1">
    <g id="xtick_1">
     <g id="line2d_1">
      <defs>
       <path id="m9252495909" d="M 0 0 
L 0 6 
" style="stroke: #000000; stroke-width: 1.25"/>
      </defs>
      <g>
       <use xlink:href="#m9252495909" x="144.262164" y="221.22" style="stroke: #000000; stroke-width: 1.25"/>
      </g>
     </g>
     <g id="text_1">
      <!-- 0 -->
      <g transform="translate(139.013102 243.257422) scale(0.165 -0.165)">
       <defs>
        <path id="DejaVuSans-30" d="M 2034 4250 
Q 1547 4250 1301 3770 
Q 1056 3291 1056 2328 
Q 1056 1369 1301 889 
Q 1547 409 2034 409 
Q 2525 409 2770 889 
Q 3016 1369 3016 2328 
Q 3016 3291 2770 3770 
Q 2525 4250 2034 4250 
z
M 2034 4750 
Q 2819 4750 3233 4129 
Q 3647 3509 3647 2328 
Q 3647 1150 3233 529 
Q 2819 -91 2034 -91 
Q 1250 -91 836 529 
Q 422 1150 422 2328 
Q 422 3509 836 4129 
Q 1250 4750 2034 4750 
z
" transform="scale(0.015625)"/>
       </defs>
       <use xlink:href="#DejaVuSans-30"/>
      </g>
     </g>
    </g>
    <g id="xtick_2">
     <g id="line2d_2">
      <g>
       <use xlink:href="#m9252495909" x="256.217935" y="221.22" style="stroke: #000000; stroke-width: 1.25"/>
      </g>
     </g>
     <g id="text_2">
      <!-- 200 -->
      <g transform="translate(240.470748 243.257422) scale(0.165 -0.165)">
       <defs>
        <path id="DejaVuSans-32" d="M 1228 531 
L 3431 531 
L 3431 0 
L 469 0 
L 469 531 
Q 828 903 1448 1529 
Q 2069 2156 2228 2338 
Q 2531 2678 2651 2914 
Q 2772 3150 2772 3378 
Q 2772 3750 2511 3984 
Q 2250 4219 1831 4219 
Q 1534 4219 1204 4116 
Q 875 4013 500 3803 
L 500 4441 
Q 881 4594 1212 4672 
Q 1544 4750 1819 4750 
Q 2544 4750 2975 4387 
Q 3406 4025 3406 3419 
Q 3406 3131 3298 2873 
Q 3191 2616 2906 2266 
Q 2828 2175 2409 1742 
Q 1991 1309 1228 531 
z
" transform="scale(0.015625)"/>
       </defs>
       <use xlink:href="#DejaVuSans-32"/>
       <use xlink:href="#DejaVuSans-30" x="63.623047"/>
       <use xlink:href="#DejaVuSans-30" x="127.246094"/>
      </g>
     </g>
    </g>
    <g id="text_3">
     <!-- PC1 -->
     <g transform="translate(200.5425 264.366094) scale(0.18 -0.18)">
      <defs>
       <path id="DejaVuSans-50" d="M 1259 4147 
L 1259 2394 
L 2053 2394 
Q 2494 2394 2734 2622 
Q 2975 2850 2975 3272 
Q 2975 3691 2734 3919 
Q 2494 4147 2053 4147 
L 1259 4147 
z
M 628 4666 
L 2053 4666 
Q 2838 4666 3239 4311 
Q 3641 3956 3641 3272 
Q 3641 2581 3239 2228 
Q 2838 1875 2053 1875 
L 1259 1875 
L 1259 0 
L 628 0 
L 628 4666 
z
" transform="scale(0.015625)"/>
       <path id="DejaVuSans-43" d="M 4122 4306 
L 4122 3641 
Q 3803 3938 3442 4084 
Q 3081 4231 2675 4231 
Q 1875 4231 1450 3742 
Q 1025 3253 1025 2328 
Q 1025 1406 1450 917 
Q 1875 428 2675 428 
Q 3081 428 3442 575 
Q 3803 722 4122 1019 
L 4122 359 
Q 3791 134 3420 21 
Q 3050 -91 2638 -91 
Q 1578 -91 968 557 
Q 359 1206 359 2328 
Q 359 3453 968 4101 
Q 1578 4750 2638 4750 
Q 3056 4750 3426 4639 
Q 3797 4528 4122 4306 
z
" transform="scale(0.015625)"/>
       <path id="DejaVuSans-31" d="M 794 531 
L 1825 531 
L 1825 4091 
L 703 3866 
L 703 4441 
L 1819 4666 
L 2450 4666 
L 2450 531 
L 3481 531 
L 3481 0 
L 794 0 
L 794 531 
z
" transform="scale(0.015625)"/>
      </defs>
      <use xlink:href="#DejaVuSans-50"/>
      <use xlink:href="#DejaVuSans-43" x="60.302734"/>
      <use xlink:href="#DejaVuSans-31" x="130.126953"/>
     </g>
    </g>
   </g>
   <g id="matplotlib.axis_2">
    <g id="ytick_1">
     <g id="line2d_3">
      <defs>
       <path id="m0643d19a6a" d="M 0 0 
L -6 0 
" style="stroke: #000000; stroke-width: 1.25"/>
      </defs>
      <g>
       <use xlink:href="#m0643d19a6a" x="95.4" y="170.173029" style="stroke: #000000; stroke-width: 1.25"/>
      </g>
     </g>
     <g id="text_4">
      <!-- −100 -->
      <g transform="translate(40.579141 176.44174) scale(0.165 -0.165)">
       <defs>
        <path id="DejaVuSans-2212" d="M 678 2272 
L 4684 2272 
L 4684 1741 
L 678 1741 
L 678 2272 
z
" transform="scale(0.015625)"/>
       </defs>
       <use xlink:href="#DejaVuSans-2212"/>
       <use xlink:href="#DejaVuSans-31" x="83.789062"/>
       <use xlink:href="#DejaVuSans-30" x="147.412109"/>
       <use xlink:href="#DejaVuSans-30" x="211.035156"/>
      </g>
     </g>
    </g>
    <g id="ytick_2">
     <g id="line2d_4">
      <g>
       <use xlink:href="#m0643d19a6a" x="95.4" y="108.174337" style="stroke: #000000; stroke-width: 1.25"/>
      </g>
     </g>
     <g id="text_5">
      <!-- 0 -->
      <g transform="translate(75.401875 114.443048) scale(0.165 -0.165)">
       <use xlink:href="#DejaVuSans-30"/>
      </g>
     </g>
    </g>
    <g id="ytick_3">
     <g id="line2d_5">
      <g>
       <use xlink:href="#m0643d19a6a" x="95.4" y="46.175644" style="stroke: #000000; stroke-width: 1.25"/>
      </g>
     </g>
     <g id="text_6">
      <!-- 100 -->
      <g transform="translate(54.405625 52.444355) scale(0.165 -0.165)">
       <use xlink:href="#DejaVuSans-31"/>
       <use xlink:href="#DejaVuSans-30" x="63.623047"/>
       <use xlink:href="#DejaVuSans-30" x="127.246094"/>
      </g>
     </g>
    </g>
    <g id="text_7">
     <!-- PC2 -->
     <g transform="translate(32.835703 137.7675) rotate(-90) scale(0.18 -0.18)">
      <use xlink:href="#DejaVuSans-50"/>
      <use xlink:href="#DejaVuSans-43" x="60.302734"/>
      <use xlink:href="#DejaVuSans-32" x="130.126953"/>
     </g>
    </g>
   </g>
   <g id="line2d_6">
    <path d="M 126.336807 109.645365 
L 116.370739 112.485688 
L 122.219594 107.820966 
L 119.331093 111.313372 
L 119.862791 114.898948 
L 123.660645 111.838631 
L 121.457518 110.998155 
L 214.236427 200.403881 
L 178.286393 134.263967 
L 137.292951 110.422098 
L 146.631174 108.69468 
L 157.077371 106.254545 
L 161.600417 97.670613 
L 166.489275 116.625109 
L 124.609443 115.086912 
L 107.259549 107.223197 
L 113.323698 109.967667 
L 122.459017 108.839644 
L 120.258215 109.299876 
L 122.068847 109.368693 
L 124.498573 119.182906 
L 126.49034 109.594675 
L 128.006791 108.957269 
L 125.665904 109.552216 
L 120.07522 108.693749 
L 145.486883 125.107582 
L 268.671263 212.048182 
L 209.064783 121.002329 
L 192.127898 101.992358 
L 171.169254 105.797389 
L 159.831587 96.725965 
L 157.133841 99.832276 
L 165.775621 121.619781 
L 120.365225 109.155583 
L 111.929427 104.485258 
L 115.250017 102.502956 
L 119.615651 111.77508 
L 123.473418 111.178289 
L 123.647776 111.360929 
L 119.682376 106.91405 
L 121.075961 108.603173 
L 116.871159 107.677864 
L 114.039912 105.844381 
L 115.497222 109.129385 
" clip-path="url(#p0acf5e8fb5)" style="fill: none; stroke: #000000; stroke-opacity: 0.75; stroke-width: 1.5; stroke-linecap: square"/>
    <defs>
     <path id="m7c46c8b8f6" d="M 0 3 
C 0.795609 3 1.55874 2.683901 2.12132 2.12132 
C 2.683901 1.55874 3 0.795609 3 0 
C 3 -0.795609 2.683901 -1.55874 2.12132 -2.12132 
C 1.55874 -2.683901 0.795609 -3 0 -3 
C -0.795609 -3 -1.55874 -2.683901 -2.12132 -2.12132 
C -2.683901 -1.55874 -3 -0.795609 -3 0 
C -3 0.795609 -2.683901 1.55874 -2.12132 2.12132 
C -1.55874 2.683901 -0.795609 3 0 3 
z
" style="stroke: #000000; stroke-opacity: 0.75"/>
    </defs>
    <g clip-path="url(#p0acf5e8fb5)">
     <use xlink:href="#m7c46c8b8f6" x="126.336807" y="109.645365" style="fill-opacity: 0.75; stroke: #000000; stroke-opacity: 0.75"/>
     <use xlink:href="#m7c46c8b8f6" x="116.370739" y="112.485688" style="fill-opacity: 0.75; stroke: #000000; stroke-opacity: 0.75"/>
     <use xlink:href="#m7c46c8b8f6" x="122.219594" y="107.820966" style="fill-opacity: 0.75; stroke: #000000; stroke-opacity: 0.75"/>
     <use xlink:href="#m7c46c8b8f6" x="119.331093" y="111.313372" style="fill-opacity: 0.75; stroke: #000000; stroke-opacity: 0.75"/>
     <use xlink:href="#m7c46c8b8f6" x="119.862791" y="114.898948" style="fill-opacity: 0.75; stroke: #000000; stroke-opacity: 0.75"/>
     <use xlink:href="#m7c46c8b8f6" x="123.660645" y="111.838631" style="fill-opacity: 0.75; stroke: #000000; stroke-opacity: 0.75"/>
     <use xlink:href="#m7c46c8b8f6" x="121.457518" y="110.998155" style="fill-opacity: 0.75; stroke: #000000; stroke-opacity: 0.75"/>
     <use xlink:href="#m7c46c8b8f6" x="214.236427" y="200.403881" style="fill-opacity: 0.75; stroke: #000000; stroke-opacity: 0.75"/>
     <use xlink:href="#m7c46c8b8f6" x="178.286393" y="134.263967" style="fill-opacity: 0.75; stroke: #000000; stroke-opacity: 0.75"/>
     <use xlink:href="#m7c46c8b8f6" x="137.292951" y="110.422098" style="fill-opacity: 0.75; stroke: #000000; stroke-opacity: 0.75"/>
     <use xlink:href="#m7c46c8b8f6" x="146.631174" y="108.69468" style="fill-opacity: 0.75; stroke: #000000; stroke-opacity: 0.75"/>
     <use xlink:href="#m7c46c8b8f6" x="157.077371" y="106.254545" style="fill-opacity: 0.75; stroke: #000000; stroke-opacity: 0.75"/>
     <use xlink:href="#m7c46c8b8f6" x="161.600417" y="97.670613" style="fill-opacity: 0.75; stroke: #000000; stroke-opacity: 0.75"/>
     <use xlink:href="#m7c46c8b8f6" x="166.489275" y="116.625109" style="fill-opacity: 0.75; stroke: #000000; stroke-opacity: 0.75"/>
     <use xlink:href="#m7c46c8b8f6" x="124.609443" y="115.086912" style="fill-opacity: 0.75; stroke: #000000; stroke-opacity: 0.75"/>
     <use xlink:href="#m7c46c8b8f6" x="107.259549" y="107.223197" style="fill-opacity: 0.75; stroke: #000000; stroke-opacity: 0.75"/>
     <use xlink:href="#m7c46c8b8f6" x="113.323698" y="109.967667" style="fill-opacity: 0.75; stroke: #000000; stroke-opacity: 0.75"/>
     <use xlink:href="#m7c46c8b8f6" x="122.459017" y="108.839644" style="fill-opacity: 0.75; stroke: #000000; stroke-opacity: 0.75"/>
     <use xlink:href="#m7c46c8b8f6" x="120.258215" y="109.299876" style="fill-opacity: 0.75; stroke: #000000; stroke-opacity: 0.75"/>
     <use xlink:href="#m7c46c8b8f6" x="122.068847" y="109.368693" style="fill-opacity: 0.75; stroke: #000000; stroke-opacity: 0.75"/>
     <use xlink:href="#m7c46c8b8f6" x="124.498573" y="119.182906" style="fill-opacity: 0.75; stroke: #000000; stroke-opacity: 0.75"/>
     <use xlink:href="#m7c46c8b8f6" x="126.49034" y="109.594675" style="fill-opacity: 0.75; stroke: #000000; stroke-opacity: 0.75"/>
     <use xlink:href="#m7c46c8b8f6" x="128.006791" y="108.957269" style="fill-opacity: 0.75; stroke: #000000; stroke-opacity: 0.75"/>
     <use xlink:href="#m7c46c8b8f6" x="125.665904" y="109.552216" style="fill-opacity: 0.75; stroke: #000000; stroke-opacity: 0.75"/>
     <use xlink:href="#m7c46c8b8f6" x="120.07522" y="108.693749" style="fill-opacity: 0.75; stroke: #000000; stroke-opacity: 0.75"/>
     <use xlink:href="#m7c46c8b8f6" x="145.486883" y="125.107582" style="fill-opacity: 0.75; stroke: #000000; stroke-opacity: 0.75"/>
     <use xlink:href="#m7c46c8b8f6" x="268.671263" y="212.048182" style="fill-opacity: 0.75; stroke: #000000; stroke-opacity: 0.75"/>
     <use xlink:href="#m7c46c8b8f6" x="209.064783" y="121.002329" style="fill-opacity: 0.75; stroke: #000000; stroke-opacity: 0.75"/>
     <use xlink:href="#m7c46c8b8f6" x="192.127898" y="101.992358" style="fill-opacity: 0.75; stroke: #000000; stroke-opacity: 0.75"/>
     <use xlink:href="#m7c46c8b8f6" x="171.169254" y="105.797389" style="fill-opacity: 0.75; stroke: #000000; stroke-opacity: 0.75"/>
     <use xlink:href="#m7c46c8b8f6" x="159.831587" y="96.725965" style="fill-opacity: 0.75; stroke: #000000; stroke-opacity: 0.75"/>
     <use xlink:href="#m7c46c8b8f6" x="157.133841" y="99.832276" style="fill-opacity: 0.75; stroke: #000000; stroke-opacity: 0.75"/>
     <use xlink:href="#m7c46c8b8f6" x="165.775621" y="121.619781" style="fill-opacity: 0.75; stroke: #000000; stroke-opacity: 0.75"/>
     <use xlink:href="#m7c46c8b8f6" x="120.365225" y="109.155583" style="fill-opacity: 0.75; stroke: #000000; stroke-opacity: 0.75"/>
     <use xlink:href="#m7c46c8b8f6" x="111.929427" y="104.485258" style="fill-opacity: 0.75; stroke: #000000; stroke-opacity: 0.75"/>
     <use xlink:href="#m7c46c8b8f6" x="115.250017" y="102.502956" style="fill-opacity: 0.75; stroke: #000000; stroke-opacity: 0.75"/>
     <use xlink:href="#m7c46c8b8f6" x="119.615651" y="111.77508" style="fill-opacity: 0.75; stroke: #000000; stroke-opacity: 0.75"/>
     <use xlink:href="#m7c46c8b8f6" x="123.473418" y="111.178289" style="fill-opacity: 0.75; stroke: #000000; stroke-opacity: 0.75"/>
     <use xlink:href="#m7c46c8b8f6" x="123.647776" y="111.360929" style="fill-opacity: 0.75; stroke: #000000; stroke-opacity: 0.75"/>
     <use xlink:href="#m7c46c8b8f6" x="119.682376" y="106.91405" style="fill-opacity: 0.75; stroke: #000000; stroke-opacity: 0.75"/>
     <use xlink:href="#m7c46c8b8f6" x="121.075961" y="108.603173" style="fill-opacity: 0.75; stroke: #000000; stroke-opacity: 0.75"/>
     <use xlink:href="#m7c46c8b8f6" x="116.871159" y="107.677864" style="fill-opacity: 0.75; stroke: #000000; stroke-opacity: 0.75"/>
     <use xlink:href="#m7c46c8b8f6" x="114.039912" y="105.844381" style="fill-opacity: 0.75; stroke: #000000; stroke-opacity: 0.75"/>
     <use xlink:href="#m7c46c8b8f6" x="115.497222" y="109.129385" style="fill-opacity: 0.75; stroke: #000000; stroke-opacity: 0.75"/>
    </g>
   </g>
   <g id="line2d_7">
    <path d="M 121.969059 108.559248 
L 120.044492 108.816717 
L 122.872716 110.266339 
L 120.397456 107.425322 
L 121.661411 110.569539 
L 121.310885 110.485855 
L 125.433623 112.619854 
L 219.999491 204.845603 
L 170.990446 128.223989 
L 140.217731 104.883378 
L 148.024049 104.281048 
L 154.075852 108.079955 
L 153.216153 101.338806 
L 163.833888 117.585231 
L 129.474058 113.19551 
L 113.807047 110.800071 
L 120.868121 108.758256 
L 122.53156 110.599772 
L 124.425644 107.844391 
L 123.410306 106.867617 
L 122.97182 111.215128 
L 123.348006 108.431797 
L 123.444192 113.339147 
L 121.395574 112.841586 
L 121.931296 113.093942 
L 141.711831 125.644834 
L 329.416364 159.364658 
L 327.171535 30.948916 
L 240.580389 32.124281 
L 202.700169 47.954055 
L 200.300257 47.371324 
L 192.463079 49.815616 
L 182.176744 113.309455 
L 120.054817 108.925877 
L 109.721083 107.727294 
L 113.966725 105.329922 
L 123.666342 110.270099 
L 122.223012 109.7574 
L 120.426347 109.364594 
L 116.113199 108.558826 
L 113.940173 108.934617 
L 118.558677 109.353389 
L 117.294055 108.396977 
L 109.812186 107.775499 
" clip-path="url(#p0acf5e8fb5)" style="fill: none; stroke: #1e90ff; stroke-opacity: 0.75; stroke-width: 1.5; stroke-linecap: square"/>
    <defs>
     <path id="m4fe9d962fd" d="M 0 3 
C 0.795609 3 1.55874 2.683901 2.12132 2.12132 
C 2.683901 1.55874 3 0.795609 3 0 
C 3 -0.795609 2.683901 -1.55874 2.12132 -2.12132 
C 1.55874 -2.683901 0.795609 -3 0 -3 
C -0.795609 -3 -1.55874 -2.683901 -2.12132 -2.12132 
C -2.683901 -1.55874 -3 -0.795609 -3 0 
C -3 0.795609 -2.683901 1.55874 -2.12132 2.12132 
C -1.55874 2.683901 -0.795609 3 0 3 
z
" style="stroke: #1e90ff; stroke-opacity: 0.75"/>
    </defs>
    <g clip-path="url(#p0acf5e8fb5)">
     <use xlink:href="#m4fe9d962fd" x="121.969059" y="108.559248" style="fill: #1e90ff; fill-opacity: 0.75; stroke: #1e90ff; stroke-opacity: 0.75"/>
     <use xlink:href="#m4fe9d962fd" x="120.044492" y="108.816717" style="fill: #1e90ff; fill-opacity: 0.75; stroke: #1e90ff; stroke-opacity: 0.75"/>
     <use xlink:href="#m4fe9d962fd" x="122.872716" y="110.266339" style="fill: #1e90ff; fill-opacity: 0.75; stroke: #1e90ff; stroke-opacity: 0.75"/>
     <use xlink:href="#m4fe9d962fd" x="120.397456" y="107.425322" style="fill: #1e90ff; fill-opacity: 0.75; stroke: #1e90ff; stroke-opacity: 0.75"/>
     <use xlink:href="#m4fe9d962fd" x="121.661411" y="110.569539" style="fill: #1e90ff; fill-opacity: 0.75; stroke: #1e90ff; stroke-opacity: 0.75"/>
     <use xlink:href="#m4fe9d962fd" x="121.310885" y="110.485855" style="fill: #1e90ff; fill-opacity: 0.75; stroke: #1e90ff; stroke-opacity: 0.75"/>
     <use xlink:href="#m4fe9d962fd" x="125.433623" y="112.619854" style="fill: #1e90ff; fill-opacity: 0.75; stroke: #1e90ff; stroke-opacity: 0.75"/>
     <use xlink:href="#m4fe9d962fd" x="219.999491" y="204.845603" style="fill: #1e90ff; fill-opacity: 0.75; stroke: #1e90ff; stroke-opacity: 0.75"/>
     <use xlink:href="#m4fe9d962fd" x="170.990446" y="128.223989" style="fill: #1e90ff; fill-opacity: 0.75; stroke: #1e90ff; stroke-opacity: 0.75"/>
     <use xlink:href="#m4fe9d962fd" x="140.217731" y="104.883378" style="fill: #1e90ff; fill-opacity: 0.75; stroke: #1e90ff; stroke-opacity: 0.75"/>
     <use xlink:href="#m4fe9d962fd" x="148.024049" y="104.281048" style="fill: #1e90ff; fill-opacity: 0.75; stroke: #1e90ff; stroke-opacity: 0.75"/>
     <use xlink:href="#m4fe9d962fd" x="154.075852" y="108.079955" style="fill: #1e90ff; fill-opacity: 0.75; stroke: #1e90ff; stroke-opacity: 0.75"/>
     <use xlink:href="#m4fe9d962fd" x="153.216153" y="101.338806" style="fill: #1e90ff; fill-opacity: 0.75; stroke: #1e90ff; stroke-opacity: 0.75"/>
     <use xlink:href="#m4fe9d962fd" x="163.833888" y="117.585231" style="fill: #1e90ff; fill-opacity: 0.75; stroke: #1e90ff; stroke-opacity: 0.75"/>
     <use xlink:href="#m4fe9d962fd" x="129.474058" y="113.19551" style="fill: #1e90ff; fill-opacity: 0.75; stroke: #1e90ff; stroke-opacity: 0.75"/>
     <use xlink:href="#m4fe9d962fd" x="113.807047" y="110.800071" style="fill: #1e90ff; fill-opacity: 0.75; stroke: #1e90ff; stroke-opacity: 0.75"/>
     <use xlink:href="#m4fe9d962fd" x="120.868121" y="108.758256" style="fill: #1e90ff; fill-opacity: 0.75; stroke: #1e90ff; stroke-opacity: 0.75"/>
     <use xlink:href="#m4fe9d962fd" x="122.53156" y="110.599772" style="fill: #1e90ff; fill-opacity: 0.75; stroke: #1e90ff; stroke-opacity: 0.75"/>
     <use xlink:href="#m4fe9d962fd" x="124.425644" y="107.844391" style="fill: #1e90ff; fill-opacity: 0.75; stroke: #1e90ff; stroke-opacity: 0.75"/>
     <use xlink:href="#m4fe9d962fd" x="123.410306" y="106.867617" style="fill: #1e90ff; fill-opacity: 0.75; stroke: #1e90ff; stroke-opacity: 0.75"/>
     <use xlink:href="#m4fe9d962fd" x="122.97182" y="111.215128" style="fill: #1e90ff; fill-opacity: 0.75; stroke: #1e90ff; stroke-opacity: 0.75"/>
     <use xlink:href="#m4fe9d962fd" x="123.348006" y="108.431797" style="fill: #1e90ff; fill-opacity: 0.75; stroke: #1e90ff; stroke-opacity: 0.75"/>
     <use xlink:href="#m4fe9d962fd" x="123.444192" y="113.339147" style="fill: #1e90ff; fill-opacity: 0.75; stroke: #1e90ff; stroke-opacity: 0.75"/>
     <use xlink:href="#m4fe9d962fd" x="121.395574" y="112.841586" style="fill: #1e90ff; fill-opacity: 0.75; stroke: #1e90ff; stroke-opacity: 0.75"/>
     <use xlink:href="#m4fe9d962fd" x="121.931296" y="113.093942" style="fill: #1e90ff; fill-opacity: 0.75; stroke: #1e90ff; stroke-opacity: 0.75"/>
     <use xlink:href="#m4fe9d962fd" x="141.711831" y="125.644834" style="fill: #1e90ff; fill-opacity: 0.75; stroke: #1e90ff; stroke-opacity: 0.75"/>
     <use xlink:href="#m4fe9d962fd" x="329.416364" y="159.364658" style="fill: #1e90ff; fill-opacity: 0.75; stroke: #1e90ff; stroke-opacity: 0.75"/>
     <use xlink:href="#m4fe9d962fd" x="327.171535" y="30.948916" style="fill: #1e90ff; fill-opacity: 0.75; stroke: #1e90ff; stroke-opacity: 0.75"/>
     <use xlink:href="#m4fe9d962fd" x="240.580389" y="32.124281" style="fill: #1e90ff; fill-opacity: 0.75; stroke: #1e90ff; stroke-opacity: 0.75"/>
     <use xlink:href="#m4fe9d962fd" x="202.700169" y="47.954055" style="fill: #1e90ff; fill-opacity: 0.75; stroke: #1e90ff; stroke-opacity: 0.75"/>
     <use xlink:href="#m4fe9d962fd" x="200.300257" y="47.371324" style="fill: #1e90ff; fill-opacity: 0.75; stroke: #1e90ff; stroke-opacity: 0.75"/>
     <use xlink:href="#m4fe9d962fd" x="192.463079" y="49.815616" style="fill: #1e90ff; fill-opacity: 0.75; stroke: #1e90ff; stroke-opacity: 0.75"/>
     <use xlink:href="#m4fe9d962fd" x="182.176744" y="113.309455" style="fill: #1e90ff; fill-opacity: 0.75; stroke: #1e90ff; stroke-opacity: 0.75"/>
     <use xlink:href="#m4fe9d962fd" x="120.054817" y="108.925877" style="fill: #1e90ff; fill-opacity: 0.75; stroke: #1e90ff; stroke-opacity: 0.75"/>
     <use xlink:href="#m4fe9d962fd" x="109.721083" y="107.727294" style="fill: #1e90ff; fill-opacity: 0.75; stroke: #1e90ff; stroke-opacity: 0.75"/>
     <use xlink:href="#m4fe9d962fd" x="113.966725" y="105.329922" style="fill: #1e90ff; fill-opacity: 0.75; stroke: #1e90ff; stroke-opacity: 0.75"/>
     <use xlink:href="#m4fe9d962fd" x="123.666342" y="110.270099" style="fill: #1e90ff; fill-opacity: 0.75; stroke: #1e90ff; stroke-opacity: 0.75"/>
     <use xlink:href="#m4fe9d962fd" x="122.223012" y="109.7574" style="fill: #1e90ff; fill-opacity: 0.75; stroke: #1e90ff; stroke-opacity: 0.75"/>
     <use xlink:href="#m4fe9d962fd" x="120.426347" y="109.364594" style="fill: #1e90ff; fill-opacity: 0.75; stroke: #1e90ff; stroke-opacity: 0.75"/>
     <use xlink:href="#m4fe9d962fd" x="116.113199" y="108.558826" style="fill: #1e90ff; fill-opacity: 0.75; stroke: #1e90ff; stroke-opacity: 0.75"/>
     <use xlink:href="#m4fe9d962fd" x="113.940173" y="108.934617" style="fill: #1e90ff; fill-opacity: 0.75; stroke: #1e90ff; stroke-opacity: 0.75"/>
     <use xlink:href="#m4fe9d962fd" x="118.558677" y="109.353389" style="fill: #1e90ff; fill-opacity: 0.75; stroke: #1e90ff; stroke-opacity: 0.75"/>
     <use xlink:href="#m4fe9d962fd" x="117.294055" y="108.396977" style="fill: #1e90ff; fill-opacity: 0.75; stroke: #1e90ff; stroke-opacity: 0.75"/>
     <use xlink:href="#m4fe9d962fd" x="109.812186" y="107.775499" style="fill: #1e90ff; fill-opacity: 0.75; stroke: #1e90ff; stroke-opacity: 0.75"/>
    </g>
   </g>
   <g id="line2d_8">
    <path d="M 126.267489 111.725128 
L 120.859129 110.481618 
L 120.675821 111.200971 
L 119.684344 111.90946 
L 121.353178 112.06233 
L 121.283511 112.260996 
L 121.693964 111.963334 
L 240.036524 184.085591 
L 229.030799 79.920261 
L 175.744535 70.091467 
L 155.691961 78.52235 
L 168.320858 78.654253 
L 168.492837 74.603187 
L 181.084067 117.053565 
L 136.104933 120.126004 
L 116.027062 106.244888 
L 125.731353 101.834975 
L 123.958669 104.024931 
L 121.61422 105.903731 
L 122.221786 108.315192 
L 119.257561 110.489874 
L 119.012202 114.307941 
L 120.347381 113.928829 
L 119.518178 112.659746 
L 118.975457 110.767335 
L 141.29502 129.858796 
L 270.396053 210.289337 
L 206.083696 118.657339 
L 175.30319 96.84025 
L 165.072105 101.127855 
L 166.853757 98.439387 
L 161.18114 100.736784 
L 161.086452 116.627766 
L 116.197932 108.389168 
L 106.543636 109.667342 
L 112.222821 110.53019 
L 118.972966 111.085565 
L 120.237643 111.815478 
L 118.358832 110.139184 
L 118.417778 110.015438 
L 119.324974 108.980088 
L 120.237735 109.202421 
L 118.93195 108.069324 
L 112.518409 107.233516 
" clip-path="url(#p0acf5e8fb5)" style="fill: none; stroke: #808080; stroke-opacity: 0.75; stroke-width: 1.5; stroke-linecap: square"/>
    <defs>
     <path id="m2041812a9b" d="M 0 3 
C 0.795609 3 1.55874 2.683901 2.12132 2.12132 
C 2.683901 1.55874 3 0.795609 3 0 
C 3 -0.795609 2.683901 -1.55874 2.12132 -2.12132 
C 1.55874 -2.683901 0.795609 -3 0 -3 
C -0.795609 -3 -1.55874 -2.683901 -2.12132 -2.12132 
C -2.683901 -1.55874 -3 -0.795609 -3 0 
C -3 0.795609 -2.683901 1.55874 -2.12132 2.12132 
C -1.55874 2.683901 -0.795609 3 0 3 
z
" style="stroke: #808080; stroke-opacity: 0.75"/>
    </defs>
    <g clip-path="url(#p0acf5e8fb5)">
     <use xlink:href="#m2041812a9b" x="126.267489" y="111.725128" style="fill: #808080; fill-opacity: 0.75; stroke: #808080; stroke-opacity: 0.75"/>
     <use xlink:href="#m2041812a9b" x="120.859129" y="110.481618" style="fill: #808080; fill-opacity: 0.75; stroke: #808080; stroke-opacity: 0.75"/>
     <use xlink:href="#m2041812a9b" x="120.675821" y="111.200971" style="fill: #808080; fill-opacity: 0.75; stroke: #808080; stroke-opacity: 0.75"/>
     <use xlink:href="#m2041812a9b" x="119.684344" y="111.90946" style="fill: #808080; fill-opacity: 0.75; stroke: #808080; stroke-opacity: 0.75"/>
     <use xlink:href="#m2041812a9b" x="121.353178" y="112.06233" style="fill: #808080; fill-opacity: 0.75; stroke: #808080; stroke-opacity: 0.75"/>
     <use xlink:href="#m2041812a9b" x="121.283511" y="112.260996" style="fill: #808080; fill-opacity: 0.75; stroke: #808080; stroke-opacity: 0.75"/>
     <use xlink:href="#m2041812a9b" x="121.693964" y="111.963334" style="fill: #808080; fill-opacity: 0.75; stroke: #808080; stroke-opacity: 0.75"/>
     <use xlink:href="#m2041812a9b" x="240.036524" y="184.085591" style="fill: #808080; fill-opacity: 0.75; stroke: #808080; stroke-opacity: 0.75"/>
     <use xlink:href="#m2041812a9b" x="229.030799" y="79.920261" style="fill: #808080; fill-opacity: 0.75; stroke: #808080; stroke-opacity: 0.75"/>
     <use xlink:href="#m2041812a9b" x="175.744535" y="70.091467" style="fill: #808080; fill-opacity: 0.75; stroke: #808080; stroke-opacity: 0.75"/>
     <use xlink:href="#m2041812a9b" x="155.691961" y="78.52235" style="fill: #808080; fill-opacity: 0.75; stroke: #808080; stroke-opacity: 0.75"/>
     <use xlink:href="#m2041812a9b" x="168.320858" y="78.654253" style="fill: #808080; fill-opacity: 0.75; stroke: #808080; stroke-opacity: 0.75"/>
     <use xlink:href="#m2041812a9b" x="168.492837" y="74.603187" style="fill: #808080; fill-opacity: 0.75; stroke: #808080; stroke-opacity: 0.75"/>
     <use xlink:href="#m2041812a9b" x="181.084067" y="117.053565" style="fill: #808080; fill-opacity: 0.75; stroke: #808080; stroke-opacity: 0.75"/>
     <use xlink:href="#m2041812a9b" x="136.104933" y="120.126004" style="fill: #808080; fill-opacity: 0.75; stroke: #808080; stroke-opacity: 0.75"/>
     <use xlink:href="#m2041812a9b" x="116.027062" y="106.244888" style="fill: #808080; fill-opacity: 0.75; stroke: #808080; stroke-opacity: 0.75"/>
     <use xlink:href="#m2041812a9b" x="125.731353" y="101.834975" style="fill: #808080; fill-opacity: 0.75; stroke: #808080; stroke-opacity: 0.75"/>
     <use xlink:href="#m2041812a9b" x="123.958669" y="104.024931" style="fill: #808080; fill-opacity: 0.75; stroke: #808080; stroke-opacity: 0.75"/>
     <use xlink:href="#m2041812a9b" x="121.61422" y="105.903731" style="fill: #808080; fill-opacity: 0.75; stroke: #808080; stroke-opacity: 0.75"/>
     <use xlink:href="#m2041812a9b" x="122.221786" y="108.315192" style="fill: #808080; fill-opacity: 0.75; stroke: #808080; stroke-opacity: 0.75"/>
     <use xlink:href="#m2041812a9b" x="119.257561" y="110.489874" style="fill: #808080; fill-opacity: 0.75; stroke: #808080; stroke-opacity: 0.75"/>
     <use xlink:href="#m2041812a9b" x="119.012202" y="114.307941" style="fill: #808080; fill-opacity: 0.75; stroke: #808080; stroke-opacity: 0.75"/>
     <use xlink:href="#m2041812a9b" x="120.347381" y="113.928829" style="fill: #808080; fill-opacity: 0.75; stroke: #808080; stroke-opacity: 0.75"/>
     <use xlink:href="#m2041812a9b" x="119.518178" y="112.659746" style="fill: #808080; fill-opacity: 0.75; stroke: #808080; stroke-opacity: 0.75"/>
     <use xlink:href="#m2041812a9b" x="118.975457" y="110.767335" style="fill: #808080; fill-opacity: 0.75; stroke: #808080; stroke-opacity: 0.75"/>
     <use xlink:href="#m2041812a9b" x="141.29502" y="129.858796" style="fill: #808080; fill-opacity: 0.75; stroke: #808080; stroke-opacity: 0.75"/>
     <use xlink:href="#m2041812a9b" x="270.396053" y="210.289337" style="fill: #808080; fill-opacity: 0.75; stroke: #808080; stroke-opacity: 0.75"/>
     <use xlink:href="#m2041812a9b" x="206.083696" y="118.657339" style="fill: #808080; fill-opacity: 0.75; stroke: #808080; stroke-opacity: 0.75"/>
     <use xlink:href="#m2041812a9b" x="175.30319" y="96.84025" style="fill: #808080; fill-opacity: 0.75; stroke: #808080; stroke-opacity: 0.75"/>
     <use xlink:href="#m2041812a9b" x="165.072105" y="101.127855" style="fill: #808080; fill-opacity: 0.75; stroke: #808080; stroke-opacity: 0.75"/>
     <use xlink:href="#m2041812a9b" x="166.853757" y="98.439387" style="fill: #808080; fill-opacity: 0.75; stroke: #808080; stroke-opacity: 0.75"/>
     <use xlink:href="#m2041812a9b" x="161.18114" y="100.736784" style="fill: #808080; fill-opacity: 0.75; stroke: #808080; stroke-opacity: 0.75"/>
     <use xlink:href="#m2041812a9b" x="161.086452" y="116.627766" style="fill: #808080; fill-opacity: 0.75; stroke: #808080; stroke-opacity: 0.75"/>
     <use xlink:href="#m2041812a9b" x="116.197932" y="108.389168" style="fill: #808080; fill-opacity: 0.75; stroke: #808080; stroke-opacity: 0.75"/>
     <use xlink:href="#m2041812a9b" x="106.543636" y="109.667342" style="fill: #808080; fill-opacity: 0.75; stroke: #808080; stroke-opacity: 0.75"/>
     <use xlink:href="#m2041812a9b" x="112.222821" y="110.53019" style="fill: #808080; fill-opacity: 0.75; stroke: #808080; stroke-opacity: 0.75"/>
     <use xlink:href="#m2041812a9b" x="118.972966" y="111.085565" style="fill: #808080; fill-opacity: 0.75; stroke: #808080; stroke-opacity: 0.75"/>
     <use xlink:href="#m2041812a9b" x="120.237643" y="111.815478" style="fill: #808080; fill-opacity: 0.75; stroke: #808080; stroke-opacity: 0.75"/>
     <use xlink:href="#m2041812a9b" x="118.358832" y="110.139184" style="fill: #808080; fill-opacity: 0.75; stroke: #808080; stroke-opacity: 0.75"/>
     <use xlink:href="#m2041812a9b" x="118.417778" y="110.015438" style="fill: #808080; fill-opacity: 0.75; stroke: #808080; stroke-opacity: 0.75"/>
     <use xlink:href="#m2041812a9b" x="119.324974" y="108.980088" style="fill: #808080; fill-opacity: 0.75; stroke: #808080; stroke-opacity: 0.75"/>
     <use xlink:href="#m2041812a9b" x="120.237735" y="109.202421" style="fill: #808080; fill-opacity: 0.75; stroke: #808080; stroke-opacity: 0.75"/>
     <use xlink:href="#m2041812a9b" x="118.93195" y="108.069324" style="fill: #808080; fill-opacity: 0.75; stroke: #808080; stroke-opacity: 0.75"/>
     <use xlink:href="#m2041812a9b" x="112.518409" y="107.233516" style="fill: #808080; fill-opacity: 0.75; stroke: #808080; stroke-opacity: 0.75"/>
    </g>
   </g>
   <g id="line2d_9">
    <path d="M 122.893659 107.430557 
L 121.286465 110.149037 
L 119.908968 110.708701 
L 119.929255 112.109038 
L 119.582066 111.566226 
L 118.96109 111.988807 
L 119.550015 112.532345 
L 239.271133 181.113972 
L 230.919492 82.056139 
L 172.427973 74.527716 
L 154.350757 79.090077 
L 168.125373 76.683013 
L 171.867382 72.522603 
L 179.834638 114.59806 
L 135.389232 119.435135 
L 117.50983 108.550483 
L 125.213663 106.018446 
L 125.510064 105.772462 
L 123.14845 109.27308 
L 122.295607 108.261354 
L 120.221279 111.070609 
L 120.945011 111.001201 
L 120.603915 111.407245 
L 119.760939 111.815078 
L 120.260528 113.464712 
L 139.248393 124.715211 
L 326.781275 157.388368 
L 318.564434 28.611818 
L 238.218108 33.705091 
L 199.307298 51.040681 
L 195.741882 55.881873 
L 188.151383 55.171809 
L 181.212762 116.207842 
L 119.907095 109.491753 
L 108.899858 107.692436 
L 115.393473 105.418252 
L 121.779221 110.206501 
L 122.647279 109.79167 
L 118.206066 111.256448 
L 114.801304 108.033053 
L 115.510213 108.907903 
L 117.312196 108.385434 
L 115.970184 106.931702 
L 110.267864 108.104766 
" clip-path="url(#p0acf5e8fb5)" style="fill: none; stroke: #ff00ff; stroke-opacity: 0.75; stroke-width: 1.5; stroke-linecap: square"/>
    <defs>
     <path id="m487f3894e0" d="M 0 3 
C 0.795609 3 1.55874 2.683901 2.12132 2.12132 
C 2.683901 1.55874 3 0.795609 3 0 
C 3 -0.795609 2.683901 -1.55874 2.12132 -2.12132 
C 1.55874 -2.683901 0.795609 -3 0 -3 
C -0.795609 -3 -1.55874 -2.683901 -2.12132 -2.12132 
C -2.683901 -1.55874 -3 -0.795609 -3 0 
C -3 0.795609 -2.683901 1.55874 -2.12132 2.12132 
C -1.55874 2.683901 -0.795609 3 0 3 
z
" style="stroke: #ff00ff; stroke-opacity: 0.75"/>
    </defs>
    <g clip-path="url(#p0acf5e8fb5)">
     <use xlink:href="#m487f3894e0" x="122.893659" y="107.430557" style="fill: #ff00ff; fill-opacity: 0.75; stroke: #ff00ff; stroke-opacity: 0.75"/>
     <use xlink:href="#m487f3894e0" x="121.286465" y="110.149037" style="fill: #ff00ff; fill-opacity: 0.75; stroke: #ff00ff; stroke-opacity: 0.75"/>
     <use xlink:href="#m487f3894e0" x="119.908968" y="110.708701" style="fill: #ff00ff; fill-opacity: 0.75; stroke: #ff00ff; stroke-opacity: 0.75"/>
     <use xlink:href="#m487f3894e0" x="119.929255" y="112.109038" style="fill: #ff00ff; fill-opacity: 0.75; stroke: #ff00ff; stroke-opacity: 0.75"/>
     <use xlink:href="#m487f3894e0" x="119.582066" y="111.566226" style="fill: #ff00ff; fill-opacity: 0.75; stroke: #ff00ff; stroke-opacity: 0.75"/>
     <use xlink:href="#m487f3894e0" x="118.96109" y="111.988807" style="fill: #ff00ff; fill-opacity: 0.75; stroke: #ff00ff; stroke-opacity: 0.75"/>
     <use xlink:href="#m487f3894e0" x="119.550015" y="112.532345" style="fill: #ff00ff; fill-opacity: 0.75; stroke: #ff00ff; stroke-opacity: 0.75"/>
     <use xlink:href="#m487f3894e0" x="239.271133" y="181.113972" style="fill: #ff00ff; fill-opacity: 0.75; stroke: #ff00ff; stroke-opacity: 0.75"/>
     <use xlink:href="#m487f3894e0" x="230.919492" y="82.056139" style="fill: #ff00ff; fill-opacity: 0.75; stroke: #ff00ff; stroke-opacity: 0.75"/>
     <use xlink:href="#m487f3894e0" x="172.427973" y="74.527716" style="fill: #ff00ff; fill-opacity: 0.75; stroke: #ff00ff; stroke-opacity: 0.75"/>
     <use xlink:href="#m487f3894e0" x="154.350757" y="79.090077" style="fill: #ff00ff; fill-opacity: 0.75; stroke: #ff00ff; stroke-opacity: 0.75"/>
     <use xlink:href="#m487f3894e0" x="168.125373" y="76.683013" style="fill: #ff00ff; fill-opacity: 0.75; stroke: #ff00ff; stroke-opacity: 0.75"/>
     <use xlink:href="#m487f3894e0" x="171.867382" y="72.522603" style="fill: #ff00ff; fill-opacity: 0.75; stroke: #ff00ff; stroke-opacity: 0.75"/>
     <use xlink:href="#m487f3894e0" x="179.834638" y="114.59806" style="fill: #ff00ff; fill-opacity: 0.75; stroke: #ff00ff; stroke-opacity: 0.75"/>
     <use xlink:href="#m487f3894e0" x="135.389232" y="119.435135" style="fill: #ff00ff; fill-opacity: 0.75; stroke: #ff00ff; stroke-opacity: 0.75"/>
     <use xlink:href="#m487f3894e0" x="117.50983" y="108.550483" style="fill: #ff00ff; fill-opacity: 0.75; stroke: #ff00ff; stroke-opacity: 0.75"/>
     <use xlink:href="#m487f3894e0" x="125.213663" y="106.018446" style="fill: #ff00ff; fill-opacity: 0.75; stroke: #ff00ff; stroke-opacity: 0.75"/>
     <use xlink:href="#m487f3894e0" x="125.510064" y="105.772462" style="fill: #ff00ff; fill-opacity: 0.75; stroke: #ff00ff; stroke-opacity: 0.75"/>
     <use xlink:href="#m487f3894e0" x="123.14845" y="109.27308" style="fill: #ff00ff; fill-opacity: 0.75; stroke: #ff00ff; stroke-opacity: 0.75"/>
     <use xlink:href="#m487f3894e0" x="122.295607" y="108.261354" style="fill: #ff00ff; fill-opacity: 0.75; stroke: #ff00ff; stroke-opacity: 0.75"/>
     <use xlink:href="#m487f3894e0" x="120.221279" y="111.070609" style="fill: #ff00ff; fill-opacity: 0.75; stroke: #ff00ff; stroke-opacity: 0.75"/>
     <use xlink:href="#m487f3894e0" x="120.945011" y="111.001201" style="fill: #ff00ff; fill-opacity: 0.75; stroke: #ff00ff; stroke-opacity: 0.75"/>
     <use xlink:href="#m487f3894e0" x="120.603915" y="111.407245" style="fill: #ff00ff; fill-opacity: 0.75; stroke: #ff00ff; stroke-opacity: 0.75"/>
     <use xlink:href="#m487f3894e0" x="119.760939" y="111.815078" style="fill: #ff00ff; fill-opacity: 0.75; stroke: #ff00ff; stroke-opacity: 0.75"/>
     <use xlink:href="#m487f3894e0" x="120.260528" y="113.464712" style="fill: #ff00ff; fill-opacity: 0.75; stroke: #ff00ff; stroke-opacity: 0.75"/>
     <use xlink:href="#m487f3894e0" x="139.248393" y="124.715211" style="fill: #ff00ff; fill-opacity: 0.75; stroke: #ff00ff; stroke-opacity: 0.75"/>
     <use xlink:href="#m487f3894e0" x="326.781275" y="157.388368" style="fill: #ff00ff; fill-opacity: 0.75; stroke: #ff00ff; stroke-opacity: 0.75"/>
     <use xlink:href="#m487f3894e0" x="318.564434" y="28.611818" style="fill: #ff00ff; fill-opacity: 0.75; stroke: #ff00ff; stroke-opacity: 0.75"/>
     <use xlink:href="#m487f3894e0" x="238.218108" y="33.705091" style="fill: #ff00ff; fill-opacity: 0.75; stroke: #ff00ff; stroke-opacity: 0.75"/>
     <use xlink:href="#m487f3894e0" x="199.307298" y="51.040681" style="fill: #ff00ff; fill-opacity: 0.75; stroke: #ff00ff; stroke-opacity: 0.75"/>
     <use xlink:href="#m487f3894e0" x="195.741882" y="55.881873" style="fill: #ff00ff; fill-opacity: 0.75; stroke: #ff00ff; stroke-opacity: 0.75"/>
     <use xlink:href="#m487f3894e0" x="188.151383" y="55.171809" style="fill: #ff00ff; fill-opacity: 0.75; stroke: #ff00ff; stroke-opacity: 0.75"/>
     <use xlink:href="#m487f3894e0" x="181.212762" y="116.207842" style="fill: #ff00ff; fill-opacity: 0.75; stroke: #ff00ff; stroke-opacity: 0.75"/>
     <use xlink:href="#m487f3894e0" x="119.907095" y="109.491753" style="fill: #ff00ff; fill-opacity: 0.75; stroke: #ff00ff; stroke-opacity: 0.75"/>
     <use xlink:href="#m487f3894e0" x="108.899858" y="107.692436" style="fill: #ff00ff; fill-opacity: 0.75; stroke: #ff00ff; stroke-opacity: 0.75"/>
     <use xlink:href="#m487f3894e0" x="115.393473" y="105.418252" style="fill: #ff00ff; fill-opacity: 0.75; stroke: #ff00ff; stroke-opacity: 0.75"/>
     <use xlink:href="#m487f3894e0" x="121.779221" y="110.206501" style="fill: #ff00ff; fill-opacity: 0.75; stroke: #ff00ff; stroke-opacity: 0.75"/>
     <use xlink:href="#m487f3894e0" x="122.647279" y="109.79167" style="fill: #ff00ff; fill-opacity: 0.75; stroke: #ff00ff; stroke-opacity: 0.75"/>
     <use xlink:href="#m487f3894e0" x="118.206066" y="111.256448" style="fill: #ff00ff; fill-opacity: 0.75; stroke: #ff00ff; stroke-opacity: 0.75"/>
     <use xlink:href="#m487f3894e0" x="114.801304" y="108.033053" style="fill: #ff00ff; fill-opacity: 0.75; stroke: #ff00ff; stroke-opacity: 0.75"/>
     <use xlink:href="#m487f3894e0" x="115.510213" y="108.907903" style="fill: #ff00ff; fill-opacity: 0.75; stroke: #ff00ff; stroke-opacity: 0.75"/>
     <use xlink:href="#m487f3894e0" x="117.312196" y="108.385434" style="fill: #ff00ff; fill-opacity: 0.75; stroke: #ff00ff; stroke-opacity: 0.75"/>
     <use xlink:href="#m487f3894e0" x="115.970184" y="106.931702" style="fill: #ff00ff; fill-opacity: 0.75; stroke: #ff00ff; stroke-opacity: 0.75"/>
     <use xlink:href="#m487f3894e0" x="110.267864" y="108.104766" style="fill: #ff00ff; fill-opacity: 0.75; stroke: #ff00ff; stroke-opacity: 0.75"/>
    </g>
   </g>
   <g id="patch_3">
    <path d="M 95.4 221.22 
L 95.4 19.44 
" style="fill: none; stroke: #000000; stroke-width: 1.25; stroke-linejoin: miter; stroke-linecap: square"/>
   </g>
   <g id="patch_4">
    <path d="M 95.4 221.22 
L 340.56 221.22 
" style="fill: none; stroke: #000000; stroke-width: 1.25; stroke-linejoin: miter; stroke-linecap: square"/>
   </g>
  </g>
 </g>
 <defs>
  <clipPath id="p0acf5e8fb5">
   <rect x="95.4" y="19.44" width="245.16" height="201.78"/>
  </clipPath>
 </defs>
</svg>
